<svg width="246" height="148" fill="none" xmlns="http://www.w3.org/2000/svg"><g clip-path="url(#a)"><path d="m59.584 133.404.273-5.961a20.362 20.362 0 0 1 9.265-2.273c-4.45 3.526-3.894 10.323-6.91 15.065a11.767 11.767 0 0 1-3.752 3.644 12.192 12.192 0 0 1-5.01 1.708l-3.724 2.21a18.825 18.825 0 0 1 .33-8.311 19.193 19.193 0 0 1 3.89-7.414 19.09 19.09 0 0 1 3.554-3.201c.892 2.279 2.084 4.533 2.084 4.533Z" fill="#F2F2F2"/><path d="M218.476 9.713H45.125a.283.283 0 0 1-.193-.081.266.266 0 0 1 0-.378c.05-.05.12-.08.193-.08h173.351c.073 0 .142.03.193.08a.265.265 0 0 1 0 .378.283.283 0 0 1-.193.08Z" fill="#CACACA"/><path d="M51.253 5.936c1.654 0 2.995-1.33 2.995-2.968 0-1.64-1.34-2.968-2.995-2.968-1.654 0-2.995 1.329-2.995 2.968s1.341 2.968 2.995 2.968Zm10.347 0c1.654 0 2.995-1.33 2.995-2.968C64.596 1.328 63.255 0 61.6 0c-1.654 0-2.995 1.329-2.995 2.968s1.341 2.968 2.995 2.968Zm10.347 0c1.654 0 2.995-1.33 2.995-2.968 0-1.64-1.34-2.968-2.995-2.968-1.654 0-2.995 1.329-2.995 2.968s1.341 2.968 2.995 2.968Zm140.329-5.2h-7.35a.566.566 0 0 0-.387.161.53.53 0 0 0 0 .756c.102.1.241.159.387.161h7.35a.565.565 0 0 0 .386-.161.53.53 0 0 0 0-.756.565.565 0 0 0-.386-.161Zm0 2.024h-7.35a.566.566 0 0 0-.387.162.53.53 0 0 0 0 .755c.102.101.241.16.387.162h7.35a.565.565 0 0 0 .386-.162.53.53 0 0 0 0-.755.565.565 0 0 0-.386-.162Zm0 2.023h-7.35a.566.566 0 0 0-.387.161.53.53 0 0 0 0 .756c.102.1.241.159.387.161h7.35a.565.565 0 0 0 .386-.161.531.531 0 0 0 0-.756.565.565 0 0 0-.386-.161Zm-32.238 26.078H61.054a2.25 2.25 0 0 0-1.563.627 2.111 2.111 0 0 0-.65 1.515V87.44c.001.569.235 1.114.65 1.516a2.25 2.25 0 0 0 1.563.629h118.984a2.25 2.25 0 0 0 1.562-.63c.414-.402.647-.947.648-1.515V33.003a2.114 2.114 0 0 0-.648-1.514 2.248 2.248 0 0 0-1.562-.628Z" fill="#3F3D56"/><path d="M148.61 57.088c-.586 0-1.148.226-1.562.628a2.106 2.106 0 0 0-.648 1.514v15.377c0 .568.233 1.113.647 1.515.415.402.976.628 1.563.63h33.638V57.087H148.61Z" fill="#6C63FF"/><path opacity=".5" d="M238.809 76.75h-90.198a2.248 2.248 0 0 1-1.563-.628 2.113 2.113 0 0 1-.649-1.515V59.23a2.113 2.113 0 0 1 .649-1.515 2.248 2.248 0 0 1 1.563-.628h90.198c.586 0 1.148.226 1.563.628.414.402.648.947.648 1.515v15.377c0 .568-.234 1.113-.648 1.515a2.252 2.252 0 0 1-1.563.628Z" fill="#486BC9"/><path d="M160.809 71.38c1.981 0 3.588-1.558 3.588-3.478 0-1.921-1.607-3.479-3.588-3.479-1.982 0-3.589 1.558-3.589 3.478 0 1.921 1.607 3.479 3.589 3.479Zm75.205-4.49h-64.84c-.284 0-.555-.108-.756-.302a1.021 1.021 0 0 1-.313-.733c0-.275.113-.538.313-.732.201-.194.472-.303.756-.303h64.84c.284 0 .555.109.756.303.2.194.313.457.313.732 0 .275-.113.538-.313.733a1.087 1.087 0 0 1-.756.303Zm-24.627 4.094h-40.213c-.284 0-.555-.11-.756-.304a1.021 1.021 0 0 1-.313-.732c0-.275.113-.538.313-.733.201-.194.472-.303.756-.303h40.213c.284 0 .555.11.756.303.2.195.313.458.313.733 0 .274-.113.538-.313.732a1.087 1.087 0 0 1-.756.303Z" fill="#fff"/><path d="m41.508 144.961 3.106-.001 1.477-11.61h-4.584l.001 11.611Z" fill="#FFB6B6"/><path d="M40.716 143.978h.874l3.413-1.345 1.829 1.345c1.034 0 2.025.398 2.756 1.106a3.718 3.718 0 0 1 1.142 2.671v.123H40.716v-3.9Z" fill="#2F2E41"/><path d="m13.447 141.047 2.78 1.343 6.666-9.752-4.102-1.982-5.344 10.391Z" fill="#FFB6B6"/><path d="m13.19 139.825.783.378 3.673.272 1.018 1.994a3.817 3.817 0 0 1 1.958 2.182c.328.95.253 1.988-.208 2.884l-.056.11-8.962-4.329 1.795-3.491ZM42.884 92.23l-19.746.5.343 9.32s-.343 2.496.344 3.162c.687.666 1.03.666.687 1.831-.344 1.165-1.232 12.296-1.232 12.296s-8.104 13.889-7.76 14.222c.343.332.686 0 .343.832s-.687.499-.343.832c.304.318.59.651.858.998h5.597s.313-1.664.313-1.83c0-.167.343-1.165.343-1.332 0-.166 9.779-10.208 9.779-10.208l2.06-16.643 4.98 16.31s0 14.313.343 14.645c.344.333.344.167.172.833-.172.665-.859.499-.343.998.515.499.686-.333.515.499l-.172.833 6.597.071s.687-1.403.343-1.902c-.343-.499-.323-.363.096-1.18.42-.817.59-.984.42-1.15-.172-.167-.172-1.052-.172-1.052s-2.476-32.732-2.476-33.232a1.615 1.615 0 0 1 .142-.748v-.678l-.657-2.401-1.374-5.825Z" fill="#2F2E41"/><path d="M238.423 63.334a7.752 7.752 0 0 1-4.21-1.238 7.394 7.394 0 0 1-2.79-3.296 7.125 7.125 0 0 1-.431-4.243 7.278 7.278 0 0 1 2.073-3.76 7.656 7.656 0 0 1 3.88-2.01 7.802 7.802 0 0 1 4.378.418 7.535 7.535 0 0 1 3.4 2.705A7.181 7.181 0 0 1 246 55.99a7.231 7.231 0 0 1-2.219 5.193 7.7 7.7 0 0 1-5.358 2.151Z" fill="#486BC9"/><path d="M241.413 55.266h-2.243v-2.174a.713.713 0 0 0-.218-.512.763.763 0 0 0-1.057 0 .71.71 0 0 0-.219.512v2.174h-2.243a.767.767 0 0 0-.529.211.706.706 0 0 0-.162.79.742.742 0 0 0 .405.392.767.767 0 0 0 .286.055h2.243v2.174a.71.71 0 0 0 .219.512.763.763 0 0 0 1.057 0 .713.713 0 0 0 .218-.512v-2.174h2.243a.759.759 0 0 0 .528-.212.714.714 0 0 0 .219-.512.714.714 0 0 0-.219-.512.758.758 0 0 0-.528-.212Z" fill="#fff"/><path d="M122.787 76.85H93.999c-.587 0-1.15.226-1.564.628a2.114 2.114 0 0 0-.649 1.516v10.591h33.211v-10.59a2.113 2.113 0 0 0-.648-1.515 2.25 2.25 0 0 0-1.562-.63Z" fill="#6C63FF"/><path opacity=".5" d="M122.786 106.61H93.998a2.246 2.246 0 0 1-1.563-.628 2.114 2.114 0 0 1-.649-1.515V78.993a2.114 2.114 0 0 1 .649-1.515 2.25 2.25 0 0 1 1.563-.628h28.788c.587 0 1.149.226 1.563.628.415.402.648.947.649 1.515v25.474a2.114 2.114 0 0 1-.649 1.515 2.244 2.244 0 0 1-1.563.628Z" fill="#486BC9"/><path d="M102.48 88.924c1.981 0 3.588-1.557 3.588-3.478 0-1.92-1.607-3.478-3.588-3.478-1.982 0-3.589 1.557-3.589 3.478 0 1.92 1.607 3.478 3.589 3.478Zm14.344 5.286H99.96c-.284 0-.555-.108-.756-.303a1.02 1.02 0 0 1-.313-.732c0-.275.113-.538.313-.732.2-.195.472-.304.756-.304h16.864c.283 0 .555.11.755.304a1.017 1.017 0 0 1 0 1.464c-.2.195-.472.304-.755.304Zm-8.726 4.093H99.96c-.284 0-.555-.109-.756-.303a1.02 1.02 0 0 1-.313-.733c0-.274.113-.538.313-.732.2-.194.472-.303.756-.303h8.138c.283 0 .555.109.755.303a1.017 1.017 0 0 1 0 1.465c-.2.194-.472.303-.755.303Z" fill="#fff"/><path d="M93.398 114.087a7.749 7.749 0 0 1-4.21-1.238 7.398 7.398 0 0 1-2.79-3.296 7.134 7.134 0 0 1-.432-4.243 7.274 7.274 0 0 1 2.074-3.76 7.655 7.655 0 0 1 3.88-2.01 7.8 7.8 0 0 1 4.377.418 7.533 7.533 0 0 1 3.4 2.705 7.183 7.183 0 0 1 1.278 4.08 7.235 7.235 0 0 1-2.22 5.193 7.702 7.702 0 0 1-5.357 2.151Z" fill="#486BC9"/><path d="M96.387 106.018h-2.242v-2.173a.713.713 0 0 0-.219-.512.76.76 0 0 0-1.057 0 .713.713 0 0 0-.219.512v2.173h-2.242a.749.749 0 0 0-.692.447.704.704 0 0 0 .163.79.759.759 0 0 0 .53.212h2.241v2.173c0 .193.079.377.22.513.14.136.33.212.528.212a.759.759 0 0 0 .528-.212.714.714 0 0 0 .219-.513v-2.173h2.242a.759.759 0 0 0 .529-.212.713.713 0 0 0 .219-.512.716.716 0 0 0-.22-.513.763.763 0 0 0-.528-.212Z" fill="#fff"/><path d="M89.89 60.655H61.102a2.25 2.25 0 0 1-1.563-.628 2.113 2.113 0 0 1-.649-1.515V33.038a2.112 2.112 0 0 1 .649-1.515 2.25 2.25 0 0 1 1.563-.629H89.89a2.25 2.25 0 0 1 1.563.629c.415.402.648.946.649 1.515v25.474a2.114 2.114 0 0 1-.649 1.515 2.25 2.25 0 0 1-1.563.628Z" fill="#6C63FF"/><path d="M69.584 45.095c1.982 0 3.588-1.557 3.588-3.478 0-1.921-1.606-3.478-3.588-3.478s-3.589 1.557-3.589 3.478c0 1.92 1.607 3.478 3.589 3.478Zm14.344 4.223H67.064a1.09 1.09 0 0 1-.756-.303 1.02 1.02 0 0 1-.313-.732c0-.275.113-.538.313-.733.2-.194.472-.303.756-.303h16.864c.283 0 .555.11.756.303.2.195.313.458.313.733 0 .274-.113.538-.313.732-.2.194-.473.303-.756.303Zm-8.726 4.093h-8.138c-.283 0-.555-.11-.756-.303a1.02 1.02 0 0 1-.313-.733c0-.274.113-.538.313-.732.2-.194.473-.303.756-.303h8.138c.283 0 .555.109.755.303.2.194.313.458.313.732 0 .275-.112.538-.313.733-.2.194-.472.303-.755.303Z" fill="#6C63FF"/><path opacity=".5" d="M89.89 60.655H61.102a2.25 2.25 0 0 1-1.563-.628 2.113 2.113 0 0 1-.649-1.515V33.038a2.112 2.112 0 0 1 .649-1.515 2.25 2.25 0 0 1 1.563-.629H89.89a2.25 2.25 0 0 1 1.563.629c.415.402.648.946.649 1.515v25.474a2.114 2.114 0 0 1-.649 1.515 2.25 2.25 0 0 1-1.563.628Z" fill="#486BC9"/><path d="M69.584 45.095c1.982 0 3.588-1.557 3.588-3.478 0-1.921-1.606-3.478-3.588-3.478s-3.589 1.557-3.589 3.478c0 1.92 1.607 3.478 3.589 3.478Zm14.344 4.223H67.064a1.09 1.09 0 0 1-.756-.303 1.02 1.02 0 0 1-.313-.732c0-.275.113-.538.313-.733.2-.194.472-.303.756-.303h16.864c.283 0 .555.11.756.303.2.195.313.458.313.733 0 .274-.113.538-.313.732-.2.194-.473.303-.756.303Zm-8.726 4.093h-8.138c-.283 0-.555-.11-.756-.303a1.02 1.02 0 0 1-.313-.733c0-.274.113-.538.313-.732.2-.194.473-.303.756-.303h8.138c.283 0 .555.109.755.303.2.194.313.458.313.732 0 .275-.112.538-.313.733-.2.194-.472.303-.755.303Z" fill="#fff"/><path d="M61.696 36.39c3.18 0 5.757-2.497 5.757-5.58 0-3.081-2.578-5.58-5.757-5.58-3.18 0-5.758 2.499-5.758 5.58 0 3.083 2.578 5.58 5.758 5.58Z" fill="#FF6584"/><path d="M77.494 147.684a.308.308 0 0 1-.095.224.333.333 0 0 1-.231.092H.326a.329.329 0 0 1-.23-.093.31.31 0 0 1 0-.447.332.332 0 0 1 .23-.092h76.842a.333.333 0 0 1 .23.092.307.307 0 0 1 .096.224Z" fill="#CCC"/><path d="M60.465 45.591a2.523 2.523 0 0 1-.091 1.966 2.647 2.647 0 0 1-1.936 1.458l-1.52 9.024-3.567-3.192 1.99-8.08a2.55 2.55 0 0 1 .573-1.897 2.714 2.714 0 0 1 1.782-.962 2.684 2.684 0 0 1 1.689.372 2.55 2.55 0 0 1 1.08 1.311Z" fill="#FFB6B6"/><path d="M34.143 66.038s2.768-3.545 12.813-3.448l5.702-2.008 1.303-11.577 4.56 1.052-.65 14.314-9.774 5.473-12.813 2.526-1.141-6.332Z" fill="#3F3D56"/><path d="M32.672 58.653c3.293 0 5.962-2.588 5.962-5.78 0-3.19-2.67-5.778-5.962-5.778-3.293 0-5.962 2.587-5.962 5.779 0 3.191 2.67 5.779 5.962 5.779Z" fill="#FFB6B6"/><path d="M22.581 96.69a.122.122 0 0 1-.031-.004c-.11-.03-.197-.054.2-3.383l.429-2.631-.419-2.324-.704-.682 1.132-1.097.95-2.614-1.644-2.36-1.885-9.65a7.488 7.488 0 0 1 .717-4.9 7.832 7.832 0 0 1 3.645-3.464l2.182-.618.794-1.411c.222-.396.55-.727.95-.96.4-.231.856-.355 1.321-.358l3.995-.03c.403-.002.802.085 1.164.257.362.17.679.421.924.73l1.394 1.757 5.78 1.903-.958 20.014a1.4 1.4 0 0 1 .364.449 1.358 1.358 0 0 1-.266 1.596 4.7 4.7 0 0 0-.137.138c-.098.134.085 1.136.311 1.987l.29 1.302a.81.81 0 0 0-.34.553.776.776 0 0 0 .19.616l.369.422a1.974 1.974 0 0 1-.409 1.492 2.096 2.096 0 0 1-1.375.776c-5.283.697-18.905 2.494-18.933 2.494Z" fill="#3F3D56"/><path d="m31.147 58.37-.076-.164.029.002.047.162Zm-4.603-11.012a1.685 1.685 0 0 1 1.04-.436c.385.012.776.35.696.716a6.078 6.078 0 0 1 3.184-2.64 6.31 6.31 0 0 1 4.19-.04c.958.328 1.897.983 2.117 1.945.022.252.1.497.228.717a.87.87 0 0 0 .9.22l.01-.001a.291.291 0 0 1 .304.08.27.27 0 0 1 .036.305l-.271.49c.341.074.697.067 1.035-.021a.29.29 0 0 1 .304.11.267.267 0 0 1-.005.314 4.869 4.869 0 0 1-1.718 1.424c-.68.338-1.43.518-2.194.525-1.084-.006-2.178-.368-3.232-.127a2.844 2.844 0 0 0-1.115.53c-.327.254-.59.576-.771.943a2.651 2.651 0 0 0-.002 2.347c-.324-.343-.95-.262-1.282.075-.152.18-.265.389-.331.613a1.643 1.643 0 0 0-.052.69c.088.708.305 1.395.64 2.03a6.388 6.388 0 0 1-3.547-1.199 6.08 6.08 0 0 1-2.2-2.95 5.89 5.89 0 0 1-.063-3.64 6.063 6.063 0 0 1 2.1-3.02Z" fill="#2F2E41"/><path d="M24.904 104.978a2.588 2.588 0 0 1-1.074-1.67 2.534 2.534 0 0 1 .742-2.265l-4.023-8.27 4.805.671 3.084 7.751c.458.52.687 1.195.637 1.878a2.578 2.578 0 0 1-.906 1.771 2.661 2.661 0 0 1-1.608.621 2.671 2.671 0 0 1-1.657-.487Z" fill="#FFB6B6"/><path d="m23.685 100.462-6.402-13.946-.064-11.014 2.018-5.95a6.31 6.31 0 0 1 1.288-2.193 6.538 6.538 0 0 1 2.067-1.535 6.751 6.751 0 0 1 5.096-.268l.045.015.019.042c.074.169 1.767 4.227-3.254 12.575l-1.01 5.712 3.545 13.093-3.348 3.469Z" fill="#3F3D56"/></g><defs><clipPath id="a"><path fill="#fff" d="M0 0h246v148H0z"/></clipPath></defs></svg>