<svg width="301" height="211" fill="none" xmlns="http://www.w3.org/2000/svg"><g clip-path="url(#a)"><path d="M16.597 181.828c1.184-9.526 7.086-18.911 16.167-22.011a44.241 44.241 0 0 0 .002 30.364c1.395 3.776 3.34 7.83 2.028 11.635-.817 2.368-2.815 4.18-5.048 5.313s-4.712 1.672-7.16 2.202l-.481.398c-3.886-8.777-6.692-18.376-5.508-27.901Z" fill="#F0F0F0"/><path d="M32.854 159.997a37.81 37.81 0 0 0-9.394 21.274 16.284 16.284 0 0 0 .185 5.097 9.342 9.342 0 0 0 2.321 4.331c1.047 1.15 2.25 2.205 2.998 3.589a5.716 5.716 0 0 1 .28 4.667c-.661 1.896-1.964 3.442-3.29 4.909-1.473 1.629-3.029 3.298-3.655 5.457-.075.262-.477.129-.401-.132 1.089-3.758 4.735-5.892 6.474-9.277.812-1.579 1.152-3.412.392-5.079-.666-1.458-1.905-2.547-2.975-3.702a9.963 9.963 0 0 1-2.427-4.15 15.053 15.053 0 0 1-.38-5.071 36.68 36.68 0 0 1 2.677-11.144 38.473 38.473 0 0 1 6.915-11.086c.18-.202.46.116.28.317Z" fill="#fff"/><path d="M23.574 178.711a5.668 5.668 0 0 1-4.316-5.94c.022-.272.444-.251.423.021a5.252 5.252 0 0 0 4.025 5.518c.265.063.13.464-.132.401Zm1.785 11.474a10.926 10.926 0 0 0 4.88-6.295c.076-.261.478-.128.401.133a11.367 11.367 0 0 1-5.09 6.54c-.235.139-.424-.239-.191-.378Zm2.348-23.081a3.21 3.21 0 0 0 3.042-.154c.232-.142.42.236.19.377a3.586 3.586 0 0 1-3.364.179.219.219 0 0 1-.134-.267.214.214 0 0 1 .105-.123.215.215 0 0 1 .161-.012Z" fill="#fff"/><path d="M60.444 176.831c-.143.093-.285.185-.428.282a42.241 42.241 0 0 0-5.404 4.22 19.08 19.08 0 0 0-.393.361 44.558 44.558 0 0 0-9.676 13.25 43.245 43.245 0 0 0-2.37 6.134c-.874 2.902-1.592 6.119-3.323 8.494a7.33 7.33 0 0 1-.578.714H22.628c-.035-.018-.071-.032-.107-.05l-.625.028.08-.335c.013-.064.031-.129.045-.193.011-.043.022-.086.029-.125l.01-.039c.008-.039.019-.075.026-.111.157-.639.319-1.278.485-1.917 0-.004 0-.004.004-.007 1.281-4.867 2.98-9.669 5.354-14.061.07-.132.142-.268.22-.4a41.362 41.362 0 0 1 3.71-5.627 36.5 36.5 0 0 1 2.43-2.781 30.344 30.344 0 0 1 7.595-5.691c5.611-2.964 12.107-4.099 18.103-2.289.154.046.304.093.457.143Z" fill="#F0F0F0"/><path d="M60.41 177.029a37.786 37.786 0 0 0-20.305 11.329 16.258 16.258 0 0 0-2.92 4.181 9.337 9.337 0 0 0-.753 4.855c.143 1.549.469 3.116.233 4.672a5.721 5.721 0 0 1-2.585 3.894c-1.67 1.116-3.64 1.566-5.582 1.939-2.156.413-4.403.809-6.202 2.156-.218.164-.459-.185-.241-.348 3.131-2.344 7.327-1.852 10.752-3.507 1.599-.772 2.974-2.031 3.37-3.82.346-1.564.012-3.181-.147-4.747a9.964 9.964 0 0 1 .56-4.775 15.048 15.048 0 0 1 2.748-4.278 36.653 36.653 0 0 1 8.845-7.286 38.45 38.45 0 0 1 12.194-4.686c.266-.053.297.369.032.421Z" fill="#fff"/><path d="M41.736 186.382a5.671 5.671 0 0 1 .13-7.343c.18-.203.506.068.325.272a5.251 5.251 0 0 0-.107 6.83c.173.21-.175.45-.348.241Zm-5.48 10.237c2.733.296 5.477-.45 7.685-2.088.219-.162.46.186.24.348-2.3 1.7-5.157 2.47-8 2.156-.272-.03-.195-.446.075-.416Zm15.767-17.015a3.21 3.21 0 0 0 2.521 1.708c.271.027.194.443-.075.416a3.6 3.6 0 0 1-2.794-1.883.22.22 0 0 1 .054-.295.215.215 0 0 1 .294.054Z" fill="#fff"/><path d="M289.863 109.956h-50.326v-.714h49.612V76.037h.714v33.919Zm-163.114 13.925h-.714v-33.92h50.326v.715h-49.612v33.205Zm73.526-75.694h-50.326v-33.92h.714v33.206h49.612v.714Z" fill="#E4E4E4"/><path d="M139.934 0a1.018 1.018 0 0 0 0 2.039h20.673a1.017 1.017 0 0 0 1.017-1.02A1.019 1.019 0 0 0 160.607 0h-20.673Zm.001 6.006a1.018 1.018 0 1 0 0 2.039h20.672a1.02 1.02 0 0 0 .72-1.74 1.02 1.02 0 0 0-.72-.299h-20.672Z" fill="#3F3D56"/><path d="M299.981 71.471a1.017 1.017 0 0 0 1.017-1.02 1.019 1.019 0 0 0-1.017-1.019h-20.675a1.012 1.012 0 0 0-.722.298 1.01 1.01 0 0 0-.299.722 1.027 1.027 0 0 0 .299.721 1.022 1.022 0 0 0 .722.298h20.675Zm0-6.007a1.016 1.016 0 0 0 1.017-1.019 1.018 1.018 0 0 0-1.017-1.02h-20.675a1.014 1.014 0 0 0-.722.298 1.01 1.01 0 0 0-.299.722 1.026 1.026 0 0 0 .631.942.983.983 0 0 0 .39.077h20.675Z" fill="#2F2E41"/><path d="M212.411 119.953a38.196 38.196 0 0 1-35.284-23.584 38.209 38.209 0 0 1 27.833-52.09 38.181 38.181 0 0 1 39.205 16.245 38.208 38.208 0 0 1 6.436 21.225 38.25 38.25 0 0 1-11.198 27.002 38.226 38.226 0 0 1-26.992 11.202Zm0-75.694a37.472 37.472 0 0 0-34.625 23.144 37.506 37.506 0 0 0 8.124 40.856 37.465 37.465 0 0 0 40.842 8.126 37.478 37.478 0 0 0 16.82-13.807 37.502 37.502 0 0 0 6.316-20.829 37.542 37.542 0 0 0-10.99-26.496 37.51 37.51 0 0 0-26.487-10.993Z" fill="#E4E4E4"/><path d="M197.063 52.472a4.284 4.284 0 1 0-.002-8.568 4.284 4.284 0 0 0 .002 8.568ZM175.29 94.96a4.283 4.283 0 0 0 4.283-4.284 4.283 4.283 0 1 0-8.566 0 4.284 4.284 0 0 0 4.283 4.284Zm62.819 19.28a4.284 4.284 0 1 0-.002-8.57 4.284 4.284 0 0 0 .002 8.57Z" fill="#6C63FF"/><path d="M115.917 128.446a1.023 1.023 0 0 0-1.019 1.02c0 .27.107.529.298.721.192.191.451.298.721.298h20.675a1.017 1.017 0 0 0 1.017-1.019 1.018 1.018 0 0 0-1.017-1.02h-20.675Zm0 6.007a1.028 1.028 0 0 0-.722.298 1.012 1.012 0 0 0-.299.722 1.012 1.012 0 0 0 .63.942c.124.051.257.077.391.077h20.675a1.02 1.02 0 0 0 .719-1.74 1.02 1.02 0 0 0-.719-.299h-20.675Z" fill="#2F2E41"/><path d="M64.921 210.797h-5.195a2.463 2.463 0 0 1-2.463-2.464V165.02a2.468 2.468 0 0 1 2.463-2.465h5.195a2.468 2.468 0 0 1 2.464 2.465v43.313a2.468 2.468 0 0 1-2.464 2.464Zm13.795 0h-5.195a2.463 2.463 0 0 1-2.464-2.464V165.02a2.469 2.469 0 0 1 2.464-2.465h5.195a2.468 2.468 0 0 1 2.464 2.465v43.313a2.468 2.468 0 0 1-2.464 2.464Zm-8.988-93.267c9.914 0 17.95-8.039 17.95-17.957 0-9.917-8.036-17.956-17.95-17.956s-17.95 8.039-17.95 17.956c0 9.918 8.036 17.957 17.95 17.957Z" fill="#6C63FF"/><path d="M75.822 177.914H62.908a15.228 15.228 0 0 1-13.25-7.618 15.245 15.245 0 0 1 .03-15.288l18.06-31.29a2.29 2.29 0 0 1 3.124-.838c.348.201.637.49.838.838l17.696 30.66a15.694 15.694 0 0 1-5.742 21.434 15.682 15.682 0 0 1-7.842 2.102Zm-1.857-70.803c1.164-.032 2.612-.072 3.728-.888a2.859 2.859 0 0 0 1.126-2.138 1.93 1.93 0 0 0-.655-1.582c-.583-.492-1.433-.608-2.35-.338l.95-6.946-.698-.095-1.117 8.165.583-.268c.675-.309 1.602-.467 2.178.02a1.234 1.234 0 0 1 .405 1.019 2.165 2.165 0 0 1-.838 1.595c-.868.634-2.022.716-3.331.752l.02.704Zm10.039-11.293h-3.791v.704h3.791v-.704Zm-11.967 0h-3.791v.704h3.79v-.704Z" fill="#2F2E41"/><path d="M65.506 173.898a2.445 2.445 0 0 1-.236-1.004l-.885-32.254a5.066 5.066 0 0 1 4.95-5.171 5.063 5.063 0 0 1 5.17 4.951l.885 32.254a2.468 2.468 0 0 1-2.41 2.518l-5.193.113a2.473 2.473 0 0 1-2.28-1.407Z" fill="#6C63FF"/><path d="M68.063 86.3c2.18 2.853 5.643 4.767 9.302 4.313 3.485-.431 6.36-2.86 7.081-6.34a10.45 10.45 0 0 0-2.744-9.22c-2.467-2.596-5.996-3.992-9.49-4.47-6.62-.907-13.417 1.425-18.421 5.775a22.573 22.573 0 0 0-5.875 7.878 22.09 22.09 0 0 0-1.822 9.534c.192 6.469 3.025 12.927 7.913 17.217a22.285 22.285 0 0 0 1.904 1.492c.557.391 1.086-.524.533-.912-5.006-3.513-8.199-9.229-9.075-15.235a21.106 21.106 0 0 1 4.946-17.02c4.042-4.598 9.969-7.586 16.107-7.854 6.177-.27 13.896 2.49 15.052 9.368.518 3.082-.634 6.323-3.458 7.866-3.024 1.653-6.731.973-9.33-1.161a10.714 10.714 0 0 1-1.711-1.765c-.408-.532-1.325-.007-.912.533Z" fill="#2F2E41"/><path d="M136.345 211H.357a.357.357 0 0 1 0-.714h135.988a.355.355 0 0 1 .357.357.356.356 0 0 1-.357.357Z" fill="#3F3D56"/></g><defs><clipPath id="a"><path fill="#fff" d="M0 0h301v211H0z"/></clipPath></defs></svg>