<svg width="246" height="148" viewBox="0 0 246 148" fill="none" xmlns="http://www.w3.org/2000/svg">
<g clip-path="url(#clip0_3_9298)">
<path d="M59.5835 133.404L59.857 127.443C62.7085 125.966 65.8889 125.185 69.1221 125.17C64.6723 128.696 65.2284 135.493 62.2115 140.235C61.2588 141.707 59.9767 142.953 58.46 143.879C56.9433 144.806 55.2309 145.389 53.4498 145.587L49.726 147.797C49.2151 145.036 49.3277 142.2 50.0562 139.486C50.7848 136.771 52.1118 134.242 53.946 132.072C54.9874 130.864 56.1815 129.789 57.5002 128.871C58.392 131.15 59.5835 133.404 59.5835 133.404Z" fill="#F2F2F2"/>
<path d="M218.476 9.71276H45.1246C45.0518 9.71121 44.9826 9.6821 44.9317 9.63167C44.8808 9.58124 44.8523 9.5135 44.8523 9.44296C44.8523 9.37241 44.8808 9.30467 44.9317 9.25424C44.9826 9.20381 45.0518 9.17471 45.1246 9.17316H218.476C218.549 9.17471 218.618 9.20381 218.669 9.25424C218.72 9.30467 218.749 9.37241 218.749 9.44296C218.749 9.5135 218.72 9.58124 218.669 9.63167C218.618 9.6821 218.549 9.71121 218.476 9.71276Z" fill="#CACACA"/>
<path d="M51.2532 5.93557C52.9074 5.93557 54.2484 4.60685 54.2484 2.96779C54.2484 1.32872 52.9074 0 51.2532 0C49.5991 0 48.2581 1.32872 48.2581 2.96779C48.2581 4.60685 49.5991 5.93557 51.2532 5.93557Z" fill="#3F3D56"/>
<path d="M61.6003 5.93557C63.2545 5.93557 64.5955 4.60685 64.5955 2.96779C64.5955 1.32872 63.2545 0 61.6003 0C59.9461 0 58.6051 1.32872 58.6051 2.96779C58.6051 4.60685 59.9461 5.93557 61.6003 5.93557Z" fill="#3F3D56"/>
<path d="M71.9473 5.93557C73.6015 5.93557 74.9425 4.60685 74.9425 2.96779C74.9425 1.32872 73.6015 0 71.9473 0C70.2931 0 68.9521 1.32872 68.9521 2.96779C68.9521 4.60685 70.2931 5.93557 71.9473 5.93557Z" fill="#3F3D56"/>
<path d="M212.276 0.735596H204.926C204.78 0.738399 204.641 0.796462 204.539 0.897317C204.437 0.998171 204.38 1.13377 204.38 1.27501C204.38 1.41624 204.437 1.55185 204.539 1.6527C204.641 1.75356 204.78 1.81162 204.926 1.81442H212.276C212.421 1.81162 212.56 1.75356 212.662 1.6527C212.764 1.55185 212.821 1.41624 212.821 1.27501C212.821 1.13377 212.764 0.998171 212.662 0.897317C212.56 0.796462 212.421 0.738399 212.276 0.735596Z" fill="#3F3D56"/>
<path d="M212.276 2.76038H204.926C204.78 2.76318 204.641 2.82124 204.539 2.9221C204.437 3.02295 204.38 3.15855 204.38 3.29979C204.38 3.44102 204.437 3.57663 204.539 3.67748C204.641 3.77834 204.78 3.8364 204.926 3.8392H212.276C212.421 3.8364 212.56 3.77834 212.662 3.67748C212.764 3.57663 212.821 3.44102 212.821 3.29979C212.821 3.15855 212.764 3.02295 212.662 2.9221C212.56 2.82124 212.421 2.76318 212.276 2.76038Z" fill="#3F3D56"/>
<path d="M212.276 4.78253H204.926C204.78 4.78534 204.641 4.84339 204.539 4.94425C204.437 5.0451 204.38 5.18071 204.38 5.32194C204.38 5.46318 204.437 5.59878 204.539 5.69964C204.641 5.80049 204.78 5.85855 204.926 5.86136H212.276C212.421 5.85855 212.56 5.80049 212.662 5.69964C212.764 5.59878 212.821 5.46318 212.821 5.32194C212.821 5.18071 212.764 5.0451 212.662 4.94425C212.56 4.84339 212.421 4.78534 212.276 4.78253Z" fill="#3F3D56"/>
<path d="M180.038 30.8612H61.0542C60.4679 30.8612 59.9056 31.0868 59.4908 31.4884C59.076 31.8899 58.8425 32.4347 58.8418 33.0029V87.4412C58.8424 88.0097 59.0757 88.5548 59.4905 88.9568C59.9053 89.3588 60.4676 89.5849 61.0542 89.5856H180.038C180.624 89.5844 181.186 89.358 181.6 88.956C182.014 88.5541 182.247 88.0093 182.248 87.4412V33.0029C182.247 32.4351 182.014 31.8907 181.6 31.4891C181.186 31.0876 180.624 30.8618 180.038 30.8612Z" fill="#3F3D56"/>
<path d="M148.61 57.0879C148.024 57.0885 147.462 57.3143 147.048 57.7158C146.633 58.1173 146.4 58.6618 146.4 59.2296V74.6069C146.4 75.175 146.633 75.7198 147.047 76.1217C147.462 76.5237 148.023 76.7501 148.61 76.7513H182.248V57.0879H148.61Z" fill="#6C63FF"/>
<path opacity="0.5" d="M238.809 76.7502H148.611C148.024 76.7495 147.462 76.5235 147.048 76.1217C146.633 75.7198 146.4 75.175 146.399 74.6067V59.2301C146.4 58.6619 146.633 58.1171 147.048 57.7152C147.462 57.3134 148.024 57.0874 148.611 57.0868H238.809C239.395 57.0874 239.957 57.3134 240.372 57.7152C240.786 58.1171 241.02 58.6619 241.02 59.2301V74.6067C241.02 75.175 240.786 75.7198 240.372 76.1217C239.957 76.5235 239.395 76.7495 238.809 76.7502Z" fill="#486BC9"/>
<path d="M160.809 71.3796C162.79 71.3796 164.397 69.8224 164.397 67.9015C164.397 65.9805 162.79 64.4233 160.809 64.4233C158.827 64.4233 157.22 65.9805 157.22 67.9015C157.22 69.8224 158.827 71.3796 160.809 71.3796Z" fill="white"/>
<path d="M236.014 66.8909H171.174C170.89 66.8909 170.619 66.7818 170.418 66.5875C170.218 66.3933 170.105 66.1299 170.105 65.8552C170.105 65.5805 170.218 65.317 170.418 65.1228C170.619 64.9286 170.89 64.8195 171.174 64.8195H236.014C236.298 64.8195 236.569 64.9286 236.77 65.1228C236.97 65.317 237.083 65.5805 237.083 65.8552C237.083 66.1299 236.97 66.3933 236.77 66.5875C236.569 66.7818 236.298 66.8909 236.014 66.8909Z" fill="white"/>
<path d="M211.387 70.9835H171.174C170.89 70.9835 170.619 70.8744 170.418 70.6801C170.218 70.4859 170.105 70.2224 170.105 69.9477C170.105 69.673 170.218 69.4096 170.418 69.2154C170.619 69.0211 170.89 68.912 171.174 68.912H211.387C211.671 68.912 211.942 69.0211 212.143 69.2154C212.343 69.4096 212.456 69.673 212.456 69.9477C212.456 70.2224 212.343 70.4859 212.143 70.6801C211.942 70.8744 211.671 70.9835 211.387 70.9835Z" fill="white"/>
<path d="M41.508 144.961L44.6136 144.96L46.091 133.35H41.5074L41.508 144.961Z" fill="#FFB6B6"/>
<path d="M40.7159 143.978L41.59 143.978L45.0027 142.633L46.8318 143.978H46.8321C47.8657 143.978 48.8571 144.376 49.588 145.084C50.3189 145.792 50.7296 146.753 50.7296 147.755V147.878L40.7161 147.878L40.7159 143.978Z" fill="#2F2E41"/>
<path d="M13.4473 141.047L16.2269 142.39L22.8926 132.638L18.7905 130.656L13.4473 141.047Z" fill="#FFB6B6"/>
<path d="M13.1907 139.825L13.9731 140.203L17.6465 140.475L18.6645 142.469L18.6648 142.469C19.5898 142.916 20.2939 143.701 20.622 144.651C20.9501 145.601 20.8754 146.639 20.4144 147.535L20.3579 147.645L11.3957 143.316L13.1907 139.825Z" fill="#2F2E41"/>
<path d="M42.884 92.2308L23.138 92.7301L23.4814 102.05C23.4814 102.05 23.138 104.546 23.8248 105.212C24.5117 105.878 24.8551 105.878 24.5117 107.043C24.1683 108.208 23.2805 119.339 23.2805 119.339C23.2805 119.339 15.1762 133.228 15.5196 133.561C15.863 133.893 16.2064 133.561 15.863 134.393C15.5196 135.225 15.1762 134.892 15.5196 135.225C15.8238 135.543 16.1103 135.876 16.3781 136.223H21.975C21.975 136.223 22.288 134.559 22.288 134.393C22.288 134.226 22.6314 133.228 22.6314 133.061C22.6314 132.895 32.41 122.853 32.41 122.853L34.4705 106.21L39.4499 122.52C39.4499 122.52 39.4499 136.833 39.7933 137.165C40.1367 137.498 40.1367 137.332 39.965 137.998C39.7933 138.663 39.1065 138.497 39.6216 138.996C40.1367 139.495 40.3084 138.663 40.1367 139.495L39.965 140.328L46.5617 140.399C46.5617 140.399 47.2485 138.996 46.9051 138.497C46.5617 137.998 46.5823 138.134 47.0013 137.317C47.4202 136.5 47.5919 136.333 47.4202 136.167C47.2485 136 47.2485 135.115 47.2485 135.115C47.2485 135.115 44.7727 102.383 44.7727 101.883C44.7598 101.627 44.8086 101.37 44.9153 101.135V100.457L44.2576 98.0557L42.884 92.2308Z" fill="#2F2E41"/>
<path d="M238.423 63.334C236.924 63.334 235.46 62.9033 234.213 62.0963C232.967 61.2893 231.996 60.1424 231.423 58.8004C230.849 57.4585 230.699 55.9818 230.992 54.5573C231.284 53.1327 232.006 51.8241 233.065 50.797C234.125 49.7699 235.475 49.0705 236.945 48.7871C238.415 48.5037 239.938 48.6492 241.323 49.205C242.707 49.7609 243.89 50.7022 244.723 51.9099C245.556 53.1176 246 54.5375 246 55.99C246 57.9377 245.202 59.8057 243.781 61.183C242.36 62.5603 240.433 63.334 238.423 63.334Z" fill="#486BC9"/>
<path d="M241.413 55.2656H239.17V53.0922C239.17 52.9001 239.092 52.7158 238.952 52.58C238.811 52.4441 238.621 52.3678 238.423 52.3678C238.225 52.3678 238.035 52.4441 237.895 52.58C237.754 52.7158 237.676 52.9001 237.676 53.0922V55.2656H235.433C235.335 55.2654 235.238 55.284 235.147 55.3203C235.056 55.3566 234.973 55.41 234.904 55.4773C234.834 55.5446 234.779 55.6245 234.742 55.7125C234.704 55.8004 234.685 55.8948 234.685 55.99C234.685 56.0853 234.704 56.1796 234.742 56.2676C234.779 56.3555 234.834 56.4355 234.904 56.5027C234.973 56.57 235.056 56.6234 235.147 56.6597C235.238 56.696 235.335 56.7146 235.433 56.7144H237.676V58.8878C237.676 59.0799 237.754 59.2642 237.895 59.4C238.035 59.5359 238.225 59.6122 238.423 59.6122C238.621 59.6122 238.811 59.5359 238.952 59.4C239.092 59.2642 239.17 59.0799 239.17 58.8878V56.7144H241.413C241.611 56.7144 241.801 56.6381 241.941 56.5023C242.081 56.3664 242.16 56.1821 242.16 55.99C242.16 55.7979 242.081 55.6136 241.941 55.4778C241.801 55.3419 241.611 55.2656 241.413 55.2656Z" fill="white"/>
<path d="M122.787 76.8495H93.9988C93.4122 76.8502 92.8498 77.0763 92.4351 77.4783C92.0203 77.8803 91.787 78.4254 91.7864 78.9939V89.5855H124.997V78.9939C124.996 78.4258 124.764 77.8811 124.349 77.4791C123.935 77.0771 123.373 76.8507 122.787 76.8495Z" fill="#6C63FF"/>
<path opacity="0.5" d="M122.786 106.61H93.9978C93.4115 106.61 92.8494 106.384 92.4348 105.982C92.0202 105.58 91.787 105.035 91.7864 104.467V78.9929C91.787 78.4246 92.0202 77.8798 92.4348 77.478C92.8494 77.0762 93.4115 76.8502 93.9978 76.8495H122.786C123.373 76.8502 123.935 77.0762 124.349 77.478C124.764 77.8798 124.997 78.4246 124.998 78.9929V104.467C124.997 105.035 124.764 105.58 124.349 105.982C123.935 106.384 123.373 106.61 122.786 106.61Z" fill="#486BC9"/>
<path d="M102.48 88.9241C104.461 88.9241 106.068 87.3669 106.068 85.446C106.068 83.5251 104.461 81.9679 102.48 81.9679C100.498 81.9679 98.8912 83.5251 98.8912 85.446C98.8912 87.3669 100.498 88.9241 102.48 88.9241Z" fill="white"/>
<path d="M116.824 94.2106H99.9598C99.6764 94.2106 99.4046 94.1015 99.2042 93.9073C99.0038 93.7131 98.8912 93.4496 98.8912 93.1749C98.8912 92.9002 99.0038 92.6368 99.2042 92.4426C99.4046 92.2483 99.6764 92.1392 99.9598 92.1392H116.824C117.107 92.1392 117.379 92.2483 117.579 92.4426C117.78 92.6368 117.892 92.9002 117.892 93.1749C117.892 93.4496 117.78 93.7131 117.579 93.9073C117.379 94.1015 117.107 94.2106 116.824 94.2106Z" fill="white"/>
<path d="M108.098 98.3033H99.9598C99.6764 98.3033 99.4046 98.1941 99.2042 97.9999C99.0038 97.8057 98.8912 97.5422 98.8912 97.2675C98.8912 96.9928 99.0038 96.7294 99.2042 96.5351C99.4046 96.3409 99.6764 96.2318 99.9598 96.2318H108.098C108.381 96.2318 108.653 96.3409 108.853 96.5351C109.054 96.7294 109.166 96.9928 109.166 97.2675C109.166 97.5422 109.054 97.8057 108.853 97.9999C108.653 98.1941 108.381 98.3033 108.098 98.3033Z" fill="white"/>
<path d="M93.3976 114.087C91.899 114.087 90.4341 113.656 89.1881 112.849C87.942 112.042 86.9709 110.895 86.3974 109.553C85.8239 108.211 85.6739 106.735 85.9662 105.31C86.2586 103.885 86.9802 102.577 88.0399 101.55C89.0995 100.523 90.4496 99.8232 91.9194 99.5398C93.3892 99.2564 94.9127 99.4019 96.2972 99.9577C97.6817 100.514 98.865 101.455 99.6976 102.663C100.53 103.87 100.975 105.29 100.975 106.743C100.975 108.69 100.176 110.558 98.7553 111.936C97.3343 113.313 95.4071 114.087 93.3976 114.087Z" fill="#486BC9"/>
<path d="M96.3873 106.018H94.145V103.845C94.145 103.653 94.0663 103.469 93.9261 103.333C93.786 103.197 93.5958 103.12 93.3976 103.12C93.1994 103.12 93.0093 103.197 92.8691 103.333C92.7289 103.469 92.6502 103.653 92.6502 103.845V106.018H90.4079C90.3096 106.018 90.2123 106.037 90.1214 106.073C90.0306 106.109 89.948 106.163 89.8785 106.23C89.8089 106.297 89.7537 106.377 89.7161 106.465C89.6784 106.553 89.6591 106.647 89.6591 106.743C89.6591 106.838 89.6784 106.932 89.7161 107.02C89.7537 107.108 89.8089 107.188 89.8785 107.255C89.948 107.323 90.0306 107.376 90.1214 107.412C90.2123 107.449 90.3096 107.467 90.4079 107.467H92.6502V109.64C92.6502 109.833 92.7289 110.017 92.8691 110.153C93.0093 110.289 93.1994 110.365 93.3976 110.365C93.5958 110.365 93.786 110.289 93.9261 110.153C94.0663 110.017 94.145 109.833 94.145 109.64V107.467H96.3873C96.5855 107.467 96.7756 107.391 96.9158 107.255C97.0559 107.119 97.1347 106.935 97.1347 106.743C97.1347 106.551 97.0559 106.366 96.9158 106.23C96.7756 106.095 96.5855 106.018 96.3873 106.018Z" fill="white"/>
<path d="M89.8903 60.6552H61.1017C60.5154 60.6545 59.9533 60.4285 59.5388 60.0267C59.1242 59.6248 58.891 59.08 58.8903 58.5118V33.0377C58.891 32.4695 59.1242 31.9247 59.5388 31.5229C59.9533 31.121 60.5154 30.895 61.1017 30.8944H89.8903C90.4766 30.895 91.0386 31.121 91.4532 31.5229C91.8678 31.9247 92.101 32.4695 92.1017 33.0377V58.5118C92.101 59.08 91.8678 59.6248 91.4532 60.0267C91.0387 60.4285 90.4766 60.6545 89.8903 60.6552Z" fill="#6C63FF"/>
<path d="M69.5838 45.0948C71.5656 45.0948 73.1722 43.5376 73.1722 41.6167C73.1722 39.6958 71.5656 38.1385 69.5838 38.1385C67.6019 38.1385 65.9953 39.6958 65.9953 41.6167C65.9953 43.5376 67.6019 45.0948 69.5838 45.0948Z" fill="#6C63FF"/>
<path d="M83.928 49.3184H67.0639C66.7805 49.3184 66.5087 49.2093 66.3083 49.0151C66.1079 48.8208 65.9954 48.5574 65.9954 48.2827C65.9954 48.008 66.1079 47.7446 66.3083 47.5504C66.5087 47.3561 66.7805 47.247 67.0639 47.247H83.928C84.2114 47.247 84.4832 47.3561 84.6836 47.5504C84.884 47.7446 84.9966 48.008 84.9966 48.2827C84.9966 48.5574 84.884 48.8208 84.6836 49.0151C84.4832 49.2093 84.2114 49.3184 83.928 49.3184Z" fill="#6C63FF"/>
<path d="M75.2018 53.4111H67.064C66.7806 53.4111 66.5088 53.3019 66.3084 53.1077C66.108 52.9135 65.9954 52.65 65.9954 52.3753C65.9954 52.1006 66.108 51.8371 66.3084 51.6429C66.5088 51.4487 66.7806 51.3395 67.064 51.3395H75.2018C75.4852 51.3395 75.757 51.4487 75.9574 51.6429C76.1578 51.8371 76.2704 52.1006 76.2704 52.3753C76.2704 52.65 76.1578 52.9135 75.9574 53.1077C75.757 53.3019 75.4852 53.4111 75.2018 53.4111Z" fill="#6C63FF"/>
<path opacity="0.5" d="M89.8903 60.6552H61.1017C60.5154 60.6545 59.9533 60.4285 59.5388 60.0267C59.1242 59.6248 58.891 59.08 58.8903 58.5118V33.0377C58.891 32.4695 59.1242 31.9247 59.5388 31.5229C59.9533 31.121 60.5154 30.895 61.1017 30.8944H89.8903C90.4766 30.895 91.0386 31.121 91.4532 31.5229C91.8678 31.9247 92.101 32.4695 92.1017 33.0377V58.5118C92.101 59.08 91.8678 59.6248 91.4532 60.0267C91.0387 60.4285 90.4766 60.6545 89.8903 60.6552Z" fill="#486BC9"/>
<path d="M69.5838 45.0948C71.5656 45.0948 73.1722 43.5376 73.1722 41.6167C73.1722 39.6958 71.5656 38.1385 69.5838 38.1385C67.6019 38.1385 65.9953 39.6958 65.9953 41.6167C65.9953 43.5376 67.6019 45.0948 69.5838 45.0948Z" fill="white"/>
<path d="M83.928 49.3184H67.0639C66.7805 49.3184 66.5087 49.2093 66.3083 49.0151C66.1079 48.8208 65.9954 48.5574 65.9954 48.2827C65.9954 48.008 66.1079 47.7446 66.3083 47.5504C66.5087 47.3561 66.7805 47.247 67.0639 47.247H83.928C84.2114 47.247 84.4832 47.3561 84.6836 47.5504C84.884 47.7446 84.9966 48.008 84.9966 48.2827C84.9966 48.5574 84.884 48.8208 84.6836 49.0151C84.4832 49.2093 84.2114 49.3184 83.928 49.3184Z" fill="white"/>
<path d="M75.2018 53.4111H67.064C66.7806 53.4111 66.5088 53.3019 66.3084 53.1077C66.108 52.9135 65.9954 52.65 65.9954 52.3753C65.9954 52.1006 66.108 51.8371 66.3084 51.6429C66.5088 51.4487 66.7806 51.3395 67.064 51.3395H75.2018C75.4852 51.3395 75.757 51.4487 75.9574 51.6429C76.1578 51.8371 76.2704 52.1006 76.2704 52.3753C76.2704 52.65 76.1578 52.9135 75.9574 53.1077C75.757 53.3019 75.4852 53.4111 75.2018 53.4111Z" fill="white"/>
<path d="M61.6956 36.3909C64.8752 36.3909 67.4528 33.8926 67.4528 30.8107C67.4528 27.7289 64.8752 25.2306 61.6956 25.2306C58.516 25.2306 55.9385 27.7289 55.9385 30.8107C55.9385 33.8926 58.516 36.3909 61.6956 36.3909Z" fill="#FF6584"/>
<path d="M77.4941 147.684C77.4942 147.725 77.4858 147.767 77.4695 147.805C77.4531 147.843 77.4291 147.878 77.3988 147.908C77.3685 147.937 77.3325 147.96 77.2928 147.976C77.2532 147.992 77.2107 148 77.1678 148H0.326239C0.239716 148 0.156734 147.967 0.0955527 147.907C0.034371 147.848 0 147.768 0 147.684C0 147.6 0.034371 147.519 0.0955527 147.46C0.156734 147.401 0.239716 147.368 0.326239 147.368H77.1678C77.2107 147.367 77.2532 147.376 77.2928 147.391C77.3325 147.407 77.3685 147.431 77.3988 147.46C77.4291 147.489 77.4531 147.524 77.4695 147.563C77.4858 147.601 77.4942 147.642 77.4941 147.684Z" fill="#CCCCCC"/>
<path d="M60.4652 45.5913C60.7018 46.2327 60.669 46.9386 60.3736 47.5567C60.0783 48.1748 59.5442 48.6557 58.8864 48.8956C58.7409 48.9483 58.5909 48.9884 58.438 49.0154L56.9176 58.0391L53.3508 54.8471L55.3415 46.7674C55.2678 46.0866 55.4736 45.405 55.9142 44.87C56.3549 44.335 56.9951 43.9896 57.6964 43.9084C58.2864 43.8429 58.8819 43.9737 59.385 44.2796C59.8882 44.5854 60.2691 45.048 60.4651 45.5913L60.4652 45.5913Z" fill="#FFB6B6"/>
<path d="M34.1428 66.0381C34.1428 66.0381 36.911 62.493 46.9562 62.5901L52.658 60.5822L53.961 49.0047L58.5217 50.0572L57.8702 64.3712L48.0972 69.8442L35.2838 72.3702L34.1428 66.0381Z" fill="#3F3D56"/>
<path d="M32.6719 58.6526C35.9647 58.6526 38.634 56.0654 38.634 52.8739C38.634 49.6823 35.9647 47.0951 32.6719 47.0951C29.3792 47.0951 26.7098 49.6823 26.7098 52.8739C26.7098 56.0654 29.3792 58.6526 32.6719 58.6526Z" fill="#FFB6B6"/>
<path d="M22.581 96.6899C22.5704 96.6899 22.5599 96.6885 22.5497 96.6858C22.4396 96.656 22.3527 96.6325 22.7499 93.3033L23.1786 90.6717L22.7601 88.3481L22.0561 87.6657L23.1876 86.5692L24.1371 83.9549L22.4941 81.5953L20.6092 71.9453C20.2851 70.2801 20.537 68.5579 21.3256 67.0455C22.1142 65.5332 23.3956 64.3154 24.9711 63.5808L27.1527 62.963L27.9465 61.552C28.1694 61.1558 28.4976 60.8246 28.8971 60.5928C29.2965 60.3609 29.7527 60.2369 30.2183 60.2335L34.2134 60.2045C34.6164 60.2016 35.0147 60.2892 35.377 60.4605C35.7393 60.6318 36.0557 60.882 36.3015 61.1917L37.6953 62.9479L43.4751 64.8509L42.5168 84.8653C42.669 84.9888 42.7931 85.1416 42.8813 85.3139C42.9695 85.4863 43.0198 85.6746 43.0291 85.8668C43.0383 86.059 43.0063 86.2509 42.9351 86.4305C42.8638 86.6101 42.7549 86.7734 42.6152 86.9101C42.5551 86.9689 42.5074 87.0167 42.478 87.0483C42.3805 87.1824 42.5633 88.1842 42.7891 89.0347L43.0786 90.3371C42.9857 90.4014 42.9076 90.4838 42.8492 90.5789C42.7907 90.6739 42.7533 90.7797 42.7392 90.8896C42.7251 90.9994 42.7346 91.1109 42.7672 91.2169C42.7998 91.323 42.8547 91.4214 42.9284 91.5059L43.2976 91.9285C43.3706 92.4584 43.2237 92.9948 42.8893 93.4199C42.5548 93.8451 42.0601 94.1243 41.5136 94.1964C36.2314 94.8932 22.6086 96.6899 22.581 96.6899Z" fill="#3F3D56"/>
<path d="M31.1467 58.3697C31.1212 58.3153 31.0958 58.2608 31.0705 58.2061C31.0803 58.2064 31.0899 58.2077 31.0997 58.208L31.1467 58.3697Z" fill="#2F2E41"/>
<path d="M26.5441 47.3579C26.8271 47.099 27.1951 46.9448 27.5836 46.9223C27.9691 46.9343 28.3601 47.2718 28.2802 47.6376C28.9883 46.4223 30.1155 45.4876 31.4638 44.9976C32.8121 44.5075 34.2954 44.4935 35.6534 44.9578C36.6116 45.2855 37.5513 45.941 37.7714 46.9025C37.7928 47.1549 37.8705 47.3998 37.999 47.6204C38.1104 47.7382 38.255 47.822 38.4149 47.8612C38.5748 47.9005 38.743 47.8936 38.8989 47.8413L38.9083 47.8386C38.9617 47.821 39.0193 47.8192 39.0737 47.8336C39.128 47.848 39.1767 47.8779 39.2134 47.9195C39.25 47.961 39.273 48.0122 39.2793 48.0665C39.2856 48.1208 39.2749 48.1757 39.2487 48.224L38.9776 48.7141C39.3194 48.788 39.6745 48.7807 40.0127 48.6928C40.0689 48.6785 40.1282 48.6815 40.1827 48.7012C40.2371 48.7209 40.2838 48.7564 40.3166 48.8029C40.3493 48.8494 40.3664 48.9046 40.3655 48.9609C40.3646 49.0172 40.3458 49.0718 40.3116 49.1173C39.861 49.7148 39.2728 50.2021 38.5937 50.5405C37.9146 50.8788 37.1633 51.0588 36.3998 51.0662C35.3165 51.0598 34.2221 50.6979 33.1678 50.9394C32.76 51.0328 32.3789 51.2135 32.0525 51.4683C31.7261 51.7231 31.4627 52.0455 31.2816 52.4118C31.1005 52.7782 31.0063 53.1791 31.006 53.5853C31.0056 53.9915 31.0991 54.3927 31.2796 54.7593C30.9557 54.4159 30.3296 54.4972 29.9983 54.8339C29.8457 55.0141 29.733 55.2228 29.667 55.4469C29.601 55.6711 29.5832 55.906 29.6146 56.1371C29.703 56.845 29.9198 57.5322 30.2551 58.1669C28.9741 58.1287 27.736 57.7103 26.7082 56.9683C25.6803 56.2263 24.9121 55.1964 24.5075 54.0178C24.1028 52.8391 24.0811 51.5684 24.4453 50.3774C24.8095 49.1864 25.5421 48.1325 26.5441 47.3579L26.5441 47.3579Z" fill="#2F2E41"/>
<path d="M24.9037 104.978C24.3336 104.579 23.948 103.98 23.8299 103.308C23.7119 102.637 23.8708 101.947 24.2725 101.388C24.3616 101.265 24.4618 101.149 24.5719 101.043L20.5486 92.7733L25.3536 93.4441L28.4375 101.195C28.8963 101.715 29.1253 102.39 29.075 103.073C29.0248 103.755 28.6993 104.392 28.1689 104.844C27.7211 105.222 27.1539 105.441 26.5605 105.465C25.9672 105.49 25.3829 105.318 24.9037 104.978H24.9037Z" fill="#FFB6B6"/>
<path d="M23.6853 100.462L17.2834 86.5163L17.2192 75.5017L19.2373 69.5521C19.5111 68.7449 19.949 67.9991 20.5253 67.3587C21.1015 66.7184 21.8043 66.1965 22.5922 65.824C23.3801 65.4514 24.237 65.2357 25.1124 65.1896C25.9877 65.1435 26.8637 65.268 27.6886 65.5556L27.7331 65.5711L27.7517 65.6132C27.8263 65.782 29.5189 69.8399 24.4983 78.1877L23.4879 83.8998L27.0333 96.9929L23.6853 100.462Z" fill="#3F3D56"/>
</g>
<defs>
<clipPath id="clip0_3_9298">
<rect width="246" height="148" fill="white"/>
</clipPath>
</defs>
</svg>
