<svg width="225" height="139" viewBox="0 0 225 139" fill="none" xmlns="http://www.w3.org/2000/svg">
<path d="M142.244 61.4465C142.018 60.911 141.641 60.4535 141.157 60.1304C140.674 59.8073 140.107 59.633 139.525 59.6288H85.2637C84.4837 59.6292 83.7358 59.9391 83.1842 60.4902C82.6327 61.0414 82.3227 61.7888 82.3223 62.5683V131.17C82.3227 131.949 82.6327 132.697 83.1842 133.248C83.7358 133.799 84.4837 134.109 85.2637 134.109H139.527C140.307 134.108 141.055 133.798 141.606 133.247C142.158 132.696 142.468 131.949 142.469 131.17V62.5683C142.47 62.1832 142.394 61.8018 142.246 61.4465H142.244ZM141.814 131.17C141.813 131.776 141.572 132.357 141.143 132.786C140.714 133.215 140.132 133.456 139.525 133.457H85.2637C84.6569 133.456 84.075 133.215 83.6459 132.787C83.2168 132.358 82.9757 131.777 82.9755 131.17V62.5687C82.9763 61.9625 83.2176 61.3813 83.6466 60.9527C84.0755 60.524 84.6571 60.2828 85.2637 60.282H139.527C139.984 60.2837 140.43 60.4215 140.809 60.6777C141.187 60.9339 141.48 61.2969 141.651 61.7205C141.685 61.8049 141.713 61.891 141.737 61.9785C141.789 62.1709 141.816 62.3694 141.816 62.5687L141.814 131.17Z" fill="#3F3D56"/>
<path d="M130.92 75.8254H114.575C114.228 75.8254 113.896 75.6877 113.651 75.4427C113.405 75.1976 113.268 74.8652 113.268 74.5187C113.268 74.1721 113.405 73.8397 113.651 73.5947C113.896 73.3496 114.228 73.2119 114.575 73.2119H130.92C131.266 73.2119 131.599 73.3496 131.844 73.5947C132.089 73.8397 132.227 74.1721 132.227 74.5187C132.227 74.8652 132.089 75.1976 131.844 75.4427C131.599 75.6877 131.266 75.8254 130.92 75.8254V75.8254Z" fill="#3F3D56"/>
<path d="M130.92 82.6856H114.575C114.228 82.6856 113.896 82.5479 113.651 82.3029C113.405 82.0578 113.268 81.7254 113.268 81.3788C113.268 81.0323 113.405 80.6999 113.651 80.4548C113.896 80.2098 114.228 80.0721 114.575 80.0721H130.92C131.266 80.0721 131.599 80.2098 131.844 80.4548C132.089 80.6999 132.227 81.0323 132.227 81.3788C132.227 81.7254 132.089 82.0578 131.844 82.3029C131.599 82.5479 131.266 82.6856 130.92 82.6856V82.6856Z" fill="#3F3D56"/>
<path d="M106.189 86.5917H94.2445C93.8545 86.5913 93.4806 86.4363 93.2048 86.1607C92.929 85.8851 92.7739 85.5114 92.7734 85.1216V71.0354C92.7739 70.6456 92.929 70.2719 93.2048 69.9963C93.4806 69.7207 93.8545 69.5657 94.2445 69.5653H106.189C106.579 69.5657 106.953 69.7207 107.229 69.9963C107.505 70.2719 107.66 70.6456 107.66 71.0354V85.1216C107.66 85.5114 107.505 85.8851 107.229 86.1607C106.953 86.4363 106.579 86.5913 106.189 86.5917Z" fill="#486BC9"/>
<path d="M130.806 96.7326H93.8682C93.5214 96.7326 93.1888 96.595 92.9435 96.3499C92.6983 96.1048 92.5605 95.7725 92.5605 95.4259C92.5605 95.0793 92.6983 94.7469 92.9435 94.5019C93.1888 94.2568 93.5214 94.1191 93.8682 94.1191H130.806C130.978 94.1191 131.148 94.1529 131.307 94.2186C131.465 94.2843 131.61 94.3805 131.731 94.5019C131.852 94.6232 131.949 94.7673 132.014 94.9258C132.08 95.0844 132.114 95.2543 132.114 95.4259C132.114 95.5975 132.08 95.7674 132.014 95.926C131.949 96.0845 131.852 96.2286 131.731 96.3499C131.61 96.4712 131.465 96.5675 131.307 96.6332C131.148 96.6988 130.978 96.7326 130.806 96.7326V96.7326Z" fill="#CCCCCC"/>
<path d="M130.806 103.593H93.8682C93.5214 103.593 93.1888 103.455 92.9435 103.21C92.6983 102.965 92.5605 102.633 92.5605 102.286C92.5605 101.939 92.6983 101.607 92.9435 101.362C93.1888 101.117 93.5214 100.979 93.8682 100.979H130.806C131.153 100.979 131.486 101.117 131.731 101.362C131.976 101.607 132.114 101.939 132.114 102.286C132.114 102.633 131.976 102.965 131.731 103.21C131.486 103.455 131.153 103.593 130.806 103.593V103.593Z" fill="#CCCCCC"/>
<path d="M130.806 110.453H93.8682C93.5214 110.453 93.1888 110.315 92.9435 110.07C92.6983 109.825 92.5605 109.493 92.5605 109.146C92.5605 108.8 92.6983 108.467 92.9435 108.222C93.1888 107.977 93.5214 107.839 93.8682 107.839H130.806C131.153 107.839 131.486 107.977 131.731 108.222C131.976 108.467 132.114 108.8 132.114 109.146C132.114 109.493 131.976 109.825 131.731 110.07C131.486 110.315 131.153 110.453 130.806 110.453V110.453Z" fill="#CCCCCC"/>
<path d="M130.806 117.313H93.8682C93.5214 117.313 93.1888 117.175 92.9435 116.93C92.6983 116.685 92.5605 116.353 92.5605 116.006C92.5605 115.66 92.6983 115.327 92.9435 115.082C93.1888 114.837 93.5214 114.7 93.8682 114.7H130.806C131.153 114.7 131.486 114.837 131.731 115.082C131.976 115.327 132.114 115.66 132.114 116.006C132.114 116.353 131.976 116.685 131.731 116.93C131.486 117.175 131.153 117.313 130.806 117.313V117.313Z" fill="#CCCCCC"/>
<path d="M130.806 124.173H93.8682C93.5214 124.173 93.1888 124.036 92.9435 123.791C92.6983 123.545 92.5605 123.213 92.5605 122.866C92.5605 122.52 92.6983 122.188 92.9435 121.942C93.1888 121.697 93.5214 121.56 93.8682 121.56H130.806C131.153 121.56 131.486 121.697 131.731 121.942C131.976 122.188 132.114 122.52 132.114 122.866C132.114 123.213 131.976 123.545 131.731 123.791C131.486 124.036 131.153 124.173 130.806 124.173V124.173Z" fill="#CCCCCC"/>
<path d="M113.314 43.1C120.284 43.1 125.934 37.4539 125.934 30.489C125.934 23.5242 120.284 17.8781 113.314 17.8781C106.345 17.8781 100.695 23.5242 100.695 30.489C100.695 37.4539 106.345 43.1 113.314 43.1Z" fill="#486BC9"/>
<path d="M112.064 35.2997C111.78 35.3002 111.503 35.2084 111.276 35.0382L111.262 35.0277L108.296 32.7605C108.159 32.6554 108.043 32.5241 107.957 32.3743C107.87 32.2246 107.814 32.0592 107.791 31.8876C107.768 31.716 107.779 31.5416 107.824 31.3744C107.869 31.2072 107.946 31.0504 108.051 30.9131C108.157 30.7757 108.288 30.6605 108.438 30.5739C108.588 30.4873 108.754 30.4312 108.925 30.4086C109.097 30.386 109.272 30.3975 109.439 30.4423C109.606 30.4872 109.763 30.5646 109.9 30.67L111.821 32.1421L116.36 26.224C116.573 25.9469 116.887 25.7656 117.233 25.7198C117.58 25.6741 117.93 25.7678 118.207 25.9802L118.208 25.9805L118.18 26.0196L118.209 25.9805C118.486 26.1932 118.667 26.5071 118.712 26.8532C118.758 27.1993 118.665 27.5494 118.452 27.8267L113.113 34.7846C112.99 34.9449 112.831 35.0746 112.649 35.1637C112.467 35.2527 112.267 35.2988 112.065 35.2982L112.064 35.2997Z" fill="white"/>
<path d="M30.2348 24.7281C34.9576 24.7281 38.7861 20.9021 38.7861 16.1824C38.7861 11.4628 34.9576 7.63675 30.2348 7.63675C25.5121 7.63675 21.6836 11.4628 21.6836 16.1824C21.6836 20.9021 25.5121 24.7281 30.2348 24.7281Z" fill="#CCCCCC"/>
<path d="M29.3862 19.442C29.1938 19.4424 29.0066 19.3802 28.8527 19.265L28.8433 19.2579L26.8336 17.7202C26.651 17.5744 26.5329 17.3629 26.5046 17.1312C26.4763 16.8994 26.54 16.6657 26.6821 16.4804C26.8242 16.295 27.0333 16.1727 27.2647 16.1396C27.496 16.1066 27.731 16.1654 27.9194 16.3036L29.2211 17.3011L32.2971 13.2922C32.4411 13.1044 32.6539 12.9815 32.8886 12.9506C33.1233 12.9196 33.3607 12.9831 33.5485 13.127L33.5488 13.1272L33.5296 13.153L33.5492 13.1276C33.7368 13.2718 33.8595 13.4844 33.8905 13.7189C33.9214 13.9534 33.858 14.1906 33.7142 14.3785L30.0961 19.0942C30.0124 19.2029 29.9049 19.2908 29.7817 19.3512C29.6585 19.4116 29.523 19.4428 29.3858 19.4424L29.3862 19.442Z" fill="white"/>
<path d="M54.2644 36.2195C54.0868 35.7983 53.7896 35.4383 53.4094 35.1841C53.0293 34.9299 52.583 34.7927 52.1256 34.7892H9.4277C8.81397 34.7896 8.22547 35.0333 7.7915 35.467C7.35753 35.9007 7.11359 36.4888 7.11328 37.1021V91.0815C7.11359 91.6949 7.35753 92.283 7.7915 92.7167C8.22547 93.1503 8.81397 93.3941 9.4277 93.3944H52.1256C52.7392 93.3936 53.3274 93.1497 53.7612 92.7161C54.1951 92.2825 54.4392 91.6947 54.44 91.0815V37.1021C54.441 36.7992 54.3813 36.4991 54.2644 36.2195ZM53.9261 91.0819C53.9251 91.5585 53.7353 92.0153 53.398 92.3523C53.0608 92.6894 52.6037 92.8791 52.1268 92.88H9.4277C8.9505 92.88 8.49285 92.6906 8.15542 92.3534C7.81799 92.0162 7.62842 91.5588 7.62842 91.0819V37.1021C7.62935 36.6255 7.81922 36.1687 8.15645 35.8317C8.49368 35.4947 8.95079 35.305 9.4277 35.304H52.1256C52.4854 35.3055 52.8366 35.4142 53.1343 35.6161C53.432 35.818 53.6627 36.104 53.797 36.4376C53.8231 36.504 53.8457 36.5717 53.8647 36.6405C53.9056 36.7919 53.9264 36.948 53.9265 37.1049L53.9261 91.0819Z" fill="#CCCCCC"/>
<path d="M45.3527 47.5339H32.4918C32.2189 47.5339 31.9572 47.4255 31.7643 47.2327C31.5713 47.0399 31.4629 46.7783 31.4629 46.5056C31.4629 46.2329 31.5713 45.9714 31.7643 45.7785C31.9572 45.5857 32.2189 45.4774 32.4918 45.4774H45.3523C45.6252 45.4774 45.8869 45.5857 46.0799 45.7785C46.2728 45.9714 46.3812 46.2329 46.3812 46.5056C46.3812 46.7783 46.2728 47.0399 46.0799 47.2327C45.8869 47.4255 45.6252 47.5339 45.3523 47.5339H45.3527Z" fill="#CCCCCC"/>
<path d="M45.3527 52.9321H32.4918C32.2189 52.9321 31.9572 52.8237 31.7643 52.6309C31.5713 52.4381 31.4629 52.1765 31.4629 51.9038C31.4629 51.6311 31.5713 51.3696 31.7643 51.1767C31.9572 50.9839 32.2189 50.8756 32.4918 50.8756H45.3523C45.6252 50.8756 45.8869 50.9839 46.0799 51.1767C46.2728 51.3696 46.3812 51.6311 46.3812 51.9038C46.3812 52.1765 46.2728 52.4381 46.0799 52.6309C45.8869 52.8237 45.6252 52.9321 45.3523 52.9321H45.3527Z" fill="#CCCCCC"/>
<path d="M25.8938 56.0056H16.4953C16.1884 56.0053 15.8942 55.8834 15.6772 55.6665C15.4602 55.4497 15.3382 55.1557 15.3379 54.849V43.7653C15.3382 43.4586 15.4602 43.1646 15.6772 42.9477C15.8942 42.7309 16.1884 42.6089 16.4953 42.6086H25.8938C26.2006 42.609 26.4947 42.731 26.7117 42.9478C26.9287 43.1647 27.0507 43.4586 27.0512 43.7653V54.849C27.0508 55.1557 26.9288 55.4497 26.7118 55.6665C26.4948 55.8834 26.2006 56.0053 25.8938 56.0056V56.0056Z" fill="#CCCCCC"/>
<path d="M45.2637 63.9849H16.1988C15.926 63.9849 15.6642 63.8766 15.4713 63.6838C15.2783 63.4909 15.1699 63.2294 15.1699 62.9567C15.1699 62.684 15.2783 62.4224 15.4713 62.2296C15.6642 62.0368 15.926 61.9284 16.1988 61.9284H45.2637C45.5366 61.9284 45.7983 62.0368 45.9913 62.2296C46.1842 62.4224 46.2926 62.684 46.2926 62.9567C46.2926 63.2294 46.1842 63.4909 45.9913 63.6838C45.7983 63.8766 45.5366 63.9849 45.2637 63.9849V63.9849Z" fill="#CCCCCC"/>
<path d="M45.2637 69.3847H16.1988C15.926 69.3847 15.6642 69.2764 15.4713 69.0835C15.2783 68.8907 15.1699 68.6292 15.1699 68.3565C15.1699 68.0837 15.2783 67.8222 15.4713 67.6294C15.6642 67.4366 15.926 67.3282 16.1988 67.3282H45.2637C45.5366 67.3282 45.7983 67.4366 45.9913 67.6294C46.1842 67.8222 46.2926 68.0837 46.2926 68.3565C46.2926 68.6292 46.1842 68.8907 45.9913 69.0835C45.7983 69.2764 45.5366 69.3847 45.2637 69.3847Z" fill="#CCCCCC"/>
<path d="M45.2637 74.781H16.1988C15.926 74.781 15.6642 74.6726 15.4713 74.4798C15.2783 74.287 15.1699 74.0254 15.1699 73.7527C15.1699 73.48 15.2783 73.2185 15.4713 73.0256C15.6642 72.8328 15.926 72.7245 16.1988 72.7245H45.2637C45.5366 72.7245 45.7983 72.8328 45.9913 73.0256C46.1842 73.2185 46.2926 73.48 46.2926 73.7527C46.2926 74.0254 46.1842 74.287 45.9913 74.4798C45.7983 74.6726 45.5366 74.781 45.2637 74.781V74.781Z" fill="#CCCCCC"/>
<path d="M45.2637 80.1803H16.1988C15.926 80.1803 15.6642 80.072 15.4713 79.8792C15.2783 79.6863 15.1699 79.4248 15.1699 79.1521C15.1699 78.8794 15.2783 78.6178 15.4713 78.425C15.6642 78.2322 15.926 78.1238 16.1988 78.1238H45.2637C45.5366 78.1238 45.7983 78.2322 45.9913 78.425C46.1842 78.6178 46.2926 78.8794 46.2926 79.1521C46.2926 79.4248 46.1842 79.6863 45.9913 79.8792C45.7983 80.072 45.5366 80.1803 45.2637 80.1803Z" fill="#CCCCCC"/>
<path d="M45.2637 85.577H16.1988C15.926 85.577 15.6642 85.4687 15.4713 85.2758C15.2783 85.083 15.1699 84.8215 15.1699 84.5488C15.1699 84.2761 15.2783 84.0145 15.4713 83.8217C15.6642 83.6289 15.926 83.5205 16.1988 83.5205H45.2637C45.5366 83.5205 45.7983 83.6289 45.9913 83.8217C46.1842 84.0145 46.2926 84.2761 46.2926 84.5488C46.2926 84.8215 46.1842 85.083 45.9913 85.2758C45.7983 85.4687 45.5366 85.577 45.2637 85.577Z" fill="#CCCCCC"/>
<path d="M0.309587 93.62H60.3247C60.4064 93.62 60.4847 93.5876 60.5424 93.5299C60.6001 93.4722 60.6326 93.3939 60.6326 93.3123C60.6326 93.2308 60.6001 93.1525 60.5424 93.0948C60.4847 93.0371 60.4064 93.0047 60.3247 93.0047H0.309587C0.269162 93.0045 0.229087 93.0122 0.191651 93.0275C0.154215 93.0427 0.120153 93.0652 0.0914053 93.0936C0.0626581 93.122 0.0397936 93.1558 0.0241114 93.193C0.00842926 93.2302 0.000234572 93.2702 4.96553e-06 93.3106C-0.000224641 93.351 0.00751063 93.391 0.0227685 93.4284C0.0380264 93.4659 0.0605119 93.4999 0.0889344 93.5286C0.117357 93.5574 0.151162 93.5802 0.188422 93.5959C0.225682 93.6116 0.265664 93.6197 0.306089 93.62H0.309587Z" fill="#CCCCCC"/>
<path d="M194.516 24.7281C199.239 24.7281 203.067 20.9021 203.067 16.1824C203.067 11.4628 199.239 7.63675 194.516 7.63675C189.793 7.63675 185.965 11.4628 185.965 16.1824C185.965 20.9021 189.793 24.7281 194.516 24.7281Z" fill="#CCCCCC"/>
<path d="M193.667 19.442C193.475 19.4424 193.288 19.3802 193.134 19.265L193.125 19.2579L191.115 17.7202C190.932 17.5744 190.814 17.3629 190.786 17.1312C190.758 16.8994 190.821 16.6657 190.963 16.4804C191.105 16.295 191.315 16.1727 191.546 16.1396C191.777 16.1066 192.012 16.1654 192.201 16.3036L193.502 17.3011L196.578 13.2922C196.722 13.1044 196.935 12.9815 197.17 12.9506C197.405 12.9196 197.642 12.9831 197.83 13.127L197.83 13.1272L197.811 13.153L197.83 13.1276C198.018 13.2718 198.141 13.4844 198.172 13.7189C198.203 13.9534 198.139 14.1906 197.995 14.3785L194.377 19.0942C194.294 19.2029 194.186 19.2908 194.063 19.3512C193.94 19.4116 193.804 19.4428 193.667 19.4424L193.667 19.442Z" fill="white"/>
<path d="M218.546 36.2195C218.368 35.7983 218.071 35.4383 217.691 35.1841C217.311 34.9299 216.864 34.7927 216.407 34.7892H173.709C173.095 34.7896 172.507 35.0333 172.073 35.467C171.639 35.9007 171.395 36.4888 171.395 37.1021V91.0815C171.395 91.6949 171.639 92.283 172.073 92.7167C172.507 93.1503 173.095 93.3941 173.709 93.3944H216.407C217.02 93.3936 217.609 93.1497 218.042 92.7161C218.476 92.2825 218.72 91.6947 218.721 91.0815V37.1021C218.722 36.7992 218.663 36.4991 218.546 36.2195ZM218.207 91.0819C218.206 91.5585 218.017 92.0153 217.679 92.3523C217.342 92.6894 216.885 92.8791 216.408 92.88H173.709C173.473 92.88 173.239 92.8335 173.02 92.7432C172.802 92.6528 172.604 92.5203 172.437 92.3534C172.27 92.1864 172.137 91.9882 172.047 91.77C171.956 91.5519 171.91 91.3181 171.91 91.0819V91.0819V37.1021C171.911 36.6255 172.1 36.1687 172.438 35.8317C172.775 35.4947 173.232 35.305 173.709 35.304H216.407C216.767 35.3055 217.118 35.4142 217.416 35.6161C217.713 35.818 217.944 36.104 218.078 36.4376C218.104 36.504 218.127 36.5717 218.146 36.6405C218.187 36.7919 218.208 36.948 218.208 37.1049L218.207 91.0819Z" fill="#CCCCCC"/>
<path d="M209.634 47.5339H196.773C196.5 47.5339 196.238 47.4255 196.045 47.2327C195.853 47.0399 195.744 46.7783 195.744 46.5056C195.744 46.2329 195.853 45.9714 196.045 45.7785C196.238 45.5857 196.5 45.4774 196.773 45.4774H209.634C209.906 45.4774 210.168 45.5857 210.361 45.7785C210.554 45.9714 210.662 46.2329 210.662 46.5056C210.662 46.7783 210.554 47.0399 210.361 47.2327C210.168 47.4255 209.906 47.5339 209.634 47.5339H209.634Z" fill="#CCCCCC"/>
<path d="M209.634 52.9321H196.773C196.5 52.9321 196.238 52.8237 196.045 52.6309C195.853 52.4381 195.744 52.1765 195.744 51.9038C195.744 51.6311 195.853 51.3696 196.045 51.1767C196.238 50.9839 196.5 50.8756 196.773 50.8756H209.634C209.906 50.8756 210.168 50.9839 210.361 51.1767C210.554 51.3696 210.662 51.6311 210.662 51.9038C210.662 52.1765 210.554 52.4381 210.361 52.6309C210.168 52.8237 209.906 52.9321 209.634 52.9321H209.634Z" fill="#CCCCCC"/>
<path d="M190.175 56.0056H180.777C180.47 56.0053 180.175 55.8834 179.958 55.6665C179.741 55.4497 179.619 55.1557 179.619 54.849V43.7653C179.619 43.4586 179.741 43.1646 179.958 42.9477C180.175 42.7309 180.47 42.6089 180.777 42.6086H190.175C190.482 42.609 190.776 42.731 190.993 42.9478C191.21 43.1647 191.332 43.4586 191.332 43.7653V54.849C191.332 55.1557 191.21 55.4497 190.993 55.6665C190.776 55.8834 190.482 56.0053 190.175 56.0056V56.0056Z" fill="#CCCCCC"/>
<path d="M209.545 63.9849H180.48C180.207 63.9849 179.945 63.8766 179.753 63.6838C179.56 63.4909 179.451 63.2294 179.451 62.9567C179.451 62.684 179.56 62.4224 179.753 62.2296C179.945 62.0368 180.207 61.9284 180.48 61.9284H209.545C209.818 61.9284 210.08 62.0368 210.273 62.2296C210.465 62.4224 210.574 62.684 210.574 62.9567C210.574 63.2294 210.465 63.4909 210.273 63.6838C210.08 63.8766 209.818 63.9849 209.545 63.9849V63.9849Z" fill="#CCCCCC"/>
<path d="M209.545 69.3847H180.48C180.207 69.3847 179.945 69.2764 179.753 69.0835C179.56 68.8907 179.451 68.6292 179.451 68.3565C179.451 68.0837 179.56 67.8222 179.753 67.6294C179.945 67.4366 180.207 67.3282 180.48 67.3282H209.545C209.818 67.3282 210.08 67.4366 210.273 67.6294C210.465 67.8222 210.574 68.0837 210.574 68.3565C210.574 68.6292 210.465 68.8907 210.273 69.0835C210.08 69.2764 209.818 69.3847 209.545 69.3847Z" fill="#CCCCCC"/>
<path d="M209.545 74.781H180.48C180.207 74.781 179.945 74.6726 179.753 74.4798C179.56 74.287 179.451 74.0254 179.451 73.7527C179.451 73.48 179.56 73.2185 179.753 73.0256C179.945 72.8328 180.207 72.7245 180.48 72.7245H209.545C209.818 72.7245 210.08 72.8328 210.273 73.0256C210.465 73.2185 210.574 73.48 210.574 73.7527C210.574 74.0254 210.465 74.287 210.273 74.4798C210.08 74.6726 209.818 74.781 209.545 74.781V74.781Z" fill="#CCCCCC"/>
<path d="M209.545 80.1803H180.48C180.207 80.1803 179.945 80.072 179.753 79.8792C179.56 79.6863 179.451 79.4248 179.451 79.1521C179.451 78.8794 179.56 78.6178 179.753 78.425C179.945 78.2322 180.207 78.1238 180.48 78.1238H209.545C209.818 78.1238 210.08 78.2322 210.273 78.425C210.465 78.6178 210.574 78.8794 210.574 79.1521C210.574 79.4248 210.465 79.6863 210.273 79.8792C210.08 80.072 209.818 80.1803 209.545 80.1803Z" fill="#CCCCCC"/>
<path d="M209.545 85.577H180.48C180.207 85.577 179.945 85.4687 179.753 85.2758C179.56 85.083 179.451 84.8215 179.451 84.5488C179.451 84.2761 179.56 84.0145 179.753 83.8217C179.945 83.6289 180.207 83.5205 180.48 83.5205H209.545C209.818 83.5205 210.08 83.6289 210.273 83.8217C210.465 84.0145 210.574 84.2761 210.574 84.5488C210.574 84.8215 210.465 85.083 210.273 85.2758C210.08 85.4687 209.818 85.577 209.545 85.577Z" fill="#CCCCCC"/>
<path d="M164.591 93.62H224.606C224.688 93.62 224.766 93.5876 224.824 93.5299C224.881 93.4722 224.914 93.3939 224.914 93.3123C224.914 93.2308 224.881 93.1525 224.824 93.0948C224.766 93.0371 224.688 93.0047 224.606 93.0047H164.591C164.55 93.0045 164.51 93.0122 164.473 93.0275C164.435 93.0427 164.401 93.0652 164.373 93.0936C164.344 93.122 164.321 93.1558 164.305 93.193C164.29 93.2302 164.281 93.2702 164.281 93.3106C164.281 93.351 164.289 93.391 164.304 93.4284C164.319 93.4659 164.342 93.4999 164.37 93.5286C164.399 93.5574 164.432 93.5802 164.47 93.5959C164.507 93.6116 164.547 93.6197 164.587 93.62H164.591Z" fill="#CCCCCC"/>
<path d="M73.9283 134.344H150.202C150.306 134.344 150.405 134.302 150.478 134.229C150.552 134.156 150.593 134.056 150.593 133.953C150.593 133.849 150.552 133.75 150.478 133.676C150.405 133.603 150.306 133.562 150.202 133.562H73.9283C73.8245 133.562 73.725 133.603 73.6517 133.676C73.5783 133.75 73.5371 133.849 73.5371 133.953C73.5371 134.056 73.5783 134.156 73.6517 134.229C73.725 134.302 73.8245 134.344 73.9283 134.344Z" fill="#3F3D56"/>
</svg>
