<svg width="225" height="139" fill="none" xmlns="http://www.w3.org/2000/svg"><path d="M142.244 61.447a2.969 2.969 0 0 0-2.719-1.818H85.264a2.944 2.944 0 0 0-2.942 2.94v68.601a2.94 2.94 0 0 0 2.942 2.939h54.263a2.946 2.946 0 0 0 2.942-2.939V62.568a2.898 2.898 0 0 0-.223-1.121h-.002Zm-.43 69.723a2.29 2.29 0 0 1-2.289 2.287H85.264a2.287 2.287 0 0 1-2.288-2.287V62.569a2.289 2.289 0 0 1 2.288-2.287h54.263a2.304 2.304 0 0 1 2.124 1.439 2.263 2.263 0 0 1 .165.848l-.002 68.601Z" fill="#3F3D56"/><path d="M130.92 75.825h-16.345a1.306 1.306 0 1 1 0-2.613h16.345a1.308 1.308 0 0 1 0 2.613Zm0 6.861h-16.345a1.306 1.306 0 1 1 0-2.614h16.345a1.308 1.308 0 0 1 0 2.614Z" fill="#3F3D56"/><path d="M106.189 86.592H94.245a1.473 1.473 0 0 1-1.472-1.47V71.035a1.472 1.472 0 0 1 1.472-1.47h11.944a1.474 1.474 0 0 1 1.471 1.47v14.087a1.468 1.468 0 0 1-1.471 1.47Z" fill="#486BC9"/><path d="M130.806 96.733H93.868a1.308 1.308 0 0 1-.924-2.231c.245-.245.577-.383.924-.383h36.938a1.311 1.311 0 0 1 1.208.807 1.301 1.301 0 0 1-.283 1.424 1.31 1.31 0 0 1-.925.383Zm0 6.86H93.868a1.309 1.309 0 0 1-1.307-1.307 1.306 1.306 0 0 1 1.307-1.307h36.938a1.309 1.309 0 0 1 .925 2.231 1.309 1.309 0 0 1-.925.383Zm0 6.86H93.868a1.309 1.309 0 0 1-1.307-1.307 1.307 1.307 0 0 1 1.307-1.307h36.938a1.309 1.309 0 0 1 .925 2.231 1.309 1.309 0 0 1-.925.383Zm0 6.86H93.868a1.309 1.309 0 0 1-1.307-1.307 1.307 1.307 0 0 1 1.307-1.306h36.938a1.308 1.308 0 0 1 .925 2.23 1.309 1.309 0 0 1-.925.383Zm0 6.86H93.868a1.308 1.308 0 0 1-.924-2.231c.245-.245.577-.382.924-.382h36.938a1.308 1.308 0 0 1 .925 2.231 1.308 1.308 0 0 1-.925.382Z" fill="#CCC"/><path d="M113.314 43.1c6.97 0 12.62-5.646 12.62-12.611 0-6.965-5.65-12.61-12.62-12.61-6.969 0-12.619 5.645-12.619 12.61s5.65 12.611 12.619 12.611Z" fill="#486BC9"/><path d="M112.064 35.3a1.31 1.31 0 0 1-.788-.262l-.014-.01-2.966-2.267a1.31 1.31 0 0 1-.505-.873 1.306 1.306 0 0 1 .26-.975 1.326 1.326 0 0 1 .874-.504 1.321 1.321 0 0 1 .975.261l1.921 1.472 4.539-5.918a1.32 1.32 0 0 1 1.847-.244h.001l-.028.04.029-.04a1.315 1.315 0 0 1 .243 1.847l-5.339 6.958a1.312 1.312 0 0 1-1.048.513l-.001.002Z" fill="#fff"/><path d="M30.235 24.728c4.723 0 8.551-3.826 8.551-8.546 0-4.72-3.828-8.545-8.551-8.545-4.723 0-8.551 3.826-8.551 8.545 0 4.72 3.828 8.546 8.55 8.546Z" fill="#CCC"/><path d="M29.386 19.442a.887.887 0 0 1-.533-.177l-.01-.007-2.01-1.538a.892.892 0 0 1 1.086-1.416l1.302.997 3.076-4.009a.892.892 0 0 1 1.252-.165l-.02.026.02-.025a.893.893 0 0 1 .165 1.25l-3.618 4.716a.893.893 0 0 1-.71.348Z" fill="#fff"/><path d="M54.264 36.22a2.338 2.338 0 0 0-2.138-1.43H9.428a2.317 2.317 0 0 0-2.315 2.312v53.98a2.313 2.313 0 0 0 2.315 2.312h42.698a2.318 2.318 0 0 0 2.314-2.313V37.103a2.269 2.269 0 0 0-.176-.883Zm-.338 54.862a1.801 1.801 0 0 1-1.8 1.798H9.429a1.8 1.8 0 0 1-1.8-1.798v-53.98a1.801 1.801 0 0 1 1.8-1.798h42.698a1.81 1.81 0 0 1 1.8 1.8v53.978Z" fill="#CCC"/><path d="M45.353 47.534H32.492a1.03 1.03 0 1 1 0-2.057h12.86a1.03 1.03 0 1 1 0 2.057Zm0 5.398H32.492a1.03 1.03 0 1 1 0-2.056h12.86a1.03 1.03 0 1 1 0 2.056Zm-19.459 3.074h-9.399a1.159 1.159 0 0 1-1.157-1.157V43.765a1.158 1.158 0 0 1 1.157-1.156h9.399a1.16 1.16 0 0 1 1.157 1.156V54.85a1.158 1.158 0 0 1-1.157 1.157Zm19.37 7.979H16.199a1.03 1.03 0 1 1 0-2.057h29.065a1.03 1.03 0 0 1 .727 1.756 1.03 1.03 0 0 1-.727.3Zm0 5.4H16.199a1.029 1.029 0 1 1 0-2.057h29.065a1.03 1.03 0 0 1 .727 1.755 1.03 1.03 0 0 1-.727.302Zm0 5.396H16.199a1.03 1.03 0 0 1 0-2.056h29.065a1.03 1.03 0 1 1 0 2.056Zm0 5.399H16.199a1.03 1.03 0 1 1 0-2.056h29.065a1.03 1.03 0 0 1 .727 1.755 1.03 1.03 0 0 1-.727.301Zm0 5.397H16.199a1.029 1.029 0 1 1 0-2.056h29.065a1.03 1.03 0 0 1 .727 1.755 1.03 1.03 0 0 1-.727.301ZM.31 93.62h60.015a.308.308 0 1 0 0-.615H.31a.308.308 0 0 0-.004.615H.31Zm194.206-68.892c4.723 0 8.551-3.826 8.551-8.546 0-4.72-3.828-8.545-8.551-8.545-4.723 0-8.551 3.826-8.551 8.545 0 4.72 3.828 8.546 8.551 8.546Z" fill="#CCC"/><path d="M193.667 19.442a.887.887 0 0 1-.533-.177l-.009-.007-2.01-1.538a.89.89 0 0 1-.152-1.24.895.895 0 0 1 1.238-.176l1.301.997 3.076-4.009a.893.893 0 0 1 1.252-.165l-.019.026.019-.025a.893.893 0 0 1 .165 1.25l-3.618 4.716a.887.887 0 0 1-.71.348Z" fill="#fff"/><path d="M218.546 36.22a2.342 2.342 0 0 0-2.139-1.43h-42.698a2.316 2.316 0 0 0-2.314 2.312v53.98a2.312 2.312 0 0 0 2.314 2.312h42.698a2.316 2.316 0 0 0 2.314-2.313V37.103a2.266 2.266 0 0 0-.175-.883Zm-.339 54.862a1.798 1.798 0 0 1-1.799 1.798h-42.699a1.807 1.807 0 0 1-1.272-.527 1.793 1.793 0 0 1-.527-1.271v-53.98a1.798 1.798 0 0 1 1.799-1.798h42.698a1.812 1.812 0 0 1 1.739 1.337c.041.15.062.307.062.464l-.001 53.977Z" fill="#CCC"/><path d="M209.634 47.534h-12.861a1.03 1.03 0 0 1-1.029-1.028 1.032 1.032 0 0 1 1.029-1.029h12.861a1.03 1.03 0 0 1 .727 1.756 1.03 1.03 0 0 1-.727.3Zm0 5.398h-12.861a1.03 1.03 0 0 1-1.029-1.028 1.032 1.032 0 0 1 1.029-1.028h12.861a1.03 1.03 0 0 1 .727 1.755 1.03 1.03 0 0 1-.727.301Zm-19.459 3.074h-9.398a1.16 1.16 0 0 1-1.158-1.157V43.765a1.156 1.156 0 0 1 1.158-1.156h9.398a1.16 1.16 0 0 1 1.157 1.156V54.85a1.156 1.156 0 0 1-1.157 1.157Zm19.37 7.979H180.48a1.026 1.026 0 0 1-1.029-1.028 1.028 1.028 0 0 1 1.029-1.029h29.065a1.03 1.03 0 0 1 1.029 1.029 1.032 1.032 0 0 1-1.029 1.028Zm0 5.4H180.48a1.026 1.026 0 0 1-1.029-1.029 1.028 1.028 0 0 1 1.029-1.028h29.065a1.03 1.03 0 0 1 1.029 1.028 1.031 1.031 0 0 1-1.029 1.029Zm0 5.396H180.48a1.026 1.026 0 0 1-1.029-1.028 1.029 1.029 0 0 1 1.029-1.028h29.065a1.03 1.03 0 0 1 1.029 1.028 1.032 1.032 0 0 1-1.029 1.028Zm0 5.399H180.48a1.026 1.026 0 0 1-1.029-1.028 1.028 1.028 0 0 1 1.029-1.028h29.065a1.03 1.03 0 0 1 1.029 1.028 1.032 1.032 0 0 1-1.029 1.028Zm0 5.397H180.48a1.026 1.026 0 0 1-1.029-1.028 1.028 1.028 0 0 1 1.029-1.029h29.065a1.03 1.03 0 0 1 1.029 1.029 1.031 1.031 0 0 1-1.029 1.028Zm-44.954 8.043h60.015a.309.309 0 0 0 .218-.525.309.309 0 0 0-.218-.09h-60.015a.304.304 0 0 0-.218.089.31.31 0 0 0-.092.217.317.317 0 0 0 .089.218.308.308 0 0 0 .217.091h.004Z" fill="#CCC"/><path d="M73.928 134.344h76.274a.39.39 0 0 0 0-.782H73.928a.392.392 0 0 0-.39.391.39.39 0 0 0 .39.391Z" fill="#3F3D56"/></svg>