<svg width="246" height="148" viewBox="0 0 246 148" fill="none" xmlns="http://www.w3.org/2000/svg">
<g clip-path="url(#clip0_18_12751)">
<path d="M59.5835 133.404L59.857 127.443C62.7085 125.966 65.8889 125.186 69.1221 125.17C64.6723 128.696 65.2284 135.494 62.2115 140.235C61.2588 141.707 59.9767 142.953 58.46 143.879C56.9433 144.806 55.2309 145.389 53.4498 145.587L49.726 147.797C49.2151 145.036 49.3277 142.2 50.0562 139.486C50.7848 136.771 52.1118 134.242 53.946 132.072C54.9874 130.865 56.1815 129.789 57.5002 128.871C58.392 131.15 59.5835 133.404 59.5835 133.404Z" fill="#F2F2F2"/>
<path d="M218.476 9.7127H45.1246C45.0518 9.71115 44.9826 9.68204 44.9317 9.63161C44.8808 9.58118 44.8523 9.51344 44.8523 9.4429C44.8523 9.37235 44.8808 9.30461 44.9317 9.25418C44.9826 9.20375 45.0518 9.17465 45.1246 9.1731H218.476C218.549 9.17465 218.618 9.20375 218.669 9.25418C218.72 9.30461 218.749 9.37235 218.749 9.4429C218.749 9.51344 218.72 9.58118 218.669 9.63161C218.618 9.68204 218.549 9.71115 218.476 9.7127Z" fill="#CACACA"/>
<path d="M51.2532 5.93557C52.9074 5.93557 54.2484 4.60685 54.2484 2.96779C54.2484 1.32872 52.9074 0 51.2532 0C49.5991 0 48.2581 1.32872 48.2581 2.96779C48.2581 4.60685 49.5991 5.93557 51.2532 5.93557Z" fill="#3F3D56"/>
<path d="M61.6003 5.93557C63.2545 5.93557 64.5955 4.60685 64.5955 2.96779C64.5955 1.32872 63.2545 0 61.6003 0C59.9461 0 58.6051 1.32872 58.6051 2.96779C58.6051 4.60685 59.9461 5.93557 61.6003 5.93557Z" fill="#3F3D56"/>
<path d="M71.9472 5.93557C73.6014 5.93557 74.9424 4.60685 74.9424 2.96779C74.9424 1.32872 73.6014 0 71.9472 0C70.293 0 68.952 1.32872 68.952 2.96779C68.952 4.60685 70.293 5.93557 71.9472 5.93557Z" fill="#3F3D56"/>
<path d="M212.276 0.735596H204.926C204.78 0.738399 204.641 0.796462 204.539 0.897317C204.437 0.998171 204.38 1.13377 204.38 1.27501C204.38 1.41624 204.437 1.55185 204.539 1.6527C204.641 1.75356 204.78 1.81162 204.926 1.81442H212.276C212.421 1.81162 212.56 1.75356 212.662 1.6527C212.764 1.55185 212.821 1.41624 212.821 1.27501C212.821 1.13377 212.764 0.998171 212.662 0.897317C212.56 0.796462 212.421 0.738399 212.276 0.735596Z" fill="#3F3D56"/>
<path d="M212.276 2.7605H204.926C204.78 2.7633 204.641 2.82136 204.539 2.92222C204.437 3.02307 204.38 3.15868 204.38 3.29991C204.38 3.44115 204.437 3.57675 204.539 3.6776C204.641 3.77846 204.78 3.83652 204.926 3.83932H212.276C212.421 3.83652 212.56 3.77846 212.662 3.6776C212.764 3.57675 212.821 3.44115 212.821 3.29991C212.821 3.15868 212.764 3.02307 212.662 2.92222C212.56 2.82136 212.421 2.7633 212.276 2.7605Z" fill="#3F3D56"/>
<path d="M212.276 4.78247H204.926C204.78 4.78527 204.641 4.84333 204.539 4.94419C204.437 5.04504 204.38 5.18065 204.38 5.32188C204.38 5.46312 204.437 5.59872 204.539 5.69958C204.641 5.80043 204.78 5.85849 204.926 5.8613H212.276C212.421 5.85849 212.56 5.80043 212.662 5.69958C212.764 5.59872 212.821 5.46312 212.821 5.32188C212.821 5.18065 212.764 5.04504 212.662 4.94419C212.56 4.84333 212.421 4.78527 212.276 4.78247Z" fill="#3F3D56"/>
<path d="M180.038 30.8613H61.0542C60.4679 30.8614 59.9056 31.0869 59.4908 31.4885C59.076 31.8901 58.8425 32.4348 58.8418 33.003V87.4413C58.8424 88.0098 59.0757 88.5549 59.4905 88.9569C59.9053 89.3589 60.4676 89.5851 61.0542 89.5857H180.038C180.624 89.5845 181.186 89.3581 181.6 88.9562C182.014 88.5542 182.247 88.0094 182.248 87.4413V33.003C182.247 32.4352 182.014 31.8908 181.6 31.4893C181.186 31.0877 180.624 30.8619 180.038 30.8613Z" fill="#3F3D56"/>
<path d="M148.61 57.0879C148.024 57.0885 147.462 57.3143 147.048 57.7158C146.633 58.1173 146.4 58.6618 146.4 59.2296V74.6069C146.4 75.175 146.633 75.7198 147.047 76.1217C147.462 76.5237 148.023 76.7501 148.61 76.7513H182.248V57.0879H148.61Z" fill="#6C63FF"/>
<path opacity="0.5" d="M238.809 76.75H148.611C148.024 76.7494 147.462 76.5234 147.048 76.1215C146.633 75.7197 146.4 75.1749 146.399 74.6066V59.23C146.4 58.6617 146.633 58.1169 147.048 57.7151C147.462 57.3133 148.024 57.0873 148.611 57.0867H238.809C239.395 57.0873 239.957 57.3133 240.372 57.7151C240.786 58.1169 241.02 58.6617 241.02 59.23V74.6066C241.02 75.1749 240.786 75.7197 240.372 76.1215C239.957 76.5234 239.395 76.7494 238.809 76.75Z" fill="#486BC9"/>
<path d="M160.809 71.3796C162.79 71.3796 164.397 69.8224 164.397 67.9015C164.397 65.9805 162.79 64.4233 160.809 64.4233C158.827 64.4233 157.22 65.9805 157.22 67.9015C157.22 69.8224 158.827 71.3796 160.809 71.3796Z" fill="white"/>
<path d="M236.014 66.8908H171.174C170.89 66.8908 170.619 66.7816 170.418 66.5874C170.218 66.3932 170.105 66.1297 170.105 65.855C170.105 65.5804 170.218 65.3169 170.418 65.1227C170.619 64.9284 170.89 64.8193 171.174 64.8193H236.014C236.298 64.8193 236.569 64.9284 236.77 65.1227C236.97 65.3169 237.083 65.5804 237.083 65.855C237.083 66.1297 236.97 66.3932 236.77 66.5874C236.569 66.7816 236.298 66.8908 236.014 66.8908Z" fill="white"/>
<path d="M211.387 70.9834H171.174C170.89 70.9834 170.619 70.8743 170.418 70.68C170.218 70.4858 170.105 70.2223 170.105 69.9476C170.105 69.6729 170.218 69.4095 170.418 69.2152C170.619 69.021 170.89 68.9119 171.174 68.9119H211.387C211.671 68.9119 211.942 69.021 212.143 69.2152C212.343 69.4095 212.456 69.6729 212.456 69.9476C212.456 70.2223 212.343 70.4858 212.143 70.68C211.942 70.8743 211.671 70.9834 211.387 70.9834Z" fill="white"/>
<path d="M41.508 144.961L44.6136 144.96L46.091 133.35H41.5074L41.508 144.961Z" fill="#FFB6B6"/>
<path d="M40.7159 143.978L41.5901 143.978L45.0028 142.633L46.8319 143.978H46.8321C47.8658 143.978 48.8571 144.376 49.588 145.084C50.319 145.792 50.7296 146.753 50.7297 147.755V147.878L40.7161 147.878L40.7159 143.978Z" fill="#2F2E41"/>
<path d="M13.4474 141.047L16.227 142.39L22.8927 132.638L18.7906 130.656L13.4474 141.047Z" fill="#FFB6B6"/>
<path d="M13.1907 139.825L13.973 140.203L17.6465 140.475L18.6645 142.469L18.6647 142.469C19.5898 142.916 20.2938 143.701 20.6219 144.651C20.95 145.601 20.8753 146.639 20.4143 147.535L20.3578 147.645L11.3956 143.316L13.1907 139.825Z" fill="#2F2E41"/>
<path d="M42.884 92.2307L23.138 92.73L23.4814 102.05C23.4814 102.05 23.138 104.546 23.8248 105.212C24.5117 105.878 24.8551 105.878 24.5117 107.042C24.1683 108.207 23.2805 119.338 23.2805 119.338C23.2805 119.338 15.1762 133.228 15.5196 133.56C15.863 133.893 16.2064 133.56 15.863 134.393C15.5196 135.225 15.1762 134.892 15.5196 135.225C15.8238 135.543 16.1103 135.876 16.3781 136.223H21.975C21.975 136.223 22.288 134.559 22.288 134.393C22.288 134.226 22.6314 133.228 22.6314 133.061C22.6314 132.895 32.41 122.853 32.41 122.853L34.4705 106.21L39.4499 122.52C39.4499 122.52 39.4499 136.832 39.7933 137.165C40.1367 137.498 40.1367 137.332 39.965 137.997C39.7933 138.663 39.1065 138.497 39.6216 138.996C40.1367 139.495 40.3084 138.663 40.1367 139.495L39.965 140.327L46.5617 140.399C46.5617 140.399 47.2485 138.996 46.9051 138.497C46.5617 137.997 46.5823 138.134 47.0013 137.317C47.4202 136.5 47.5919 136.333 47.4202 136.167C47.2485 136 47.2485 135.115 47.2485 135.115C47.2485 135.115 44.7727 102.383 44.7727 101.883C44.7598 101.626 44.8086 101.37 44.9153 101.135V100.457L44.2576 98.0556L42.884 92.2307Z" fill="#2F2E41"/>
<path d="M238.423 63.334C236.924 63.334 235.46 62.9033 234.213 62.0963C232.967 61.2893 231.996 60.1424 231.423 58.8004C230.849 57.4585 230.699 55.9818 230.992 54.5573C231.284 53.1327 232.006 51.8241 233.065 50.797C234.125 49.7699 235.475 49.0705 236.945 48.7871C238.415 48.5037 239.938 48.6492 241.323 49.205C242.707 49.7609 243.89 50.7022 244.723 51.9099C245.556 53.1176 246 54.5375 246 55.99C246 57.9377 245.202 59.8057 243.781 61.183C242.36 62.5603 240.433 63.334 238.423 63.334Z" fill="#486BC9"/>
<path d="M241.413 55.2657H239.17V53.0924C239.17 52.9002 239.092 52.716 238.952 52.5801C238.811 52.4442 238.621 52.3679 238.423 52.3679C238.225 52.3679 238.035 52.4442 237.895 52.5801C237.754 52.716 237.676 52.9002 237.676 53.0924V55.2657H235.433C235.335 55.2655 235.238 55.2841 235.147 55.3204C235.056 55.3568 234.973 55.4101 234.904 55.4774C234.834 55.5447 234.779 55.6246 234.742 55.7126C234.704 55.8006 234.685 55.8949 234.685 55.9901C234.685 56.0854 234.704 56.1797 234.742 56.2677C234.779 56.3557 234.834 56.4356 234.904 56.5029C234.973 56.5702 235.056 56.6235 235.147 56.6598C235.238 56.6961 235.335 56.7147 235.433 56.7146H237.676V58.8879C237.676 59.08 237.754 59.2643 237.895 59.4002C238.035 59.536 238.225 59.6123 238.423 59.6123C238.621 59.6123 238.811 59.536 238.952 59.4002C239.092 59.2643 239.17 59.08 239.17 58.8879V56.7146H241.413C241.611 56.7146 241.801 56.6382 241.941 56.5024C242.081 56.3665 242.16 56.1823 242.16 55.9901C242.16 55.798 242.081 55.6137 241.941 55.4779C241.801 55.342 241.611 55.2657 241.413 55.2657Z" fill="white"/>
<path d="M122.787 76.8496H93.9988C93.4122 76.8502 92.8498 77.0764 92.4351 77.4784C92.0203 77.8804 91.787 78.4254 91.7864 78.994V89.5856H124.997V78.994C124.996 78.4259 124.764 77.8811 124.349 77.4791C123.935 77.0772 123.373 76.8508 122.787 76.8496Z" fill="#6C63FF"/>
<path opacity="0.5" d="M122.786 106.61H93.9978C93.4115 106.61 92.8494 106.384 92.4348 105.982C92.0202 105.58 91.787 105.035 91.7864 104.467V78.9929C91.787 78.4247 92.0202 77.8799 92.4348 77.4781C92.8494 77.0763 93.4115 76.8502 93.9978 76.8496H122.786C123.373 76.8502 123.935 77.0763 124.349 77.4781C124.764 77.8799 124.997 78.4247 124.998 78.9929V104.467C124.997 105.035 124.764 105.58 124.349 105.982C123.935 106.384 123.373 106.61 122.786 106.61Z" fill="#486BC9"/>
<path d="M102.48 88.924C104.461 88.924 106.068 87.3668 106.068 85.4459C106.068 83.525 104.461 81.9678 102.48 81.9678C100.498 81.9678 98.8912 83.525 98.8912 85.4459C98.8912 87.3668 100.498 88.924 102.48 88.924Z" fill="white"/>
<path d="M116.824 94.2106H99.9598C99.6764 94.2106 99.4046 94.1015 99.2042 93.9072C99.0038 93.713 98.8912 93.4495 98.8912 93.1749C98.8912 92.9002 99.0038 92.6367 99.2042 92.4425C99.4046 92.2483 99.6764 92.1392 99.9598 92.1392H116.824C117.107 92.1392 117.379 92.2483 117.579 92.4425C117.78 92.6367 117.892 92.9002 117.892 93.1749C117.892 93.4495 117.78 93.713 117.579 93.9072C117.379 94.1015 117.107 94.2106 116.824 94.2106Z" fill="white"/>
<path d="M108.098 98.3032H99.9598C99.6764 98.3032 99.4046 98.1941 99.2042 97.9998C99.0038 97.8056 98.8912 97.5422 98.8912 97.2675C98.8912 96.9928 99.0038 96.7293 99.2042 96.5351C99.4046 96.3408 99.6764 96.2317 99.9598 96.2317H108.098C108.381 96.2317 108.653 96.3408 108.853 96.5351C109.054 96.7293 109.166 96.9928 109.166 97.2675C109.166 97.5422 109.054 97.8056 108.853 97.9998C108.653 98.1941 108.381 98.3032 108.098 98.3032Z" fill="white"/>
<path d="M93.3976 114.087C91.899 114.087 90.4341 113.656 89.1881 112.849C87.942 112.042 86.9709 110.895 86.3974 109.553C85.8239 108.211 85.6739 106.735 85.9662 105.31C86.2586 103.885 86.9802 102.577 88.0399 101.55C89.0995 100.523 90.4496 99.8232 91.9194 99.5398C93.3892 99.2564 94.9127 99.4019 96.2972 99.9577C97.6817 100.514 98.865 101.455 99.6976 102.663C100.53 103.87 100.975 105.29 100.975 106.743C100.975 108.69 100.176 110.558 98.7553 111.936C97.3343 113.313 95.4071 114.087 93.3976 114.087Z" fill="#486BC9"/>
<path d="M96.3873 106.018H94.145V103.845C94.145 103.653 94.0663 103.469 93.9261 103.333C93.786 103.197 93.5958 103.121 93.3976 103.121C93.1994 103.121 93.0093 103.197 92.8691 103.333C92.7289 103.469 92.6502 103.653 92.6502 103.845V106.018H90.4079C90.3096 106.018 90.2123 106.037 90.1214 106.073C90.0306 106.109 89.948 106.163 89.8785 106.23C89.8089 106.297 89.7537 106.377 89.7161 106.465C89.6784 106.553 89.6591 106.648 89.6591 106.743C89.6591 106.838 89.6784 106.932 89.7161 107.02C89.7537 107.108 89.8089 107.188 89.8785 107.256C89.948 107.323 90.0306 107.376 90.1214 107.413C90.2123 107.449 90.3096 107.467 90.4079 107.467H92.6502V109.641C92.6502 109.833 92.7289 110.017 92.8691 110.153C93.0093 110.289 93.1994 110.365 93.3976 110.365C93.5958 110.365 93.786 110.289 93.9261 110.153C94.0663 110.017 94.145 109.833 94.145 109.641V107.467H96.3873C96.5855 107.467 96.7756 107.391 96.9158 107.255C97.0559 107.119 97.1347 106.935 97.1347 106.743C97.1347 106.551 97.0559 106.366 96.9158 106.231C96.7756 106.095 96.5855 106.018 96.3873 106.018Z" fill="white"/>
<path d="M89.8903 60.6553H61.1018C60.5155 60.6546 59.9534 60.4286 59.5388 60.0268C59.1242 59.625 58.891 59.0801 58.8904 58.5119V33.0378C58.8911 32.4696 59.1243 31.9248 59.5388 31.523C59.9534 31.1212 60.5155 30.8952 61.1018 30.8945H89.8903C90.4766 30.8952 91.0387 31.1212 91.4533 31.523C91.8679 31.9248 92.1011 32.4696 92.1017 33.0378V58.5119C92.1011 59.0801 91.8679 59.625 91.4533 60.0268C91.0387 60.4286 90.4766 60.6546 89.8903 60.6553Z" fill="#6C63FF"/>
<path d="M69.5838 45.0949C71.5657 45.0949 73.1723 43.5377 73.1723 41.6168C73.1723 39.6959 71.5657 38.1387 69.5838 38.1387C67.602 38.1387 65.9954 39.6959 65.9954 41.6168C65.9954 43.5377 67.602 45.0949 69.5838 45.0949Z" fill="#6C63FF"/>
<path d="M83.928 49.3185H67.0639C66.7805 49.3185 66.5087 49.2094 66.3083 49.0151C66.1079 48.8209 65.9954 48.5575 65.9954 48.2828C65.9954 48.0081 66.1079 47.7447 66.3083 47.5504C66.5087 47.3562 66.7805 47.2471 67.0639 47.2471H83.928C84.2114 47.2471 84.4832 47.3562 84.6836 47.5504C84.884 47.7447 84.9966 48.0081 84.9966 48.2828C84.9966 48.5575 84.884 48.8209 84.6836 49.0151C84.4832 49.2094 84.2114 49.3185 83.928 49.3185Z" fill="#6C63FF"/>
<path d="M75.2018 53.4111H67.064C66.7806 53.4111 66.5088 53.302 66.3084 53.1078C66.108 52.9135 65.9954 52.6501 65.9954 52.3754C65.9954 52.1007 66.108 51.8372 66.3084 51.643C66.5088 51.4487 66.7806 51.3396 67.064 51.3396H75.2018C75.4852 51.3396 75.757 51.4487 75.9574 51.643C76.1578 51.8372 76.2704 52.1007 76.2704 52.3754C76.2704 52.6501 76.1578 52.9135 75.9574 53.1078C75.757 53.302 75.4852 53.4111 75.2018 53.4111Z" fill="#6C63FF"/>
<path opacity="0.5" d="M89.8903 60.6553H61.1018C60.5155 60.6546 59.9534 60.4286 59.5388 60.0268C59.1242 59.625 58.891 59.0801 58.8904 58.5119V33.0378C58.8911 32.4696 59.1243 31.9248 59.5388 31.523C59.9534 31.1212 60.5155 30.8952 61.1018 30.8945H89.8903C90.4766 30.8952 91.0387 31.1212 91.4533 31.523C91.8679 31.9248 92.1011 32.4696 92.1017 33.0378V58.5119C92.1011 59.0801 91.8679 59.625 91.4533 60.0268C91.0387 60.4286 90.4766 60.6546 89.8903 60.6553Z" fill="#486BC9"/>
<path d="M69.5838 45.0949C71.5657 45.0949 73.1723 43.5377 73.1723 41.6168C73.1723 39.6959 71.5657 38.1387 69.5838 38.1387C67.602 38.1387 65.9954 39.6959 65.9954 41.6168C65.9954 43.5377 67.602 45.0949 69.5838 45.0949Z" fill="white"/>
<path d="M83.928 49.3185H67.0639C66.7805 49.3185 66.5087 49.2094 66.3083 49.0151C66.1079 48.8209 65.9954 48.5575 65.9954 48.2828C65.9954 48.0081 66.1079 47.7447 66.3083 47.5504C66.5087 47.3562 66.7805 47.2471 67.0639 47.2471H83.928C84.2114 47.2471 84.4832 47.3562 84.6836 47.5504C84.884 47.7447 84.9966 48.0081 84.9966 48.2828C84.9966 48.5575 84.884 48.8209 84.6836 49.0151C84.4832 49.2094 84.2114 49.3185 83.928 49.3185Z" fill="white"/>
<path d="M75.2018 53.4111H67.064C66.7806 53.4111 66.5088 53.302 66.3084 53.1078C66.108 52.9135 65.9954 52.6501 65.9954 52.3754C65.9954 52.1007 66.108 51.8372 66.3084 51.643C66.5088 51.4487 66.7806 51.3396 67.064 51.3396H75.2018C75.4852 51.3396 75.757 51.4487 75.9574 51.643C76.1578 51.8372 76.2704 52.1007 76.2704 52.3754C76.2704 52.6501 76.1578 52.9135 75.9574 53.1078C75.757 53.302 75.4852 53.4111 75.2018 53.4111Z" fill="white"/>
<path d="M61.6956 36.391C64.8752 36.391 67.4528 33.8927 67.4528 30.8109C67.4528 27.729 64.8752 25.2307 61.6956 25.2307C58.516 25.2307 55.9385 27.729 55.9385 30.8109C55.9385 33.8927 58.516 36.391 61.6956 36.391Z" fill="#FF6584"/>
<path d="M77.4941 147.684C77.4942 147.725 77.4858 147.767 77.4695 147.805C77.4531 147.843 77.4291 147.878 77.3988 147.908C77.3685 147.937 77.3325 147.96 77.2928 147.976C77.2532 147.992 77.2107 148 77.1678 148H0.326239C0.239716 148 0.156734 147.967 0.0955527 147.908C0.034371 147.848 0 147.768 0 147.684C0 147.6 0.034371 147.52 0.0955527 147.46C0.156734 147.401 0.239716 147.368 0.326239 147.368H77.1678C77.2107 147.368 77.2532 147.376 77.2928 147.392C77.3325 147.407 77.3685 147.431 77.3988 147.46C77.4291 147.489 77.4531 147.524 77.4695 147.563C77.4858 147.601 77.4942 147.642 77.4941 147.684Z" fill="#CCCCCC"/>
<path d="M60.4652 45.5913C60.7018 46.2327 60.669 46.9385 60.3736 47.5567C60.0783 48.1748 59.5442 48.6556 58.8864 48.8956C58.7409 48.9482 58.5909 48.9883 58.438 49.0153L56.9176 58.0391L53.3508 54.8471L55.3415 46.7674C55.2678 46.0865 55.4736 45.4049 55.9142 44.8699C56.3549 44.3349 56.9951 43.9895 57.6964 43.9084C58.2864 43.8428 58.8819 43.9737 59.385 44.2795C59.8882 44.5853 60.2691 45.0479 60.4651 45.5913L60.4652 45.5913Z" fill="#FFB6B6"/>
<path d="M34.1427 66.038C34.1427 66.038 36.9109 62.4929 46.9562 62.59L52.6579 60.5821L53.961 49.0046L58.5217 50.0571L57.8701 64.3711L48.0972 69.8441L35.2837 72.3701L34.1427 66.038Z" fill="#3F3D56"/>
<path d="M32.6719 58.6528C35.9647 58.6528 38.634 56.0655 38.634 52.874C38.634 49.6825 35.9647 47.0952 32.6719 47.0952C29.3792 47.0952 26.7098 49.6825 26.7098 52.874C26.7098 56.0655 29.3792 58.6528 32.6719 58.6528Z" fill="#FFB6B6"/>
<path d="M22.581 96.69C22.5704 96.6901 22.5599 96.6887 22.5497 96.6859C22.4396 96.6561 22.3527 96.6327 22.7499 93.3034L23.1786 90.6719L22.7601 88.3482L22.0561 87.6659L23.1876 86.5693L24.1371 83.9551L22.4941 81.5954L20.6092 71.9454C20.2851 70.2802 20.537 68.558 21.3256 67.0457C22.1142 65.5334 23.3956 64.3155 24.9711 63.5809L27.1527 62.9631L27.9465 61.5522C28.1694 61.1559 28.4976 60.8247 28.8971 60.5929C29.2965 60.3611 29.7527 60.237 30.2183 60.2336L34.2134 60.2047C34.6164 60.2017 35.0147 60.2893 35.377 60.4606C35.7393 60.6319 36.0557 60.8822 36.3015 61.1918L37.6953 62.948L43.4751 64.851L42.5168 84.8654C42.669 84.9889 42.7931 85.1417 42.8813 85.3141C42.9695 85.4865 43.0198 85.6747 43.0291 85.8669C43.0383 86.0591 43.0063 86.2511 42.9351 86.4306C42.8638 86.6102 42.7549 86.7736 42.6152 86.9102C42.5551 86.969 42.5074 87.0169 42.478 87.0484C42.3805 87.1826 42.5633 88.1843 42.7891 89.0348L43.0786 90.3372C42.9857 90.4016 42.9076 90.4839 42.8492 90.579C42.7907 90.6741 42.7533 90.7799 42.7392 90.8897C42.7251 90.9995 42.7346 91.111 42.7672 91.2171C42.7998 91.3231 42.8547 91.4215 42.9284 91.506L43.2976 91.9286C43.3706 92.4585 43.2237 92.9949 42.8893 93.42C42.5548 93.8452 42.0601 94.1244 41.5136 94.1966C36.2314 94.8933 22.6086 96.69 22.581 96.69Z" fill="#3F3D56"/>
<path d="M31.1468 58.3697C31.1213 58.3153 31.0959 58.2608 31.0706 58.2061C31.0803 58.2064 31.09 58.2077 31.0998 58.208L31.1468 58.3697Z" fill="#2F2E41"/>
<path d="M26.5441 47.358C26.8272 47.0991 27.1951 46.9449 27.5836 46.9224C27.9692 46.9344 28.3601 47.2719 28.2802 47.6377C28.9884 46.4224 30.1156 45.4877 31.4639 44.9977C32.8122 44.5076 34.2955 44.4936 35.6535 44.9579C36.6117 45.2856 37.5513 45.9412 37.7715 46.9026C37.7929 47.1551 37.8706 47.4 37.9991 47.6205C38.1105 47.7384 38.255 47.8221 38.4149 47.8614C38.5748 47.9006 38.743 47.8937 38.8989 47.8414L38.9084 47.8387C38.9617 47.8211 39.0193 47.8193 39.0737 47.8338C39.1281 47.8482 39.1768 47.8781 39.2134 47.9196C39.2501 47.9611 39.2731 48.0123 39.2794 48.0666C39.2857 48.1209 39.275 48.1758 39.2488 48.2242L38.9776 48.7143C39.3194 48.7881 39.6745 48.7808 40.0128 48.6929C40.0689 48.6787 40.1283 48.6816 40.1827 48.7013C40.2371 48.721 40.2839 48.7565 40.3166 48.803C40.3494 48.8496 40.3665 48.9047 40.3656 48.961C40.3647 49.0173 40.3458 49.072 40.3116 49.1175C39.8611 49.715 39.2728 50.2023 38.5937 50.5406C37.9146 50.8789 37.1634 51.059 36.3999 51.0663C35.3166 51.0599 34.2222 50.6981 33.1679 50.9395C32.76 51.0329 32.3789 51.2137 32.0525 51.4685C31.7261 51.7232 31.4627 52.0456 31.2816 52.412C31.1006 52.7783 31.0064 53.1793 31.006 53.5855C31.0057 53.9917 31.0992 54.3928 31.2796 54.7594C30.9558 54.416 30.3297 54.4973 29.9984 54.834C29.8458 55.0142 29.733 55.2229 29.667 55.4471C29.601 55.6712 29.5832 55.9061 29.6147 56.1373C29.7031 56.8452 29.9199 57.5323 30.2552 58.167C28.9742 58.1288 27.7361 57.7104 26.7082 56.9684C25.6804 56.2264 24.9122 55.1966 24.5075 54.0179C24.1029 52.8392 24.0812 51.5686 24.4454 50.3775C24.8096 49.1865 25.5421 48.1326 26.5441 47.358L26.5441 47.358Z" fill="#2F2E41"/>
<path d="M24.9037 104.978C24.3337 104.579 23.9481 103.98 23.83 103.308C23.7119 102.637 23.8709 101.947 24.2725 101.388C24.3616 101.265 24.4618 101.149 24.5719 101.043L20.5487 92.7732L25.3537 93.444L28.4376 101.195C28.8963 101.715 29.1254 102.39 29.0751 103.072C29.0248 103.755 28.6993 104.392 28.1689 104.844C27.7211 105.222 27.154 105.441 26.5606 105.465C25.9672 105.49 25.383 105.318 24.9037 104.978H24.9037Z" fill="#FFB6B6"/>
<path d="M23.6853 100.462L17.2834 86.5163L17.2192 75.5016L19.2373 69.552C19.5111 68.7448 19.949 67.999 20.5253 67.3587C21.1015 66.7183 21.8043 66.1965 22.5922 65.8239C23.3801 65.4513 24.237 65.2356 25.1124 65.1895C25.9877 65.1434 26.8637 65.2679 27.6886 65.5556L27.7331 65.5711L27.7517 65.6132C27.8263 65.7819 29.5189 69.8398 24.4983 78.1877L23.4879 83.8997L27.0333 96.9928L23.6853 100.462Z" fill="#3F3D56"/>
</g>
<defs>
<clipPath id="clip0_18_12751">
<rect width="246" height="148" fill="white"/>
</clipPath>
</defs>
</svg>
