<svg width="210" height="148" viewBox="0 0 210 148" fill="none" xmlns="http://www.w3.org/2000/svg">
<path d="M171.522 92.8176H36.2698C35.3465 92.8166 34.4613 92.4475 33.8085 91.7913C33.1556 91.1351 32.7884 90.2454 32.7874 89.3175V5.49294C32.7881 4.81309 33.0571 4.1613 33.5354 3.68056C34.0137 3.19983 34.6622 2.9294 35.3386 2.92862H172.409C173.097 2.92941 173.757 3.2045 174.244 3.69355C174.73 4.1826 175.004 4.84566 175.005 5.53728V89.3175C175.003 90.2454 174.636 91.1351 173.983 91.7913C173.331 92.4475 172.445 92.8166 171.522 92.8176Z" fill="#F2F2F2"/>
<path d="M166.588 87.8607H40.5366C38.6888 87.8607 37.1855 86.4459 37.1855 84.7067V11.7113C37.1855 10.4215 38.2995 9.37216 39.6687 9.37216H167.415C168.807 9.37216 169.939 10.4388 169.939 11.7498V84.7067C169.939 86.4459 168.436 87.8607 166.588 87.8607Z" fill="white"/>
<path d="M174.956 5.29272H32.7385V3.51073C32.7399 2.57966 33.1086 1.68715 33.7638 1.02899C34.4191 0.370826 35.3073 0.000769218 36.2336 0H171.461C172.387 0.000764735 173.276 0.37082 173.931 1.02898C174.586 1.68714 174.955 2.57966 174.956 3.51073V5.29272Z" fill="#CCCCCC"/>
<path d="M39.0903 3.56028C39.5896 3.56028 39.9944 3.15346 39.9944 2.65163C39.9944 2.1498 39.5896 1.74298 39.0903 1.74298C38.591 1.74298 38.1863 2.1498 38.1863 2.65163C38.1863 3.15346 38.591 3.56028 39.0903 3.56028Z" fill="white"/>
<path d="M42.522 3.56028C43.0212 3.56028 43.426 3.15346 43.426 2.65163C43.426 2.1498 43.0212 1.74298 42.522 1.74298C42.0227 1.74298 41.6179 2.1498 41.6179 2.65163C41.6179 3.15346 42.0227 3.56028 42.522 3.56028Z" fill="white"/>
<path d="M45.9534 3.56028C46.4526 3.56028 46.8574 3.15346 46.8574 2.65163C46.8574 2.1498 46.4526 1.74298 45.9534 1.74298C45.4541 1.74298 45.0493 2.1498 45.0493 2.65163C45.0493 3.15346 45.4541 3.56028 45.9534 3.56028Z" fill="white"/>
<path d="M152.714 75.6183H55.0294C54.0502 75.6171 53.1114 75.2257 52.419 74.5297C51.7265 73.8338 51.337 72.8902 51.3359 71.906V24.5681C51.3368 23.832 51.628 23.1262 52.1459 22.6057C52.6637 22.0852 53.3659 21.7924 54.0982 21.7916H153.601C154.345 21.7925 155.058 22.0899 155.584 22.6187C156.111 23.1476 156.407 23.8645 156.407 24.6124V71.906C156.406 72.8902 156.017 73.8338 155.324 74.5297C154.632 75.2257 153.693 75.6171 152.714 75.6183ZM54.0982 22.2159C53.4778 22.2166 52.8829 22.4646 52.4442 22.9056C52.0055 23.3466 51.7587 23.9444 51.758 24.5681V71.906C51.759 72.7777 52.104 73.6135 52.7173 74.2299C53.3306 74.8463 54.1621 75.193 55.0294 75.194H152.714C153.581 75.193 154.413 74.8463 155.026 74.2299C155.639 73.6134 155.984 72.7777 155.985 71.906V24.6124C155.985 23.977 155.733 23.3679 155.286 22.9186C154.839 22.4693 154.233 22.2166 153.601 22.2159H54.0982Z" fill="#CCCCCC"/>
<path d="M58.4062 71.906H149.337C150.233 71.906 151.091 71.5484 151.725 70.9119C152.358 70.2753 152.714 69.412 152.714 68.5119V28.9392C152.714 28.039 152.358 27.1757 151.725 26.5392C151.091 25.9027 150.233 25.5451 149.337 25.5451H58.4062C57.5106 25.5451 56.6517 25.9027 56.0184 26.5392C55.3851 27.1757 55.0293 28.039 55.0293 28.9392V68.5119C55.0293 69.412 55.3851 70.2753 56.0184 70.9119C56.6517 71.5484 57.5106 71.906 58.4062 71.906Z" fill="#F2F2F2"/>
<path d="M68.7308 37.0583C69.7799 37.0583 70.6303 36.2036 70.6303 35.1491C70.6303 34.0947 69.7799 33.24 68.7308 33.24C67.6817 33.24 66.8313 34.0947 66.8313 35.1491C66.8313 36.2036 67.6817 37.0583 68.7308 37.0583Z" fill="#CCCCCC"/>
<path d="M68.7308 44.2708C69.7799 44.2708 70.6303 43.416 70.6303 42.3616C70.6303 41.3072 69.7799 40.4524 68.7308 40.4524C67.6817 40.4524 66.8313 41.3072 66.8313 42.3616C66.8313 43.416 67.6817 44.2708 68.7308 44.2708Z" fill="#CCCCCC"/>
<path d="M68.7308 51.4832C69.7799 51.4832 70.6303 50.6285 70.6303 49.5741C70.6303 48.5197 69.7799 47.6649 68.7308 47.6649C67.6817 47.6649 66.8313 48.5197 66.8313 49.5741C66.8313 50.6285 67.6817 51.4832 68.7308 51.4832Z" fill="#CCCCCC"/>
<path d="M68.7308 58.6957C69.7799 58.6957 70.6303 57.8409 70.6303 56.7865C70.6303 55.7321 69.7799 54.8773 68.7308 54.8773C67.6817 54.8773 66.8313 55.7321 66.8313 56.7865C66.8313 57.8409 67.6817 58.6957 68.7308 58.6957Z" fill="#CCCCCC"/>
<path d="M140.701 35.3613H78.2284C78.1724 35.3613 78.1187 35.3389 78.0792 35.2991C78.0396 35.2594 78.0173 35.2054 78.0173 35.1491C78.0173 35.0929 78.0396 35.0389 78.0792 34.9991C78.1187 34.9594 78.1724 34.937 78.2284 34.937H140.701C140.757 34.937 140.81 34.9594 140.85 34.9991C140.89 35.0389 140.912 35.0929 140.912 35.1491C140.912 35.2054 140.89 35.2594 140.85 35.2991C140.81 35.3389 140.757 35.3613 140.701 35.3613Z" fill="#CCCCCC"/>
<path d="M140.701 42.5737H78.2284C78.1724 42.5737 78.1187 42.5514 78.0792 42.5116C78.0396 42.4718 78.0173 42.4179 78.0173 42.3616C78.0173 42.3053 78.0396 42.2514 78.0792 42.2116C78.1187 42.1718 78.1724 42.1495 78.2284 42.1495H140.701C140.757 42.1495 140.81 42.1718 140.85 42.2116C140.89 42.2514 140.912 42.3053 140.912 42.3616C140.912 42.4179 140.89 42.4718 140.85 42.5116C140.81 42.5514 140.757 42.5737 140.701 42.5737Z" fill="#CCCCCC"/>
<path d="M140.701 49.7862H78.2284C78.1724 49.7862 78.1187 49.7639 78.0792 49.7241C78.0396 49.6843 78.0173 49.6303 78.0173 49.5741C78.0173 49.5178 78.0396 49.4639 78.0792 49.4241C78.1187 49.3843 78.1724 49.3619 78.2284 49.3619H140.701C140.757 49.3619 140.81 49.3843 140.85 49.4241C140.89 49.4639 140.912 49.5178 140.912 49.5741C140.912 49.6303 140.89 49.6843 140.85 49.7241C140.81 49.7639 140.757 49.7862 140.701 49.7862Z" fill="#CCCCCC"/>
<path d="M140.701 56.9987H78.2284C78.1724 56.9987 78.1187 56.9763 78.0792 56.9365C78.0396 56.8968 78.0173 56.8428 78.0173 56.7865C78.0173 56.7303 78.0396 56.6763 78.0792 56.6365C78.1187 56.5968 78.1724 56.5744 78.2284 56.5744H140.701C140.757 56.5744 140.81 56.5968 140.85 56.6365C140.89 56.6763 140.912 56.7303 140.912 56.7865C140.912 56.8428 140.89 56.8968 140.85 56.9365C140.81 56.9763 140.757 56.9987 140.701 56.9987Z" fill="#CCCCCC"/>
<path d="M90.0475 64.2111H83.9269C83.6471 64.2108 83.3789 64.099 83.181 63.9001C82.9832 63.7013 82.8719 63.4317 82.8716 63.1505V57.4229C82.8719 57.1417 82.9832 56.8721 83.181 56.6733C83.3789 56.4745 83.6471 56.3626 83.9269 56.3623H90.0475C90.3272 56.3626 90.5955 56.4745 90.7933 56.6733C90.9911 56.8721 91.1024 57.1417 91.1027 57.4229V63.1505C91.1024 63.4317 90.9911 63.7013 90.7933 63.9001C90.5955 64.099 90.3272 64.2108 90.0475 64.2111Z" fill="#486BC9"/>
<path d="M103.766 64.2111H97.6454C97.3656 64.2108 97.0974 64.099 96.8995 63.9001C96.7017 63.7013 96.5904 63.4317 96.5901 63.1505V50.2105C96.5904 49.9293 96.7017 49.6597 96.8995 49.4608C97.0974 49.262 97.3656 49.1501 97.6454 49.1498H103.766C104.046 49.1501 104.314 49.262 104.512 49.4608C104.71 49.6597 104.821 49.9293 104.821 50.2105V63.1505C104.821 63.4317 104.71 63.7013 104.512 63.9001C104.314 64.099 104.046 64.2108 103.766 64.2111Z" fill="#486BC9"/>
<path d="M117.696 64.2111H111.575C111.295 64.2108 111.027 64.099 110.829 63.9001C110.631 63.7013 110.52 63.4317 110.52 63.1505V42.998C110.52 42.7168 110.631 42.4472 110.829 42.2484C111.027 42.0495 111.295 41.9377 111.575 41.9373H117.696C117.975 41.9377 118.244 42.0495 118.441 42.2484C118.639 42.4472 118.751 42.7168 118.751 42.998V63.1505C118.751 63.4317 118.639 63.7013 118.441 63.9001C118.244 64.099 117.975 64.2108 117.696 64.2111Z" fill="#486BC9"/>
<path d="M132.047 64.2111H125.927C125.647 64.2108 125.379 64.099 125.181 63.9001C124.983 63.7013 124.872 63.4317 124.872 63.1505V35.9977C124.872 35.7165 124.983 35.4469 125.181 35.248C125.379 35.0492 125.647 34.9373 125.927 34.937H132.047C132.327 34.9373 132.595 35.0492 132.793 35.248C132.991 35.4469 133.102 35.7165 133.103 35.9977V63.1505C133.102 63.4317 132.991 63.7013 132.793 63.9001C132.595 64.099 132.327 64.2108 132.047 64.2111Z" fill="#486BC9"/>
<path d="M140.701 64.2111H78.2284C78.1724 64.2111 78.1187 64.1888 78.0792 64.149C78.0396 64.1092 78.0173 64.0553 78.0173 63.999C78.0173 63.9427 78.0396 63.8888 78.0792 63.849C78.1187 63.8092 78.1724 63.7869 78.2284 63.7869H140.701C140.757 63.7869 140.81 63.8092 140.85 63.849C140.89 63.8888 140.912 63.9427 140.912 63.999C140.912 64.0553 140.89 64.1092 140.85 64.149C140.81 64.1888 140.757 64.2111 140.701 64.2111Z" fill="#3F3D56"/>
<path d="M168.148 103.784C168.319 103.524 168.545 103.304 168.809 103.141C169.074 102.978 169.371 102.875 169.679 102.84C169.987 102.805 170.299 102.838 170.593 102.937C170.888 103.036 171.157 103.199 171.381 103.414L178.084 99.9373L177.667 103.854L171.366 106.555C170.982 106.911 170.481 107.112 169.959 107.122C169.437 107.131 168.929 106.948 168.532 106.606C168.136 106.265 167.877 105.789 167.807 105.268C167.736 104.748 167.857 104.22 168.148 103.784Z" fill="#FFB8B8"/>
<path d="M173.915 105.245C173.763 105.125 173.65 104.961 173.593 104.775L173.06 103.045C173.003 102.857 173.004 102.656 173.064 102.47C173.124 102.283 173.239 102.119 173.395 102.001L178.827 97.8767L184.71 86.9069C184.957 86.5879 185.263 86.3208 185.612 86.1209C185.961 85.9209 186.346 85.7921 186.745 85.7417C187.144 85.6912 187.548 85.7202 187.936 85.827C188.323 85.9337 188.686 86.1162 189.003 86.3639C189.321 86.6115 189.586 86.9196 189.785 87.2705C189.984 87.6214 190.112 88.0083 190.163 88.409C190.213 88.8097 190.184 89.2164 190.078 89.6058C189.971 89.9953 189.79 90.3599 189.543 90.6789L186.196 97.779C185.181 99.9341 183.421 101.645 181.244 102.594L174.878 105.369C174.756 105.422 174.624 105.449 174.49 105.448C174.357 105.446 174.225 105.416 174.104 105.361C174.037 105.33 173.973 105.291 173.915 105.245Z" fill="#3F3D56"/>
<path d="M189.691 82.3286C192.554 82.3286 194.875 79.996 194.875 77.1185C194.875 74.241 192.554 71.9083 189.691 71.9083C186.828 71.9083 184.508 74.241 184.508 77.1185C184.508 79.996 186.828 82.3286 189.691 82.3286Z" fill="#FFB8B8"/>
<path d="M187.589 145.466L185.001 145.466L183.771 135.435L187.59 135.435L187.589 145.466Z" fill="#FFB8B8"/>
<path d="M183.153 144.723H188.143V147.881H180.011C180.011 147.466 180.092 147.056 180.25 146.672C180.408 146.289 180.639 145.941 180.931 145.648C181.223 145.355 181.569 145.122 181.95 144.963C182.332 144.805 182.74 144.723 183.153 144.723Z" fill="#2F2E41"/>
<path d="M196.031 145.467L193.443 145.467L192.213 135.435L196.032 135.435L196.031 145.467Z" fill="#FFB8B8"/>
<path d="M191.595 144.723H196.585V147.881H188.453C188.453 147.467 188.534 147.056 188.692 146.673C188.85 146.29 189.082 145.942 189.373 145.648C189.665 145.355 190.011 145.122 190.393 144.964C190.774 144.805 191.182 144.723 191.595 144.723Z" fill="#2F2E41"/>
<path d="M196.22 142.921L193.188 142.921C192.979 142.921 192.776 142.852 192.61 142.724C192.444 142.596 192.325 142.417 192.271 142.215L187.906 125.944C187.899 125.919 187.883 125.897 187.861 125.883C187.839 125.868 187.813 125.863 187.787 125.867C187.761 125.871 187.738 125.885 187.722 125.906C187.705 125.926 187.697 125.952 187.699 125.978L188.58 141.409C188.588 141.545 188.567 141.682 188.518 141.809C188.468 141.937 188.393 142.052 188.295 142.147C188.198 142.243 188.081 142.316 187.953 142.362C187.825 142.408 187.689 142.426 187.553 142.415L184.145 142.129C183.927 142.111 183.722 142.017 183.564 141.863C183.407 141.71 183.307 141.507 183.281 141.288L180.176 108.886L181.377 109.611L192.633 107.69L197.161 141.841C197.179 141.975 197.168 142.112 197.129 142.243C197.09 142.373 197.023 142.493 196.934 142.595C196.845 142.698 196.735 142.78 196.612 142.836C196.489 142.892 196.355 142.921 196.22 142.921H196.22Z" fill="#2F2E41"/>
<path d="M183.94 112.306C182.699 112.296 181.482 111.952 180.418 111.31C180.253 111.212 180.123 111.067 180.042 110.893C179.962 110.72 179.935 110.525 179.967 110.336C180.362 107.9 182.433 95.4007 184.316 88.5867C185.083 85.8114 186.779 84.3166 189.358 84.144C193.129 83.8953 196.481 86.8608 196.83 90.7624C197.445 97.6458 194.944 107.425 193.84 111.311C193.798 111.461 193.719 111.598 193.611 111.71C193.503 111.823 193.369 111.907 193.222 111.955C193.074 112.003 192.917 112.014 192.764 111.987C192.611 111.96 192.467 111.896 192.344 111.8L190.094 110.041C189.956 109.934 189.785 109.88 189.611 109.887C189.436 109.895 189.27 109.963 189.141 110.081C187.245 111.781 185.443 112.307 183.94 112.306Z" fill="#3F3D56"/>
<path opacity="0.2" d="M191.382 94.1307L193.282 102.192L190.537 108.98L192.437 102.404L191.382 94.1307Z" fill="black"/>
<path d="M192.649 81.403C193.11 81.4116 193.569 81.3283 193.997 81.1579C194.186 81.0848 194.382 81.0248 194.57 80.9516C196.234 80.3057 197.33 78.5252 197.369 76.7332C197.408 74.9412 196.485 73.2019 195.114 72.0556C193.743 70.9094 191.968 70.3208 190.189 70.1846C188.274 70.038 186.117 70.5261 185.047 72.1293C184.762 72.556 184.563 73.0738 184.731 73.5891C184.782 73.7446 184.872 73.884 184.993 73.9934C185.471 74.4208 185.948 74.0995 186.435 74.0711C187.105 74.0321 187.706 74.577 187.922 75.2153C188.139 75.8536 188.043 76.5563 187.869 77.2074C187.736 77.5991 187.652 78.006 187.619 78.4186C187.605 78.6255 187.644 78.8326 187.732 79.0203C187.82 79.2079 187.954 79.3699 188.121 79.4909C188.54 79.7452 189.089 79.5981 189.508 79.3442C189.927 79.0904 190.289 78.7375 190.741 78.5507C191.193 78.3639 191.801 78.4054 192.064 78.8196C192.148 78.9703 192.204 79.1347 192.231 79.3051C192.467 80.3859 192.413 80.3222 192.649 81.403Z" fill="#2F2E41"/>
<path d="M184.615 138.189L152.155 126.827C151.598 126.631 151.141 126.222 150.884 125.688C150.628 125.154 150.592 124.539 150.785 123.979L159.22 99.6353C159.363 99.2251 159.662 98.8886 160.051 98.6995C160.44 98.5104 160.888 98.4842 161.296 98.6266L194.853 110.373C195.268 110.518 195.609 110.824 195.8 111.222C195.992 111.62 196.018 112.078 195.874 112.495L187.448 136.812C187.254 137.372 186.846 137.832 186.315 138.09C185.783 138.348 185.172 138.383 184.615 138.189Z" fill="#E6E6E6"/>
<path d="M154.925 125.428L183.309 135.363C183.849 135.553 184.442 135.518 184.958 135.268C185.473 135.017 185.868 134.572 186.056 134.028L192.867 114.371C193.056 113.828 193.022 113.231 192.772 112.714C192.523 112.196 192.08 111.798 191.539 111.609L163.156 101.674C162.615 101.485 162.022 101.519 161.507 101.769C160.992 102.02 160.596 102.466 160.408 103.009L153.597 122.666C153.504 122.935 153.464 123.22 153.48 123.505C153.497 123.789 153.569 124.067 153.692 124.324C153.815 124.58 153.988 124.81 154.199 124.999C154.411 125.189 154.657 125.334 154.925 125.428Z" fill="white"/>
<path d="M162.053 111.617L160.647 111.125C160.571 111.098 160.508 111.042 160.473 110.969C160.438 110.896 160.433 110.812 160.459 110.735L160.949 109.322C160.976 109.246 161.031 109.183 161.104 109.148C161.177 109.112 161.26 109.108 161.337 109.134L162.742 109.626C162.819 109.653 162.881 109.709 162.916 109.782C162.951 109.855 162.956 109.939 162.93 110.016L162.44 111.429C162.414 111.505 162.358 111.568 162.285 111.603C162.212 111.639 162.129 111.644 162.053 111.617Z" fill="#486BC9"/>
<path d="M160.784 115.278L159.378 114.786C159.302 114.759 159.24 114.703 159.204 114.63C159.169 114.557 159.164 114.473 159.191 114.396L159.68 112.983C159.707 112.906 159.763 112.844 159.836 112.808C159.908 112.773 159.992 112.768 160.068 112.795L161.474 113.287C161.55 113.313 161.613 113.37 161.648 113.443C161.683 113.516 161.688 113.6 161.661 113.676L161.172 115.089C161.145 115.166 161.089 115.229 161.017 115.264C160.944 115.299 160.86 115.304 160.784 115.278Z" fill="#3F3D56"/>
<path d="M159.516 118.938L158.11 118.446C158.034 118.419 157.971 118.363 157.936 118.29C157.901 118.217 157.896 118.133 157.923 118.056L158.412 116.644C158.439 116.567 158.495 116.504 158.567 116.469C158.64 116.434 158.724 116.429 158.8 116.455L160.206 116.947C160.282 116.974 160.344 117.03 160.379 117.103C160.415 117.176 160.419 117.26 160.393 117.337L159.903 118.75C159.877 118.826 159.821 118.889 159.748 118.925C159.676 118.96 159.592 118.965 159.516 118.938Z" fill="#CCCCCC"/>
<path d="M171.498 114.131L164.725 111.76C164.687 111.747 164.653 111.727 164.623 111.7C164.593 111.673 164.568 111.641 164.551 111.605C164.533 111.569 164.523 111.529 164.521 111.489C164.518 111.449 164.524 111.409 164.537 111.371C164.55 111.333 164.571 111.298 164.598 111.267C164.624 111.237 164.657 111.213 164.693 111.196C164.729 111.178 164.768 111.168 164.808 111.166C164.848 111.163 164.888 111.169 164.926 111.182L171.698 113.553C171.736 113.566 171.771 113.587 171.801 113.614C171.831 113.64 171.856 113.673 171.873 113.709C171.89 113.745 171.901 113.784 171.903 113.825C171.905 113.865 171.9 113.905 171.887 113.943C171.873 113.981 171.853 114.016 171.826 114.046C171.8 114.076 171.767 114.101 171.731 114.118C171.695 114.136 171.656 114.146 171.616 114.148C171.576 114.15 171.536 114.145 171.498 114.131Z" fill="#CCCCCC"/>
<path d="M170.23 117.792L163.457 115.421C163.381 115.394 163.318 115.338 163.283 115.265C163.248 115.192 163.243 115.108 163.269 115.031C163.296 114.955 163.352 114.892 163.424 114.857C163.497 114.821 163.581 114.816 163.657 114.843L170.43 117.214C170.468 117.227 170.503 117.247 170.533 117.274C170.562 117.301 170.587 117.333 170.604 117.37C170.622 117.406 170.632 117.445 170.634 117.485C170.637 117.525 170.631 117.566 170.618 117.604C170.605 117.642 170.584 117.677 170.558 117.707C170.531 117.737 170.499 117.761 170.463 117.779C170.427 117.796 170.387 117.806 170.347 117.809C170.307 117.811 170.267 117.805 170.23 117.792Z" fill="#CCCCCC"/>
<path d="M168.961 121.452L162.188 119.082C162.112 119.055 162.05 118.999 162.014 118.926C161.979 118.853 161.975 118.769 162.001 118.692C162.028 118.615 162.083 118.552 162.156 118.517C162.229 118.482 162.312 118.477 162.389 118.504L169.162 120.874C169.238 120.901 169.3 120.957 169.336 121.03C169.371 121.103 169.376 121.187 169.349 121.264C169.322 121.341 169.267 121.404 169.194 121.439C169.121 121.474 169.038 121.479 168.961 121.452Z" fill="#CCCCCC"/>
<path d="M186.985 123.436C187.034 123.317 187.081 123.196 187.124 123.072C187.68 121.466 187.579 119.703 186.843 118.171C186.106 116.639 184.794 115.465 183.196 114.905L180.969 121.33L186.985 123.436Z" fill="#486BC9"/>
<path d="M180.322 121.721L182.548 115.296C181.372 114.884 180.101 114.827 178.893 115.133C177.685 115.438 176.592 116.092 175.749 117.014C174.906 117.936 174.351 119.086 174.15 120.322C173.95 121.558 174.114 122.825 174.622 123.969C175.13 125.112 175.959 126.081 177.008 126.756C178.058 127.431 179.281 127.783 180.526 127.768C181.772 127.753 182.986 127.371 184.019 126.671C185.051 125.971 185.858 124.982 186.338 123.827L180.322 121.721Z" fill="#3F3D56"/>
<path d="M188.292 112.504C188.267 112.194 188.31 111.881 188.418 111.589C188.526 111.296 188.696 111.031 188.917 110.812C189.138 110.593 189.404 110.426 189.696 110.321C189.989 110.217 190.3 110.178 190.609 110.208L193.748 103.315L195.825 106.656L192.526 112.689C192.442 113.207 192.172 113.676 191.766 114.008C191.361 114.339 190.849 114.51 190.327 114.487C189.805 114.464 189.31 114.25 188.935 113.884C188.56 113.519 188.331 113.028 188.292 112.504Z" fill="#FFB8B8"/>
<path d="M193.726 110.077C193.533 110.077 193.344 110.018 193.185 109.907L191.703 108.876C191.543 108.764 191.421 108.605 191.353 108.421C191.286 108.237 191.276 108.037 191.326 107.847L193.068 101.233L190.962 88.9516C190.96 88.5475 191.036 88.1468 191.188 87.7726C191.34 87.3983 191.564 87.0578 191.846 86.7705C192.129 86.4831 192.465 86.2547 192.836 86.0981C193.207 85.9415 193.605 85.8599 194.007 85.8579C194.409 85.856 194.807 85.9337 195.179 86.0867C195.552 86.2396 195.89 86.4648 196.176 86.7494C196.461 87.034 196.688 87.3723 196.843 87.7451C196.999 88.1178 197.08 88.5177 197.081 88.9219L198.807 96.5848C199.331 98.9104 198.997 101.348 197.866 103.445L194.561 109.577C194.498 109.695 194.41 109.798 194.304 109.88C194.198 109.961 194.076 110.02 193.947 110.051C193.875 110.068 193.801 110.077 193.726 110.077Z" fill="#3F3D56"/>
<path d="M209.789 148H169.688C169.632 148 169.579 147.978 169.539 147.938C169.5 147.898 169.477 147.844 169.477 147.788C169.477 147.732 169.5 147.678 169.539 147.638C169.579 147.598 169.632 147.576 169.688 147.576H209.789C209.845 147.576 209.899 147.598 209.938 147.638C209.978 147.678 210 147.732 210 147.788C210 147.844 209.978 147.898 209.938 147.938C209.899 147.978 209.845 148 209.789 148Z" fill="#CCCCCC"/>
<path d="M103.531 145.361L106.119 145.36L107.35 135.329H103.531L103.531 145.361Z" fill="#A0616A"/>
<path d="M102.871 144.512L107.967 144.511H107.967C108.394 144.511 108.816 144.596 109.21 144.76C109.604 144.924 109.962 145.164 110.263 145.467C110.565 145.77 110.804 146.13 110.967 146.526C111.131 146.922 111.215 147.347 111.215 147.775V147.881L102.871 147.882L102.871 144.512Z" fill="#2F2E41"/>
<path d="M93.1896 145.361L95.7772 145.36L97.008 135.329H93.1892L93.1896 145.361Z" fill="#A0616A"/>
<path d="M92.5295 144.512L97.6252 144.511H97.6254C98.0519 144.511 98.4742 144.596 98.8681 144.76C99.2621 144.924 99.6201 145.164 99.9217 145.467C100.223 145.77 100.462 146.13 100.626 146.526C100.789 146.922 100.873 147.347 100.873 147.775V147.881L92.5297 147.882L92.5295 144.512Z" fill="#2F2E41"/>
<path d="M104.048 75.9129C106.911 75.9129 109.231 73.5802 109.231 70.7027C109.231 67.8252 106.911 65.4926 104.048 65.4926C101.185 65.4926 98.864 67.8252 98.864 70.7027C98.864 73.5802 101.185 75.9129 104.048 75.9129Z" fill="#A0616A"/>
<path d="M107.534 143.196H102.732C102.606 143.196 102.482 143.171 102.366 143.122C102.25 143.073 102.145 143.002 102.056 142.912C101.968 142.822 101.898 142.715 101.851 142.598C101.804 142.481 101.781 142.356 101.782 142.229L102.061 119.313C102.062 119.231 102.032 119.153 101.977 119.093C101.922 119.033 101.847 118.997 101.766 118.991C101.685 118.986 101.605 119.012 101.543 119.063C101.481 119.115 101.44 119.189 101.431 119.27L98.6361 142.356C98.6079 142.588 98.4964 142.801 98.3228 142.955C98.1491 143.11 97.9252 143.195 97.6933 143.196H92.8455C92.7145 143.196 92.585 143.168 92.465 143.116C92.345 143.063 92.2372 142.986 92.1482 142.889C92.0593 142.793 91.9912 142.679 91.9483 142.554C91.9053 142.43 91.8884 142.298 91.8986 142.167L95.0998 100.997L95.1869 100.988L110.516 99.3238L108.482 142.286C108.471 142.532 108.366 142.763 108.189 142.932C108.013 143.102 107.778 143.196 107.534 143.196Z" fill="#2F2E41"/>
<path d="M95.2863 103.525C95.04 103.524 94.8036 103.427 94.627 103.255C94.4504 103.082 94.3475 102.847 94.3399 102.6C94.2562 99.9968 94.1128 90.9896 95.7797 84.3768C96.2346 82.5704 97.2558 80.959 98.6922 79.7809C100.129 78.6028 101.904 77.9205 103.756 77.8349C105.579 77.7349 107.387 78.2143 108.923 79.2052C110.46 80.1961 111.647 81.6481 112.316 83.3553C115.118 90.5048 117.765 99.3174 114.465 100.7C110.139 102.511 98.7364 103.318 95.3445 103.523C95.325 103.524 95.3056 103.525 95.2863 103.525Z" fill="#3F3D56"/>
<path d="M115.098 65.4368C115.18 65.5209 115.268 65.5984 115.361 65.6687L114.817 76.1747L112.554 77.3394L113.856 81.0024L118.062 79.3319C118.402 79.197 118.689 78.9549 118.881 78.642C119.072 78.3291 119.157 77.9623 119.123 77.5966L118.021 65.6792C118.382 65.4088 118.652 65.0344 118.796 64.6059C118.939 64.1775 118.95 63.7151 118.826 63.2805C118.702 62.8458 118.449 62.4594 118.101 62.1726C117.753 61.8859 117.327 61.7124 116.878 61.6752C116.43 61.638 115.981 61.7389 115.591 61.9645C115.201 62.19 114.889 62.5296 114.696 62.9379C114.502 63.3463 114.437 63.8041 114.509 64.2505C114.581 64.6968 114.787 65.1106 115.098 65.4368Z" fill="#A0616A"/>
<path d="M114.86 76.5658L116.452 81.1137C116.498 81.2431 116.515 81.3808 116.502 81.5174C116.49 81.654 116.448 81.7863 116.38 81.9053C116.312 82.0243 116.22 82.1272 116.109 82.207C115.998 82.2868 115.871 82.3416 115.737 82.3677L111.042 83.2815C110.382 83.5108 109.658 83.4677 109.03 83.1615C108.402 82.8554 107.92 82.3113 107.69 81.6485C107.46 80.9858 107.501 80.2584 107.804 79.626C108.107 78.9935 108.647 78.5076 109.306 78.2748L113.521 76.0383C113.642 75.9743 113.775 75.9372 113.911 75.9296C114.047 75.9219 114.184 75.9438 114.311 75.9939C114.438 76.044 114.553 76.1209 114.647 76.2196C114.742 76.3183 114.815 76.4364 114.86 76.5658V76.5658Z" fill="#3F3D56"/>
<path d="M92.6448 65.4368C92.5634 65.5209 92.4754 65.5984 92.3818 65.6687L92.926 76.1747L95.1894 77.3394L93.887 81.0024L89.6808 79.3319C89.3409 79.197 89.0539 78.9549 88.8626 78.642C88.6713 78.3291 88.5862 77.9623 88.62 77.5966L89.722 65.6792C89.3614 65.4088 89.0913 65.0344 88.9475 64.6059C88.8038 64.1775 88.7932 63.7151 88.9172 63.2805C89.0413 62.8458 89.2941 62.4594 89.6419 62.1726C89.9898 61.8859 90.4163 61.7124 90.8647 61.6752C91.313 61.638 91.762 61.7389 92.152 61.9645C92.5419 62.19 92.8543 62.5296 93.0475 62.9379C93.2408 63.3463 93.3057 63.8041 93.2338 64.2505C93.1619 64.6968 92.9564 65.1106 92.6448 65.4368H92.6448Z" fill="#A0616A"/>
<path d="M93.4325 75.9939C93.5596 75.9438 93.6959 75.9218 93.8322 75.9295C93.9684 75.9371 94.1015 75.9743 94.2221 76.0383L98.4377 78.2748C99.0965 78.5076 99.6366 78.9935 99.9395 79.626C100.242 80.2584 100.283 80.9857 100.054 81.6485C99.8236 82.3113 99.3416 82.8554 98.7132 83.1615C98.0848 83.4676 97.3612 83.5108 96.7012 83.2815L92.0062 82.3677C91.8722 82.3416 91.7454 82.2868 91.6344 82.207C91.5233 82.1272 91.4307 82.0243 91.3629 81.9053C91.295 81.7863 91.2534 81.654 91.241 81.5173C91.2286 81.3807 91.2456 81.243 91.2909 81.1136L92.8832 76.5658C92.9284 76.4363 93.0009 76.3182 93.0957 76.2195C93.1905 76.1208 93.3054 76.0439 93.4325 75.9939Z" fill="#3F3D56"/>
<path d="M106.061 71.5908C106.034 70.9262 106.2 70.268 106.539 69.6966C106.878 69.1252 107.375 68.6654 107.969 68.3733C109.545 67.5557 110.535 65.8118 110.101 64.2193C109.546 62.181 106.786 60.859 104.549 61.5603C103.944 61.7763 103.36 62.049 102.806 62.3747L101.345 63.162C100.72 63.476 100.119 63.8331 99.5434 64.2306C98.6819 64.8687 98.0067 65.7276 97.5883 66.7176C97.1699 67.7076 97.0236 68.7923 97.1648 69.8585C97.4525 71.9307 98.8027 73.8312 100.651 75.1323C101.358 75.6632 102.174 76.0279 103.04 76.1995C103.926 76.3463 104.912 76.1795 105.56 75.6258C106.572 74.7604 106.467 73.3113 106.14 72.1009C106.097 71.934 106.07 71.7631 106.061 71.5908Z" fill="#2F2E41"/>
<path d="M123.678 148H83.578C83.522 148 83.4683 147.978 83.4288 147.938C83.3892 147.898 83.3669 147.844 83.3669 147.788C83.3669 147.732 83.3892 147.678 83.4288 147.638C83.4683 147.598 83.522 147.576 83.578 147.576H123.678C123.734 147.576 123.788 147.598 123.828 147.638C123.867 147.678 123.89 147.732 123.89 147.788C123.89 147.844 123.867 147.898 123.828 147.938C123.788 147.978 123.734 148 123.678 148Z" fill="#CCCCCC"/>
<path d="M58.2322 109.301L25.1436 122.945C24.5753 123.179 23.9381 123.176 23.3716 122.938C22.8052 122.7 22.3559 122.246 22.1223 121.675L11.9933 96.8595C11.8231 96.441 11.8249 95.9718 11.9984 95.5547C12.172 95.1376 12.503 94.8068 12.9189 94.6347L47.1261 80.5298C47.5497 80.3557 48.0246 80.3576 48.4467 80.535C48.8689 80.7125 49.2037 81.051 49.3779 81.4762L59.4957 106.265C59.7281 106.836 59.7255 107.476 59.4887 108.046C59.2518 108.615 58.7999 109.067 58.2322 109.301Z" fill="#E6E6E6"/>
<path d="M26.342 119.935L55.2757 108.005C55.8267 107.778 56.2653 107.34 56.4951 106.787C56.7248 106.235 56.7269 105.614 56.5009 105.06L48.3218 85.0215C48.2099 84.7473 48.0454 84.4979 47.8376 84.2876C47.6298 84.0773 47.3828 83.9102 47.1107 83.7959C46.8387 83.6815 46.5469 83.6222 46.252 83.6212C45.9571 83.6202 45.6649 83.6775 45.3921 83.79L16.4584 95.7205C16.1856 95.833 15.9375 95.9984 15.7283 96.2073C15.519 96.4161 15.3528 96.6644 15.239 96.9378C15.1253 97.2113 15.0662 97.5045 15.0652 97.8009C15.0642 98.0973 15.1213 98.391 15.2332 98.6652L23.4123 118.704C23.5242 118.978 23.6887 119.227 23.8966 119.438C24.1044 119.648 24.3513 119.815 24.6234 119.929C24.8954 120.044 25.1872 120.103 25.4821 120.104C25.777 120.105 26.0692 120.048 26.342 119.935Z" fill="white"/>
<path d="M48.1622 90.4863L47.7368 90.6617L47.7659 90.733L48.1913 90.5576L48.1622 90.4863Z" fill="#E6E6E6"/>
<path d="M46.9065 91.0873L46.0471 91.4417L46.018 91.3704L46.8774 91.0161L46.9065 91.0873ZM45.1878 91.796L44.3284 92.1504L44.2993 92.0791L45.1587 91.7248L45.1878 91.796ZM43.469 92.5047L42.6097 92.8591L42.5806 92.7878L43.4399 92.4334L43.469 92.5047ZM41.7503 93.2134L40.8909 93.5678L40.8618 93.4965L41.7212 93.1422L41.7503 93.2134ZM40.0316 93.9221L39.1722 94.2765L39.1431 94.2052L40.0025 93.8508L40.0316 93.9221ZM38.3128 94.6308L37.4535 94.9852L37.4244 94.9139L38.2837 94.5596L38.3128 94.6308ZM36.5941 95.3395L35.7347 95.6939L35.7057 95.6226L36.565 95.2683L36.5941 95.3395ZM34.8754 96.0482L34.016 96.4026L33.9869 96.3313L34.8463 95.9769L34.8754 96.0482ZM33.1566 96.7569L32.2973 97.1112L32.2682 97.04L33.1276 96.6857L33.1566 96.7569ZM31.4379 97.4656L30.5785 97.82L30.5495 97.7487L31.4088 97.3943L31.4379 97.4656ZM29.7192 98.1743L28.8598 98.5287L28.8307 98.4574L29.6901 98.1031L29.7192 98.1743ZM28.0004 98.883L27.1411 99.2374L27.112 99.1661L27.9714 98.8117L28.0004 98.883ZM26.2817 99.5917L25.4224 99.9461L25.3933 99.8748L26.2526 99.5204L26.2817 99.5917ZM24.563 100.3L23.7036 100.655L23.6745 100.583L24.5339 100.229L24.563 100.3ZM22.8443 101.009L21.9849 101.363L21.9558 101.292L22.8152 100.938L22.8443 101.009ZM21.1255 101.718L20.2661 102.072L20.2371 102.001L21.0964 101.647L21.1255 101.718Z" fill="#E6E6E6"/>
<path d="M19.3775 102.355L18.9521 102.531L18.9812 102.602L19.4066 102.427L19.3775 102.355Z" fill="#E6E6E6"/>
<path d="M36.9002 102.872L36.4749 103.048L36.5039 103.119L36.9293 102.944L36.9002 102.872Z" fill="#E6E6E6"/>
<path d="M35.6573 103.468L34.8107 103.817L34.7816 103.746L35.6282 103.397L35.6573 103.468ZM33.9641 104.166L33.1175 104.515L33.0884 104.444L33.935 104.095L33.9641 104.166ZM32.2709 104.865L31.4243 105.214L31.3952 105.142L32.2418 104.793L32.2709 104.865ZM30.5777 105.563L29.7311 105.912L29.702 105.841L30.5486 105.491L30.5777 105.563ZM28.8845 106.261L28.0379 106.61L28.0088 106.539L28.8554 106.19L28.8845 106.261ZM27.1913 106.959L26.3447 107.308L26.3156 107.237L27.1622 106.888L27.1913 106.959ZM25.4981 107.657L24.6515 108.006L24.6224 107.935L25.469 107.586L25.4981 107.657ZM23.8049 108.355L22.9583 108.705L22.9292 108.633L23.7758 108.284L23.8049 108.355Z" fill="#E6E6E6"/>
<path d="M22.0826 108.982L21.6572 109.158L21.6863 109.229L22.1117 109.054L22.0826 108.982Z" fill="#E6E6E6"/>
<path d="M29.8849 109.428L29.4595 109.604L29.4886 109.675L29.9139 109.499L29.8849 109.428Z" fill="#E6E6E6"/>
<path d="M28.6176 110.034L27.7466 110.393L27.7175 110.322L28.5885 109.963L28.6176 110.034ZM26.8756 110.752L26.0045 111.112L25.9754 111.04L26.8465 110.681L26.8756 110.752ZM25.1335 111.471L24.2625 111.83L24.2334 111.759L25.1044 111.399L25.1335 111.471Z" fill="#E6E6E6"/>
<path d="M23.3624 112.118L22.937 112.293L22.9661 112.364L23.3915 112.189L23.3624 112.118Z" fill="#E6E6E6"/>
<path d="M32.0689 114.779L31.6436 114.954L31.6726 115.026L32.098 114.85L32.0689 114.779Z" fill="#E6E6E6"/>
<path d="M30.8017 115.385L29.9307 115.744L29.9016 115.673L30.7726 115.313L30.8017 115.385ZM29.0596 116.103L28.1886 116.462L28.1595 116.391L29.0306 116.032L29.0596 116.103ZM27.3176 116.821L26.4466 117.18L26.4175 117.109L27.2885 116.75L27.3176 116.821Z" fill="#E6E6E6"/>
<path d="M25.5462 117.468L25.1208 117.644L25.1499 117.715L25.5753 117.54L25.5462 117.468Z" fill="#E6E6E6"/>
<path d="M27.5706 116.781L52.0899 106.671C52.6833 106.425 53.1556 105.953 53.4032 105.358C53.6508 104.763 53.6534 104.093 53.4105 103.497L48.4565 91.3592L48.4086 91.3806L42.3916 105.841L37.9289 103.966C37.8465 103.931 37.7573 103.916 37.6681 103.921C37.5789 103.927 37.4922 103.953 37.4148 103.998C37.2986 104.068 37.2087 104.175 37.159 104.302L34.0056 111.88L30.7427 110.509C30.6723 110.479 30.5968 110.464 30.5205 110.463C30.4442 110.463 30.3685 110.478 30.2979 110.507C30.2273 110.536 30.1631 110.579 30.1089 110.633C30.0548 110.687 30.0118 110.752 29.9824 110.822C29.9615 110.874 27.9496 115.835 27.5706 116.781Z" fill="#486BC9"/>
<path d="M27.4953 116.895L27.4246 116.865L29.9476 110.801C30.0144 110.641 30.1417 110.514 30.3014 110.448C30.4612 110.383 30.6405 110.383 30.7999 110.45L33.9983 111.794L37.1338 104.258C37.2006 104.098 37.3278 103.971 37.4876 103.906C37.6474 103.84 37.8266 103.84 37.986 103.907L42.3842 105.756L48.4322 91.2197L48.5029 91.2494L42.4254 105.856L37.9564 103.978C37.8868 103.949 37.8121 103.934 37.7366 103.933C37.6612 103.933 37.5864 103.948 37.5166 103.976C37.4467 104.005 37.3832 104.048 37.3297 104.101C37.2761 104.155 37.2336 104.218 37.2045 104.288L34.0394 111.895L30.7703 110.521C30.6297 110.462 30.4715 110.462 30.3305 110.52C30.1896 110.578 30.0773 110.69 30.0183 110.831L27.4953 116.895Z" fill="#3F3D56"/>
<path d="M29.8995 110.003C30.1957 110.003 30.4359 109.762 30.4359 109.464C30.4359 109.166 30.1957 108.925 29.8995 108.925C29.6032 108.925 29.363 109.166 29.363 109.464C29.363 109.762 29.6032 110.003 29.8995 110.003Z" fill="#3F3D56"/>
<path d="M36.9148 103.447C37.2111 103.447 37.4513 103.206 37.4513 102.908C37.4513 102.61 37.2111 102.369 36.9148 102.369C36.6186 102.369 36.3784 102.61 36.3784 102.908C36.3784 103.206 36.6186 103.447 36.9148 103.447Z" fill="#3F3D56"/>
<path d="M47.8382 91.042C48.1344 91.042 48.3746 90.8006 48.3746 90.5029C48.3746 90.2051 48.1344 89.9637 47.8382 89.9637C47.5419 89.9637 47.3018 90.2051 47.3018 90.5029C47.3018 90.8006 47.5419 91.042 47.8382 91.042Z" fill="#3F3D56"/>
<path d="M17.8132 108.852C18.0921 108.713 18.3371 108.513 18.5311 108.268C18.7251 108.023 18.8632 107.739 18.9359 107.434C19.0085 107.13 19.0139 106.813 18.9515 106.506C18.8892 106.2 18.7607 105.91 18.5751 105.659L20.1683 90.0028H16.7253L15.4592 105.29C15.0596 105.632 14.7985 106.108 14.7253 106.63C14.6521 107.152 14.772 107.683 15.0622 108.122C15.3523 108.561 15.7927 108.878 16.2997 109.012C16.8067 109.147 17.3453 109.09 17.8132 108.852Z" fill="#FFB8B8"/>
<path d="M20.9747 81.3625C23.665 81.3625 25.8459 79.1705 25.8459 76.4665C25.8459 73.7625 23.665 71.5705 20.9747 71.5705C18.2844 71.5705 16.1035 73.7625 16.1035 76.4665C16.1035 79.1705 18.2844 81.3625 20.9747 81.3625Z" fill="#FFB8B8"/>
<path d="M21.8915 99.1204C21.6965 99.1204 21.507 99.056 21.3519 98.9372C21.1968 98.8184 21.0847 98.6518 21.033 98.4628C20.6427 97.0377 19.6273 94.6281 18.0151 91.3006C17.6513 90.5485 17.4499 89.7275 17.424 88.8915C17.3981 88.0556 17.5483 87.2236 17.8649 86.4502C18.1814 85.6767 18.657 84.9793 19.2606 84.4036C19.8642 83.8278 20.582 83.3869 21.3671 83.1097C22.111 82.8456 22.9001 82.7343 23.6876 82.7821C24.4751 82.83 25.2451 83.0362 25.952 83.3884C26.6588 83.7406 27.2882 84.2317 27.8029 84.8327C28.3176 85.4337 28.7072 86.1323 28.9485 86.8873C30.1982 90.825 30.1378 95.0431 30.0539 96.6737C30.0435 96.87 29.9693 97.0576 29.8427 97.2075C29.7161 97.3575 29.5441 97.4616 29.353 97.5039L22.0829 99.0996C22.0201 99.1135 21.9559 99.1205 21.8915 99.1204Z" fill="#FF6584"/>
<path d="M28.9318 145.612H31.3632L32.52 136.186L28.9314 136.186L28.9318 145.612Z" fill="#FFB8B8"/>
<path d="M36.0527 147.881L28.411 147.882L28.4108 144.914L33.1001 144.914C33.4878 144.914 33.8718 144.991 34.23 145.14C34.5882 145.289 34.9137 145.507 35.1879 145.783C35.462 146.059 35.6795 146.386 35.8279 146.746C35.9763 147.106 36.0527 147.492 36.0527 147.881Z" fill="#2F2E41"/>
<path d="M4.61841 142.445L6.74922 143.622L12.2814 135.923L9.13689 134.185L4.61841 142.445Z" fill="#FFB8B8"/>
<path d="M9.77051 147.882L3.07404 144.181L4.49646 141.581L8.60566 143.852C9.29184 144.231 9.80006 144.868 10.0185 145.624C10.237 146.38 10.1478 147.192 9.77051 147.882Z" fill="#2F2E41"/>
<path d="M28.8182 140.38C28.6015 140.38 28.3923 140.301 28.2296 140.157C28.0669 140.013 27.9618 139.815 27.934 139.599L24.8931 116.047C24.8797 115.943 24.8339 115.845 24.7621 115.769C24.6904 115.693 24.5965 115.641 24.4939 115.621C24.3912 115.602 24.285 115.615 24.1904 115.66C24.0958 115.705 24.0177 115.778 23.9672 115.87L11.2943 138.98C11.1897 139.169 11.0212 139.313 10.8195 139.388C10.6178 139.462 10.3962 139.461 10.195 139.385L7.43266 138.328C7.32156 138.285 7.22003 138.221 7.13404 138.138C7.04805 138.056 6.97933 137.957 6.93192 137.847C6.88452 137.737 6.85937 137.619 6.85797 137.5C6.85657 137.381 6.87894 137.262 6.92377 137.151L15.7027 115.476C15.7249 115.42 15.74 115.363 15.7475 115.304C16.9365 106.054 19.9619 101.35 20.8608 100.128C20.9264 100.039 20.9696 99.9343 20.9867 99.8243C21.0039 99.7142 20.9944 99.6016 20.9591 99.496L20.8355 99.1234C20.7862 98.9755 20.7761 98.8172 20.8062 98.6642C20.8363 98.5112 20.9056 98.3687 21.0073 98.2509C24.2463 94.5428 29.8917 96.5662 29.9483 96.587L29.9766 96.5975L29.9943 96.6219C36.3245 105.348 33.984 133.688 33.4506 139.281C33.4307 139.491 33.3374 139.687 33.1874 139.835C33.0373 139.983 32.8401 140.072 32.6307 140.088L28.8875 140.378C28.8642 140.379 28.8411 140.38 28.8182 140.38Z" fill="#2F2E41"/>
<path d="M39.9118 82.1537C39.8875 82.2612 39.8716 82.3706 39.8644 82.4806L31.3446 87.4207L29.2738 86.2224L27.0662 89.1273L30.5271 91.6066C30.8067 91.8069 31.1434 91.9106 31.4866 91.9022C31.8298 91.8938 32.1611 91.7737 32.4307 91.56L41.216 84.5939C41.6124 84.7414 42.0442 84.7641 42.4538 84.6589C42.8635 84.5538 43.2315 84.3258 43.5091 84.0053C43.7866 83.6847 43.9605 83.2869 44.0076 82.8646C44.0547 82.4423 43.9728 82.0156 43.7727 81.6413C43.5726 81.267 43.2639 80.9627 42.8876 80.769C42.5113 80.5753 42.0853 80.5014 41.6662 80.557C41.247 80.6126 40.8547 80.7952 40.5413 81.0804C40.2279 81.3656 40.0084 81.74 39.9118 82.1537Z" fill="#FFB8B8"/>
<path d="M31.0598 87.6547L28.3062 91.2416C28.2279 91.3436 28.1286 91.4275 28.015 91.4875C27.9015 91.5475 27.7765 91.5822 27.6484 91.5893C27.5204 91.5963 27.3923 91.5756 27.2729 91.5284C27.1536 91.4812 27.0458 91.4087 26.9568 91.3159L23.8396 88.0624C23.3224 87.6565 22.9864 87.0611 22.9052 86.4066C22.8241 85.7522 23.0045 85.0921 23.4069 84.5711C23.8093 84.0501 24.4008 83.7107 25.0517 83.6274C25.7026 83.5441 26.3599 83.7236 26.8793 84.1266L30.789 86.3239C30.9009 86.3868 30.998 86.4733 31.0737 86.5774C31.1494 86.6814 31.2018 86.8007 31.2275 86.927C31.2532 87.0532 31.2515 87.1836 31.2226 87.3092C31.1936 87.4348 31.1381 87.5526 31.0598 87.6547Z" fill="#FF6584"/>
<path d="M20.3875 93.8865L15.9517 93.0814C15.8255 93.0585 15.7056 93.0085 15.6004 92.9349C15.4951 92.8613 15.4069 92.7657 15.3417 92.6547C15.2765 92.5437 15.2359 92.4198 15.2226 92.2916C15.2093 92.1634 15.2237 92.0338 15.2647 91.9117L16.7027 87.6324C16.8229 86.984 17.194 86.41 17.7347 86.0362C18.2754 85.6624 18.9415 85.5194 19.5869 85.6385C20.2323 85.7576 20.8044 86.1291 21.1778 86.6715C21.5511 87.214 21.6951 87.8831 21.5784 88.5321L21.4381 93.0321C21.434 93.1609 21.4024 93.2874 21.3453 93.4028C21.2883 93.5183 21.2071 93.62 21.1074 93.7011C21.0077 93.7822 20.8918 93.8407 20.7675 93.8727C20.6433 93.9047 20.5137 93.9094 20.3875 93.8865H20.3875Z" fill="#FF6584"/>
<path d="M21.7455 75.3403C22.9975 76.2016 24.6414 77.0869 25.9201 76.1697C26.3201 75.8636 26.6107 75.4355 26.7484 74.9494C26.886 74.4634 26.8634 73.9457 26.6838 73.4737C26.0715 71.7138 24.3893 70.939 22.7806 70.3451C20.6893 69.5731 18.4123 68.9589 16.2534 69.5118C14.0945 70.0647 12.1865 72.1656 12.5762 74.3703C12.8896 76.1433 14.5536 77.6185 14.3174 79.4035C14.0796 81.2 12.0695 82.1456 10.2949 82.4667C8.52036 82.7878 6.53455 82.8909 5.25923 84.1721C3.63231 85.8065 4.03858 88.7277 5.56944 90.4532C7.10029 92.1788 9.41045 92.961 11.649 93.4927C14.6149 94.1972 17.8228 94.5674 20.6397 93.3982C23.4565 92.229 25.6486 89.0817 24.8326 86.1303C24.4879 84.8837 23.6759 83.8301 22.8912 82.8044C22.1065 81.7788 21.3119 80.7062 21.0126 79.4478C20.7631 78.3991 20.9478 77.1815 21.6397 76.3949C21.7655 76.2572 21.8447 76.083 21.8659 75.8972C21.8871 75.7115 21.8491 75.5238 21.7576 75.361L21.7455 75.3403Z" fill="#2F2E41"/>
<path d="M40.3116 148H0.211055C0.15508 148 0.101397 147.978 0.0618165 147.938C0.022236 147.898 0 147.844 0 147.788C0 147.732 0.022236 147.678 0.0618165 147.638C0.101397 147.598 0.15508 147.576 0.211055 147.576H40.3116C40.3675 147.576 40.4212 147.598 40.4608 147.638C40.5004 147.678 40.5226 147.732 40.5226 147.788C40.5226 147.844 40.5004 147.898 40.4608 147.938C40.4212 147.978 40.3675 148 40.3116 148Z" fill="#CCCCCC"/>
</svg>
