<svg width="210" height="148" fill="none" xmlns="http://www.w3.org/2000/svg"><path d="M171.522 92.818H36.27a3.477 3.477 0 0 1-2.462-1.027 3.513 3.513 0 0 1-1.02-2.474V5.493c0-.68.27-1.332.747-1.812a2.548 2.548 0 0 1 1.804-.752h137.07c.688 0 1.348.276 1.835.765.486.489.76 1.152.761 1.843v83.78a3.518 3.518 0 0 1-1.022 2.474 3.475 3.475 0 0 1-2.461 1.027Z" fill="#F2F2F2"/><path d="M166.588 87.86H40.537c-1.848 0-3.352-1.414-3.352-3.153V11.71c0-1.29 1.114-2.339 2.484-2.339h127.746c1.392 0 2.524 1.067 2.524 2.378v72.957c0 1.739-1.503 3.154-3.351 3.154Z" fill="#fff"/><path d="M174.956 5.293H32.739V3.51a3.525 3.525 0 0 1 1.025-2.482A3.49 3.49 0 0 1 36.234 0H171.46c.926 0 1.815.37 2.47 1.029a3.524 3.524 0 0 1 1.025 2.482v1.782Z" fill="#CCC"/><path d="M39.09 3.56c.5 0 .904-.407.904-.908a.906.906 0 0 0-.904-.909.907.907 0 0 0-.904.909c0 .501.405.908.904.908Zm3.432 0c.5 0 .904-.407.904-.908a.906.906 0 0 0-.904-.909c-.5 0-.904.407-.904.909 0 .501.405.908.904.908Zm3.431 0c.5 0 .904-.407.904-.908a.906.906 0 0 0-.904-.909.907.907 0 0 0-.904.909c0 .501.405.908.904.908Z" fill="#fff"/><path d="M152.714 75.618H55.029a3.688 3.688 0 0 1-2.61-1.088 3.726 3.726 0 0 1-1.083-2.624V24.568c0-.736.292-1.442.81-1.962a2.758 2.758 0 0 1 1.952-.814h99.503c.744 0 1.457.298 1.983.827.527.529.823 1.245.823 1.993v47.294a3.723 3.723 0 0 1-1.083 2.624 3.687 3.687 0 0 1-2.61 1.088ZM54.098 22.216c-.62 0-1.215.249-1.654.69a2.361 2.361 0 0 0-.686 1.662v47.338a3.3 3.3 0 0 0 .96 2.324 3.267 3.267 0 0 0 2.311.964h97.685a3.267 3.267 0 0 0 2.312-.964 3.302 3.302 0 0 0 .959-2.324V24.612a2.4 2.4 0 0 0-.699-1.693 2.38 2.38 0 0 0-1.685-.703H54.098Z" fill="#CCC"/><path d="M58.406 71.906h90.931a3.37 3.37 0 0 0 2.388-.994c.633-.637.989-1.5.989-2.4V28.939c0-.9-.356-1.763-.989-2.4a3.37 3.37 0 0 0-2.388-.994h-90.93c-.896 0-1.755.358-2.389.994a3.405 3.405 0 0 0-.989 2.4v39.573c0 .9.356 1.763.99 2.4a3.368 3.368 0 0 0 2.387.994Z" fill="#F2F2F2"/><path d="M68.73 37.058c1.05 0 1.9-.854 1.9-1.909 0-1.054-.85-1.909-1.9-1.909a1.905 1.905 0 0 0-1.899 1.91c0 1.054.85 1.908 1.9 1.908Zm0 7.212c1.05 0 1.9-.854 1.9-1.908 0-1.055-.85-1.91-1.9-1.91a1.905 1.905 0 0 0-1.899 1.91c0 1.054.85 1.909 1.9 1.909Zm0 7.213c1.05 0 1.9-.854 1.9-1.909 0-1.054-.85-1.91-1.9-1.91a1.906 1.906 0 0 0-1.899 1.91c0 1.055.85 1.91 1.9 1.91Zm0 7.213c1.05 0 1.9-.855 1.9-1.91 0-1.054-.85-1.909-1.9-1.909a1.905 1.905 0 0 0-1.899 1.91c0 1.054.85 1.909 1.9 1.909Zm71.971-23.335H78.228a.21.21 0 0 1-.21-.212.213.213 0 0 1 .21-.212h62.473a.211.211 0 0 1 .211.212.21.21 0 0 1-.211.212Zm0 7.213H78.228a.21.21 0 0 1-.21-.212.213.213 0 0 1 .21-.212h62.473a.21.21 0 0 1 .211.212.211.211 0 0 1-.211.212Zm0 7.212H78.228a.21.21 0 0 1-.21-.212.213.213 0 0 1 .21-.212h62.473a.21.21 0 0 1 .211.212.211.211 0 0 1-.211.212Zm0 7.213H78.228a.21.21 0 0 1-.21-.213.213.213 0 0 1 .21-.212h62.473a.211.211 0 0 1 .211.212.21.21 0 0 1-.211.213Z" fill="#CCC"/><path d="M90.047 64.211h-6.12c-.28 0-.548-.112-.746-.31a1.064 1.064 0 0 1-.31-.75v-5.728c0-.281.112-.55.31-.75.198-.199.466-.31.746-.31h6.12c.28 0 .549.111.746.31.198.2.31.469.31.75v5.727a1.063 1.063 0 0 1-1.056 1.061Zm13.719 0h-6.12c-.28 0-.549-.112-.746-.31a1.064 1.064 0 0 1-.31-.75V50.21a1.063 1.063 0 0 1 1.055-1.061h6.121a1.055 1.055 0 0 1 1.055 1.06v12.94a1.062 1.062 0 0 1-1.055 1.061Zm13.93 0h-6.121c-.28 0-.548-.112-.746-.31a1.062 1.062 0 0 1-.309-.75V42.998a1.062 1.062 0 0 1 1.055-1.06h6.121c.279 0 .548.111.745.31.198.2.31.469.31.75v20.153a1.063 1.063 0 0 1-1.055 1.06Zm14.351 0h-6.12c-.28 0-.548-.112-.746-.31a1.062 1.062 0 0 1-.309-.75V35.998a1.062 1.062 0 0 1 1.055-1.061h6.12c.28 0 .548.112.746.311.198.199.309.469.31.75V63.15a1.055 1.055 0 0 1-1.056 1.06Z" fill="#486BC9"/><path d="M140.701 64.211H78.228a.21.21 0 0 1-.21-.212.213.213 0 0 1 .21-.212h62.473a.21.21 0 0 1 .211.212.211.211 0 0 1-.211.212Z" fill="#3F3D56"/><path d="M168.148 103.784a2.118 2.118 0 0 1 3.233-.37l6.703-3.477-.417 3.917-6.301 2.701a2.129 2.129 0 0 1-3.559-1.287 2.15 2.15 0 0 1 .341-1.484Z" fill="#FFB8B8"/><path d="M173.915 105.245a.957.957 0 0 1-.322-.47l-.533-1.73a.964.964 0 0 1 .335-1.044l5.432-4.124 5.883-10.97a3.046 3.046 0 0 1 4.293-.543 3.101 3.101 0 0 1 1.16 2.045 3.097 3.097 0 0 1-.62 2.27l-3.347 7.1a9.81 9.81 0 0 1-4.952 4.815l-6.366 2.775a.955.955 0 0 1-.774-.008.94.94 0 0 1-.189-.116Z" fill="#3F3D56"/><path d="M189.691 82.329c2.863 0 5.184-2.333 5.184-5.21 0-2.878-2.321-5.21-5.184-5.21s-5.183 2.332-5.183 5.21c0 2.877 2.32 5.21 5.183 5.21Zm-2.102 63.137h-2.588l-1.23-10.031h3.819l-.001 10.031Z" fill="#FFB8B8"/><path d="M183.153 144.723h4.99v3.158h-8.132a3.174 3.174 0 0 1 .92-2.233 3.154 3.154 0 0 1 1.019-.685c.382-.158.79-.24 1.203-.24Z" fill="#2F2E41"/><path d="M196.031 145.467h-2.588l-1.23-10.032h3.819l-.001 10.032Z" fill="#FFB8B8"/><path d="M191.595 144.723h4.99v3.158h-8.132a3.17 3.17 0 0 1 .92-2.233 3.13 3.13 0 0 1 2.222-.925Zm4.625-1.802h-3.032a.946.946 0 0 1-.917-.706l-4.365-16.271a.106.106 0 0 0-.119-.077.1.1 0 0 0-.065.039.1.1 0 0 0-.023.072l.881 15.431a.957.957 0 0 1-.285.738.936.936 0 0 1-.742.268l-3.408-.286a.944.944 0 0 1-.581-.266.96.96 0 0 1-.283-.575l-3.105-32.402 1.201.725 11.256-1.921 4.528 34.151a.96.96 0 0 1-.227.754.94.94 0 0 1-.714.326Z" fill="#2F2E41"/><path d="M183.94 112.306a6.927 6.927 0 0 1-3.522-.996.949.949 0 0 1-.451-.974c.395-2.436 2.466-14.935 4.349-21.75.767-2.775 2.463-4.27 5.042-4.442 3.771-.249 7.123 2.717 7.472 6.618.615 6.884-1.886 16.663-2.99 20.549a.944.944 0 0 1-1.496.489l-2.25-1.759a.739.739 0 0 0-.953.04c-1.896 1.7-3.698 2.226-5.201 2.225Z" fill="#3F3D56"/><path opacity=".2" d="m191.382 94.13 1.9 8.062-2.745 6.788 1.9-6.576-1.055-8.273Z" fill="#000"/><path d="M192.649 81.403c.461.009.92-.075 1.348-.245.189-.073.385-.133.573-.206 1.664-.646 2.76-2.427 2.799-4.219.039-1.792-.884-3.531-2.255-4.677-1.371-1.147-3.146-1.735-4.925-1.871-1.915-.147-4.072.341-5.142 1.944-.285.427-.484.945-.316 1.46a.939.939 0 0 0 .262.404c.478.428.955.107 1.442.078.67-.039 1.271.506 1.487 1.144.217.639.121 1.341-.053 1.992a5.01 5.01 0 0 0-.25 1.212 1.223 1.223 0 0 0 .502 1.072c.419.254.968.107 1.387-.147.419-.254.781-.606 1.233-.793.452-.187 1.06-.146 1.323.269.084.15.14.315.167.485.236 1.08.182 1.017.418 2.098Z" fill="#2F2E41"/><path d="m184.615 138.189-32.46-11.362a2.233 2.233 0 0 1-1.271-1.139 2.256 2.256 0 0 1-.099-1.709l8.435-24.344a1.64 1.64 0 0 1 .831-.936 1.621 1.621 0 0 1 1.245-.072l33.557 11.746a1.674 1.674 0 0 1 1.021 2.122l-8.426 24.317a2.22 2.22 0 0 1-2.833 1.377Z" fill="#E6E6E6"/><path d="m154.925 125.428 28.384 9.935c.54.19 1.133.155 1.649-.095.515-.251.91-.696 1.098-1.24l6.811-19.657a2.17 2.17 0 0 0-1.328-2.762l-28.383-9.935a2.15 2.15 0 0 0-2.748 1.335l-6.811 19.657a2.192 2.192 0 0 0-.117.839 2.169 2.169 0 0 0 1.445 1.923Z" fill="#fff"/><path d="m162.053 111.617-1.406-.492a.307.307 0 0 1-.188-.39l.49-1.413a.305.305 0 0 1 .388-.188l1.405.492a.304.304 0 0 1 .174.156c.035.073.04.157.014.234l-.49 1.413a.302.302 0 0 1-.155.174.297.297 0 0 1-.232.014Z" fill="#486BC9"/><path d="m160.784 115.278-1.406-.492a.306.306 0 0 1-.187-.39l.489-1.413a.309.309 0 0 1 .156-.175.301.301 0 0 1 .232-.013l1.406.492a.304.304 0 0 1 .187.389l-.489 1.413a.308.308 0 0 1-.388.189Z" fill="#3F3D56"/><path d="m159.516 118.938-1.406-.492a.307.307 0 0 1-.187-.39l.489-1.412a.308.308 0 0 1 .388-.189l1.406.492a.306.306 0 0 1 .187.39l-.49 1.413a.301.301 0 0 1-.387.188Zm11.982-4.807-6.773-2.371a.303.303 0 0 1-.188-.389.313.313 0 0 1 .061-.104.289.289 0 0 1 .095-.071.289.289 0 0 1 .115-.03c.04-.003.08.003.118.016l6.772 2.371a.3.3 0 0 1 .103.061.306.306 0 0 1-.303.517Zm-1.268 3.661-6.773-2.371a.307.307 0 0 1-.033-.564.3.3 0 0 1 .233-.014l6.773 2.371a.297.297 0 0 1 .174.156.301.301 0 0 1-.046.337.319.319 0 0 1-.095.072.308.308 0 0 1-.233.013Zm-1.269 3.66-6.773-2.37a.31.31 0 0 1-.174-.156.311.311 0 0 1-.013-.234.304.304 0 0 1 .388-.188l6.773 2.37a.306.306 0 0 1-.201.578Z" fill="#CCC"/><path d="M186.985 123.436a6.45 6.45 0 0 0-.142-5.265 6.396 6.396 0 0 0-3.647-3.266l-2.227 6.425 6.016 2.106Z" fill="#486BC9"/><path d="m180.322 121.721 2.226-6.425a6.343 6.343 0 0 0-3.655-.163 6.376 6.376 0 0 0-3.144 1.881 6.43 6.43 0 0 0-1.599 3.308 6.448 6.448 0 0 0 .472 3.647 6.406 6.406 0 0 0 2.386 2.787 6.364 6.364 0 0 0 3.518 1.012 6.363 6.363 0 0 0 3.493-1.097 6.409 6.409 0 0 0 2.319-2.844l-6.016-2.106Z" fill="#3F3D56"/><path d="M188.292 112.504a2.144 2.144 0 0 1 .625-1.692 2.116 2.116 0 0 1 1.692-.604l3.139-6.893 2.077 3.341-3.299 6.033a2.147 2.147 0 0 1-.76 1.319 2.126 2.126 0 0 1-2.831-.124 2.148 2.148 0 0 1-.643-1.38Z" fill="#FFB8B8"/><path d="M193.726 110.077a.945.945 0 0 1-.541-.17l-1.482-1.031a.962.962 0 0 1-.377-1.029l1.742-6.614-2.106-12.281a3.092 3.092 0 0 1 .884-2.181 3.058 3.058 0 0 1 2.161-.913 3.042 3.042 0 0 1 2.169.891 3.077 3.077 0 0 1 .905 2.173l1.726 7.663a9.88 9.88 0 0 1-.941 6.86l-3.305 6.132a.949.949 0 0 1-.835.5Z" fill="#3F3D56"/><path d="M209.789 148h-40.101a.21.21 0 0 1-.149-.062.216.216 0 0 1-.062-.15c0-.056.023-.11.062-.15a.21.21 0 0 1 .149-.062h40.101a.212.212 0 0 1 0 .424Z" fill="#CCC"/><path d="m103.531 145.361 2.588-.001 1.231-10.031h-3.819v10.032Z" fill="#A0616A"/><path d="m102.871 144.512 5.096-.001a3.234 3.234 0 0 1 2.296.956 3.266 3.266 0 0 1 .952 2.308v.106l-8.344.001v-3.37Z" fill="#2F2E41"/><path d="m93.19 145.361 2.587-.001 1.231-10.031h-3.819v10.032Z" fill="#A0616A"/><path d="m92.53 144.512 5.095-.001a3.234 3.234 0 0 1 2.297.956 3.283 3.283 0 0 1 .951 2.308v.106l-8.343.001v-3.37Z" fill="#2F2E41"/><path d="M104.048 75.913c2.863 0 5.183-2.333 5.183-5.21 0-2.878-2.32-5.21-5.183-5.21s-5.184 2.332-5.184 5.21c0 2.877 2.321 5.21 5.184 5.21Z" fill="#A0616A"/><path d="M107.534 143.196h-4.802a.939.939 0 0 1-.676-.284.964.964 0 0 1-.274-.683l.279-22.916a.319.319 0 0 0-.295-.322.317.317 0 0 0-.335.279l-2.795 23.086a.954.954 0 0 1-.943.84h-4.847a.958.958 0 0 1-.698-.307.943.943 0 0 1-.25-.722l3.202-41.17.087-.009 15.329-1.664-2.034 42.962a.95.95 0 0 1-.948.91Z" fill="#2F2E41"/><path d="M95.286 103.525a.95.95 0 0 1-.946-.925c-.084-2.603-.227-11.61 1.44-18.223a8.687 8.687 0 0 1 2.912-4.596 8.613 8.613 0 0 1 5.064-1.946c1.823-.1 3.631.38 5.167 1.37a8.722 8.722 0 0 1 3.393 4.15c2.802 7.15 5.449 15.962 2.149 17.345-4.326 1.811-15.729 2.618-19.12 2.823l-.059.002Z" fill="#3F3D56"/><path d="M115.098 65.437c.082.084.17.161.263.232l-.544 10.506-2.263 1.164 1.302 3.663 4.206-1.67a1.695 1.695 0 0 0 1.061-1.735l-1.102-11.918a2.226 2.226 0 0 0 .805-2.398 2.227 2.227 0 0 0-.725-1.108 2.21 2.21 0 0 0-3.405.765 2.231 2.231 0 0 0 .402 2.499Z" fill="#A0616A"/><path d="m114.86 76.566 1.592 4.548a.95.95 0 0 1-.715 1.254l-4.695.913c-.66.23-1.384.187-2.012-.12a2.648 2.648 0 0 1-1.34-1.513 2.662 2.662 0 0 1 .114-2.022 2.642 2.642 0 0 1 1.502-1.351l4.215-2.237a.947.947 0 0 1 1.339.528Z" fill="#3F3D56"/><path d="M92.645 65.437c-.082.084-.17.161-.263.232l.544 10.506 2.263 1.164-1.302 3.663-4.206-1.67a1.704 1.704 0 0 1-1.06-1.735l1.101-11.918a2.227 2.227 0 0 1-.805-2.398c.124-.435.377-.822.725-1.108a2.21 2.21 0 0 1 3.406.765 2.237 2.237 0 0 1-.403 2.499Z" fill="#A0616A"/><path d="M93.433 75.994a.944.944 0 0 1 .79.044l4.215 2.237a2.642 2.642 0 0 1 1.501 1.351 2.67 2.67 0 0 1 .115 2.022 2.65 2.65 0 0 1-1.34 1.514 2.625 2.625 0 0 1-2.013.12l-4.695-.914a.947.947 0 0 1-.643-.463.957.957 0 0 1-.072-.791l1.592-4.548a.953.953 0 0 1 .55-.572Z" fill="#3F3D56"/><path d="M106.061 71.59a3.44 3.44 0 0 1 .478-1.893 3.417 3.417 0 0 1 1.43-1.324c1.576-.817 2.566-2.561 2.132-4.154-.555-2.038-3.315-3.36-5.552-2.659-.605.216-1.189.489-1.743.815l-1.461.787c-.625.314-1.226.671-1.802 1.069a6.002 6.002 0 0 0-1.955 2.487 6.034 6.034 0 0 0-.423 3.14c.287 2.073 1.638 3.973 3.486 5.274a5.872 5.872 0 0 0 2.389 1.067c.886.147 1.872-.02 2.52-.573 1.012-.866.907-2.315.58-3.525a2.586 2.586 0 0 1-.079-.51Z" fill="#2F2E41"/><path d="M123.678 148h-40.1a.21.21 0 0 1-.15-.062.214.214 0 0 1 0-.3.21.21 0 0 1 .15-.062h40.1a.212.212 0 1 1 0 .424Z" fill="#CCC"/><path d="m58.232 109.301-33.088 13.644a2.306 2.306 0 0 1-1.772-.007 2.323 2.323 0 0 1-1.25-1.263L11.993 96.859a1.716 1.716 0 0 1 .005-1.304c.174-.417.505-.748.92-.92L47.127 80.53a1.72 1.72 0 0 1 1.32.005c.423.178.758.516.932.941l10.118 24.789c.232.571.23 1.211-.007 1.781a2.321 2.321 0 0 1-1.257 1.255Z" fill="#E6E6E6"/><path d="m26.342 119.935 28.934-11.93a2.25 2.25 0 0 0 1.22-1.218c.229-.552.23-1.173.005-1.727l-8.18-20.038a2.258 2.258 0 0 0-1.21-1.226 2.234 2.234 0 0 0-1.719-.006L16.458 95.72a2.244 2.244 0 0 0-1.219 1.218 2.268 2.268 0 0 0-.006 1.727l8.18 20.039a2.241 2.241 0 0 0 2.93 1.231Z" fill="#fff"/><path d="m48.162 90.486-.425.176.029.071.425-.175-.029-.072Zm-1.255.601-.86.355-.029-.072.86-.354.029.071Zm-1.72.709-.859.354-.029-.07.86-.355.029.071Zm-1.718.709-.86.354-.028-.071.859-.355.029.072Zm-1.719.708-.86.355-.028-.072.86-.354.028.071Zm-1.718.71-.86.353-.029-.07.86-.355.029.071Zm-1.72.708-.858.354-.03-.071.86-.354.029.07Zm-1.718.709-.86.354-.028-.071.859-.355.03.072Zm-1.719.708-.859.355-.03-.072.86-.354.03.071Zm-1.718.709-.86.354-.029-.071.86-.354.029.07Zm-1.72.709-.859.354-.029-.071.86-.355.029.072Zm-1.718.708-.86.355-.028-.072.86-.354.028.071ZM28 98.883l-.859.354-.029-.07.86-.355.028.071Zm-1.718.709-.86.354-.029-.071.86-.355.029.072Zm-1.719.708-.86.355-.029-.072.86-.354.029.071Zm-1.719.709-.86.354-.028-.071.86-.354.028.071Zm-1.719.709-.859.354-.029-.071.86-.354.028.071Zm-1.747.637-.426.176.03.071.425-.175-.03-.072Zm17.522.517-.425.176.029.071.425-.175-.029-.072Zm-1.243.596-.846.349-.03-.071.847-.349.03.071Zm-1.693.698-.846.349-.03-.071.847-.349.03.071Zm-1.693.699-.847.349-.029-.072.847-.349.029.072Zm-1.693.698-.847.349-.029-.071.847-.35.029.072Zm-1.694.698-.846.349-.03-.071.847-.349.03.071Zm-1.693.698-.846.349-.03-.071.847-.349.03.071Zm-1.693.698-.847.349-.029-.071.847-.349.03.071Zm-1.693.698-.847.35-.029-.072.847-.349.029.071Zm-1.722.627-.426.176.03.071.425-.175-.03-.072Zm7.802.446-.426.176.03.071.425-.176-.03-.071Zm-1.267.606-.871.359-.03-.071.872-.359.029.071Zm-1.742.718-.872.36-.029-.072.871-.359.03.071Zm-1.742.719-.872.359-.029-.071.871-.36.03.072Zm-1.772.647-.425.175.03.071.425-.175-.03-.071Zm8.707 2.661-.425.175.029.072.425-.176-.03-.071Zm-1.267.606-.871.359-.03-.071.872-.36.029.072Zm-1.742.718-.871.359-.03-.071.872-.359.029.071Zm-1.742.718-.871.359-.03-.071.871-.359.03.071Zm-1.772.647-.425.176.029.071.425-.175-.029-.072Z" fill="#E6E6E6"/><path d="m27.57 116.781 24.52-10.11a2.432 2.432 0 0 0 1.313-1.313c.248-.595.25-1.265.008-1.861l-4.955-12.138-.047.022-6.017 14.46-4.463-1.875a.583.583 0 0 0-.514.032.617.617 0 0 0-.256.304l-3.153 7.578-3.263-1.371a.585.585 0 0 0-.445-.002.58.58 0 0 0-.316.315c-.02.052-2.032 5.013-2.411 5.959Z" fill="#486BC9"/><path d="m27.495 116.895-.07-.03 2.523-6.064a.652.652 0 0 1 .852-.351l3.198 1.344 3.136-7.536a.65.65 0 0 1 .852-.351l4.398 1.849 6.048-14.536.07.03-6.077 14.606-4.469-1.878a.592.592 0 0 0-.22-.045.585.585 0 0 0-.532.355l-3.165 7.607-3.269-1.374a.573.573 0 0 0-.752.31l-2.523 6.064Zm2.405-6.892a.538.538 0 0 0 .536-.539.538.538 0 1 0-1.073 0c0 .298.24.539.537.539Z" fill="#3F3D56"/><path d="M36.915 103.447a.538.538 0 0 0 .536-.539.538.538 0 1 0-1.073 0c0 .298.24.539.537.539Zm10.923-12.405a.538.538 0 0 0 .537-.54.538.538 0 1 0-1.073 0c0 .299.24.54.536.54Z" fill="#3F3D56"/><path d="M17.813 108.852a2.142 2.142 0 0 0 1.138-2.346 2.146 2.146 0 0 0-.376-.847l1.593-15.656h-3.443L15.46 105.29a2.157 2.157 0 0 0 .84 3.722 2.129 2.129 0 0 0 1.514-.16Zm3.162-27.49c2.69 0 4.87-2.191 4.87-4.895 0-2.704-2.18-4.897-4.87-4.897s-4.872 2.193-4.872 4.897 2.181 4.895 4.872 4.895Z" fill="#FFB8B8"/><path d="M21.892 99.12a.887.887 0 0 1-.859-.657c-.39-1.425-1.406-3.835-3.018-7.162a5.956 5.956 0 0 1 1.246-6.897 5.896 5.896 0 0 1 6.691-1.016 5.937 5.937 0 0 1 2.996 3.499c1.25 3.938 1.19 8.156 1.106 9.787a.901.901 0 0 1-.701.83l-7.27 1.596a.88.88 0 0 1-.191.02Z" fill="#FF6584"/><path d="M28.932 145.612h2.431l1.157-9.426h-3.589v9.426Z" fill="#FFB8B8"/><path d="m36.053 147.881-7.642.001v-2.968h4.69a2.942 2.942 0 0 1 2.087.869 2.976 2.976 0 0 1 .865 2.098Z" fill="#2F2E41"/><path d="m4.618 142.445 2.131 1.177 5.532-7.699-3.144-1.738-4.519 8.26Z" fill="#FFB8B8"/><path d="m9.77 147.882-6.696-3.701 1.422-2.6 4.11 2.271a2.962 2.962 0 0 1 1.412 1.772 2.98 2.98 0 0 1-.247 2.258Zm19.048-7.502a.898.898 0 0 1-.884-.781l-3.04-23.552a.498.498 0 0 0-.704-.387.498.498 0 0 0-.223.21l-12.673 23.11a.895.895 0 0 1-1.1.405l-2.761-1.057a.893.893 0 0 1-.575-.828.905.905 0 0 1 .066-.349l8.779-21.675a.706.706 0 0 0 .045-.172c1.188-9.25 4.214-13.954 5.113-15.176a.692.692 0 0 0 .098-.632l-.123-.373a.902.902 0 0 1 .171-.872c3.24-3.708 8.885-1.685 8.941-1.664l.029.01.017.025c6.33 8.726 3.99 37.066 3.457 42.659a.897.897 0 0 1-.82.807l-3.744.29-.069.002Z" fill="#2F2E41"/><path d="M39.912 82.154c-.024.107-.04.217-.048.327l-8.52 4.94-2.07-1.199-2.208 2.905 3.461 2.48a1.581 1.581 0 0 0 1.904-.047l8.785-6.966a2.071 2.071 0 0 0 2.293-.589 2.098 2.098 0 0 0-.621-3.236 2.073 2.073 0 0 0-2.347.311c-.313.286-.533.66-.63 1.074Z" fill="#FFB8B8"/><path d="m31.06 87.655-2.754 3.587a.893.893 0 0 1-1.033.286.894.894 0 0 1-.316-.212l-3.117-3.254a2.5 2.5 0 0 1-.433-3.491 2.47 2.47 0 0 1 3.472-.445l3.91 2.198a.894.894 0 0 1 .434.985.9.9 0 0 1-.163.346Zm-10.673 6.231-4.435-.805a.89.89 0 0 1-.73-.79.901.901 0 0 1 .043-.38l1.438-4.279a2.492 2.492 0 0 1 1.032-1.596 2.469 2.469 0 0 1 3.443.635c.373.543.517 1.212.4 1.861l-.14 4.5a.9.9 0 0 1-.67.84.888.888 0 0 1-.38.014Z" fill="#FF6584"/><path d="M21.745 75.34c1.252.862 2.896 1.747 4.175.83a2.35 2.35 0 0 0 .764-2.696c-.613-1.76-2.295-2.535-3.903-3.129-2.092-.772-4.369-1.386-6.528-.833-2.159.553-4.066 2.654-3.677 4.858.314 1.773 1.978 3.248 1.741 5.033-.237 1.797-2.248 2.743-4.022 3.064-1.775.32-3.76.424-5.036 1.705-1.627 1.635-1.22 4.556.31 6.281 1.531 1.726 3.841 2.508 6.08 3.04 2.966.704 6.174 1.074 8.99-.095 2.817-1.169 5.01-4.316 4.194-7.268-.345-1.246-1.157-2.3-1.942-3.326-.784-1.025-1.58-2.098-1.878-3.356-.25-1.049-.065-2.266.627-3.053a.887.887 0 0 0 .118-1.034l-.012-.02Z" fill="#2F2E41"/><path d="M40.312 148H.212a.21.21 0 0 1-.15-.062.214.214 0 0 1 0-.3.21.21 0 0 1 .15-.062h40.1a.21.21 0 0 1 .149.062.213.213 0 0 1 0 .3.21.21 0 0 1-.15.062Z" fill="#CCC"/></svg>