<svg width="675" height="155" fill="none" xmlns="http://www.w3.org/2000/svg"><path d="M615.736 32.336h-15.909a3.068 3.068 0 0 1-2.162-.894 3.052 3.052 0 0 1-.897-2.156V13.423a3.052 3.052 0 0 1 .897-2.156 3.068 3.068 0 0 1 2.162-.895h15.909a3.068 3.068 0 0 1 2.162.895c.573.572.896 1.347.897 2.156v15.863a3.052 3.052 0 0 1-.897 2.156 3.068 3.068 0 0 1-2.162.894Zm-15.909-20.744a1.84 1.84 0 0 0-1.297.537 1.828 1.828 0 0 0-.538 1.294v15.863c0 .485.194.95.538 1.293a1.84 1.84 0 0 0 1.297.537h15.909a1.84 1.84 0 0 0 1.297-.537c.344-.343.538-.808.538-1.293V13.423c0-.486-.194-.95-.538-1.294a1.84 1.84 0 0 0-1.297-.537h-15.909Z" fill="#D1C9C9"/><path d="M75.968 149.765H60.059a3.067 3.067 0 0 1-2.162-.895 3.049 3.049 0 0 1-.897-2.156v-15.863c0-.809.324-1.584.897-2.156a3.066 3.066 0 0 1 2.162-.894h15.909a3.067 3.067 0 0 1 2.162.894 3.05 3.05 0 0 1 .897 2.156v15.863a3.05 3.05 0 0 1-.897 2.156 3.068 3.068 0 0 1-2.162.895Zm-15.909-20.744a1.835 1.835 0 0 0-1.835 1.83v15.863c0 .486.194.951.538 1.294.344.343.81.536 1.297.537h15.909a1.843 1.843 0 0 0 1.297-.537c.344-.343.537-.808.538-1.294v-15.863a1.835 1.835 0 0 0-1.836-1.83H60.06Z" fill="#E6E6E6"/><path d="M623.078 21.964H607.17a3.07 3.07 0 0 1-2.163-.894 3.052 3.052 0 0 1-.897-2.156V3.05a3.052 3.052 0 0 1 .897-2.156A3.07 3.07 0 0 1 607.17 0h15.908c.811 0 1.588.323 2.162.895.574.571.896 1.347.897 2.156v15.863a3.048 3.048 0 0 1-.897 2.156 3.068 3.068 0 0 1-2.162.894ZM607.17 1.22a1.832 1.832 0 0 0-1.836 1.83v15.864a1.832 1.832 0 0 0 1.836 1.83h15.908a1.84 1.84 0 0 0 1.297-.537c.344-.343.538-.808.538-1.293V3.05c0-.486-.194-.95-.538-1.294a1.84 1.84 0 0 0-1.297-.537H607.17Z" fill="#D1C9C9"/><path d="M83.31 139.393H67.402a3.068 3.068 0 0 1-2.163-.895 3.05 3.05 0 0 1-.897-2.156v-15.863a3.052 3.052 0 0 1 .897-2.156 3.067 3.067 0 0 1 2.163-.894H83.31a3.066 3.066 0 0 1 2.162.894c.574.572.896 1.347.897 2.156v15.863c0 .809-.323 1.584-.897 2.156a3.067 3.067 0 0 1-2.162.895Zm-15.908-20.744a1.835 1.835 0 0 0-1.836 1.83v15.863c0 .486.194.951.538 1.294.344.343.81.536 1.298.537H83.31a1.843 1.843 0 0 0 1.297-.537c.344-.343.538-.808.538-1.294v-15.863a1.835 1.835 0 0 0-1.836-1.83H67.403ZM562.54 57.13a3.95 3.95 0 0 0 3.957-3.946 3.95 3.95 0 0 0-3.957-3.945 3.952 3.952 0 0 0-3.957 3.945 3.952 3.952 0 0 0 3.957 3.946Zm107.687 20.134a3.952 3.952 0 0 0 3.957-3.946 3.952 3.952 0 0 0-3.957-3.945 3.952 3.952 0 0 0-3.957 3.945 3.952 3.952 0 0 0 3.957 3.946Zm-666.27 0a3.951 3.951 0 0 0 3.957-3.946 3.951 3.951 0 0 0-3.957-3.945A3.951 3.951 0 0 0 0 73.317a3.951 3.951 0 0 0 3.957 3.946Z" fill="#E6E6E6"/><g clip-path="url(#a)"><path d="m183.134 134.586-.591-.689c4.998-4.28 11.218-9.608 13.546-16.649 2.295-6.942.568-15.322-4.506-21.87-4.318-5.574-10.986-9.963-19.282-12.693-1.637-.538-3.336-1.017-4.979-1.48-3.972-1.117-8.079-2.274-11.716-4.387-5.01-2.91-9.56-8.628-8.433-14.84a10.823 10.823 0 0 1 7.789-8.397l.241.875a9.921 9.921 0 0 0-7.137 7.691c-1.048 5.772 3.261 11.135 7.996 13.887 3.538 2.055 7.589 3.196 11.506 4.298 1.652.466 3.361.947 5.017 1.492 8.469 2.786 15.287 7.28 19.716 12.998 5.257 6.784 7.038 15.486 4.65 22.71-2.408 7.282-8.734 12.7-13.817 17.054Z" fill="#EACBB4"/><path d="M161.597 57.042c4.288-.926 7.4-3.365 6.95-5.447-.45-2.081-4.292-3.018-8.58-2.092-4.289.926-7.401 3.364-6.95 5.446.45 2.082 4.291 3.019 8.58 2.093Zm11.58 23.493c4.289-.925 7.401-3.364 6.951-5.446-.45-2.082-4.292-3.019-8.58-2.093-4.289.926-7.401 3.365-6.951 5.447.45 2.082 4.292 3.019 8.58 2.093Zm-13.336 7.058c4.289-.926 7.4-3.365 6.95-5.446-.45-2.082-4.291-3.02-8.58-2.093-4.288.926-7.4 3.364-6.95 5.446.45 2.082 4.292 3.02 8.58 2.093Z" fill="#EACBB4"/><path d="M271.488 83.854h-.908v2.723h.908v-2.723Zm0 60.726h-.908v-5.801h.908v5.801Zm0-11.601h-.908v-5.8h.908v5.8Zm0-11.601h-.908v-5.8h.908v5.8Zm0-11.6h-.908v-5.801h.908v5.801Zm0-11.6h-.908v-5.801h.908v5.8Zm0 52.202h-.908v2.723h.908v-2.723Zm99.417-66.526h-.908v2.723h.908v-2.723Zm0 60.726h-.908v-5.801h.908v5.801Zm0-11.601h-.908v-5.8h.908v5.8Zm0-11.601h-.908v-5.8h.908v5.8Zm0-11.6h-.908v-5.801h.908v5.801Zm0-11.6h-.908v-5.801h.908v5.8Zm0 52.202h-.908v2.723h.908v-2.723Zm50.149-119.781h-.908v2.722h.908v-2.722Zm0 114.207h-.908v-5.574h.908v5.574Zm0-11.148h-.908v-5.575h.908v5.575Zm0-11.149h-.908v-5.574h.908v5.574Zm0-11.148h-.908v-5.575h.908v5.575Zm0-11.149h-.908v-5.574h.908v5.574Zm0-11.149h-.908V83.49h.908v5.574Zm0-11.148h-.908v-5.574h.908v5.574Zm0-11.148h-.908v-5.575h.908v5.575Zm0-11.15h-.908v-5.573h.908v5.574Zm0-11.148h-.908v-5.574h.908v5.574Zm0 105.911h-.908v2.723h.908v-2.723ZM470.702 8.82h-.908v2.723h.908V8.82Zm0 136.007h-.908v-5.554h.908v5.554Zm0-11.107h-.908v-5.554h.908v5.554Zm0-11.107h-.908v-5.554h.908v5.554Zm0-11.107h-.908v-5.554h.908v5.554Zm0-11.107h-.908v-5.554h.908v5.554Zm0-11.107h-.908v-5.554h.908v5.554Zm0-11.107h-.908V72.63h.908v5.554Zm0-11.107h-.908v-5.554h.908v5.554Zm0-11.107h-.908v-5.554h.908v5.554Zm0-11.107h-.908V39.31h.908v5.554Zm0-11.107h-.908v-5.554h.908v5.554Zm0-11.107h-.908v-5.554h.908v5.554Zm0 127.73h-.908v2.723h.908v-2.723ZM321.423 47.386h-.908v2.723h.908v-2.723Zm0 97.717h-.908v-5.277h.908v5.277Zm0-10.555h-.908v-5.277h.908v5.277Zm0-10.555h-.908v-5.277h.908v5.277Zm0-10.555h-.908v-5.277h.908v5.277Zm0-10.555h-.908v-5.277h.908v5.277Zm0-10.555h-.908v-5.277h.908v5.277Zm0-10.555h-.908v-5.277h.908v5.277Zm0-10.555h-.908v-5.277h.908v5.277Zm0-10.555h-.908v-5.277h.908v5.277Zm0 89.717h-.908v2.723h.908v-2.723Z" fill="#E5E5E5"/><path d="M521.059 154.367H220.483a.94.94 0 0 1-.941-.941V9.437a.943.943 0 0 1 .941-.938.94.94 0 0 1 .94.938v143.049h299.636a.948.948 0 0 1 .667.275.939.939 0 0 1-.667 1.606Z" fill="#3F3D56"/><path d="m370.863 85.118-49.974-37.411-49.291 36.9-1.129-1.505 50.42-37.745 49.736 37.233 49.425-54.058.198-.08 49.856-20.076.703 1.744-49.657 19.996-50.287 55.002Z" fill="#3F3D56"/><path d="M271.034 89.495a5.643 5.643 0 0 0 5.644-5.64 5.643 5.643 0 0 0-5.644-5.642 5.643 5.643 0 0 0-5.644 5.641 5.643 5.643 0 0 0 5.644 5.641Zm49.855-36.666a5.643 5.643 0 0 0 5.644-5.641 5.643 5.643 0 0 0-5.644-5.641 5.643 5.643 0 0 0-5.644 5.64 5.643 5.643 0 0 0 5.644 5.642Z" fill="#883F0A"/><path d="M370.744 89.495a5.643 5.643 0 0 0 5.644-5.64 5.643 5.643 0 0 0-5.644-5.642 5.643 5.643 0 0 0-5.644 5.641 5.643 5.643 0 0 0 5.644 5.641Z" fill="#fff"/><path d="M369.383 109.459a5.643 5.643 0 0 0 5.644-5.641 5.642 5.642 0 0 0-5.644-5.641 5.642 5.642 0 1 0 0 11.282ZM420.6 34.966a5.643 5.643 0 0 0 5.644-5.641 5.643 5.643 0 0 0-5.644-5.641 5.643 5.643 0 0 0-5.644 5.64 5.643 5.643 0 0 0 5.644 5.642Zm49.855-20.684a5.643 5.643 0 0 0 5.644-5.641A5.643 5.643 0 0 0 470.455 3a5.643 5.643 0 0 0-5.644 5.641 5.643 5.643 0 0 0 5.644 5.641Z" fill="#883F0A"/><path d="M218.918 113.389c1.927-5.04 2.206-9.617.623-10.221-1.583-.605-4.429 2.991-6.356 8.031-1.928 5.04-2.207 9.616-.624 10.221 1.583.605 4.429-2.991 6.357-8.031Z" fill="#36453B"/><path d="M197.98 146.59c10.798 0 19.551-8.748 19.551-19.54s-8.753-19.541-19.551-19.541c-10.797 0-19.551 8.749-19.551 19.541s8.754 19.54 19.551 19.54Z" fill="#36453B"/><path d="M195.011 142.385h-5.94v10.636h5.94v-10.636Zm11.878 0h-5.939v10.636h5.939v-10.636Z" fill="#36453B"/><path d="M194.021 155c2.733 0 4.949-.831 4.949-1.855 0-1.025-2.216-1.855-4.949-1.855-2.734 0-4.95.83-4.95 1.855 0 1.024 2.216 1.855 4.95 1.855Zm11.879-.247c2.733 0 4.949-.831 4.949-1.855 0-1.025-2.216-1.856-4.949-1.856-2.734 0-4.95.831-4.95 1.856 0 1.024 2.216 1.855 4.95 1.855Z" fill="#36453B"/><path d="M198.475 128.781a6.68 6.68 0 1 0 0-13.357 6.68 6.68 0 0 0-6.682 6.679 6.68 6.68 0 0 0 6.682 6.678Z" fill="#fff"/><path d="M198.475 124.329a2.227 2.227 0 1 0 .002-4.45 2.227 2.227 0 0 0-.002 4.45Z" fill="#3F3D56"/><path d="M179.015 108.878c-1.578-7.066 3.468-14.206 11.271-15.948 7.804-1.741 15.41 2.575 16.988 9.641 1.579 7.066-3.593 9.672-11.396 11.414-7.804 1.741-15.284 1.959-16.863-5.107Z" fill="#883F0A"/><path d="M184.792 122.17c.726-1.531-2.639-4.646-7.517-6.958-4.878-2.313-9.422-2.946-10.148-1.416-.726 1.531 2.639 4.646 7.517 6.958 4.878 2.313 9.422 2.946 10.148 1.416Z" fill="#36453B"/><path d="M188.377 134.099c0 1.913 4.927 5.689 10.394 5.689 5.467 0 10.593-5.384 10.593-7.297 0-1.912-5.126.371-10.593.371s-10.394-.675-10.394 1.237Z" fill="#fff"/><path d="M345.576 143.481c10.798 0 19.551-8.749 19.551-19.541s-8.753-19.54-19.551-19.54c-10.798 0-19.551 8.748-19.551 19.54s8.753 19.541 19.551 19.541Z" fill="#36453B"/><path d="M342.606 139.276h-5.939v10.636h5.939v-10.636Zm11.879 0h-5.939v10.636h5.939v-10.636Z" fill="#36453B"/><path d="M345.672 153.435c.423-.934-1.254-2.603-3.745-3.729-2.49-1.126-4.852-1.282-5.274-.348-.423.933 1.254 2.603 3.745 3.729 2.49 1.126 4.852 1.282 5.274.348Zm11.368-.579c.448-.922-1.183-2.636-3.642-3.829-2.459-1.194-4.815-1.414-5.263-.492-.448.921 1.183 2.636 3.642 3.829 2.459 1.194 4.815 1.414 5.263.492Z" fill="#36453B"/><path d="M326.611 105.768c-1.579-7.066 3.468-14.206 11.271-15.948 7.804-1.741 15.41 2.575 16.988 9.642 1.579 7.066-3.593 9.672-11.396 11.413-7.804 1.742-15.284 1.959-16.863-5.107Z" fill="#883F0A"/><path d="M366.644 115.401c4.234-4.235 6.588-8.745 5.258-10.073-1.33-1.329-5.841 1.027-10.075 5.262-4.234 4.236-6.588 8.746-5.258 10.074 1.33 1.329 5.841-1.028 10.075-5.263Zm-37.116 16.617c1.536-5.787 1.308-10.869-.509-11.351-1.818-.482-4.537 3.818-6.073 9.605-1.537 5.786-1.309 10.868.508 11.35 1.818.482 4.537-3.818 6.074-9.604Z" fill="#36453B"/></g><defs><clipPath id="a"><path fill="#fff" transform="translate(147 3)" d="M0 0h375v152H0z"/></clipPath></defs></svg>