<svg width="925" height="170" fill="none" xmlns="http://www.w3.org/2000/svg"><path d="M877.635 115.113c4.857-1.071 7.922-5.866 6.847-10.709-1.075-4.842-5.883-7.899-10.74-6.827-4.856 1.072-7.921 5.867-6.846 10.709 1.075 4.843 5.883 7.899 10.739 6.827Z" fill="#fff"/><path d="M919.083 117.089c-3.091 10.693-12.117 18.178-21.532 24.537a215.908 215.908 0 0 1-3.945 2.603c-.009.003-.018.012-.027.016-.063.04-.127.081-.186.122l-.812.521.148.067s.145.077-.014.012c-.047-.02-.097-.038-.144-.057-5.469-2.2-11.036-4.562-15.228-8.683-4.348-4.279-6.889-10.99-4.534-16.612.309-.736.7-1.436 1.165-2.086.191-.272.397-.533.611-.789a11.563 11.563 0 0 1 16.399-1.472 11.504 11.504 0 0 1 3.416 4.968c.692-6.422-4.619-11.802-9.729-15.771-5.113-3.967-10.922-8.287-11.911-14.674-.552-3.553.687-6.996 2.945-9.76a16.853 16.853 0 0 1 11.033-6.039c7.84-.813 15.455 3.325 21.151 8.76 9.166 8.746 14.708 22.178 11.194 34.337Z" fill="#E6E6E6"/><path d="M180.006 130.184c4.974 0 9.006-4.021 9.006-8.981s-4.032-8.98-9.006-8.98-9.006 4.02-9.006 8.98c0 4.96 4.032 8.981 9.006 8.981Z" fill="#fff"/><path d="M865.736 32.908h-15.909a3.068 3.068 0 0 1-2.162-.895 3.052 3.052 0 0 1-.897-2.156V13.994a3.052 3.052 0 0 1 .897-2.156 3.068 3.068 0 0 1 2.162-.894h15.909c.811 0 1.588.322 2.162.894.573.572.896 1.347.897 2.156v15.863a3.052 3.052 0 0 1-.897 2.156 3.068 3.068 0 0 1-2.162.895Zm-15.909-20.744a1.84 1.84 0 0 0-1.297.536 1.828 1.828 0 0 0-.538 1.294v15.863c0 .486.194.95.538 1.294a1.84 1.84 0 0 0 1.297.537h15.909a1.84 1.84 0 0 0 1.297-.537c.344-.343.538-.808.538-1.294V13.994c0-.485-.194-.95-.538-1.294a1.84 1.84 0 0 0-1.297-.536h-15.909Zm-523.86 138.172h-15.908a3.067 3.067 0 0 1-2.162-.894 3.052 3.052 0 0 1-.897-2.156v-15.863a3.05 3.05 0 0 1 .897-2.156 3.068 3.068 0 0 1 2.162-.895h15.908a3.069 3.069 0 0 1 2.163.895 3.05 3.05 0 0 1 .897 2.156v15.863a3.052 3.052 0 0 1-.897 2.156 3.068 3.068 0 0 1-2.163.894Zm-15.908-20.744a1.843 1.843 0 0 0-1.297.537 1.827 1.827 0 0 0-.538 1.294v15.863a1.835 1.835 0 0 0 1.835 1.83h15.908a1.835 1.835 0 0 0 1.836-1.83v-15.863c0-.486-.194-.951-.538-1.294a1.844 1.844 0 0 0-1.298-.537h-15.908Z" fill="#E7E7E7"/><path d="M873.078 22.536H857.17a3.07 3.07 0 0 1-2.163-.895 3.052 3.052 0 0 1-.897-2.156V3.622a3.052 3.052 0 0 1 .897-2.156A3.07 3.07 0 0 1 857.17.57h15.908a3.068 3.068 0 0 1 2.162.895c.574.572.896 1.347.897 2.156v15.863a3.048 3.048 0 0 1-.897 2.156 3.068 3.068 0 0 1-2.162.895ZM857.17 1.792a1.832 1.832 0 0 0-1.836 1.83v15.863a1.832 1.832 0 0 0 1.836 1.83h15.908a1.84 1.84 0 0 0 1.297-.536c.344-.343.538-.809.538-1.294V3.622c0-.485-.194-.95-.538-1.294a1.84 1.84 0 0 0-1.297-.536H857.17ZM333.31 139.964h-15.908a3.054 3.054 0 0 1-3.06-3.05v-15.863a3.05 3.05 0 0 1 .897-2.156 3.069 3.069 0 0 1 2.163-.895h15.908a3.068 3.068 0 0 1 2.162.895 3.05 3.05 0 0 1 .897 2.156v15.863a3.054 3.054 0 0 1-3.059 3.05Zm-15.908-20.744a1.831 1.831 0 0 0-1.836 1.831v15.863a1.835 1.835 0 0 0 1.836 1.83h15.908a1.835 1.835 0 0 0 1.835-1.83v-15.863c0-.486-.194-.951-.538-1.294a1.843 1.843 0 0 0-1.297-.537h-15.908Z" fill="#E7E7E7"/><path d="M812.54 57.701a3.95 3.95 0 0 0 3.957-3.945 3.95 3.95 0 0 0-3.957-3.946 3.952 3.952 0 0 0-3.957 3.946 3.952 3.952 0 0 0 3.957 3.945Zm107.687 20.134a3.95 3.95 0 0 0 3.956-3.945 3.95 3.95 0 0 0-3.956-3.946 3.95 3.95 0 0 0-3.957 3.945 3.95 3.95 0 0 0 3.957 3.946Zm-666.27 0a3.952 3.952 0 0 0 3.957-3.945 3.952 3.952 0 0 0-3.957-3.946A3.952 3.952 0 0 0 250 73.889a3.952 3.952 0 0 0 3.957 3.946ZM.39 160.964c-2.128-9.502 4.673-19.103 15.191-21.445 10.518-2.342 20.769 3.462 22.897 12.964 2.127 9.502-4.843 13.007-15.36 15.348-10.519 2.342-20.6 2.635-22.728-6.867ZM65.97 43.891a3.951 3.951 0 0 0 3.957-3.945A3.951 3.951 0 0 0 65.97 36a3.951 3.951 0 0 0-3.957 3.946 3.951 3.951 0 0 0 3.957 3.945Z" fill="#E6E6E6"/><g clip-path="url(#a)"><path d="m633.758 84.824-.668-5.363a7.248 7.248 0 0 0-2.734-4.819 7.222 7.222 0 0 0-10.146 1.268 7.255 7.255 0 0 0-1.468 5.344l.668 5.363a.971.971 0 0 0 1.084.845l12.42-1.552a.971.971 0 0 0 .844-1.086Z" fill="#2F2E41"/><path d="M627.808 86.424a5.305 5.305 0 0 1-5.3-5.31 5.305 5.305 0 0 1 5.3-5.31 5.305 5.305 0 0 1 5.301 5.31 5.305 5.305 0 0 1-5.301 5.31Z" fill="#FFB8B8"/><path d="M634.84 79.678a5.734 5.734 0 0 0-2.164-3.81 5.718 5.718 0 0 0-4.218-1.165l-1.071.133a5.723 5.723 0 0 0-3.803 2.168 5.744 5.744 0 0 0-1.164 4.226l.014.108 2.262-.283.502-2.262.424 2.146 1.17-.146.253-1.141.214 1.082 7.595-.949-.014-.107Z" fill="#2F2E41"/><path d="M653.732 100.055a2.445 2.445 0 0 1-2.687 1.282 2.454 2.454 0 0 1-.962-.441l-4.814 2.825-2.427-2.512 6.854-3.894a2.455 2.455 0 0 1 4.036 2.74Z" fill="#FFB8B8"/><path d="M637.954 105.131c3.551 0 9.799-1.592 10.145-1.681l.11-.028-.984-4.988-9.544 1.888-5.185-7.314-5.953-.606.166.219c.078.102 7.751 10.221 8.945 11.919.302.428 1.163.591 2.3.591Z" fill="#3F3D56"/><path d="m637.002 123.853.142-.068c.03-.015 3.047-1.485 4.61-4.354 1.555-2.857-5.725-14.973-6.235-15.814l-.007-3.848-2.619-7.083-3.34-1.892 2.868 6.703 4.581 26.356Z" fill="#3F3D56"/><path d="M640.348 165.21h3.192l1.519-12.335-4.712.001.001 12.334Z" fill="#FFB8B8"/><path d="m639.534 168.31 10.293-.001v-.13a4.02 4.02 0 0 0-1.174-2.838 4.004 4.004 0 0 0-2.833-1.175h-6.286v4.144Z" fill="#2F2E41"/><path d="m606.06 162.408 3.034.995 5.277-11.247-4.477-1.469-3.834 11.721Z" fill="#FFB8B8"/><path d="m604.323 165.1 9.781 3.21.041-.124a4.012 4.012 0 0 0-2.56-5.064l-5.974-1.96-1.288 3.938Zm7.918-4.709 9.1-15.219 7.682-16.259 6.912 14.362 2.747 18.602 9.63.134-.038-.151-14.738-58.662-11.542 1.727.525 7.632-.312.446c-2.608 3.711-5.304 7.547-3.758 11.683l-4.383 13.038-9.703 21.711 7.878.956Z" fill="#2F2E41"/><path d="M633.009 115.912c1.672 0 3.581-1.913 2.591-5.18l.064-.046-2.378-10.524c2.075-2.973-.661-5.426-.917-5.645l-1.306-2.355-5.762-3.66-2.916 24.265.044.042c2.105 2.018 9.177 3.103 10.58 3.103Z" fill="#6C63FF"/><path d="M621.208 121.387c.229.004.458-.02.681-.072.224-.056.587-.342 1.148-2.171 2.228-7.269 4.86-29.14 2.948-31.281l-.044-.05-3.139.525c-.261-.193-1.63-1.15-2.893-.984a1.92 1.92 0 0 0-1.312.777l-.022.028-1 14.252-3.663 16.77.088.04c.213.097 4.787 2.166 7.208 2.166Z" fill="#3F3D56"/><path d="M623.32 115.817a2.439 2.439 0 0 1-2.298-1.894 2.46 2.46 0 0 1-.009-1.06l-4.595-3.17 1.242-3.267 6.426 4.568a2.465 2.465 0 0 1 .887 4.268 2.449 2.449 0 0 1-1.653.555Z" fill="#FFB8B8"/><path d="m617.934 112.233 4.093-3.007-5.753-7.859 4.415-7.805-1.975-5.658-.128.244c-.059.113-5.956 11.365-6.984 13.168-1.07 1.876 5.961 10.465 6.26 10.83l.072.087Z" fill="#3F3D56"/><path d="m709.999 147.606 3.484-1.47 2.389-17.493h31.822l2.59 17.422 3.117 1.561a.745.745 0 0 1 .389.833.735.735 0 0 1-.72.571h-42.784a.74.74 0 0 1-.287-1.424Z" fill="#E6E6E6"/><path d="M653.45 130.971h156.317a3.097 3.097 0 0 0 3.09-3.103v-22.081H650.36v22.081a3.104 3.104 0 0 0 3.09 3.103Z" fill="#CCC"/><path d="M650.196 116.223H813V21.74a3.747 3.747 0 0 0-1.095-2.643A3.734 3.734 0 0 0 809.267 18H653.93a3.735 3.735 0 0 0-2.639 1.097 3.751 3.751 0 0 0-1.095 2.643v94.483Z" fill="#3F3D56"/><path d="M659.92 109.365h143.356a2.88 2.88 0 0 0 2.879-2.883V27.741a2.882 2.882 0 0 0-2.879-2.883H659.92c-.763 0-1.495.304-2.034.845a2.888 2.888 0 0 0-.844 2.038v78.741c.001.765.304 1.497.844 2.038.539.54 1.271.845 2.034.845Z" fill="#fff"/><path d="M691.394 149.213h80.554a.375.375 0 0 0 .367-.271.361.361 0 0 0-.192-.421.36.36 0 0 0-.161-.038h-80.538a.385.385 0 0 0-.386.285.355.355 0 0 0 .001.162.36.36 0 0 0 .355.283Z" fill="#CCC"/><path d="M661.451 37.587h34.612v26.49h-34.612v-26.49Z" fill="#F2F2F2"/><path d="M663.17 38.904h31.173V62.76H663.17V38.904Z" fill="#fff"/><path d="M678.21 56.6h-.013a8.304 8.304 0 0 1-5.562-2.55 8.335 8.335 0 0 1-.128-11.394 8.307 8.307 0 0 1 5.504-2.674.19.19 0 0 1 .144.05.197.197 0 0 1 .045.063.19.19 0 0 1 .016.075l.182 16.238a.19.19 0 0 1-.188.192Z" fill="#3F3D56"/><path d="M684.728 42.667a.244.244 0 0 0-.172.074l-5.58 5.717a.25.25 0 0 0-.07.173l.087 7.77a.244.244 0 0 0 .263.241 8.372 8.372 0 0 0 7.121-5.191 8.388 8.388 0 0 0-1.464-8.7.243.243 0 0 0-.176-.083h-.009Z" fill="#E6E6E6"/><path d="M679.053 39.916a.246.246 0 0 0-.242.247l.079 7.01a.241.241 0 0 0 .153.224.244.244 0 0 0 .265-.055l4.869-4.989a.248.248 0 0 0 .046-.276.24.24 0 0 0-.059-.078 8.377 8.377 0 0 0-5.111-2.083Zm2.509 20.051a1.493 1.493 0 1 0 2.308-1.27 1.49 1.49 0 0 0-1.882.209c-.277.283-.43.665-.426 1.061Z" fill="#093185"/><path d="M677.297 60.015a1.493 1.493 0 1 0 2.308-1.27 1.49 1.49 0 0 0-2.308 1.27Z" fill="#3F3D56"/><path d="M673.032 60.063a1.501 1.501 0 0 0 .937 1.371 1.492 1.492 0 0 0 2.023-1.112 1.492 1.492 0 1 0-2.96-.259Z" fill="#E6E6E6"/><path d="M661.815 68.246h34.612v26.49h-34.612v-26.49Z" fill="#F2F2F2"/><path d="M663.535 69.563h31.173V93.42h-31.173V69.563Z" fill="#fff"/><path d="M689.419 77.404a1.296 1.296 0 0 1 0-2.593 1.296 1.296 0 0 1 0 2.593Zm-20.797-2.306a.877.877 0 0 0-.812 1.216.87.87 0 0 0 .476.477.877.877 0 0 0 .336.066h13.613a.878.878 0 0 0 0-1.759h-13.613Zm0-.215h13.613a1.093 1.093 0 0 1 1.011 1.514 1.088 1.088 0 0 1-1.011.675h-13.613a1.088 1.088 0 0 1-1.011-.675 1.096 1.096 0 0 1 1.011-1.514Z" fill="#3F3D56"/><path d="M673.994 77.072h10.247a1.092 1.092 0 0 0 1.093-1.094 1.095 1.095 0 0 0-1.093-1.095h-10.247a1.092 1.092 0 0 0-1.093 1.095 1.095 1.095 0 0 0 1.093 1.094Z" fill="#093185"/><path d="M689.419 82.788a1.296 1.296 0 0 1 0-2.593 1.296 1.296 0 0 1 0 2.593Zm-20.797-2.305a.877.877 0 0 0-.812 1.216.872.872 0 0 0 .476.476.877.877 0 0 0 .336.066h13.613a.878.878 0 0 0 .621-1.501.878.878 0 0 0-.621-.257h-13.613Zm0-.216h13.613a1.092 1.092 0 0 1 1.093 1.095 1.095 1.095 0 0 1-1.093 1.095h-13.613a1.096 1.096 0 0 1-.772-1.869c.204-.206.482-.32.772-.32Z" fill="#3F3D56"/><path d="M670.124 82.457h14.117a1.093 1.093 0 0 0 1.093-1.095 1.095 1.095 0 0 0-1.093-1.095h-14.117a1.092 1.092 0 0 0-1.093 1.095 1.095 1.095 0 0 0 1.093 1.095Z" fill="#093185"/><path d="M689.419 88.172a1.296 1.296 0 0 1 0-2.593 1.296 1.296 0 0 1 0 2.593Zm-20.797-2.305a.877.877 0 0 0-.812 1.216.87.87 0 0 0 .476.476.877.877 0 0 0 .336.066h13.613a.878.878 0 0 0 0-1.758h-13.613Zm0-.216h13.613a1.092 1.092 0 0 1 1.093 1.095 1.095 1.095 0 0 1-1.093 1.095h-13.613a1.096 1.096 0 0 1-.772-1.869c.204-.205.482-.32.772-.32Z" fill="#3F3D56"/><path d="M678.508 87.84h5.733a1.09 1.09 0 0 0 1.095-1.094 1.098 1.098 0 0 0-1.095-1.095h-5.733a1.09 1.09 0 0 0-1.091 1.095 1.094 1.094 0 0 0 1.091 1.095Z" fill="#093185"/><path d="M704.079 42.274h96.702v49.647h-96.702V42.274Z" fill="#F2F2F2"/><path d="M707.302 44.741h90.255v44.713h-90.255V44.741Z" fill="#fff"/><path d="M718.496 82.633h65.794a.207.207 0 0 0 .206-.206V50.836a.207.207 0 0 0-.412 0V82.22h-65.588a.207.207 0 1 0 0 .412Z" fill="#3F3D56"/><path d="M770.232 80.364h5.985a.612.612 0 0 0 .611-.612v-8.264a.615.615 0 0 0-.611-.612h-5.985a.613.613 0 0 0-.611.612v8.264a.615.615 0 0 0 .611.612Zm-10.912 0h5.984a.613.613 0 0 0 .611-.612V63.65a.615.615 0 0 0-.611-.613h-5.984a.61.61 0 0 0-.612.613v16.102a.616.616 0 0 0 .612.612Zm-10.914 0h5.985a.612.612 0 0 0 .611-.612v-8.264a.615.615 0 0 0-.611-.612h-5.985a.612.612 0 0 0-.611.612v8.264a.615.615 0 0 0 .611.612Zm-10.913 0h5.985a.598.598 0 0 0 .611-.585V60.528a.603.603 0 0 0-.611-.585h-5.985a.6.6 0 0 0-.611.585V79.78a.603.603 0 0 0 .611.584Zm-10.912 0h5.984a.612.612 0 0 0 .611-.612V54.986a.615.615 0 0 0-.611-.612h-5.984a.61.61 0 0 0-.612.612v24.766a.616.616 0 0 0 .612.612Z" fill="#093185"/><path d="M773.225 68.4a1.237 1.237 0 1 1 .001-2.473 1.237 1.237 0 0 1-.001 2.473Zm-10.913-8.044a1.237 1.237 0 1 1 .001-2.473 1.237 1.237 0 0 1-.001 2.473ZM751.399 68.4a1.237 1.237 0 1 1 .001-2.473 1.237 1.237 0 0 1-.001 2.473Zm-10.913-11.963a1.237 1.237 0 1 1 .001-2.473 1.237 1.237 0 0 1-.001 2.473Zm-10.913-4.538a1.237 1.237 0 1 1 .001-2.473 1.237 1.237 0 0 1-.001 2.473Z" fill="#3F3D56"/><path d="m751.373 67.44 10.939-8.208 10.789 8.096.247-.33-11.036-8.281-10.887 8.168-10.819-11.86-.043-.017-10.913-4.405-.154.383 10.869 4.387 11.008 12.067Z" fill="#3F3D56"/><path d="M588.239 169h90.95a.24.24 0 0 0 0-.478h-90.95a.238.238 0 0 0-.239.239.24.24 0 0 0 .239.239Z" fill="#CCC"/></g><g clip-path="url(#b)"><path d="M562.942 137.18H432.309a2.062 2.062 0 0 1-2.058-2.058V78.307a2.057 2.057 0 0 1 2.058-2.058h130.633A2.058 2.058 0 0 1 565 78.308v56.814a2.06 2.06 0 0 1-2.058 2.058ZM432.309 77.072a1.238 1.238 0 0 0-1.235 1.236v56.814a1.239 1.239 0 0 0 1.235 1.235h130.633c.327-.001.641-.131.873-.362.231-.232.361-.546.362-.873V78.307a1.238 1.238 0 0 0-1.235-1.235H432.309Z" fill="#E6E6E6"/><path d="M437.661 83.248a1.237 1.237 0 0 0-.874 2.108c.232.232.546.362.874.362h17.289a1.233 1.233 0 0 0 1.235-1.235 1.234 1.234 0 0 0-1.235-1.235h-17.289Zm118.362 8.589v22.904h-116.59v-12.059a121.45 121.45 0 0 1 2.439-1.534c3.501-2.142 7.247-4.145 11.33-4.888a17.1 17.1 0 0 1 5.849-.073c2.049.339 4.01 1.045 5.952 1.753 1.914.701 3.834 1.424 5.836 1.83 1.952.384 3.955.423 5.92.117 3.749-.562 7.271-2.069 10.779-3.432 3.529-1.37 7.166-2.665 10.985-2.836 3.771-.17 7.496.72 11.074 1.826 7.295 2.252 14.745 5.591 22.469 3.3 7.844-2.322 15.059-9.026 23.752-7.037a.325.325 0 0 1 .205.13Z" fill="#E6E6E6"/><path d="M556.023 92.237a.353.353 0 0 1-.399.175 12.994 12.994 0 0 0-3.159-.326c-8.551.15-15.125 7.035-23.486 8.064-7.539.928-14.634-2.738-21.722-4.654-3.682-.996-7.479-1.524-11.269-.847-3.761.67-7.29 2.208-10.834 3.573-3.413 1.315-6.959 2.537-10.654 2.598-4.062.068-7.72-1.607-11.488-2.882-1.96-.665-3.97-1.19-6.046-1.242a18.292 18.292 0 0 0-5.959.923c-4.004 1.273-7.611 3.541-11.123 5.796a.32.32 0 0 1-.207.056.377.377 0 0 1-.161-.687l.161-.102c.805-.519 1.616-1.035 2.434-1.534 3.493-2.142 7.231-4.145 11.306-4.888a17.03 17.03 0 0 1 5.837-.073c2.044.339 4.001 1.045 5.939 1.753 1.91.701 3.826 1.424 5.824 1.83 1.947.384 3.947.423 5.908.117 3.741-.562 7.255-2.069 10.756-3.432 3.522-1.37 7.151-2.665 10.962-2.836 3.763-.17 7.48.72 11.051 1.826 7.28 2.252 14.714 5.591 22.422 3.3 7.828-2.322 15.028-9.026 23.703-7.037a.325.325 0 0 1 .204.13.372.372 0 0 1 0 .399Z" fill="#093185"/><path d="M455.498 98.188a1.704 1.704 0 1 0 0-3.408 1.704 1.704 0 0 0 0 3.408Zm43.082-2.191a1.704 1.704 0 1 0 0-3.408 1.704 1.704 0 0 0 0 3.408Zm52.575-2.19a1.704 1.704 0 1 0 0-3.408 1.704 1.704 0 0 0 0 3.408Z" fill="#6C63FF"/><path d="M454.538 124.417a1.239 1.239 0 0 0-1.235 1.236 1.239 1.239 0 0 0 1.235 1.235h17.29a1.235 1.235 0 1 0 0-2.471h-17.29Z" fill="#E6E6E6"/><path d="M443.424 130.181a4.666 4.666 0 1 0-.001-9.331 4.666 4.666 0 0 0 .001 9.331Z" fill="#093185"/><path d="M496.253 124.417a1.239 1.239 0 0 0-1.235 1.236 1.235 1.235 0 0 0 1.235 1.235h17.29a1.233 1.233 0 0 0 1.235-1.235 1.235 1.235 0 0 0-1.235-1.236h-17.29Z" fill="#E6E6E6"/><path d="M485.138 130.181a4.666 4.666 0 1 0 0-9.332 4.666 4.666 0 0 0 0 9.332Z" fill="#093185"/><path d="M537.968 124.417a1.235 1.235 0 0 0 0 2.471h17.29a1.235 1.235 0 0 0 0-2.471h-17.29Z" fill="#E6E6E6"/><path d="M526.853 130.181a4.665 4.665 0 0 0 4.665-4.666 4.665 4.665 0 1 0-9.33 0 4.665 4.665 0 0 0 4.665 4.666Z" fill="#093185"/><path d="M554 60.91h-64.448c-1.257 0-2.275-.726-2.276-1.62V45.28c.001-.893 1.019-1.619 2.276-1.619H554c1.257 0 2.275.726 2.276 1.62v14.008c-.001.895-1.019 1.619-2.276 1.62Zm-64.448-16.602c-.754 0-1.365.436-1.366.972v14.009c0 .536.612.971 1.366.972H554c.754 0 1.365-.436 1.366-.972V45.281c0-.537-.612-.971-1.366-.972h-64.448Z" fill="#E6E6E6"/><path d="M504.124 51.623a1.373 1.373 0 0 0-1.372 1.372v9.606a1.373 1.373 0 0 0 1.372 1.373h49.124a1.374 1.374 0 0 0 1.373-1.373v-9.606a1.378 1.378 0 0 0-1.373-1.372h-49.124Z" fill="#093185"/><path d="M510.985 60.955a3.02 3.02 0 1 0 0-6.039 3.02 3.02 0 0 0 0 6.039Zm13.758-4.33a1.233 1.233 0 0 0-1.235 1.235 1.234 1.234 0 0 0 1.235 1.235h17.289a1.237 1.237 0 0 0 .874-2.108 1.237 1.237 0 0 0-.874-.362h-17.289Z" fill="#fff"/><path d="M505.699 28.248h-64.448c-1.257 0-2.275-.726-2.276-1.62V12.62c.001-.894 1.019-1.619 2.276-1.619h64.448c1.256 0 2.275.725 2.276 1.62v14.008c-.001.894-1.02 1.619-2.276 1.62Zm-64.448-16.6c-.754 0-1.365.434-1.366.97v14.01c0 .536.612.97 1.366.971h64.448c.754 0 1.365-.435 1.366-.971V12.619c0-.536-.612-.97-1.366-.971h-64.448Z" fill="#E6E6E6"/><path d="M455.823 18.961a1.374 1.374 0 0 0-1.373 1.373v9.606a1.378 1.378 0 0 0 1.373 1.372h49.124a1.373 1.373 0 0 0 1.372-1.372v-9.606a1.373 1.373 0 0 0-1.372-1.373h-49.124Z" fill="#093185"/><path d="M462.684 28.293a3.018 3.018 0 1 0 0-6.037 3.018 3.018 0 0 0 0 6.037Zm13.758-4.329a1.232 1.232 0 0 0-1.235 1.235 1.234 1.234 0 0 0 1.235 1.235h17.289a1.236 1.236 0 1 0 0-2.47h-17.289Z" fill="#fff"/></g><defs><clipPath id="a"><path fill="#fff" transform="matrix(-1 0 0 1 813 18)" d="M0 0h225v151H0z"/></clipPath><clipPath id="b"><path fill="#fff" transform="translate(339 11)" d="M0 0h226v148H0z"/></clipPath></defs></svg>