<svg width="925" height="170" viewBox="0 0 925 170" fill="none" xmlns="http://www.w3.org/2000/svg">
<path d="M877.635 115.113C882.492 114.042 885.557 109.247 884.482 104.404C883.407 99.5618 878.599 96.505 873.742 97.577C868.886 98.6489 865.821 103.444 866.896 108.286C867.971 113.129 872.779 116.185 877.635 115.113Z" fill="white"/>
<path d="M919.083 117.089C915.992 127.782 906.966 135.267 897.551 141.626C896.237 142.514 894.922 143.381 893.606 144.229C893.597 144.232 893.588 144.241 893.579 144.245C893.516 144.285 893.452 144.326 893.393 144.367C893.122 144.541 892.85 144.716 892.581 144.888L892.729 144.955C892.729 144.955 892.874 145.032 892.715 144.967C892.668 144.947 892.618 144.929 892.571 144.91C887.102 142.71 881.535 140.348 877.343 136.227C872.995 131.948 870.454 125.237 872.809 119.615C873.118 118.879 873.509 118.179 873.974 117.529C874.165 117.257 874.371 116.996 874.585 116.74C875.884 115.159 877.581 113.952 879.503 113.243C881.425 112.533 883.501 112.347 885.519 112.703C887.537 113.059 889.423 113.944 890.984 115.268C892.545 116.592 893.724 118.307 894.4 120.236C895.092 113.814 889.781 108.434 884.671 104.465C879.558 100.498 873.749 96.1777 872.76 89.7914C872.208 86.2381 873.447 82.7947 875.705 80.0304C875.774 79.9464 875.844 79.8625 875.916 79.7809C878.664 76.5613 882.529 74.4938 886.738 73.9915C894.578 73.1791 902.193 77.3171 907.889 82.7525C917.055 91.4977 922.597 104.93 919.083 117.089Z" fill="#E6E6E6"/>
<path d="M180.006 130.184C184.98 130.184 189.012 126.163 189.012 121.203C189.012 116.243 184.98 112.223 180.006 112.223C175.032 112.223 171 116.243 171 121.203C171 126.163 175.032 130.184 180.006 130.184Z" fill="white"/>
<path d="M865.736 32.9078H849.827C849.016 32.9068 848.239 32.5851 847.665 32.0132C847.092 31.4413 846.769 30.666 846.768 29.8572V13.9941C846.769 13.1853 847.092 12.4099 847.665 11.838C848.239 11.2661 849.016 10.9444 849.827 10.9435H865.736C866.547 10.9444 867.324 11.2661 867.898 11.838C868.471 12.4099 868.794 13.1853 868.795 13.9941V29.8572C868.794 30.666 868.471 31.4413 867.898 32.0132C867.324 32.5851 866.547 32.9068 865.736 32.9078ZM849.827 12.1637C849.341 12.1642 848.874 12.3573 848.53 12.7004C848.186 13.0435 847.992 13.5088 847.992 13.9941V29.8572C847.992 30.3425 848.186 30.8077 848.53 31.1508C848.874 31.494 849.341 31.687 849.827 31.6875H865.736C866.222 31.687 866.689 31.494 867.033 31.1508C867.377 30.8077 867.571 30.3425 867.571 29.8572V13.9941C867.571 13.5088 867.377 13.0435 867.033 12.7004C866.689 12.3573 866.222 12.1642 865.736 12.1637H849.827Z" fill="#E7E7E7"/>
<path d="M325.967 150.336H310.059C309.248 150.335 308.471 150.014 307.897 149.442C307.324 148.87 307.001 148.095 307 147.286V131.423C307.001 130.614 307.324 129.838 307.897 129.267C308.471 128.695 309.248 128.373 310.059 128.372H325.967C326.779 128.373 327.556 128.695 328.13 129.267C328.703 129.838 329.026 130.614 329.027 131.423V147.286C329.026 148.095 328.703 148.87 328.13 149.442C327.556 150.014 326.779 150.335 325.967 150.336ZM310.059 129.592C309.573 129.593 309.106 129.786 308.762 130.129C308.418 130.472 308.224 130.937 308.224 131.423V147.286C308.224 147.771 308.418 148.236 308.762 148.579C309.106 148.923 309.573 149.116 310.059 149.116H325.967C326.454 149.116 326.921 148.923 327.265 148.579C327.609 148.236 327.803 147.771 327.803 147.286V131.423C327.803 130.937 327.609 130.472 327.265 130.129C326.921 129.786 326.454 129.593 325.967 129.592H310.059Z" fill="#E7E7E7"/>
<path d="M873.078 22.5357H857.17C856.359 22.5348 855.581 22.2131 855.007 21.6412C854.434 21.0693 854.111 20.2939 854.11 19.4851V3.62201C854.111 2.81322 854.434 2.03784 855.007 1.46594C855.581 0.894044 856.359 0.572336 857.17 0.571411H873.078C873.889 0.572336 874.666 0.894044 875.24 1.46594C875.814 2.03784 876.136 2.81322 876.137 3.62201V19.4851C876.136 20.2939 875.814 21.0693 875.24 21.6412C874.666 22.2131 873.889 22.5348 873.078 22.5357ZM857.17 1.79165C856.683 1.79218 856.216 1.98519 855.872 2.32833C855.528 2.67148 855.335 3.13673 855.334 3.62201V19.4851C855.335 19.9704 855.528 20.4356 855.872 20.7788C856.216 21.1219 856.683 21.3149 857.17 21.3155H873.078C873.564 21.3149 874.031 21.1219 874.375 20.7788C874.719 20.4356 874.913 19.9704 874.913 19.4851V3.62201C874.913 3.13673 874.719 2.67148 874.375 2.32833C874.031 1.98519 873.564 1.79218 873.078 1.79165H857.17Z" fill="#E7E7E7"/>
<path d="M333.31 139.964H317.402C316.59 139.963 315.813 139.642 315.239 139.07C314.666 138.498 314.343 137.722 314.342 136.914V121.051C314.343 120.242 314.666 119.466 315.239 118.895C315.813 118.323 316.59 118.001 317.402 118H333.31C334.121 118.001 334.898 118.323 335.472 118.895C336.045 119.466 336.368 120.242 336.369 121.051V136.914C336.368 137.722 336.045 138.498 335.472 139.07C334.898 139.642 334.121 139.963 333.31 139.964ZM317.402 119.22C316.915 119.221 316.448 119.414 316.104 119.757C315.76 120.1 315.567 120.565 315.566 121.051V136.914C315.567 137.399 315.76 137.864 316.104 138.207C316.448 138.551 316.915 138.744 317.402 138.744H333.31C333.796 138.744 334.263 138.551 334.607 138.207C334.951 137.864 335.145 137.399 335.145 136.914V121.051C335.145 120.565 334.951 120.1 334.607 119.757C334.263 119.414 333.796 119.221 333.31 119.22H317.402Z" fill="#E7E7E7"/>
<path d="M812.54 57.7012C814.726 57.7012 816.497 55.9347 816.497 53.7556C816.497 51.5766 814.726 49.8101 812.54 49.8101C810.355 49.8101 808.583 51.5766 808.583 53.7556C808.583 55.9347 810.355 57.7012 812.54 57.7012Z" fill="#E6E6E6"/>
<path d="M920.227 77.8351C922.412 77.8351 924.183 76.0686 924.183 73.8895C924.183 71.7105 922.412 69.944 920.227 69.944C918.041 69.944 916.27 71.7105 916.27 73.8895C916.27 76.0686 918.041 77.8351 920.227 77.8351Z" fill="#E6E6E6"/>
<path d="M253.957 77.8351C256.142 77.8351 257.914 76.0686 257.914 73.8895C257.914 71.7105 256.142 69.944 253.957 69.944C251.772 69.944 250 71.7105 250 73.8895C250 76.0686 251.772 77.8351 253.957 77.8351Z" fill="#E6E6E6"/>
<path d="M0.389567 160.964C-1.73815 151.462 5.06332 141.861 15.5811 139.519C26.0988 137.177 36.35 142.981 38.4777 152.483C40.6054 161.985 33.6349 165.49 23.1172 167.831C12.5994 170.173 2.51728 170.466 0.389567 160.964Z" fill="#E6E6E6"/>
<path d="M65.9697 43.8912C68.155 43.8912 69.9265 42.1247 69.9265 39.9456C69.9265 37.7665 68.155 36 65.9697 36C63.7845 36 62.0129 37.7665 62.0129 39.9456C62.0129 42.1247 63.7845 43.8912 65.9697 43.8912Z" fill="#E6E6E6"/>
<g clip-path="url(#clip0_267_20052)">
<path d="M633.758 84.8242L633.09 79.4612C632.852 77.5552 631.869 75.8218 630.356 74.6422C628.842 73.4626 626.924 72.9336 625.021 73.1713C623.118 73.4091 621.388 74.3943 620.21 75.9102C619.033 77.426 618.505 79.3484 618.742 81.2543L619.41 86.6173C619.442 86.8732 619.574 87.1059 619.778 87.2643C619.981 87.4227 620.238 87.4939 620.494 87.4622L632.914 85.91C633.17 85.8777 633.402 85.7453 633.56 85.5418C633.718 85.3382 633.789 85.0802 633.758 84.8242Z" fill="#2F2E41"/>
<path d="M627.808 86.4242C624.881 86.4242 622.508 84.047 622.508 81.1145C622.508 78.182 624.881 75.8048 627.808 75.8048C630.736 75.8048 633.109 78.182 633.109 81.1145C633.109 84.047 630.736 86.4242 627.808 86.4242Z" fill="#FFB8B8"/>
<path d="M634.84 79.6781C634.651 78.1711 633.873 76.8009 632.676 75.8682C631.479 74.9354 629.962 74.5162 628.458 74.7025L627.387 74.8363C625.883 75.0261 624.515 75.8058 623.584 77.0045C622.653 78.2032 622.234 79.723 622.42 81.2303L622.434 81.3376L624.696 81.0548L625.198 78.7935L625.622 80.9391L626.792 80.7929L627.045 79.652L627.259 80.7345L634.854 79.7853L634.84 79.6781Z" fill="#2F2E41"/>
<path d="M653.732 100.055C653.57 100.374 653.34 100.653 653.059 100.873C652.777 101.093 652.451 101.248 652.104 101.329C651.756 101.409 651.395 101.411 651.045 101.337C650.696 101.262 650.368 101.111 650.083 100.896L645.269 103.721L642.842 101.209L649.696 97.3148C650.09 96.8597 650.636 96.5651 651.232 96.4867C651.828 96.4082 652.432 96.5515 652.929 96.8893C653.427 97.227 653.783 97.7359 653.931 98.3194C654.079 98.9028 654.008 99.5204 653.732 100.055Z" fill="#FFB8B8"/>
<path d="M637.954 105.131C641.505 105.131 647.753 103.539 648.099 103.45L648.209 103.422L647.225 98.4338L637.681 100.322L632.496 93.0079L626.543 92.4016L626.709 92.6207C626.787 92.7227 634.46 102.842 635.654 104.54C635.956 104.968 636.817 105.131 637.954 105.131Z" fill="#3F3D56"/>
<path d="M637.002 123.853L637.144 123.785C637.174 123.77 640.191 122.3 641.754 119.431C643.309 116.574 636.029 104.458 635.519 103.617L635.512 99.769L632.893 92.6856L629.553 90.7944L632.421 97.4974L637.002 123.853Z" fill="#3F3D56"/>
<path d="M640.348 165.21L643.54 165.21L645.059 152.875L640.347 152.876L640.348 165.21Z" fill="#FFB8B8"/>
<path d="M639.534 168.31L649.827 168.309V168.179C649.827 167.115 649.404 166.094 648.653 165.341C647.902 164.589 646.883 164.166 645.82 164.166H645.82L639.534 164.166L639.534 168.31Z" fill="#2F2E41"/>
<path d="M606.06 162.408L609.094 163.403L614.371 152.156L609.894 150.687L606.06 162.408Z" fill="#FFB8B8"/>
<path d="M604.323 165.1L614.104 168.31L614.145 168.186C614.476 167.174 614.392 166.073 613.912 165.123C613.432 164.174 612.595 163.454 611.585 163.122L611.585 163.122L605.611 161.162L604.323 165.1Z" fill="#2F2E41"/>
<path d="M612.241 160.391L621.341 145.172L629.023 128.913L635.935 143.275L638.682 161.877L648.312 162.011L648.274 161.86L633.536 103.198L621.994 104.925L622.519 112.557L622.207 113.003C619.599 116.714 616.903 120.55 618.449 124.686L614.066 137.724L604.363 159.435L612.241 160.391Z" fill="#2F2E41"/>
<path d="M633.009 115.912C634.681 115.912 636.59 113.999 635.6 110.732L635.664 110.686L633.286 100.162C635.361 97.1893 632.625 94.7358 632.369 94.5166L631.063 92.1618L625.301 88.5011L622.385 112.767L622.429 112.809C624.534 114.827 631.606 115.912 633.009 115.912Z" fill="#6C63FF"/>
<path d="M621.208 121.387C621.437 121.391 621.666 121.367 621.889 121.315C622.113 121.259 622.476 120.973 623.037 119.144C625.265 111.875 627.897 90.0033 625.985 87.8629L625.941 87.8139L622.802 88.3379C622.541 88.145 621.172 87.1876 619.909 87.3541C619.649 87.3868 619.398 87.4727 619.172 87.6063C618.947 87.74 618.751 87.9185 618.597 88.131L618.575 88.1594L617.575 102.411L613.912 119.181L614 119.221C614.213 119.318 618.787 121.387 621.208 121.387Z" fill="#3F3D56"/>
<path d="M623.32 115.817C622.963 115.805 622.613 115.715 622.295 115.553C621.977 115.391 621.698 115.161 621.478 114.88C621.258 114.598 621.102 114.271 621.022 113.923C620.942 113.575 620.939 113.213 621.013 112.863L616.418 109.693L617.66 106.426L624.086 110.994C624.665 111.158 625.163 111.529 625.486 112.036C625.81 112.544 625.936 113.152 625.842 113.747C625.747 114.341 625.438 114.881 624.973 115.262C624.508 115.644 623.92 115.841 623.32 115.817Z" fill="#FFB8B8"/>
<path d="M617.934 112.233L622.027 109.226L616.274 101.367L620.689 93.5624L618.714 87.9042L618.586 88.1479C618.527 88.2613 612.63 99.5132 611.602 101.316C610.532 103.192 617.563 111.781 617.862 112.146L617.934 112.233Z" fill="#3F3D56"/>
<path d="M709.999 147.606L713.483 146.136L715.872 128.643H747.694L750.284 146.065L753.401 147.626C753.55 147.701 753.669 147.824 753.74 147.975C753.811 148.126 753.828 148.297 753.79 148.459C753.752 148.622 753.66 148.767 753.529 148.87C753.398 148.974 753.236 149.03 753.07 149.03H710.286C710.116 149.03 709.95 148.971 709.818 148.863C709.686 148.754 709.595 148.604 709.561 148.436C709.527 148.268 709.552 148.094 709.632 147.942C709.712 147.791 709.842 147.672 709.999 147.606Z" fill="#E6E6E6"/>
<path d="M653.45 130.971H809.767C810.588 130.969 811.374 130.641 811.953 130.06C812.532 129.478 812.857 128.69 812.857 127.868V105.787H650.36V127.868C650.36 128.69 650.685 129.478 651.265 130.06C651.844 130.641 652.63 130.969 653.45 130.971Z" fill="#CCCCCC"/>
<path d="M650.196 116.223H813V21.7399C812.999 20.7483 812.605 19.7977 811.905 19.0966C811.205 18.3955 810.256 18.0011 809.267 18H653.93C652.94 18.0011 651.991 18.3955 651.291 19.0966C650.591 19.7977 650.198 20.7483 650.196 21.7399V116.223Z" fill="#3F3D56"/>
<path d="M659.92 109.365H803.276C804.039 109.365 804.771 109.06 805.311 108.52C805.85 107.979 806.154 107.247 806.155 106.482V27.7408C806.154 26.9764 805.85 26.2435 805.311 25.7029C804.771 25.1624 804.039 24.8583 803.276 24.8574H659.92C659.157 24.8583 658.425 25.1624 657.886 25.7029C657.346 26.2435 657.043 26.9764 657.042 27.7408V106.482C657.043 107.247 657.346 107.979 657.886 108.52C658.425 109.06 659.157 109.365 659.92 109.365Z" fill="white"/>
<path d="M691.394 149.213H771.948C772.03 149.215 772.111 149.189 772.177 149.14C772.244 149.091 772.292 149.021 772.315 148.942C772.329 148.888 772.331 148.831 772.32 148.776C772.309 148.721 772.285 148.67 772.251 148.626C772.217 148.581 772.174 148.545 772.123 148.521C772.073 148.496 772.018 148.483 771.962 148.483H691.424C691.337 148.48 691.251 148.506 691.181 148.558C691.111 148.61 691.061 148.684 691.038 148.768C691.026 148.822 691.026 148.877 691.039 148.93C691.051 148.984 691.075 149.033 691.109 149.076C691.144 149.119 691.187 149.153 691.236 149.177C691.285 149.201 691.339 149.213 691.394 149.213Z" fill="#CCCCCC"/>
<path d="M661.451 37.5875H696.063V64.0774H661.451V37.5875Z" fill="#F2F2F2"/>
<path d="M663.17 38.9038H694.343V62.7612H663.17V38.9038Z" fill="white"/>
<path d="M678.21 56.6C678.205 56.6 678.201 56.5999 678.197 56.5997C676.087 56.4891 674.098 55.5776 672.635 54.0504C671.172 52.5232 670.344 50.4951 670.321 48.3785C670.297 46.2618 671.079 44.2156 672.507 42.656C673.936 41.0963 675.904 40.1403 678.011 39.9824C678.037 39.9803 678.063 39.9837 678.088 39.9923C678.113 40.0009 678.135 40.0145 678.155 40.0322C678.174 40.0497 678.189 40.0709 678.2 40.0946C678.21 40.1183 678.216 40.1439 678.216 40.1699L678.398 56.4077C678.398 56.4582 678.379 56.5068 678.343 56.5428C678.308 56.5789 678.26 56.5994 678.21 56.6Z" fill="#3F3D56"/>
<path d="M684.728 42.6675C684.663 42.6683 684.601 42.6947 684.556 42.741L678.976 48.4578C678.953 48.4806 678.935 48.5077 678.924 48.5375C678.912 48.5673 678.906 48.5991 678.906 48.6312L678.993 56.401C678.993 56.4344 679 56.4673 679.014 56.4978C679.028 56.5282 679.047 56.5555 679.072 56.578C679.097 56.6007 679.126 56.6181 679.157 56.6291C679.189 56.6401 679.223 56.6445 679.256 56.642C680.808 56.5257 682.296 55.9782 683.554 55.0612C684.812 54.1441 685.79 52.8938 686.377 51.4507C686.965 50.0075 687.14 48.4288 686.881 46.8919C686.622 45.355 685.941 43.9208 684.913 42.7504C684.891 42.7252 684.864 42.7048 684.834 42.6906C684.803 42.6763 684.77 42.6685 684.737 42.6676C684.734 42.6675 684.731 42.6675 684.728 42.6675Z" fill="#E6E6E6"/>
<path d="M679.053 39.916C678.991 39.9168 678.931 39.9412 678.886 39.9844C678.862 40.0074 678.843 40.0352 678.83 40.0659C678.817 40.0967 678.811 40.1298 678.811 40.1632L678.89 47.1737C678.89 47.222 678.905 47.269 678.932 47.3088C678.96 47.3487 678.998 47.3795 679.043 47.3975C679.088 47.4155 679.137 47.4197 679.184 47.4098C679.231 47.3999 679.274 47.3761 679.308 47.3416L684.177 42.353C684.2 42.3293 684.218 42.3011 684.23 42.2702C684.242 42.2392 684.248 42.2062 684.246 42.1731C684.245 42.1399 684.237 42.1074 684.223 42.0774C684.209 42.0474 684.189 42.0207 684.164 41.9987C682.748 40.75 680.952 40.0163 679.068 39.9163C679.063 39.9161 679.058 39.916 679.053 39.916Z" fill="#093185"/>
<path d="M681.562 59.9673C681.565 60.263 681.656 60.5511 681.823 60.7952C681.99 61.0393 682.225 61.2283 682.499 61.3384C682.773 61.4485 683.073 61.4748 683.362 61.4138C683.651 61.3529 683.915 61.2075 684.122 60.996C684.328 60.7845 684.468 60.5165 684.522 60.2258C684.576 59.9351 684.543 59.6347 684.427 59.3628C684.311 59.0908 684.117 58.8594 683.87 58.6979C683.623 58.5363 683.333 58.4519 683.038 58.4552C682.642 58.4601 682.264 58.622 681.988 58.9055C681.711 59.189 681.558 59.5708 681.562 59.9673Z" fill="#093185"/>
<path d="M677.297 60.0151C677.3 60.3109 677.391 60.599 677.558 60.8431C677.725 61.0871 677.96 61.2762 678.234 61.3863C678.508 61.4964 678.808 61.5226 679.097 61.4617C679.386 61.4007 679.651 61.2553 679.857 61.0439C680.063 60.8324 680.203 60.5644 680.257 60.2736C680.311 59.9829 680.278 59.6826 680.162 59.4106C680.046 59.1387 679.852 58.9073 679.605 58.7457C679.358 58.5842 679.068 58.4997 678.773 58.503C678.377 58.5079 678 58.6699 677.723 58.9533C677.446 59.2368 677.293 59.6187 677.297 60.0151Z" fill="#3F3D56"/>
<path d="M673.032 60.063C673.036 60.3587 673.126 60.6468 673.293 60.8909C673.46 61.135 673.695 61.324 673.969 61.4341C674.243 61.5442 674.544 61.5705 674.833 61.5095C675.122 61.4486 675.386 61.3032 675.592 61.0917C675.799 60.8802 675.938 60.6122 675.992 60.3215C676.047 60.0308 676.014 59.7304 675.898 59.4585C675.782 59.1865 675.588 58.9551 675.34 58.7936C675.093 58.632 674.804 58.5476 674.508 58.5509C674.113 58.5558 673.735 58.7177 673.458 59.0012C673.181 59.2847 673.028 59.6665 673.032 60.063Z" fill="#E6E6E6"/>
<path d="M661.815 68.2465H696.427V94.7364H661.815V68.2465Z" fill="#F2F2F2"/>
<path d="M663.535 69.5627H694.708V93.4201H663.535V69.5627Z" fill="white"/>
<path d="M689.419 77.4039C688.704 77.4039 688.124 76.8234 688.124 76.1073C688.124 75.3912 688.704 74.8107 689.419 74.8107C690.133 74.8107 690.713 75.3912 690.713 76.1073C690.713 76.8234 690.133 77.4039 689.419 77.4039Z" fill="#3F3D56"/>
<path d="M668.622 75.0983C668.507 75.0981 668.393 75.1207 668.286 75.1648C668.179 75.2089 668.082 75.2737 668.001 75.3553C667.919 75.437 667.854 75.534 667.81 75.6408C667.766 75.7476 667.743 75.862 667.743 75.9776C667.743 76.0932 667.766 76.2077 667.81 76.3145C667.854 76.4213 667.919 76.5183 668.001 76.5999C668.082 76.6816 668.179 76.7463 668.286 76.7905C668.393 76.8346 668.507 76.8572 668.622 76.857H682.235C682.468 76.857 682.691 76.7643 682.856 76.5994C683.021 76.4345 683.113 76.2108 683.113 75.9776C683.113 75.7444 683.021 75.5208 682.856 75.3559C682.691 75.1909 682.468 75.0983 682.235 75.0983H668.622ZM668.622 74.8829H682.235C682.379 74.8827 682.521 74.9109 682.654 74.9658C682.787 75.0207 682.907 75.1013 683.009 75.203C683.111 75.3047 683.191 75.4254 683.246 75.5583C683.301 75.6913 683.33 75.8337 683.33 75.9776C683.33 76.1215 683.301 76.264 683.246 76.3969C683.191 76.5299 683.111 76.6506 683.009 76.7523C682.907 76.854 682.787 76.9346 682.654 76.9895C682.521 77.0444 682.379 77.0725 682.235 77.0723H668.622C668.479 77.0725 668.336 77.0444 668.204 76.9895C668.071 76.9346 667.95 76.854 667.849 76.7523C667.747 76.6506 667.666 76.5299 667.611 76.3969C667.556 76.264 667.528 76.1215 667.528 75.9776C667.528 75.8337 667.556 75.6913 667.611 75.5583C667.666 75.4254 667.747 75.3047 667.849 75.203C667.95 75.1013 668.071 75.0207 668.204 74.9658C668.336 74.9109 668.479 74.8827 668.622 74.8829Z" fill="#3F3D56"/>
<path d="M673.994 77.0723H684.241C684.531 77.0723 684.809 76.957 685.014 76.7517C685.219 76.5464 685.334 76.268 685.334 75.9776C685.334 75.6873 685.219 75.4089 685.014 75.2036C684.809 74.9983 684.531 74.8829 684.241 74.8829H673.994C673.704 74.8829 673.426 74.9983 673.221 75.2036C673.016 75.4089 672.901 75.6873 672.901 75.9776C672.901 76.268 673.016 76.5464 673.221 76.7517C673.426 76.957 673.704 77.0723 673.994 77.0723Z" fill="#093185"/>
<path d="M689.419 82.788C688.704 82.788 688.124 82.2075 688.124 81.4914C688.124 80.7753 688.704 80.1948 689.419 80.1948C690.133 80.1948 690.713 80.7753 690.713 81.4914C690.713 82.2075 690.133 82.788 689.419 82.788Z" fill="#3F3D56"/>
<path d="M668.622 80.4825C668.507 80.4823 668.393 80.5049 668.286 80.549C668.179 80.5931 668.082 80.6578 668.001 80.7395C667.919 80.8212 667.854 80.9182 667.81 81.0249C667.766 81.1317 667.743 81.2462 667.743 81.3618C667.743 81.4774 667.766 81.5918 667.81 81.6986C667.854 81.8054 667.919 81.9024 668.001 81.9841C668.082 82.0658 668.179 82.1305 668.286 82.1746C668.393 82.2187 668.507 82.2413 668.622 82.2411H682.235C682.468 82.2411 682.691 82.1485 682.856 81.9836C683.02 81.8187 683.113 81.595 683.113 81.3618C683.113 81.1286 683.02 80.9049 682.856 80.74C682.691 80.5751 682.468 80.4825 682.235 80.4825H668.622ZM668.622 80.2671H682.235C682.525 80.2671 682.803 80.3824 683.008 80.5877C683.213 80.793 683.328 81.0715 683.328 81.3618C683.328 81.6521 683.213 81.9306 683.008 82.1359C682.803 82.3412 682.525 82.4565 682.235 82.4565H668.622C668.332 82.4565 668.054 82.3412 667.85 82.1359C667.645 81.9306 667.529 81.6521 667.529 81.3618C667.529 81.0715 667.645 80.793 667.85 80.5877C668.054 80.3824 668.332 80.2671 668.622 80.2671Z" fill="#3F3D56"/>
<path d="M670.124 82.4565H684.241C684.531 82.4565 684.809 82.3411 685.014 82.1359C685.219 81.9306 685.334 81.6521 685.334 81.3618C685.334 81.0715 685.219 80.793 685.014 80.5877C684.809 80.3824 684.531 80.2671 684.241 80.2671H670.124C669.834 80.2671 669.556 80.3824 669.351 80.5877C669.146 80.793 669.031 81.0715 669.031 81.3618C669.031 81.6521 669.146 81.9306 669.351 82.1359C669.556 82.3411 669.834 82.4565 670.124 82.4565Z" fill="#093185"/>
<path d="M689.419 88.1722C688.704 88.1722 688.124 87.5917 688.124 86.8756C688.124 86.1595 688.704 85.579 689.419 85.579C690.133 85.579 690.713 86.1595 690.713 86.8756C690.713 87.5917 690.133 88.1722 689.419 88.1722Z" fill="#3F3D56"/>
<path d="M668.622 85.8666C668.507 85.8664 668.393 85.889 668.286 85.9331C668.179 85.9772 668.082 86.042 668.001 86.1236C667.919 86.2053 667.854 86.3023 667.81 86.4091C667.766 86.5159 667.743 86.6303 667.743 86.7459C667.743 86.8615 667.766 86.976 667.81 87.0828C667.854 87.1896 667.919 87.2866 668.001 87.3682C668.082 87.4499 668.179 87.5147 668.286 87.5588C668.393 87.6029 668.507 87.6255 668.622 87.6253H682.235C682.468 87.6253 682.691 87.5326 682.856 87.3677C683.02 87.2028 683.113 86.9792 683.113 86.7459C683.113 86.5127 683.02 86.2891 682.856 86.1242C682.691 85.9593 682.468 85.8666 682.235 85.8666H668.622ZM668.622 85.6512H682.235C682.525 85.6512 682.803 85.7666 683.008 85.9719C683.213 86.1772 683.328 86.4556 683.328 86.7459C683.328 87.0363 683.213 87.3147 683.008 87.52C682.803 87.7253 682.525 87.8406 682.235 87.8406H668.622C668.332 87.8406 668.054 87.7253 667.85 87.52C667.645 87.3147 667.529 87.0363 667.529 86.7459C667.529 86.4556 667.645 86.1772 667.85 85.9719C668.054 85.7666 668.332 85.6512 668.622 85.6512Z" fill="#3F3D56"/>
<path d="M678.508 87.8406H684.241C684.385 87.8409 684.527 87.8127 684.66 87.7578C684.793 87.7029 684.913 87.6223 685.015 87.5206C685.117 87.4189 685.197 87.2982 685.252 87.1652C685.307 87.0323 685.336 86.8898 685.336 86.7459C685.336 86.6021 685.307 86.4596 685.252 86.3266C685.197 86.1937 685.117 86.073 685.015 85.9713C684.913 85.8696 684.793 85.789 684.66 85.7341C684.527 85.6792 684.385 85.651 684.241 85.6512H678.508C678.219 85.6517 677.941 85.7672 677.737 85.9724C677.532 86.1777 677.417 86.4559 677.417 86.7459C677.417 87.036 677.532 87.3142 677.737 87.5194C677.941 87.7247 678.219 87.8402 678.508 87.8406Z" fill="#093185"/>
<path d="M704.079 42.2742H800.781V91.9213H704.079V42.2742Z" fill="#F2F2F2"/>
<path d="M707.302 44.7411H797.557V89.4544H707.302V44.7411Z" fill="white"/>
<path d="M718.496 82.633H784.29C784.345 82.633 784.397 82.6113 784.436 82.5726C784.474 82.5339 784.496 82.4814 784.496 82.4267V50.8359C784.496 50.7812 784.474 50.7287 784.436 50.6901C784.397 50.6514 784.345 50.6296 784.29 50.6296C784.235 50.6296 784.183 50.6514 784.144 50.6901C784.106 50.7287 784.084 50.7812 784.084 50.8359V82.2205H718.496C718.441 82.2205 718.389 82.2422 718.35 82.2809C718.312 82.3196 718.29 82.372 718.29 82.4267C718.29 82.4814 718.312 82.5339 718.35 82.5726C718.389 82.6113 718.441 82.633 718.496 82.633Z" fill="#3F3D56"/>
<path d="M770.232 80.364H776.217C776.379 80.3638 776.534 80.2993 776.649 80.1845C776.763 80.0697 776.828 79.9141 776.828 79.7517V71.4879C776.828 71.3255 776.763 71.1699 776.649 71.0551C776.534 70.9404 776.379 70.8758 776.217 70.8756H770.232C770.07 70.8758 769.915 70.9404 769.8 71.0551C769.686 71.1699 769.621 71.3255 769.621 71.4879V79.7517C769.621 79.9141 769.686 80.0697 769.8 80.1845C769.915 80.2993 770.07 80.3638 770.232 80.364Z" fill="#093185"/>
<path d="M759.32 80.364H765.304C765.466 80.3638 765.621 80.2992 765.736 80.1845C765.85 80.0697 765.915 79.9141 765.915 79.7517V63.6496C765.915 63.4873 765.85 63.3317 765.736 63.2169C765.621 63.1021 765.466 63.0375 765.304 63.0374H759.32C759.158 63.0375 759.002 63.1021 758.888 63.2169C758.773 63.3317 758.709 63.4873 758.708 63.6496V79.7517C758.709 79.9141 758.773 80.0697 758.888 80.1845C759.002 80.2992 759.158 80.3638 759.32 80.364Z" fill="#093185"/>
<path d="M748.406 80.364H754.391C754.553 80.3638 754.708 80.2993 754.823 80.1845C754.937 80.0697 755.002 79.9141 755.002 79.7517V71.4879C755.002 71.3255 754.937 71.1699 754.823 71.0551C754.708 70.9404 754.553 70.8758 754.391 70.8756H748.406C748.244 70.8758 748.089 70.9403 747.974 71.0551C747.86 71.1699 747.795 71.3255 747.795 71.4879V79.7517C747.795 79.9141 747.86 80.0697 747.974 80.1845C748.089 80.2993 748.244 80.3638 748.406 80.364Z" fill="#093185"/>
<path d="M737.493 80.364H743.478C743.636 80.3675 743.789 80.3079 743.904 80.1983C744.018 80.0887 744.085 79.9381 744.089 79.7795V60.5279C744.085 60.3693 744.018 60.2187 743.904 60.1091C743.789 59.9996 743.636 59.94 743.478 59.9434H737.493C737.335 59.94 737.182 59.9996 737.067 60.1091C736.953 60.2187 736.886 60.3693 736.882 60.5279V79.7795C736.886 79.9381 736.953 80.0887 737.067 80.1983C737.182 80.3078 737.335 80.3675 737.493 80.364Z" fill="#093185"/>
<path d="M726.581 80.3641H732.565C732.727 80.3639 732.882 80.2993 732.997 80.1845C733.111 80.0698 733.176 79.9141 733.176 79.7518V54.9864C733.176 54.8241 733.111 54.6684 732.997 54.5537C732.882 54.4389 732.727 54.3743 732.565 54.3741H726.581C726.419 54.3743 726.263 54.4389 726.149 54.5537C726.034 54.6684 725.97 54.8241 725.969 54.9864V79.7518C725.97 79.9141 726.034 80.0698 726.149 80.1845C726.263 80.2993 726.419 80.3639 726.581 80.3641Z" fill="#093185"/>
<path d="M773.225 68.4004C772.542 68.4004 771.989 67.8463 771.989 67.1628C771.989 66.4793 772.542 65.9252 773.225 65.9252C773.907 65.9252 774.46 66.4793 774.46 67.1628C774.46 67.8463 773.907 68.4004 773.225 68.4004Z" fill="#3F3D56"/>
<path d="M762.312 60.3558C761.629 60.3558 761.076 59.8017 761.076 59.1182C761.076 58.4347 761.629 57.8806 762.312 57.8806C762.994 57.8806 763.547 58.4347 763.547 59.1182C763.547 59.8017 762.994 60.3558 762.312 60.3558Z" fill="#3F3D56"/>
<path d="M751.399 68.4004C750.716 68.4004 750.163 67.8463 750.163 67.1628C750.163 66.4793 750.716 65.9252 751.399 65.9252C752.081 65.9252 752.634 66.4793 752.634 67.1628C752.634 67.8463 752.081 68.4004 751.399 68.4004Z" fill="#3F3D56"/>
<path d="M740.486 56.4368C739.803 56.4368 739.25 55.8827 739.25 55.1992C739.25 54.5156 739.803 53.9615 740.486 53.9615C741.168 53.9615 741.721 54.5156 741.721 55.1992C741.721 55.8827 741.168 56.4368 740.486 56.4368Z" fill="#3F3D56"/>
<path d="M729.573 51.8988C728.89 51.8988 728.337 51.3447 728.337 50.6612C728.337 49.9777 728.89 49.4236 729.573 49.4236C730.255 49.4236 730.808 49.9777 730.808 50.6612C730.808 51.3447 730.255 51.8988 729.573 51.8988Z" fill="#3F3D56"/>
<path d="M751.373 67.44L762.312 59.2322L773.101 67.3279L773.348 66.9979L762.312 58.7166L751.425 66.8855L740.606 55.0255L740.563 55.0078L729.65 50.6031L729.496 50.9858L740.365 55.373L751.373 67.44Z" fill="#3F3D56"/>
<path d="M588.239 169H679.189C679.252 169 679.313 168.975 679.358 168.93C679.403 168.885 679.428 168.824 679.428 168.761C679.428 168.697 679.403 168.637 679.358 168.592C679.313 168.547 679.252 168.522 679.189 168.522H588.239C588.175 168.522 588.115 168.547 588.07 168.592C588.025 168.637 588 168.697 588 168.761C588 168.824 588.025 168.885 588.07 168.93C588.115 168.975 588.175 169 588.239 169Z" fill="#CCCCCC"/>
</g>
<g clip-path="url(#clip1_267_20052)">
<path d="M562.942 137.18H432.309C431.763 137.179 431.24 136.962 430.854 136.576C430.468 136.191 430.251 135.667 430.251 135.122V78.3075C430.251 77.7617 430.468 77.2385 430.854 76.8526C431.24 76.4667 431.763 76.2496 432.309 76.249H562.942C563.487 76.2496 564.011 76.4667 564.396 76.8526C564.782 77.2385 564.999 77.7617 565 78.3075V135.122C564.999 135.667 564.782 136.191 564.396 136.576C564.011 136.962 563.487 137.179 562.942 137.18ZM432.309 77.0724C431.982 77.0728 431.668 77.203 431.436 77.4346C431.205 77.6661 431.074 77.98 431.074 78.3075V135.122C431.074 135.449 431.205 135.763 431.436 135.995C431.668 136.226 431.982 136.356 432.309 136.357H562.942C563.269 136.356 563.583 136.226 563.815 135.995C564.046 135.763 564.176 135.449 564.177 135.122V78.3075C564.176 77.98 564.046 77.6661 563.815 77.4346C563.583 77.203 563.269 77.0728 562.942 77.0724H432.309Z" fill="#E6E6E6"/>
<path d="M437.661 83.2479C437.333 83.2479 437.019 83.3781 436.787 83.6097C436.556 83.8413 436.426 84.1554 436.426 84.483C436.426 84.8106 436.556 85.1247 436.787 85.3564C437.019 85.588 437.333 85.7181 437.661 85.7181H454.95C455.278 85.7181 455.592 85.588 455.823 85.3564C456.055 85.1247 456.185 84.8106 456.185 84.483C456.185 84.1554 456.055 83.8413 455.823 83.6097C455.592 83.3781 455.278 83.2479 454.95 83.2479H437.661Z" fill="#E6E6E6"/>
<path d="M556.023 91.8373V114.741H439.433V102.682C440.241 102.163 441.053 101.647 441.872 101.148C445.373 99.0062 449.119 97.0028 453.202 96.2603C455.133 95.9002 457.112 95.8755 459.051 96.1873C461.1 96.5256 463.061 97.2316 465.003 97.9399C466.917 98.641 468.837 99.364 470.839 99.7705C472.791 100.154 474.794 100.193 476.759 99.8873C480.508 99.325 484.03 97.8182 487.538 96.4551C491.067 95.0846 494.704 93.7895 498.523 93.6191C502.294 93.4487 506.019 94.3397 509.597 95.4448C516.892 97.6965 524.342 101.036 532.066 98.7457C539.91 96.4234 547.125 89.7195 555.818 91.7083C555.901 91.7235 555.974 91.7697 556.023 91.8373Z" fill="#E6E6E6"/>
<path d="M556.023 92.2365C555.986 92.3063 555.926 92.3616 555.854 92.3934C555.781 92.4252 555.7 92.4316 555.624 92.4118C554.588 92.1743 553.527 92.0647 552.465 92.0856C543.914 92.2365 537.34 99.1206 528.979 100.15C521.44 101.078 514.345 97.4117 507.257 95.496C503.575 94.5004 499.778 93.9721 495.988 94.6488C492.227 95.3183 488.698 96.8567 485.154 98.2223C481.741 99.5368 478.195 100.759 474.5 100.82C470.438 100.888 466.78 99.2131 463.012 97.9375C461.052 97.273 459.042 96.7472 456.966 96.6961C454.942 96.6718 452.929 96.9836 451.007 97.6186C447.003 98.8918 443.396 101.16 439.884 103.415C439.823 103.457 439.75 103.477 439.677 103.471C439.601 103.46 439.53 103.427 439.473 103.376C439.417 103.325 439.377 103.257 439.36 103.183C439.342 103.108 439.348 103.03 439.376 102.959C439.404 102.888 439.453 102.827 439.516 102.784L439.677 102.682C440.482 102.163 441.293 101.647 442.111 101.148C445.604 99.0062 449.342 97.0028 453.417 96.2603C455.344 95.9002 457.318 95.8755 459.254 96.1873C461.298 96.5256 463.255 97.2316 465.193 97.94C467.103 98.641 469.019 99.364 471.017 99.7705C472.964 100.154 474.964 100.193 476.925 99.8874C480.666 99.325 484.18 97.8182 487.681 96.4551C491.203 95.0846 494.832 93.7895 498.643 93.6191C502.406 93.4487 506.123 94.3397 509.694 95.4448C516.974 97.6965 524.408 101.036 532.116 98.7457C539.944 96.4234 547.144 89.7195 555.819 91.7083C555.901 91.7235 555.974 91.7697 556.023 91.8373C556.061 91.8971 556.081 91.9663 556.081 92.0369C556.081 92.1075 556.061 92.1767 556.023 92.2365Z" fill="#093185"/>
<path d="M455.498 98.1882C456.439 98.1882 457.202 97.4253 457.202 96.4842C457.202 95.5432 456.439 94.7803 455.498 94.7803C454.557 94.7803 453.794 95.5432 453.794 96.4842C453.794 97.4253 454.557 98.1882 455.498 98.1882Z" fill="#6C63FF"/>
<path d="M498.58 95.9974C499.521 95.9974 500.284 95.2345 500.284 94.2935C500.284 93.3524 499.521 92.5895 498.58 92.5895C497.639 92.5895 496.876 93.3524 496.876 94.2935C496.876 95.2345 497.639 95.9974 498.58 95.9974Z" fill="#6C63FF"/>
<path d="M551.155 93.8066C552.096 93.8066 552.859 93.0437 552.859 92.1027C552.859 91.1616 552.096 90.3987 551.155 90.3987C550.214 90.3987 549.451 91.1616 549.451 92.1027C549.451 93.0437 550.214 93.8066 551.155 93.8066Z" fill="#6C63FF"/>
<path d="M454.538 124.417C454.211 124.417 453.897 124.548 453.665 124.779C453.434 125.011 453.303 125.325 453.303 125.653C453.303 125.98 453.434 126.294 453.665 126.526C453.897 126.758 454.211 126.888 454.538 126.888H471.828C472.156 126.888 472.47 126.758 472.701 126.526C472.933 126.294 473.063 125.98 473.063 125.653C473.063 125.325 472.933 125.011 472.701 124.779C472.47 124.548 472.156 124.417 471.828 124.417H454.538Z" fill="#E6E6E6"/>
<path d="M443.424 130.181C446 130.181 448.089 128.092 448.089 125.515C448.089 122.938 446 120.849 443.424 120.849C440.847 120.849 438.758 122.938 438.758 125.515C438.758 128.092 440.847 130.181 443.424 130.181Z" fill="#093185"/>
<path d="M496.253 124.417C495.926 124.417 495.612 124.548 495.38 124.779C495.148 125.011 495.018 125.325 495.018 125.653C495.018 125.98 495.148 126.294 495.38 126.526C495.612 126.758 495.926 126.888 496.253 126.888H513.543C513.87 126.888 514.185 126.758 514.416 126.526C514.648 126.294 514.778 125.98 514.778 125.653C514.778 125.325 514.648 125.011 514.416 124.779C514.185 124.548 513.87 124.417 513.543 124.417H496.253Z" fill="#E6E6E6"/>
<path d="M485.138 130.181C487.715 130.181 489.804 128.092 489.804 125.515C489.804 122.938 487.715 120.849 485.138 120.849C482.562 120.849 480.473 122.938 480.473 125.515C480.473 128.092 482.562 130.181 485.138 130.181Z" fill="#093185"/>
<path d="M537.968 124.417C537.64 124.417 537.326 124.548 537.095 124.779C536.863 125.011 536.733 125.325 536.733 125.653C536.733 125.98 536.863 126.294 537.095 126.526C537.326 126.758 537.64 126.888 537.968 126.888H555.258C555.585 126.888 555.899 126.758 556.131 126.526C556.362 126.294 556.492 125.98 556.492 125.653C556.492 125.325 556.362 125.011 556.131 124.779C555.899 124.548 555.585 124.417 555.258 124.417H537.968Z" fill="#E6E6E6"/>
<path d="M526.853 130.181C529.43 130.181 531.518 128.092 531.518 125.515C531.518 122.938 529.43 120.849 526.853 120.849C524.276 120.849 522.188 122.938 522.188 125.515C522.188 128.092 524.276 130.181 526.853 130.181Z" fill="#093185"/>
<path d="M554 60.9091H489.552C488.295 60.9091 487.277 60.1837 487.276 59.2898V45.2806C487.277 44.3867 488.295 43.6613 489.552 43.6613H554C555.257 43.6613 556.275 44.3867 556.276 45.2806V59.2895C556.275 60.1835 555.257 60.908 554 60.9091ZM489.552 44.3084C488.798 44.3084 488.187 44.7437 488.186 45.28V59.289C488.186 59.8253 488.798 60.26 489.552 60.2606H554C554.754 60.2606 555.365 59.8253 555.366 59.289V45.2806C555.366 44.7443 554.754 44.3095 554 44.309L489.552 44.3084Z" fill="#E6E6E6"/>
<path d="M504.124 51.6227C503.76 51.6231 503.411 51.7678 503.154 52.0251C502.897 52.2824 502.752 52.6312 502.752 52.995V62.6012C502.752 62.9651 502.897 63.3139 503.154 63.5711C503.411 63.8284 503.76 63.9731 504.124 63.9736H553.248C553.612 63.9731 553.961 63.8284 554.218 63.5711C554.475 63.3139 554.62 62.9651 554.621 62.6012V52.995C554.62 52.6312 554.475 52.2824 554.218 52.0251C553.961 51.7678 553.612 51.6231 553.248 51.6227H504.124Z" fill="#093185"/>
<path d="M510.985 60.9545C512.652 60.9545 514.004 59.6028 514.004 57.9354C514.004 56.268 512.652 54.9163 510.985 54.9163C509.318 54.9163 507.966 56.268 507.966 57.9354C507.966 59.6028 509.318 60.9545 510.985 60.9545Z" fill="white"/>
<path d="M524.743 56.6249C524.415 56.6249 524.101 56.755 523.87 56.9866C523.638 57.2183 523.508 57.5324 523.508 57.86C523.508 58.1875 523.638 58.5017 523.87 58.7333C524.101 58.9649 524.415 59.0951 524.743 59.0951H542.032C542.36 59.0951 542.674 58.9649 542.906 58.7333C543.137 58.5017 543.267 58.1875 543.267 57.86C543.267 57.5324 543.137 57.2183 542.906 56.9866C542.674 56.755 542.36 56.6249 542.032 56.6249H524.743Z" fill="white"/>
<path d="M505.699 28.2479H441.251C439.994 28.2479 438.976 27.5225 438.975 26.6285V12.6193C438.976 11.7254 439.994 11 441.251 11H505.699C506.955 11 507.974 11.7254 507.975 12.6193V26.6283C507.974 27.5222 506.955 28.2468 505.699 28.2479ZM441.251 11.6472C440.497 11.6472 439.886 12.0825 439.885 12.6188V26.6277C439.885 27.164 440.497 27.5988 441.251 27.5993H505.699C506.453 27.5993 507.064 27.164 507.065 26.6277V12.6193C507.065 12.083 506.453 11.6483 505.699 11.6477L441.251 11.6472Z" fill="#E6E6E6"/>
<path d="M455.823 18.9614C455.459 18.9619 455.11 19.1066 454.853 19.3638C454.596 19.6211 454.451 19.9699 454.45 20.3337V29.94C454.451 30.3038 454.596 30.6526 454.853 30.9099C455.11 31.1672 455.459 31.3119 455.823 31.3123H504.947C505.311 31.3119 505.66 31.1672 505.917 30.9099C506.174 30.6526 506.319 30.3038 506.319 29.94V20.3337C506.319 19.9699 506.174 19.6211 505.917 19.3638C505.66 19.1066 505.311 18.9619 504.947 18.9614H455.823Z" fill="#093185"/>
<path d="M462.684 28.2932C464.351 28.2932 465.702 26.9415 465.702 25.2741C465.702 23.6067 464.351 22.255 462.684 22.255C461.016 22.255 459.665 23.6067 459.665 25.2741C459.665 26.9415 461.016 28.2932 462.684 28.2932Z" fill="white"/>
<path d="M476.442 23.9636C476.114 23.9636 475.8 24.0937 475.569 24.3254C475.337 24.557 475.207 24.8711 475.207 25.1987C475.207 25.5263 475.337 25.8404 475.569 26.072C475.8 26.3037 476.114 26.4338 476.442 26.4338H493.731C494.059 26.4338 494.373 26.3037 494.605 26.072C494.836 25.8404 494.966 25.5263 494.966 25.1987C494.966 24.8711 494.836 24.557 494.605 24.3254C494.373 24.0937 494.059 23.9636 493.731 23.9636H476.442Z" fill="white"/>
</g>
<defs>
<clipPath id="clip0_267_20052">
<rect width="225" height="151" fill="white" transform="matrix(-1 0 0 1 813 18)"/>
</clipPath>
<clipPath id="clip1_267_20052">
<rect width="226" height="148" fill="white" transform="translate(339 11)"/>
</clipPath>
</defs>
</svg>
