<svg width="225" height="142" viewBox="0 0 225 142" fill="none" xmlns="http://www.w3.org/2000/svg">
<g clip-path="url(#clip0_237_8421)">
<path d="M198.129 129.864L198.348 124.943C200.632 123.724 203.18 123.08 205.77 123.067C202.205 125.978 202.651 131.588 200.234 135.503C198.688 137.964 196.105 139.589 193.215 139.92L190.232 141.744C189.403 137.132 190.639 132.389 193.612 128.764C194.447 127.768 195.403 126.88 196.46 126.122C197.174 128.003 198.129 129.864 198.129 129.864Z" fill="#F2F2F2"/>
<path d="M47.3219 124.472L40.1228 122.295C39.1786 118.465 39.1851 114.462 40.1416 110.634C43.1063 116.992 51.5771 118.447 56.4591 123.489C59.519 126.697 60.9516 131.121 60.3523 135.512L61.9281 140.601C54.7908 140.087 48.2369 136.477 43.9932 130.723C42.8327 129.117 41.8793 127.37 41.1557 125.526C44.2091 125.18 47.3219 124.472 47.3219 124.472H47.3219Z" fill="#F2F2F2"/>
<path d="M173.183 140.939C173.182 141.088 173.123 141.231 173.018 141.337C172.913 141.441 172.771 141.5 172.623 141.499H170.369C170.06 141.5 169.809 141.251 169.808 140.943V72.8704C169.808 71.3698 169.303 70.152 168.684 70.1492H28.3791C27.7568 70.152 27.2549 71.3698 27.2522 72.8704V140.522C27.2512 140.81 27.032 141.051 26.7447 141.079C26.2906 141.124 25.8365 141.163 25.3851 141.2C25.3739 141.2 25.3627 141.203 25.3515 141.203C25.1048 141.225 24.8581 141.242 24.6114 141.261H24.6086C24.4796 141.029 24.3563 140.791 24.2301 140.553C24.1897 140.472 24.1686 140.383 24.1685 140.293V69.3401C24.1685 68.9257 24.1853 68.5086 24.2133 68.0971C24.2533 67.5319 24.3235 66.9694 24.4236 66.4117C24.8973 63.8109 25.9682 62.05 27.1849 62.0444H169.875C170.053 62.0456 170.228 62.0827 170.391 62.1536C170.63 62.2592 170.846 62.4104 171.028 62.5987C171.273 62.854 171.484 63.1412 171.653 63.4526C172.253 64.508 172.682 66.0814 172.833 67.9123C172.833 67.9291 172.836 67.9459 172.836 67.9627C172.875 68.4162 172.895 68.8781 172.892 69.3401L172.931 75.3396L172.956 78.9174L173.032 90.1438L173.06 94.1304L173.183 140.939Z" fill="#E6E6E6"/>
<path d="M121.111 41.29H106.813C106.391 41.2907 106.05 41.6321 106.051 42.0527V64.61H121.875V42.0527C121.875 41.6317 121.534 41.2903 121.112 41.29H121.111ZM114.01 54.1068C113.079 54.1025 112.326 53.3501 112.322 52.4207V49.8189C112.322 48.8876 113.077 48.1327 114.01 48.1327C114.942 48.1327 115.698 48.8876 115.698 49.8189V52.4207C115.694 53.3501 114.941 54.1025 114.01 54.1068Z" fill="#CCCCCC"/>
<path d="M106.002 63.8885V66.0648C106.002 66.2996 106.193 66.4898 106.428 66.4903H121.498C121.733 66.4891 121.923 66.2993 121.924 66.0648V63.8885H106.002Z" fill="#3F3D56"/>
<path d="M144.789 6.08682H83.6675C82.5742 6.08856 81.6883 6.97325 81.6865 8.06511V49.2545C81.6876 50.3466 82.5739 51.2317 83.6675 51.2328H144.789C145.882 51.2317 146.769 50.3466 146.77 49.2545V8.06512C146.768 6.97325 145.882 6.08856 144.789 6.08682Z" fill="#E6E6E6"/>
<path d="M144.278 7.51572H84.1781C83.5926 7.51698 83.1187 7.99127 83.1187 8.57592V48.7444C83.1197 49.3283 83.5934 49.8014 84.1781 49.8024H144.278C144.863 49.8014 145.337 49.3283 145.338 48.7444V8.57591C145.338 7.99126 144.864 7.51698 144.278 7.51572Z" fill="white"/>
<path d="M132.572 67.2476H96.8155C96.4522 67.2476 96.1577 66.9535 96.1577 66.5907C96.1577 66.5453 96.1624 66.4999 96.1718 66.4554L96.7266 63.8239C96.7917 63.5206 97.0596 63.3035 97.3702 63.3024H132.017C132.328 63.3035 132.596 63.5206 132.661 63.8239L133.216 66.4554C133.29 66.8104 133.063 67.1588 132.707 67.2335C132.663 67.2429 132.617 67.2476 132.572 67.2476Z" fill="#CCCCCC"/>
<path d="M98.5884 63.7762H97.7609C97.6853 63.7762 97.624 63.8374 97.624 63.9129V64.2994C97.624 64.3749 97.6853 64.4361 97.7609 64.4361H98.5884C98.664 64.4361 98.7253 64.3749 98.7253 64.2994V63.9129C98.7253 63.8374 98.664 63.7762 98.5884 63.7762Z" fill="#E6E6E6"/>
<path d="M100.791 63.7762H99.9635C99.8879 63.7762 99.8267 63.8374 99.8267 63.9129V64.2994C99.8267 64.3749 99.8879 64.4361 99.9635 64.4361H100.791C100.867 64.4361 100.928 64.3749 100.928 64.2994V63.9129C100.928 63.8374 100.867 63.7762 100.791 63.7762Z" fill="#E6E6E6"/>
<path d="M102.994 63.7762H102.166C102.091 63.7762 102.029 63.8374 102.029 63.9129V64.2994C102.029 64.3749 102.091 64.4361 102.166 64.4361H102.994C103.069 64.4361 103.131 64.3749 103.131 64.2994V63.9129C103.131 63.8374 103.069 63.7762 102.994 63.7762Z" fill="#E6E6E6"/>
<path d="M105.196 63.7762H104.368C104.293 63.7762 104.231 63.8374 104.231 63.9129V64.2994C104.231 64.3749 104.293 64.4361 104.368 64.4361H105.196C105.271 64.4361 105.333 64.3749 105.333 64.2994V63.9129C105.333 63.8374 105.271 63.7762 105.196 63.7762Z" fill="#E6E6E6"/>
<path d="M107.398 63.7762H106.571C106.495 63.7762 106.434 63.8374 106.434 63.9129V64.2994C106.434 64.3749 106.495 64.4361 106.571 64.4361H107.398C107.474 64.4361 107.535 64.3749 107.535 64.2994V63.9129C107.535 63.8374 107.474 63.7762 107.398 63.7762Z" fill="#E6E6E6"/>
<path d="M109.601 63.7762H108.774C108.698 63.7762 108.637 63.8374 108.637 63.9129V64.2994C108.637 64.3749 108.698 64.4361 108.774 64.4361H109.601C109.677 64.4361 109.738 64.3749 109.738 64.2994V63.9129C109.738 63.8374 109.677 63.7762 109.601 63.7762Z" fill="#E6E6E6"/>
<path d="M111.804 63.7762H110.976C110.901 63.7762 110.839 63.8374 110.839 63.9129V64.2994C110.839 64.3749 110.901 64.4361 110.976 64.4361H111.804C111.879 64.4361 111.941 64.3749 111.941 64.2994V63.9129C111.941 63.8374 111.879 63.7762 111.804 63.7762Z" fill="#E6E6E6"/>
<path d="M114.006 63.7762H113.179C113.103 63.7762 113.042 63.8374 113.042 63.9129V64.2994C113.042 64.3749 113.103 64.4361 113.179 64.4361H114.006C114.082 64.4361 114.143 64.3749 114.143 64.2994V63.9129C114.143 63.8374 114.082 63.7762 114.006 63.7762Z" fill="#E6E6E6"/>
<path d="M116.209 63.7762H115.381C115.305 63.7762 115.244 63.8374 115.244 63.9129V64.2994C115.244 64.3749 115.305 64.4361 115.381 64.4361H116.209C116.284 64.4361 116.345 64.3749 116.345 64.2994V63.9129C116.345 63.8374 116.284 63.7762 116.209 63.7762Z" fill="#E6E6E6"/>
<path d="M118.411 63.7762H117.584C117.508 63.7762 117.447 63.8374 117.447 63.9129V64.2994C117.447 64.3749 117.508 64.4361 117.584 64.4361H118.411C118.487 64.4361 118.548 64.3749 118.548 64.2994V63.9129C118.548 63.8374 118.487 63.7762 118.411 63.7762Z" fill="#E6E6E6"/>
<path d="M120.614 63.7762H119.786C119.711 63.7762 119.649 63.8374 119.649 63.9129V64.2994C119.649 64.3749 119.711 64.4361 119.786 64.4361H120.614C120.689 64.4361 120.751 64.3749 120.751 64.2994V63.9129C120.751 63.8374 120.689 63.7762 120.614 63.7762Z" fill="#E6E6E6"/>
<path d="M122.816 63.7762H121.989C121.913 63.7762 121.852 63.8374 121.852 63.9129V64.2994C121.852 64.3749 121.913 64.4361 121.989 64.4361H122.816C122.892 64.4361 122.953 64.3749 122.953 64.2994V63.9129C122.953 63.8374 122.892 63.7762 122.816 63.7762Z" fill="#E6E6E6"/>
<path d="M125.019 63.7762H124.191C124.115 63.7762 124.054 63.8374 124.054 63.9129V64.2994C124.054 64.3749 124.115 64.4361 124.191 64.4361H125.019C125.094 64.4361 125.155 64.3749 125.155 64.2994V63.9129C125.155 63.8374 125.094 63.7762 125.019 63.7762Z" fill="#E6E6E6"/>
<path d="M127.221 63.7762H126.394C126.318 63.7762 126.257 63.8374 126.257 63.9129V64.2994C126.257 64.3749 126.318 64.4361 126.394 64.4361H127.221C127.297 64.4361 127.358 64.3749 127.358 64.2994V63.9129C127.358 63.8374 127.297 63.7762 127.221 63.7762Z" fill="#E6E6E6"/>
<path d="M129.424 63.7762H128.596C128.521 63.7762 128.459 63.8374 128.459 63.9129V64.2994C128.459 64.3749 128.521 64.4361 128.596 64.4361H129.424C129.499 64.4361 129.561 64.3749 129.561 64.2994V63.9129C129.561 63.8374 129.499 63.7762 129.424 63.7762Z" fill="#E6E6E6"/>
<path d="M131.627 63.7762H130.799C130.723 63.7762 130.662 63.8374 130.662 63.9129V64.2994C130.662 64.3749 130.723 64.4361 130.799 64.4361H131.627C131.702 64.4361 131.763 64.3749 131.763 64.2994V63.9129C131.763 63.8374 131.702 63.7762 131.627 63.7762Z" fill="#E6E6E6"/>
<path d="M98.5625 64.876H97.735C97.6594 64.876 97.5981 64.9372 97.5981 65.0126V65.3992C97.5981 65.4747 97.6594 65.5358 97.735 65.5358H98.5625C98.6381 65.5358 98.6994 65.4747 98.6994 65.3992V65.0126C98.6994 64.9372 98.6381 64.876 98.5625 64.876Z" fill="#E6E6E6"/>
<path d="M100.765 64.876H99.9376C99.8621 64.876 99.8008 64.9372 99.8008 65.0126V65.3992C99.8008 65.4747 99.8621 65.5358 99.9376 65.5358H100.765C100.841 65.5358 100.902 65.4747 100.902 65.3992V65.0126C100.902 64.9372 100.841 64.876 100.765 64.876Z" fill="#E6E6E6"/>
<path d="M102.967 64.876H102.14C102.064 64.876 102.003 64.9372 102.003 65.0126V65.3992C102.003 65.4747 102.064 65.5358 102.14 65.5358H102.967C103.043 65.5358 103.104 65.4747 103.104 65.3992V65.0126C103.104 64.9372 103.043 64.876 102.967 64.876Z" fill="#E6E6E6"/>
<path d="M105.17 64.876H104.342C104.267 64.876 104.206 64.9372 104.206 65.0126V65.3992C104.206 65.4747 104.267 65.5358 104.342 65.5358H105.17C105.246 65.5358 105.307 65.4747 105.307 65.3992V65.0126C105.307 64.9372 105.246 64.876 105.17 64.876Z" fill="#E6E6E6"/>
<path d="M107.373 64.876H106.545C106.469 64.876 106.408 64.9372 106.408 65.0126V65.3992C106.408 65.4747 106.469 65.5358 106.545 65.5358H107.373C107.448 65.5358 107.509 65.4747 107.509 65.3992V65.0126C107.509 64.9372 107.448 64.876 107.373 64.876Z" fill="#E6E6E6"/>
<path d="M109.575 64.876H108.748C108.672 64.876 108.611 64.9372 108.611 65.0126V65.3992C108.611 65.4747 108.672 65.5358 108.748 65.5358H109.575C109.651 65.5358 109.712 65.4747 109.712 65.3992V65.0126C109.712 64.9372 109.651 64.876 109.575 64.876Z" fill="#E6E6E6"/>
<path d="M111.778 64.876H110.95C110.875 64.876 110.813 64.9372 110.813 65.0126V65.3992C110.813 65.4747 110.875 65.5358 110.95 65.5358H111.778C111.853 65.5358 111.915 65.4747 111.915 65.3992V65.0126C111.915 64.9372 111.853 64.876 111.778 64.876Z" fill="#E6E6E6"/>
<path d="M113.98 64.876H113.152C113.077 64.876 113.016 64.9372 113.016 65.0126V65.3992C113.016 65.4747 113.077 65.5358 113.152 65.5358H113.98C114.056 65.5358 114.117 65.4747 114.117 65.3992V65.0126C114.117 64.9372 114.056 64.876 113.98 64.876Z" fill="#E6E6E6"/>
<path d="M116.183 64.876H115.355C115.28 64.876 115.218 64.9372 115.218 65.0126V65.3992C115.218 65.4747 115.28 65.5358 115.355 65.5358H116.183C116.258 65.5358 116.32 65.4747 116.32 65.3992V65.0126C116.32 64.9372 116.258 64.876 116.183 64.876Z" fill="#E6E6E6"/>
<path d="M118.385 64.876H117.558C117.482 64.876 117.421 64.9372 117.421 65.0126V65.3992C117.421 65.4747 117.482 65.5358 117.558 65.5358H118.385C118.461 65.5358 118.522 65.4747 118.522 65.3992V65.0126C118.522 64.9372 118.461 64.876 118.385 64.876Z" fill="#E6E6E6"/>
<path d="M120.588 64.876H119.76C119.685 64.876 119.624 64.9372 119.624 65.0126V65.3992C119.624 65.4747 119.685 65.5358 119.76 65.5358H120.588C120.664 65.5358 120.725 65.4747 120.725 65.3992V65.0126C120.725 64.9372 120.664 64.876 120.588 64.876Z" fill="#E6E6E6"/>
<path d="M122.79 64.876H121.963C121.887 64.876 121.826 64.9372 121.826 65.0126V65.3992C121.826 65.4747 121.887 65.5358 121.963 65.5358H122.79C122.866 65.5358 122.927 65.4747 122.927 65.3992V65.0126C122.927 64.9372 122.866 64.876 122.79 64.876Z" fill="#E6E6E6"/>
<path d="M124.993 64.876H124.165C124.09 64.876 124.028 64.9372 124.028 65.0126V65.3992C124.028 65.4747 124.09 65.5358 124.165 65.5358H124.993C125.068 65.5358 125.13 65.4747 125.13 65.3992V65.0126C125.13 64.9372 125.068 64.876 124.993 64.876Z" fill="#E6E6E6"/>
<path d="M127.195 64.876H126.368C126.292 64.876 126.231 64.9372 126.231 65.0126V65.3992C126.231 65.4747 126.292 65.5358 126.368 65.5358H127.195C127.271 65.5358 127.332 65.4747 127.332 65.3992V65.0126C127.332 64.9372 127.271 64.876 127.195 64.876Z" fill="#E6E6E6"/>
<path d="M129.398 64.876H128.57C128.495 64.876 128.434 64.9372 128.434 65.0126V65.3992C128.434 65.4747 128.495 65.5358 128.57 65.5358H129.398C129.474 65.5358 129.535 65.4747 129.535 65.3992V65.0126C129.535 64.9372 129.474 64.876 129.398 64.876Z" fill="#E6E6E6"/>
<path d="M131.6 64.876H130.773C130.697 64.876 130.636 64.9372 130.636 65.0126V65.3992C130.636 65.4747 130.697 65.5358 130.773 65.5358H131.6C131.676 65.5358 131.737 65.4747 131.737 65.3992V65.0126C131.737 64.9372 131.676 64.876 131.6 64.876Z" fill="#E6E6E6"/>
<path d="M116.844 66.1957H108.307C108.232 66.1957 108.17 66.2569 108.17 66.3324V66.7189C108.17 66.7944 108.232 66.8556 108.307 66.8556H116.844C116.919 66.8556 116.981 66.7944 116.981 66.7189V66.3324C116.981 66.2569 116.919 66.1957 116.844 66.1957Z" fill="#E6E6E6"/>
<path d="M141.257 13.05H85.0215C84.898 13.0473 84.8001 12.9451 84.8028 12.8218C84.8054 12.7023 84.9018 12.606 85.0215 12.6034H141.257C141.381 12.6061 141.479 12.7083 141.476 12.8316C141.473 12.9511 141.377 13.0474 141.257 13.05Z" fill="#CACACA"/>
<path d="M88.8497 11.4631C89.5735 11.4631 90.1603 10.864 90.1603 10.1251C90.1603 9.38612 89.5735 8.78708 88.8497 8.78708C88.1258 8.78708 87.5391 9.38612 87.5391 10.1251C87.5391 10.864 88.1258 11.4631 88.8497 11.4631Z" fill="#CCCCCC"/>
<path d="M93.377 11.4631C94.1008 11.4631 94.6876 10.864 94.6876 10.1251C94.6876 9.38612 94.1008 8.78708 93.377 8.78708C92.6532 8.78708 92.0664 9.38612 92.0664 10.1251C92.0664 10.864 92.6532 11.4631 93.377 11.4631Z" fill="#CCCCCC"/>
<path d="M97.9048 11.4631C98.6287 11.4631 99.2154 10.864 99.2154 10.1251C99.2154 9.38612 98.6287 8.78708 97.9048 8.78708C97.181 8.78708 96.5942 9.38612 96.5942 10.1251C96.5942 10.864 97.181 11.4631 97.9048 11.4631Z" fill="#CCCCCC"/>
<path d="M113.082 16.4363L112.9 15.9064L136.128 3.85362L136.31 4.38358L113.082 16.4363Z" fill="#3F3D56"/>
<path d="M183.166 38.7608L182.984 38.2308L196.961 26.2391L197.142 26.7688L183.166 38.7608Z" fill="#3F3D56"/>
<path d="M156.312 41.5522L133.084 29.4995L133.266 28.9695L156.494 41.0223L156.312 41.5522Z" fill="#3F3D56"/>
<path d="M168.203 33.1652L154.585 10.8397L155.016 10.4805L168.633 32.8061L168.203 33.1652Z" fill="#3F3D56"/>
<path d="M178.83 4.07451L165.568 4.01348V3.45357L178.83 3.5146V4.07451Z" fill="#3F3D56"/>
<path d="M202.854 7.54753H187.996C185.983 7.54753 184.352 5.91809 184.352 3.90807C184.352 1.89806 185.983 0.268616 187.996 0.268616H202.854C204.866 0.268616 206.498 1.89806 206.498 3.90807C206.498 5.91809 204.866 7.54753 202.854 7.54753Z" fill="#6C63FF"/>
<path d="M221.356 28.8244H206.498C204.485 28.8244 202.854 27.1949 202.854 25.1849C202.854 23.1749 204.485 21.5454 206.498 21.5454H221.356C223.368 21.5454 225 23.1749 225 25.1849C225 27.1949 223.368 28.8244 221.356 28.8244Z" fill="#6C63FF"/>
<path d="M197.332 43.8283L184.07 43.7675V43.2076L197.332 43.2684V43.8283Z" fill="#3F3D56"/>
<path d="M221.356 47.3016H206.498C204.485 47.3016 202.854 45.6721 202.854 43.6621C202.854 41.6521 204.485 40.0227 206.498 40.0227H221.356C223.368 40.0227 225 41.6521 225 43.6621C225 45.6721 223.368 47.3016 221.356 47.3016Z" fill="#6C63FF"/>
<path d="M177.903 44.7933H163.046C161.033 44.7933 159.401 43.1639 159.401 41.1538C159.401 39.1438 161.033 37.5144 163.046 37.5144H177.903C179.916 37.5144 181.548 39.1438 181.548 41.1538C181.548 43.1639 179.916 44.7933 177.903 44.7933Z" fill="#6C63FF"/>
<path d="M157.719 7.27891H142.862C140.849 7.27891 139.217 5.64947 139.217 3.63946C139.217 1.62944 140.849 0 142.862 0H157.719C159.732 0 161.364 1.62944 161.364 3.63946C161.364 5.64947 159.732 7.27891 157.719 7.27891Z" fill="#6C63FF"/>
<path d="M86.7029 69.76H69.8828C68.6442 69.76 67.6401 70.7628 67.6401 71.9997C67.6401 73.2366 68.6442 74.2394 69.8828 74.2394H76.0502V91.5968H80.5355V74.2394H86.7029C87.9415 74.2394 88.9456 73.2366 88.9456 71.9997C88.9456 70.7628 87.9415 69.76 86.7029 69.76Z" fill="#3F3D56"/>
<path d="M97.8046 101.21H52.8156C43.8004 101.177 36.1731 94.5465 34.8976 85.634L33.3051 79.7841C30.0089 67.6618 24.9882 56.0745 18.3965 45.3763C15.3836 40.49 13.8329 35.7601 17.3551 31.2062C17.3851 31.1674 17.4146 31.1292 17.4436 31.0915C20.2685 27.4195 34.3294 26.6246 38.9131 26.47C39.0942 26.4638 39.276 26.4608 39.4585 26.4608H67.4412C67.6238 26.4608 67.8055 26.4639 67.9864 26.47C73.0207 26.6165 77.5681 29.5111 79.8267 34.0067C82.2367 38.5966 81.9292 44.1371 79.0261 48.4329C69.1966 63.1785 66.1871 72.4245 69.2682 78.4122C72.2485 84.2038 81.3843 87.165 98.0189 87.7307C102.489 87.8827 104.541 91.3589 104.555 94.5243C104.569 97.6079 102.597 101.013 98.2329 101.201C98.0911 101.207 97.9483 101.21 97.8046 101.21Z" fill="#3F3D56"/>
<path d="M60.458 141.104H77.2781C78.5167 141.104 79.5208 140.101 79.5208 138.864C79.5208 137.627 78.5167 136.624 77.2781 136.624H71.1107V98.83H66.6254V136.624H60.458C59.2194 136.624 58.2153 137.627 58.2153 138.864C58.2153 140.101 59.2194 141.104 60.458 141.104Z" fill="#3F3D56"/>
<path d="M75.6816 125.867L78.5792 127.439L86.2497 116.848L81.9729 114.528L75.6816 125.867Z" fill="#A0616A"/>
<path d="M77.0768 122.093L82.337 123.738L81.4997 125.939L85.1068 131.167C85.5683 131.835 85.3996 132.751 84.7299 133.212C84.3315 133.486 83.8236 133.547 83.3712 133.376L77.2476 131.052L77.0203 128.475L75.78 130.496L73.4712 129.62L77.0768 122.093V122.093Z" fill="#2F2E41"/>
<path d="M83.0031 19.0583C83.2626 20.8353 82.0306 22.4859 80.2512 22.7451C80.0615 22.7728 79.8697 22.7836 79.678 22.7775L68.5063 46.5167L65.0024 41.6371L76.5029 19.1897C76.6796 17.3929 78.2814 16.0793 80.0807 16.2557C81.5863 16.4034 82.7944 17.562 83.0031 19.0583V19.0583Z" fill="#A0616A"/>
<path d="M45.9286 51.3165C45.9286 51.3165 45.6293 55.4637 50.3257 56.2771C55.0222 57.0905 67.5773 49.1619 69.6392 47.9445C71.7012 46.7271 75.5436 31.41 75.5436 31.41L72.2019 25.7656C68.0761 30.9775 64.8362 35.7836 64.6394 39.1952L45.9286 51.3165H45.9286Z" fill="#6C63FF"/>
<path d="M51.3506 65.6018L52.3649 69.9541C52.3649 69.9541 52.3749 73.9672 53.0866 74.7072C53.7933 75.4437 69.3335 73.9649 69.3335 73.9649C69.3335 73.9649 67.6858 67.498 67.7077 62.6047L51.3506 65.6018Z" fill="#A0616A"/>
<path d="M84.1795 121.272L78.5728 118.193C78.4662 110.907 82.8544 101.047 88.0592 90.7198C76.4189 92.7191 65.4373 93.3595 55.9387 90.941C52.694 90.0853 50.7385 86.7864 51.5479 83.534C51.5848 83.3805 51.6276 83.2286 51.6761 83.0784C52.8129 79.6147 50.2639 77.4434 52.6084 73.6338C58.7748 71.5306 64.6326 70.9367 69.9892 72.7939L73.3455 80.2047L89.9812 78.0549C93.3451 77.6533 96.3981 80.051 96.8003 83.4104C96.8021 83.4257 96.8039 83.441 96.8056 83.4563C96.828 83.6367 96.8426 83.8178 96.8494 83.9996C93.4856 99.748 89.7139 113.918 84.1795 121.272Z" fill="#2F2E41"/>
<path d="M49.0923 38.0475L55.5011 37.6696C56.0551 37.6369 56.5689 37.9588 56.7805 38.4712L58.5916 42.8558L66.1186 49.0686C66.1186 49.0686 69.0988 52.8559 69.1057 57.7471C69.1126 62.6383 70.1631 73.9594 70.1631 73.9594C70.1631 73.9594 65.8137 67.8455 63.1291 69.4716C62.6724 69.7483 62.5117 70.314 62.0333 70.5999C61.7947 70.7425 61.2434 70.6039 61.0024 70.7468C57.3032 72.9398 53.4452 75.0823 53.0847 74.7067C52.377 73.9691 51.5184 70.2 51.5184 70.2L45.6521 48.6748C45.0081 46.3816 45.4245 43.921 46.7872 41.9665C47.1971 41.3903 47.6265 40.9616 48.0255 40.8907C48.9215 40.7001 48.4449 38.6947 49.0923 38.0475Z" fill="#6C63FF"/>
<path d="M103.609 134.985L106.314 133.106L100.185 121.56L96.1929 124.332L103.609 134.985Z" fill="#A0616A"/>
<path d="M104.017 127.237L99.7778 131.022C93.0363 123.52 87.94 112.999 83.6211 101.051C72.3052 97.7417 63.7714 92.404 56.3216 86.0662C53.7943 83.9306 51.8997 81.187 54.0552 78.5854C54.1559 78.4638 54.2611 78.3462 54.3708 78.2326C56.9158 75.6206 63.3697 76.1184 67.1498 73.7254L75.5938 82.739L75.0627 85.1555L90.9233 90.5209C94.1161 91.6383 95.7973 95.1291 94.6783 98.3176C94.6729 98.3333 94.6673 98.3489 94.6617 98.3645C94.6023 98.5363 94.5356 98.7053 94.4617 98.8716L104.017 127.237V127.237Z" fill="#2F2E41"/>
<path d="M102.032 134.223L106.362 130.818L107.708 132.751L114.065 132.731C114.878 132.729 115.54 133.385 115.542 134.197C115.544 134.68 115.308 135.134 114.91 135.409L109.532 139.143L107.273 137.875L108.242 140.038L106.214 141.446L102.032 134.223Z" fill="#2F2E41"/>
<path d="M58.5558 92.2946C56.9006 91.593 56.1283 89.6842 56.8308 88.0311C56.9057 87.8549 56.9961 87.6856 57.1008 87.5252L42.5923 65.66L48.5876 65.2049L61.8201 86.6795C63.2658 87.7637 63.5576 89.813 62.472 91.2567C61.5635 92.4648 59.9445 92.8939 58.5558 92.2946V92.2946Z" fill="#A0616A"/>
<path d="M50.2138 43.9005C50.2138 43.9005 46.8208 41.4906 43.6851 45.0757C40.5494 48.6609 40.8113 63.4932 40.7818 65.8852C40.7726 66.6342 41.8556 68.2504 43.3477 70.1172C44.0176 70.9553 44.77 71.8439 45.5429 72.7273C45.9903 73.2384 45.6048 74.3024 46.054 74.7993C46.5007 75.2934 47.782 75.2205 48.2069 75.6791C50.2237 77.8559 51.8621 79.5129 51.8621 79.5129L58.4276 79.5935C58.5017 74.7194 55.1593 70.3687 50.8654 66.1638L50.2138 43.9005Z" fill="#6C63FF"/>
<path d="M43.5959 22.6788C42.9743 23.1268 42.3204 23.5884 41.5619 23.6994C40.8035 23.8105 39.9155 23.4443 39.7056 22.708C39.4489 21.8077 40.263 20.988 40.9946 20.4029L43.3146 18.5476C43.7395 18.1714 44.2191 17.8617 44.7371 17.6292C45.2641 17.3976 45.8679 17.4178 46.3782 17.684C46.8853 18.0259 47.1785 18.6059 47.1528 19.2163C47.1197 19.818 46.9209 20.3989 46.5783 20.8949C45.708 22.2495 44.3217 23.1907 42.7402 23.5004" fill="#2F2E41"/>
<path d="M61.1922 70.8799H44.3721C43.1335 70.8799 42.1294 71.8826 42.1294 73.1195C42.1294 74.3565 43.1335 75.3592 44.3721 75.3592H50.5394V92.7166H55.0248V75.3592H61.1922C62.4308 75.3592 63.4349 74.3565 63.4349 73.1195C63.4349 71.8826 62.4308 70.8799 61.1922 70.8799Z" fill="#3F3D56"/>
<path d="M44.6266 17.9799C44.6943 16.3007 42.9025 14.971 41.2234 15.0761C39.5444 15.1812 38.101 16.3607 37.1488 17.7463C36.1969 19.1307 35.6251 20.7343 34.8751 22.2375C34.1252 23.7406 33.1266 25.2124 31.6364 25.9913C30.1465 26.7691 28.0725 26.6304 27.0427 25.3024C26.3933 26.2859 26.252 27.5196 26.6624 28.6241C27.084 29.7144 27.8702 30.6255 28.8878 31.2028C29.2928 31.4427 29.7254 31.6327 30.1762 31.7686C30.3621 31.2676 30.6236 30.7979 30.9517 30.3758C30.8035 30.8755 30.7469 31.3978 30.7847 31.9175C31.4795 32.0505 32.1942 32.0393 32.8845 31.8845C34.2588 31.5774 35.4079 30.6416 35.9855 29.3589C36.6152 27.8701 36.2945 26.1727 36.4292 24.5623C36.5627 22.9516 37.5346 21.1129 39.1529 21.0866C40.3853 21.0663 40.2222 21.1678 41.0031 22.1201" fill="#2F2E41"/>
<path d="M55.8178 26.8037C55.8178 30.8238 52.5545 34.0826 48.5291 34.0826C44.5036 34.0826 40.6797 29.424 40.6797 25.4039C40.6797 21.3839 44.5036 19.5248 48.5291 19.5248C52.5545 19.5248 55.8178 22.7837 55.8178 26.8037Z" fill="#2F2E41"/>
<path d="M52.1211 35.5266C55.8835 34.7578 58.3095 31.0885 57.5396 27.3311C56.7698 23.5737 53.0956 21.151 49.3331 21.9198C45.5706 22.6887 43.1446 26.3579 43.9145 30.1153C44.6844 33.8728 48.3586 36.2955 52.1211 35.5266Z" fill="#A0616A"/>
<path d="M59.462 27.6436C57.4035 28.2049 55.3251 28.7933 54.5225 27.6436C54.3665 26.8813 54.0709 26.1543 53.6507 25.4991C53.5716 26.2328 53.3992 26.9535 53.1376 27.6436C50.537 28.2081 48.1063 28.3431 46.0059 27.6436C45.7171 28.1653 45.5495 28.7451 45.5153 29.3402C45.4115 29.275 45.3028 29.2179 45.1901 29.1694C45.0551 29.0931 44.8936 29.0788 44.7472 29.1302C44.646 29.1912 44.5787 29.2956 44.565 29.413C44.5511 29.5297 44.5567 29.648 44.5818 29.7629C44.6112 30.1633 44.731 30.5519 44.9322 30.8995C45.0932 31.1416 45.3484 31.3051 45.6359 31.3503C45.9274 32.988 48.2486 35.2025 48.2486 35.2025C41.2402 35.4824 41.2402 30.7344 41.2402 26.2438L42.0812 24.5641H44.8846V20.9246H52.734C56.4494 20.9256 59.461 23.9332 59.462 27.6436V27.6436Z" fill="#2F2E41"/>
<path d="M123.332 141.914L0.335532 142C0.151186 142.001 0.000966187 141.852 4.63831e-06 141.668C-0.000956911 141.484 0.147705 141.334 0.33205 141.333H0.335532L123.332 141.247C123.517 141.248 123.666 141.398 123.665 141.582C123.665 141.765 123.516 141.913 123.332 141.914Z" fill="#CACACA"/>
<path d="M205.471 141.914L141.905 142C141.721 142.001 141.57 141.852 141.569 141.668C141.568 141.484 141.717 141.334 141.901 141.333H141.905L205.471 141.247C205.655 141.247 205.805 141.395 205.806 141.58C205.806 141.764 205.657 141.913 205.473 141.914H205.471Z" fill="#CACACA"/>
<path d="M126.144 41.4338H102.048C99.9551 41.4315 98.2592 39.7378 98.2568 37.6478V21.7033C98.2592 19.6133 99.9551 17.9197 102.048 17.9173H126.144C128.236 17.9197 129.932 19.6133 129.935 21.7033V37.6478C129.932 39.7378 128.236 41.4315 126.144 41.4338ZM102.048 18.4772C100.265 18.4793 98.8195 19.9225 98.8175 21.7033V37.6478C98.8195 39.4287 100.265 40.8719 102.048 40.8739H126.144C127.927 40.8719 129.372 39.4287 129.374 37.6478V21.7033C129.372 19.9224 127.927 18.4793 126.144 18.4772L102.048 18.4772Z" fill="#E6E6E6"/>
<path d="M109.187 22.9566H102.742V23.5165H109.187V22.9566Z" fill="#E6E6E6"/>
<path d="M117.039 25.1962H102.742V25.7561H117.039V25.1962Z" fill="#E6E6E6"/>
<path d="M117.039 27.1559H102.742V27.7159H117.039V27.1559Z" fill="#E6E6E6"/>
<path d="M120.964 29.1156H102.742V29.6756H120.964V29.1156Z" fill="#E6E6E6"/>
<path d="M112.274 31.0753H102.742V31.6353H112.274V31.0753Z" fill="#E6E6E6"/>
<path d="M120.123 33.0351H102.742V33.595H120.123V33.0351Z" fill="#E6E6E6"/>
<path d="M105.826 34.9948H102.742V35.5547H105.826V34.9948Z" fill="#E6E6E6"/>
<path d="M102.532 10.9067C102.505 10.9067 102.478 10.8962 102.457 10.8752L101.859 10.2646C101.819 10.2239 101.819 10.1589 101.859 10.1182L102.457 9.5076C102.498 9.4663 102.564 9.46564 102.605 9.50597C102.647 9.5464 102.648 9.6127 102.607 9.654L102.081 10.1914L102.607 10.7288C102.648 10.7701 102.647 10.8364 102.605 10.8769C102.585 10.8968 102.559 10.9067 102.532 10.9067V10.9067Z" fill="#CCCCCC"/>
<path d="M103.537 10.9067C103.511 10.9067 103.485 10.8968 103.464 10.8769C103.423 10.8364 103.422 10.7702 103.463 10.7288L103.989 10.1914L103.463 9.654C103.422 9.6127 103.423 9.5464 103.464 9.50597C103.505 9.46548 103.572 9.46625 103.612 9.5076L104.21 10.1182C104.25 10.1589 104.25 10.2239 104.21 10.2646L103.612 10.8752C103.592 10.8962 103.565 10.9067 103.537 10.9067V10.9067Z" fill="#CCCCCC"/>
<path d="M134.829 9.39117H133.717C133.59 9.39117 133.487 9.49377 133.487 9.62044V10.7322C133.487 10.8589 133.59 10.9615 133.717 10.9615H134.829C134.956 10.9615 135.06 10.8589 135.06 10.7322V9.62044C135.06 9.49377 134.956 9.39117 134.829 9.39117Z" fill="#CCCCCC"/>
<path d="M132.104 9.39117H130.991C130.864 9.39117 130.762 9.49377 130.762 9.62044V10.7322C130.762 10.8589 130.864 10.9615 130.991 10.9615H132.104C132.23 10.9615 132.334 10.8589 132.334 10.7322V9.62044C132.334 9.49377 132.23 9.39117 132.104 9.39117Z" fill="#CCCCCC"/>
<path d="M137.397 9.44351H136.285C136.158 9.44351 136.056 9.5461 136.056 9.67278V10.7845C136.056 10.9112 136.158 11.0138 136.285 11.0138H137.397C137.524 11.0138 137.628 10.9112 137.628 10.7845V9.67278C137.628 9.5461 137.524 9.44351 137.397 9.44351Z" fill="#CCCCCC"/>
<path d="M120.633 9.86644H111.743C111.588 9.86644 111.463 9.99207 111.463 10.146C111.463 10.2998 111.588 10.4255 111.743 10.4255H120.633C120.787 10.4255 120.913 10.2998 120.913 10.146C120.913 9.99207 120.787 9.86644 120.633 9.86644Z" fill="#CCCCCC"/>
</g>
<defs>
<clipPath id="clip0_237_8421">
<rect width="225" height="142" fill="white"/>
</clipPath>
</defs>
</svg>
