<svg width="225" height="142" fill="none" xmlns="http://www.w3.org/2000/svg"><g clip-path="url(#a)"><path d="m198.129 129.864.219-4.921a15.934 15.934 0 0 1 7.422-1.876c-3.565 2.911-3.119 8.521-5.536 12.436a9.575 9.575 0 0 1-7.019 4.417l-2.983 1.824a16.003 16.003 0 0 1 3.38-12.98 15.517 15.517 0 0 1 2.848-2.642 42.434 42.434 0 0 0 1.669 3.742Zm-150.807-5.392-7.2-2.177a24.204 24.204 0 0 1 .02-11.661c2.964 6.358 11.435 7.813 16.317 12.855a14.564 14.564 0 0 1 3.893 12.023l1.576 5.089a24.468 24.468 0 0 1-17.935-9.878 23.583 23.583 0 0 1-2.837-5.197c3.053-.346 6.166-1.054 6.166-1.054Z" fill="#F2F2F2"/><path d="M173.183 140.939a.557.557 0 0 1-.56.56h-2.254a.558.558 0 0 1-.561-.556V72.87c0-1.5-.505-2.718-1.124-2.72H28.379c-.622.002-1.124 1.22-1.127 2.72v67.652a.562.562 0 0 1-.507.557c-.454.045-.909.084-1.36.121-.011 0-.022.003-.034.003-.246.022-.493.039-.74.058h-.002c-.13-.232-.253-.47-.379-.708a.584.584 0 0 1-.061-.26V69.34c0-.414.016-.831.044-1.243.04-.565.11-1.128.21-1.685.474-2.601 1.545-4.362 2.762-4.368h142.69c.178.002.353.039.516.11.239.105.455.256.637.445.245.255.456.542.625.854.6 1.055 1.029 2.628 1.18 4.46 0 .016.003.033.003.05.039.453.059.915.056 1.377l.039 6 .025 3.577.076 11.227.028 3.986.123 46.809Z" fill="#E6E6E6"/><path d="M121.111 41.29h-14.298a.762.762 0 0 0-.762.763V64.61h15.824V42.053a.763.763 0 0 0-.763-.763h-.001Zm-7.101 12.817a1.694 1.694 0 0 1-1.688-1.686v-2.602a1.687 1.687 0 0 1 3.376 0v2.602a1.694 1.694 0 0 1-1.688 1.686Z" fill="#CCC"/><path d="M106.002 63.889v2.176c0 .235.191.425.426.425h15.07a.428.428 0 0 0 .426-.425v-2.176h-15.922Z" fill="#3F3D56"/><path d="M144.789 6.087H83.668a1.983 1.983 0 0 0-1.982 1.978v41.19a1.982 1.982 0 0 0 1.981 1.978h61.122a1.982 1.982 0 0 0 1.981-1.978V8.065a1.983 1.983 0 0 0-1.981-1.978Z" fill="#E6E6E6"/><path d="M144.278 7.516h-60.1a1.06 1.06 0 0 0-1.06 1.06v40.168a1.06 1.06 0 0 0 1.06 1.058h60.1a1.06 1.06 0 0 0 1.06-1.058V8.576a1.06 1.06 0 0 0-1.06-1.06Z" fill="#fff"/><path d="M132.572 67.248H96.815a.657.657 0 0 1-.643-.793l.555-2.631a.66.66 0 0 1 .643-.522h34.647a.66.66 0 0 1 .644.522l.555 2.631a.658.658 0 0 1-.644.793Z" fill="#CCC"/><path d="M98.588 63.776h-.827a.137.137 0 0 0-.137.137v.386c0 .076.061.137.137.137h.827a.137.137 0 0 0 .137-.137v-.386a.137.137 0 0 0-.137-.137Zm2.203 0h-.828a.137.137 0 0 0-.136.137v.386c0 .076.06.137.136.137h.828a.137.137 0 0 0 .137-.137v-.386a.137.137 0 0 0-.137-.137Zm2.203 0h-.828a.137.137 0 0 0-.137.137v.386c0 .076.062.137.137.137h.828a.137.137 0 0 0 .137-.137v-.386a.137.137 0 0 0-.137-.137Zm2.202 0h-.828a.137.137 0 0 0-.137.137v.386c0 .076.062.137.137.137h.828a.137.137 0 0 0 .137-.137v-.386a.137.137 0 0 0-.137-.137Zm2.202 0h-.827a.137.137 0 0 0-.137.137v.386c0 .076.061.137.137.137h.827a.137.137 0 0 0 .137-.137v-.386a.137.137 0 0 0-.137-.137Zm2.203 0h-.827a.137.137 0 0 0-.137.137v.386c0 .076.061.137.137.137h.827a.137.137 0 0 0 .137-.137v-.386a.137.137 0 0 0-.137-.137Zm2.203 0h-.828a.137.137 0 0 0-.137.137v.386c0 .076.062.137.137.137h.828a.137.137 0 0 0 .137-.137v-.386a.137.137 0 0 0-.137-.137Zm2.202 0h-.827a.137.137 0 0 0-.137.137v.386c0 .076.061.137.137.137h.827a.137.137 0 0 0 .137-.137v-.386a.137.137 0 0 0-.137-.137Zm2.203 0h-.828a.137.137 0 0 0-.137.137v.386c0 .076.061.137.137.137h.828a.136.136 0 0 0 .136-.137v-.386a.136.136 0 0 0-.136-.137Zm2.202 0h-.827a.137.137 0 0 0-.137.137v.386c0 .076.061.137.137.137h.827a.137.137 0 0 0 .137-.137v-.386a.137.137 0 0 0-.137-.137Zm2.203 0h-.828a.137.137 0 0 0-.137.137v.386c0 .076.062.137.137.137h.828a.137.137 0 0 0 .137-.137v-.386a.137.137 0 0 0-.137-.137Zm2.202 0h-.827a.137.137 0 0 0-.137.137v.386c0 .076.061.137.137.137h.827a.137.137 0 0 0 .137-.137v-.386a.137.137 0 0 0-.137-.137Zm2.203 0h-.828a.137.137 0 0 0-.137.137v.386c0 .076.061.137.137.137h.828a.136.136 0 0 0 .136-.137v-.386a.136.136 0 0 0-.136-.137Zm2.202 0h-.827a.137.137 0 0 0-.137.137v.386c0 .076.061.137.137.137h.827a.137.137 0 0 0 .137-.137v-.386a.137.137 0 0 0-.137-.137Zm2.203 0h-.828a.137.137 0 0 0-.137.137v.386c0 .076.062.137.137.137h.828a.137.137 0 0 0 .137-.137v-.386a.137.137 0 0 0-.137-.137Zm2.203 0h-.828a.137.137 0 0 0-.137.137v.386c0 .076.061.137.137.137h.828a.136.136 0 0 0 .136-.137v-.386a.136.136 0 0 0-.136-.137Zm-33.064 1.1h-.828a.137.137 0 0 0-.137.137v.386c0 .076.061.137.137.137h.828a.137.137 0 0 0 .136-.137v-.386a.137.137 0 0 0-.136-.137Zm2.202 0h-.827a.137.137 0 0 0-.137.137v.386c0 .076.061.137.137.137h.827a.137.137 0 0 0 .137-.137v-.386a.137.137 0 0 0-.137-.137Zm2.202 0h-.827a.137.137 0 0 0-.137.137v.386c0 .076.061.137.137.137h.827a.137.137 0 0 0 .137-.137v-.386a.137.137 0 0 0-.137-.137Zm2.203 0h-.828a.136.136 0 0 0-.136.137v.386c0 .076.061.137.136.137h.828a.137.137 0 0 0 .137-.137v-.386a.137.137 0 0 0-.137-.137Zm2.203 0h-.828a.137.137 0 0 0-.137.137v.386c0 .076.061.137.137.137h.828a.136.136 0 0 0 .136-.137v-.386a.136.136 0 0 0-.136-.137Zm2.202 0h-.827a.137.137 0 0 0-.137.137v.386c0 .076.061.137.137.137h.827a.137.137 0 0 0 .137-.137v-.386a.137.137 0 0 0-.137-.137Zm2.203 0h-.828a.137.137 0 0 0-.137.137v.386c0 .076.062.137.137.137h.828a.137.137 0 0 0 .137-.137v-.386a.137.137 0 0 0-.137-.137Zm2.202 0h-.828a.136.136 0 0 0-.136.137v.386c0 .076.061.137.136.137h.828a.137.137 0 0 0 .137-.137v-.386a.137.137 0 0 0-.137-.137Zm2.203 0h-.828a.137.137 0 0 0-.137.137v.386c0 .076.062.137.137.137h.828a.137.137 0 0 0 .137-.137v-.386a.137.137 0 0 0-.137-.137Zm2.202 0h-.827a.137.137 0 0 0-.137.137v.386c0 .076.061.137.137.137h.827a.137.137 0 0 0 .137-.137v-.386a.137.137 0 0 0-.137-.137Zm2.203 0h-.828a.136.136 0 0 0-.136.137v.386c0 .076.061.137.136.137h.828a.137.137 0 0 0 .137-.137v-.386a.137.137 0 0 0-.137-.137Zm2.202 0h-.827a.137.137 0 0 0-.137.137v.386c0 .076.061.137.137.137h.827a.137.137 0 0 0 .137-.137v-.386a.137.137 0 0 0-.137-.137Zm2.203 0h-.828a.137.137 0 0 0-.137.137v.386c0 .076.062.137.137.137h.828a.137.137 0 0 0 .137-.137v-.386a.137.137 0 0 0-.137-.137Zm2.202 0h-.827a.137.137 0 0 0-.137.137v.386c0 .076.061.137.137.137h.827a.137.137 0 0 0 .137-.137v-.386a.137.137 0 0 0-.137-.137Zm2.203 0h-.828a.136.136 0 0 0-.136.137v.386c0 .076.061.137.136.137h.828a.137.137 0 0 0 .137-.137v-.386a.137.137 0 0 0-.137-.137Zm2.202 0h-.827a.137.137 0 0 0-.137.137v.386c0 .076.061.137.137.137h.827a.137.137 0 0 0 .137-.137v-.386a.137.137 0 0 0-.137-.137Zm-14.756 1.32h-8.537a.137.137 0 0 0-.137.136v.387c0 .075.062.137.137.137h8.537a.137.137 0 0 0 .137-.137v-.387a.137.137 0 0 0-.137-.136Z" fill="#E6E6E6"/><path d="M141.257 13.05H85.021a.224.224 0 0 1 0-.447h56.236a.223.223 0 0 1 0 .447Z" fill="#CACACA"/><path d="M88.85 11.463c.724 0 1.31-.599 1.31-1.338 0-.739-.587-1.338-1.31-1.338-.724 0-1.31.6-1.31 1.338 0 .739.586 1.338 1.31 1.338Zm4.527 0c.724 0 1.31-.599 1.31-1.338 0-.739-.586-1.338-1.31-1.338-.724 0-1.31.6-1.31 1.338 0 .739.586 1.338 1.31 1.338Zm4.528 0c.724 0 1.31-.599 1.31-1.338 0-.739-.586-1.338-1.31-1.338-.724 0-1.31.6-1.31 1.338 0 .739.586 1.338 1.31 1.338Z" fill="#CCC"/><path d="m113.082 16.436-.182-.53 23.228-12.052.182.53-23.228 12.052Zm70.084 22.324-.182-.53 13.977-11.99.181.529-13.976 11.992Zm-26.854 2.792L133.084 29.5l.182-.53 23.228 12.052-.182.53Zm11.891-8.387L154.585 10.84l.431-.36 13.617 22.326-.43.36Zm10.627-29.09-13.262-.062v-.56l13.262.062v.56Z" fill="#3F3D56"/><path d="M202.854 7.548h-14.858a3.641 3.641 0 0 1-3.644-3.64c0-2.01 1.631-3.64 3.644-3.64h14.858a3.642 3.642 0 0 1 3.644 3.64c0 2.01-1.632 3.64-3.644 3.64Zm18.502 21.276h-14.858a3.641 3.641 0 0 1-3.644-3.64 3.641 3.641 0 0 1 3.644-3.639h14.858a3.642 3.642 0 0 1 3.644 3.64c0 2.01-1.632 3.64-3.644 3.64Z" fill="#6C63FF"/><path d="m197.332 43.828-13.262-.06v-.56l13.262.06v.56Z" fill="#3F3D56"/><path d="M221.356 47.302h-14.858a3.641 3.641 0 0 1-3.644-3.64c0-2.01 1.631-3.64 3.644-3.64h14.858a3.642 3.642 0 0 1 3.644 3.64c0 2.01-1.632 3.64-3.644 3.64Zm-43.453-2.509h-14.857a3.642 3.642 0 0 1-3.645-3.64 3.642 3.642 0 0 1 3.645-3.639h14.857a3.642 3.642 0 0 1 3.645 3.64c0 2.01-1.632 3.64-3.645 3.64ZM157.719 7.279h-14.857a3.642 3.642 0 0 1-3.645-3.64A3.642 3.642 0 0 1 142.862 0h14.857a3.642 3.642 0 0 1 3.645 3.64 3.642 3.642 0 0 1-3.645 3.639Z" fill="#6C63FF"/><path d="M86.703 69.76h-16.82A2.241 2.241 0 0 0 67.64 72a2.241 2.241 0 0 0 2.243 2.24h6.167v17.357h4.486V74.239h6.167A2.241 2.241 0 0 0 88.946 72a2.241 2.241 0 0 0-2.243-2.239Z" fill="#3F3D56"/><path d="M97.805 101.21h-44.99c-9.015-.033-16.642-6.663-17.917-15.576l-1.593-5.85a131.235 131.235 0 0 0-14.909-34.408c-3.012-4.886-4.563-9.616-1.04-14.17l.088-.114c2.825-3.672 16.885-4.467 21.47-4.622.18-.006.362-.01.544-.01h27.983c.183 0 .364.004.545.01a13.695 13.695 0 0 1 11.84 7.537 14.075 14.075 0 0 1-.8 14.426c-9.83 14.745-12.839 23.991-9.758 29.98 2.98 5.79 12.116 8.752 28.75 9.318 4.471.152 6.523 3.628 6.537 6.793.014 3.084-1.958 6.489-6.322 6.677a10.15 10.15 0 0 1-.428.009Z" fill="#3F3D56"/><path d="M60.458 141.104h16.82a2.241 2.241 0 0 0 2.243-2.24 2.241 2.241 0 0 0-2.243-2.24h-6.167V98.83h-4.486v37.794h-6.167a2.241 2.241 0 0 0-2.243 2.24 2.241 2.241 0 0 0 2.243 2.24Z" fill="#3F3D56"/><path d="m75.682 125.867 2.897 1.572 7.67-10.591-4.276-2.32-6.291 11.339Z" fill="#A0616A"/><path d="m77.077 122.093 5.26 1.645-.837 2.201 3.607 5.228a1.469 1.469 0 0 1-.377 2.045 1.477 1.477 0 0 1-1.359.164l-6.123-2.324-.228-2.577-1.24 2.021-2.309-.876 3.606-7.527Z" fill="#2F2E41"/><path d="M83.003 19.058a3.252 3.252 0 0 1-3.325 3.72L68.506 46.517l-3.504-4.88 11.5-22.447a3.272 3.272 0 0 1 3.579-2.934 3.272 3.272 0 0 1 2.922 2.802Z" fill="#A0616A"/><path d="M45.929 51.316s-.3 4.148 4.397 4.961c4.696.813 17.251-7.115 19.313-8.333 2.062-1.217 5.905-16.534 5.905-16.534l-3.342-5.644c-4.126 5.212-7.366 10.018-7.563 13.43l-18.71 12.12Z" fill="#6C63FF"/><path d="m51.35 65.602 1.015 4.352s.01 4.013.722 4.753c.706.737 16.246-.742 16.246-.742s-1.647-6.467-1.625-11.36L51.35 65.602Z" fill="#A0616A"/><path d="m84.18 121.272-5.607-3.079c-.107-7.286 4.281-17.146 9.486-27.473-11.64 2-22.622 2.64-32.12.221a6.13 6.13 0 0 1-4.391-7.407 6.56 6.56 0 0 1 .128-.456c1.137-3.463-1.412-5.635.932-9.444 6.167-2.103 12.025-2.697 17.381-.84l3.356 7.41 16.636-2.15a6.133 6.133 0 0 1 6.82 5.356l.005.046c.022.18.037.362.043.544-3.363 15.748-7.135 29.918-12.67 37.272Z" fill="#2F2E41"/><path d="m49.092 38.047 6.41-.377a1.301 1.301 0 0 1 1.279.801l1.81 4.385 7.528 6.213s2.98 3.787 2.987 8.678c.007 4.891 1.057 16.212 1.057 16.212s-4.35-6.114-7.034-4.487c-.457.276-.617.842-1.096 1.128-.238.143-.79.004-1.03.147-3.7 2.193-7.558 4.335-7.918 3.96-.708-.738-1.567-4.507-1.567-4.507l-5.866-21.525a7.964 7.964 0 0 1 1.135-6.708c.41-.577.84-1.005 1.239-1.076.895-.19.419-2.196 1.066-2.843Z" fill="#6C63FF"/><path d="m103.609 134.985 2.705-1.879-6.129-11.546-3.992 2.772 7.416 10.653Z" fill="#A0616A"/><path d="m104.017 127.237-4.24 3.785c-6.74-7.502-11.837-18.023-16.156-29.971-11.316-3.31-19.85-8.647-27.3-14.985-2.527-2.135-4.421-4.879-2.266-7.48.1-.122.206-.24.316-.353 2.545-2.612 8.999-2.115 12.779-4.508l8.444 9.014-.531 2.416 15.86 5.366a6.116 6.116 0 0 1 3.755 7.797l-.016.047a6.39 6.39 0 0 1-.2.507l9.555 28.365Zm-1.985 6.986 4.33-3.405 1.346 1.933 6.357-.02a1.472 1.472 0 0 1 .845 2.678l-5.378 3.734-2.259-1.268.969 2.163-2.028 1.408-4.182-7.223Z" fill="#2F2E41"/><path d="M58.556 92.295a3.25 3.25 0 0 1-1.455-4.77L42.592 65.66l5.996-.455L61.82 86.68a3.266 3.266 0 0 1 .652 4.577 3.276 3.276 0 0 1-3.916 1.038Z" fill="#A0616A"/><path d="M50.214 43.9s-3.393-2.41-6.529 1.176c-3.136 3.585-2.874 18.417-2.903 20.81-.01.748 1.074 2.364 2.566 4.231a78.03 78.03 0 0 0 2.195 2.61c.447.511.062 1.575.511 2.072.447.494 1.728.421 2.153.88a181.633 181.633 0 0 0 3.655 3.834l6.566.08c.074-4.874-3.269-9.224-7.563-13.43l-.651-22.262Z" fill="#6C63FF"/><path d="M43.596 22.679c-.622.448-1.276.91-2.034 1.02-.758.111-1.646-.255-1.856-.991-.257-.9.557-1.72 1.289-2.305l2.32-1.855a5.613 5.613 0 0 1 1.422-.919 1.898 1.898 0 0 1 1.641.055c.507.342.8.922.775 1.532a3.27 3.27 0 0 1-.575 1.679A5.912 5.912 0 0 1 42.74 23.5" fill="#2F2E41"/><path d="M61.192 70.88h-16.82a2.241 2.241 0 0 0-2.243 2.24 2.241 2.241 0 0 0 2.243 2.24h6.167v17.357h4.486V75.359h6.167a2.241 2.241 0 0 0 2.243-2.24 2.241 2.241 0 0 0-2.243-2.24Z" fill="#3F3D56"/><path d="M44.627 17.98c.067-1.68-1.724-3.009-3.404-2.904-1.679.105-3.122 1.285-4.074 2.67s-1.524 2.988-2.274 4.492c-.75 1.503-1.748 2.974-3.239 3.753-1.49.778-3.563.64-4.593-.689a3.693 3.693 0 0 0-.38 3.322 5.065 5.065 0 0 0 2.225 2.579c.405.24.837.43 1.288.566a5.24 5.24 0 0 1 .776-1.393 4.32 4.32 0 0 0-.167 1.541c.695.133 1.41.122 2.1-.033a4.469 4.469 0 0 0 3.1-2.525c.63-1.489.31-3.186.444-4.797.134-1.61 1.106-3.45 2.724-3.475 1.232-.02 1.07.08 1.85 1.033" fill="#2F2E41"/><path d="M55.818 26.804c0 4.02-3.264 7.279-7.289 7.279s-7.85-4.659-7.85-8.68c0-4.02 3.825-5.878 7.85-5.878 4.025 0 7.289 3.259 7.289 7.279Z" fill="#2F2E41"/><path d="M52.121 35.527a6.945 6.945 0 0 0 5.419-8.196c-.77-3.757-4.444-6.18-8.207-5.411a6.945 6.945 0 0 0-5.419 8.195c.77 3.758 4.445 6.18 8.207 5.412Z" fill="#A0616A"/><path d="M59.462 27.644c-2.059.56-4.137 1.15-4.94 0a6.32 6.32 0 0 0-.871-2.145 8.673 8.673 0 0 1-.513 2.145c-2.601.564-5.032.7-7.132 0a3.974 3.974 0 0 0-.49 1.696 2.38 2.38 0 0 0-.326-.17.538.538 0 0 0-.443-.04.382.382 0 0 0-.182.283c-.014.117-.008.235.017.35.03.4.149.789.35 1.136.161.243.416.406.704.451.291 1.638 2.613 3.852 2.613 3.852-7.009.28-7.009-4.468-7.009-8.958l.841-1.68h2.804v-3.64h7.849a6.725 6.725 0 0 1 6.728 6.72Z" fill="#2F2E41"/><path d="M123.332 141.914.336 142a.334.334 0 0 1-.004-.667h.004l122.996-.086a.334.334 0 0 1 0 .667Zm82.139 0-63.566.086a.334.334 0 1 1-.004-.667h.004l63.566-.086c.184 0 .334.148.335.333a.334.334 0 0 1-.333.334h-.002Z" fill="#CACACA"/><path d="M126.144 41.434h-24.096a3.793 3.793 0 0 1-3.791-3.786V21.703a3.793 3.793 0 0 1 3.791-3.786h24.096a3.794 3.794 0 0 1 3.791 3.786v15.945a3.794 3.794 0 0 1-3.791 3.786Zm-24.096-22.957a3.232 3.232 0 0 0-3.23 3.226v15.945a3.232 3.232 0 0 0 3.23 3.226h24.096a3.232 3.232 0 0 0 3.23-3.226V21.703a3.232 3.232 0 0 0-3.23-3.226h-24.096Z" fill="#E6E6E6"/><path d="M109.187 22.957h-6.445v.56h6.445v-.56Zm7.852 2.239h-14.297v.56h14.297v-.56Zm0 1.96h-14.297v.56h14.297v-.56Zm3.925 1.96h-18.222v.56h18.222v-.56Zm-8.69 1.959h-9.532v.56h9.532v-.56Zm7.849 1.96h-17.381v.56h17.381v-.56Zm-14.297 1.96h-3.084v.56h3.084v-.56Z" fill="#E6E6E6"/><path d="M102.532 10.907a.106.106 0 0 1-.075-.032l-.598-.61a.104.104 0 0 1 0-.147l.598-.61a.105.105 0 0 1 .148-.002c.042.04.043.107.002.148l-.526.537.526.538a.104.104 0 0 1-.002.148.102.102 0 0 1-.073.03Zm1.005 0a.105.105 0 0 1-.074-.178l.526-.538-.526-.537a.104.104 0 1 1 .149-.146l.598.61c.04.04.04.106 0 .147l-.598.61a.102.102 0 0 1-.075.032Zm31.292-1.516h-1.112a.23.23 0 0 0-.23.23v1.111c0 .127.103.23.23.23h1.112a.23.23 0 0 0 .231-.23V9.62a.23.23 0 0 0-.231-.229Zm-2.725 0h-1.113a.229.229 0 0 0-.229.23v1.111c0 .127.102.23.229.23h1.113a.23.23 0 0 0 .23-.23V9.62a.23.23 0 0 0-.23-.229Zm5.293.053h-1.112a.229.229 0 0 0-.229.229v1.111c0 .127.102.23.229.23h1.112a.23.23 0 0 0 .231-.23V9.673a.23.23 0 0 0-.231-.23Zm-16.764.422h-8.89a.28.28 0 1 0 0 .56h8.89a.28.28 0 0 0 .28-.28.28.28 0 0 0-.28-.28Z" fill="#CCC"/></g><defs><clipPath id="a"><path fill="#fff" d="M0 0h225v142H0z"/></clipPath></defs></svg>