<svg width="30" height="82" viewBox="0 0 30 82" fill="none" xmlns="http://www.w3.org/2000/svg">
<g filter="url(#filter0_d_102_23754)">
<path d="M8 6L22 14V64L8 72V6Z" fill="white"/>
<path d="M17.2508 35.3284V34.3622C17.2508 34.2784 17.1545 34.2322 17.0895 34.2834L11.4545 38.6847C11.4067 38.7219 11.3679 38.7696 11.3413 38.8241C11.3146 38.8785 11.3008 38.9384 11.3008 38.999C11.3008 39.0597 11.3146 39.1195 11.3413 39.174C11.3679 39.2285 11.4067 39.2762 11.4545 39.3134L17.0895 43.7147C17.1558 43.7659 17.2508 43.7197 17.2508 43.6359V42.6697C17.2508 42.6084 17.222 42.5497 17.1745 42.5122L12.6745 38.9997L17.1745 35.4859C17.222 35.4484 17.2508 35.3897 17.2508 35.3284Z" fill="black" fill-opacity="0.45"/>
</g>
<defs>
<filter id="filter0_d_102_23754" x="0" y="0" width="30" height="82" filterUnits="userSpaceOnUse" color-interpolation-filters="sRGB">
<feFlood flood-opacity="0" result="BackgroundImageFix"/>
<feColorMatrix in="SourceAlpha" type="matrix" values="0 0 0 0 0 0 0 0 0 0 0 0 0 0 0 0 0 0 127 0" result="hardAlpha"/>
<feOffset dy="2"/>
<feGaussianBlur stdDeviation="4"/>
<feColorMatrix type="matrix" values="0 0 0 0 0 0 0 0 0 0 0 0 0 0 0 0 0 0 0.15 0"/>
<feBlend mode="normal" in2="BackgroundImageFix" result="effect1_dropShadow_102_23754"/>
<feBlend mode="normal" in="SourceGraphic" in2="effect1_dropShadow_102_23754" result="shape"/>
</filter>
</defs>
</svg>
