<svg width="30" height="82" fill="none" xmlns="http://www.w3.org/2000/svg"><g filter="url(#a)"><path d="M22 72 8 64V14l14-8v66Z" fill="#fff"/><path d="M12.75 42.672v.966a.1.1 0 0 0 .16.079l5.636-4.402a.398.398 0 0 0 0-.628l-5.635-4.402a.1.1 0 0 0-.162.08v.965c0 .062.029.12.076.158l4.5 3.512-4.5 3.514a.202.202 0 0 0-.076.158Z" fill="#000" fill-opacity=".45"/></g><defs><filter id="a" x="0" y="0" width="30" height="82" filterUnits="userSpaceOnUse" color-interpolation-filters="sRGB"><feFlood flood-opacity="0" result="BackgroundImageFix"/><feColorMatrix in="SourceAlpha" values="0 0 0 0 0 0 0 0 0 0 0 0 0 0 0 0 0 0 127 0" result="hardAlpha"/><feOffset dy="2"/><feGaussianBlur stdDeviation="4"/><feColorMatrix values="0 0 0 0 0 0 0 0 0 0 0 0 0 0 0 0 0 0 0.15 0"/><feBlend in2="BackgroundImageFix" result="effect1_dropShadow_113_24505"/><feBlend in="SourceGraphic" in2="effect1_dropShadow_113_24505" result="shape"/></filter></defs></svg>