<svg width="333" height="225" fill="none" xmlns="http://www.w3.org/2000/svg"><g clip-path="url(#a)"><path d="M329.76 0H104.433a3.24 3.24 0 0 0-3.237 3.237v81.447h54.531a5.576 5.576 0 0 1 5.569 5.568v68.907H329.76a3.235 3.235 0 0 0 2.531-1.225c.194-.236.35-.5.464-.783a3.16 3.16 0 0 0 .245-1.229V3.237A3.243 3.243 0 0 0 329.76 0Z" fill="#F2F2F2"/><path d="M332.535 12.974H101.656v.925h230.879v-.925ZM109.522 9.717a2.776 2.776 0 1 0 0-5.552 2.776 2.776 0 0 0 0 5.552Zm7.982 0a2.776 2.776 0 1 0 0-5.552 2.776 2.776 0 0 0 0 5.552Zm7.981 0a2.776 2.776 0 1 0 0-5.552 2.776 2.776 0 0 0 0 5.552Zm149.521 23.461H159.187a4.825 4.825 0 1 0 0 9.652h115.819a4.826 4.826 0 0 0 0-9.651Zm0 8.91H159.187a4.083 4.083 0 0 1 0-8.167h115.819a4.083 4.083 0 0 1 0 8.166Z" fill="#CCC"/><path d="M310.445 71.624H194.627a4.827 4.827 0 0 0-3.413 8.239 4.827 4.827 0 0 0 3.413 1.413h115.818a4.825 4.825 0 1 0 0-9.651Zm0 17.818H194.627a4.827 4.827 0 0 0-3.413 8.238 4.827 4.827 0 0 0 3.413 1.414h115.818a4.825 4.825 0 1 0 0-9.652Zm0 17.818H194.627a4.828 4.828 0 0 0-3.413 8.238 4.828 4.828 0 0 0 3.413 1.414h115.818a4.825 4.825 0 0 0 0-9.652Z" fill="#fff"/><path d="M175.91 63.644h-52.719a4.272 4.272 0 0 0-4.266 4.265v16.775h.743V67.909a3.527 3.527 0 0 1 3.523-3.523h52.719a3.525 3.525 0 0 1 3.523 3.523v52.719a3.526 3.526 0 0 1-3.523 3.522h-14.614v.743h14.614a4.27 4.27 0 0 0 4.265-4.265v-52.72a4.267 4.267 0 0 0-4.265-4.265Z" fill="#CCC"/><path d="M39.209 117.883c-.187.008-8.134-.543-8.336-.55l.713-7.126 4.527-.136 8.649-16.02c-1.2-2.287.277-5.322 2.821-5.79 5.128-1.166 6.89 6.902 1.746 7.975l-7.154 19.575a3.176 3.176 0 0 1-2.966 2.072Z" fill="#FFB8B8"/><path d="M18.258 121.554c-7.563.018-8.226-11.41-.647-12.216 20.04-1.21 17.505-6.244 19.027 8.603a1.67 1.67 0 0 1-1.483 1.839l-16.24 1.739a6.256 6.256 0 0 1-.657.035Z" fill="#486BC9"/><path d="M16.532 85.42c10.418 5.928 1.865 21.57-8.747 16-10.418-5.928-1.865-21.57 8.747-16Zm9.471 134.64h4.55l2.166-17.554-6.717.001.001 17.553Z" fill="#FFB8B8"/><path d="M25.028 224.286H39.33c-.055-7.38-9.622-5.254-14.304-5.526v5.526Z" fill="#2F2E41"/><path d="M6.329 220.06h4.55l2.166-17.554-6.717.001v17.553Z" fill="#FFB8B8"/><path d="M5.354 224.286h14.303c-.055-7.38-9.621-5.254-14.303-5.526v5.526Zm6.147-10.356c-1.1-.302-7.077.611-7.782-.587-2.463-24.69-1.916-48.852 3.552-62.129l18.802-1.151c4.204 7.674 13.868 58.604 8.039 61.7l-7.497.268a1.861 1.861 0 0 1-1.87-1.421l-6.272-35.679c-1.562-2.183-4.632 37.575-5.139 37.426a1.85 1.85 0 0 1-1.833 1.573Z" fill="#2F2E41"/><path d="M6.674 154.334c-9.492-9.931-3.437-36.556-3.744-35.989.026-.653 2.176-10.697 7.738-12.346 4.413-1.456 9.297 2.9 9.899 7.306l6.61 39.034a1.374 1.374 0 0 1-.376 1.18c.325 1.012-19.662.613-20.127.815Z" fill="#486BC9"/><path d="M9.755 92.406c.833-.527 1.244-1.431 1.73-2.254 2.555-1.457 5.494 2.067 8.197.752 7.644-7.339-.213-9.504-7.253-9.89-1.664-.206-3.079.384-4.336 1.359C-5.971 81.299.774 99.999 9.65 102.469c1.567.686 2.743-.703 1.36-1.966-1.911-2.005-4.28-6.04-1.255-8.097Z" fill="#2F2E41"/><path d="M155.727 83.941H54.015a6.319 6.319 0 0 0-6.31 6.31V218.69a6.32 6.32 0 0 0 6.31 6.311h101.712a6.319 6.319 0 0 0 6.311-6.311V90.252a6.322 6.322 0 0 0-6.311-6.31Zm5.568 134.748a5.572 5.572 0 0 1-5.568 5.569H54.015a5.575 5.575 0 0 1-5.569-5.569V90.252a5.575 5.575 0 0 1 5.569-5.568h101.712a5.573 5.573 0 0 1 5.568 5.568v128.437Z" fill="#3F3D56"/><path d="M25.357 137.988c-3.353.38-4.824-7.421-6.106-9.409l6.676-2.592 2.172 3.973 18.2.452c.109-.146.227-.285.354-.415 3.61-3.78 9.487 1.883 5.892 5.654a4.104 4.104 0 0 1-3.102 1.287 4.107 4.107 0 0 1-3.022-1.464c-.45.032-20.625 2.526-21.064 2.514Z" fill="#FFB8B8"/><path d="M20.412 134.264c-1.116 1.076-9.685-14.021-10.31-14.448-4.33-6.73 5.863-13.375 10.267-6.681l8.908 13.69a1.67 1.67 0 0 1-.489 2.311c-.406.19-8.09 5.537-8.376 5.128Z" fill="#486BC9"/><path d="M135.682 172.845H74.06c-6.294-.03-6.32-9.618 0-9.651h61.622c6.29.029 6.324 9.618 0 9.651Zm0 17.818H74.06c-6.294-.03-6.32-9.618 0-9.651h61.622c6.29.029 6.324 9.618 0 9.651Zm0 17.818H74.06c-6.294-.03-6.32-9.618 0-9.651h61.622c6.29.029 6.324 9.618 0 9.651Z" fill="#CCC"/><path d="M158.697 95.82a9.65 9.65 0 1 1 9.652-9.652 9.661 9.661 0 0 1-9.652 9.652Z" fill="#486BC9"/><path d="M163.151 85.797h-4.083v-4.64a.37.37 0 0 0-.371-.371.372.372 0 0 0-.371.371v4.64h-4.084a.37.37 0 0 0-.371.371.37.37 0 0 0 .371.372h4.084v4.64a.372.372 0 0 0 .742 0v-4.64h4.083a.372.372 0 0 0 .263-.634.372.372 0 0 0-.263-.109Z" fill="#fff"/><path d="M134.568 151.612H75.174a6.134 6.134 0 0 1-6.125-6.125v-33.26a6.134 6.134 0 0 1 6.125-6.125h59.394a6.133 6.133 0 0 1 6.125 6.125v33.26a6.133 6.133 0 0 1-6.125 6.125Z" fill="#486BC9"/></g><defs><clipPath id="a"><path fill="#fff" d="M0 0h333v225H0z"/></clipPath></defs></svg>