<svg width="193" height="140" fill="none" xmlns="http://www.w3.org/2000/svg"><g clip-path="url(#a)"><path d="M89.432 104.063H1.028A1.025 1.025 0 0 1 0 103.037V21.068a1.026 1.026 0 0 1 1.028-1.026h88.404a1.03 1.03 0 0 1 1.028 1.026v81.969a1.026 1.026 0 0 1-1.028 1.026Z" fill="#F1F1F1"/><path d="M103.368 116.321H14.963a1.026 1.026 0 0 1-1.027-1.026V33.326a1.027 1.027 0 0 1 1.027-1.026h88.405a1.027 1.027 0 0 1 1.028 1.026v81.969a1.028 1.028 0 0 1-1.028 1.026Z" fill="#fff"/><path d="M103.368 116.321H14.963a1.026 1.026 0 0 1-1.027-1.026V33.326a1.027 1.027 0 0 1 1.027-1.026h88.405a1.027 1.027 0 0 1 1.028 1.026v81.969a1.028 1.028 0 0 1-1.028 1.026ZM14.963 32.71a.619.619 0 0 0-.616.615v81.97a.615.615 0 0 0 .616.615h88.405a.616.616 0 0 0 .616-.615V33.326a.617.617 0 0 0-.616-.615l-88.405-.001Z" fill="#E6E6E6"/><path d="M86.91 69.046H31.421a1.03 1.03 0 0 1-1.027-1.026V43.709a1.026 1.026 0 0 1 1.027-1.026h55.49a1.03 1.03 0 0 1 1.027 1.026V68.02a1.027 1.027 0 0 1-1.028 1.025Z" fill="#6C63FF"/><path d="M40.027 53.078a.698.698 0 0 0-.493 1.188c.13.131.308.205.493.205h38.278a.698.698 0 0 0 0-1.393H40.027Zm0 4.179a.698.698 0 0 0-.493 1.189c.13.13.308.204.493.204h19.541a.698.698 0 0 0 .493-1.188.698.698 0 0 0-.493-.205H40.027Z" fill="#fff"/><path d="M23.28 78.008a.698.698 0 0 0-.492 1.188c.13.13.307.204.492.205h71.772a.698.698 0 0 0 .492-1.189.698.698 0 0 0-.492-.204H23.28Zm0 4.179a.698.698 0 0 0-.492 1.189c.13.13.307.204.492.204h53.035a.698.698 0 0 0 .493-1.188.698.698 0 0 0-.493-.205H23.28Zm0 4.085a.698.698 0 0 0-.492 1.188c.13.13.307.204.492.205h71.772a.698.698 0 0 0 .492-1.189.698.698 0 0 0-.492-.204H23.28Zm0 4.179a.698.698 0 0 0-.492 1.189c.13.13.307.204.492.204h53.035a.698.698 0 0 0 .493-1.188.698.698 0 0 0-.493-.205H23.28Z" fill="#E6E6E6"/><path d="M94.608 106.712H73.573a1.025 1.025 0 0 1-1.028-1.026v-3.365a1.025 1.025 0 0 1 1.028-1.026h21.034a1.026 1.026 0 0 1 1.028 1.026v3.365a1.026 1.026 0 0 1-1.028 1.026Z" fill="#6C63FF"/><path d="M139.816 33.479 104.28 51.628l.234.458 35.537-18.149-.235-.458Zm-35.303 65.756-.235.458 35.54 18.144.234-.458-35.539-18.144Z" fill="#E5E5E5"/><path d="M193 27.022a27.015 27.015 0 0 1-3.983 14.11 27.072 27.072 0 0 1-12.893 10.93 26.194 26.194 0 0 1-3.755 1.213c-.181.046-.366.087-.549.128a23.99 23.99 0 0 1-1.395.268 27.258 27.258 0 0 1-12.798-.924 24.839 24.839 0 0 1-2.072-.762 27.053 27.053 0 0 1-11.563-9.135 26.989 26.989 0 0 1-2.424-27.597 27.038 27.038 0 0 1 9.487-10.805 27.099 27.099 0 0 1 27.721-1.212 27.048 27.048 0 0 1 10.397 9.935A27 27 0 0 1 193 27.022Zm0 85.956a27.068 27.068 0 0 1-3.081 12.503 27.112 27.112 0 0 1-8.712 9.809 20.65 20.65 0 0 1-1.201.775c-.26.16-.526.314-.791.466-.32.18-.642.353-.969.52-.075.038-.15.077-.227.113-.273.139-.549.273-.83.399-.015.008-.031.013-.046.021l-.286.126a26.04 26.04 0 0 1-1.856.736c-.044.018-.091.033-.137.049a26.112 26.112 0 0 1-4.446 1.132c-.287.051-.575.093-.864.131a27.385 27.385 0 0 1-8.738-.242 25.38 25.38 0 0 1-.479-.098l-.08-.015a18.947 18.947 0 0 1-.766-.175 25.794 25.794 0 0 1-4.235-1.415c-.178-.075-.353-.155-.528-.235-.132-.059-.263-.121-.395-.182a20.301 20.301 0 0 1-.824-.407 20.26 20.26 0 0 1-.653-.347c-.005-.003-.007-.006-.013-.008a27.053 27.053 0 0 1-10.124-9.758 26.99 26.99 0 0 1-.385-27.131 27.048 27.048 0 0 1 9.845-10.04 27.097 27.097 0 0 1 27.176-.193 27.047 27.047 0 0 1 9.986 9.9A26.99 26.99 0 0 1 193 112.977Z" fill="#F1F1F1"/><path d="M165.77 22.259a7.355 7.355 0 0 0-5.188 2.149 7.337 7.337 0 0 0-2.153 5.18v5.469a.987.987 0 0 0 .987.983h12.708a.987.987 0 0 0 .987-.983v-5.47a7.332 7.332 0 0 0-2.153-5.179 7.356 7.356 0 0 0-5.188-2.15Zm-3.75 23.009-.704-3.165a2.315 2.315 0 0 0-.663-1.179 2.791 2.791 0 0 0-1.018-.563c-.044-.01-.087-.02-.134-.029a2.325 2.325 0 0 0-2.771 2.056l-.598 3.735-.915 5.718a26.54 26.54 0 0 0 5.14 1.626c.247.052.498.101.748.147l1.25-6.837-.335-1.509Z" fill="#2F2E41"/><path d="M163.959 35.958a5.378 5.378 0 0 0 5.382-5.373 5.378 5.378 0 0 0-5.382-5.374 5.378 5.378 0 0 0-5.382 5.374 5.378 5.378 0 0 0 5.382 5.373Z" fill="#FFB7B7"/><path d="m169.776 48.568-1.15-9.049-.242-1.917h-.003l-.108-.003a14.873 14.873 0 0 0-1.072-.002 12.09 12.09 0 0 0-6.112 1.688c-.484.295-.946.625-1.381.988l-.021.02-.052.068-1.827 2.347-.003.046-.178 9.993a25.656 25.656 0 0 0 2.73.72 25.72 25.72 0 0 0 2.335.383c2.573.309 5.177.248 7.733-.179l-.649-5.103Z" fill="#6C63FF"/><path d="M171.657 39.578a6.014 6.014 0 0 0-3.273-1.976h-.003a5.794 5.794 0 0 0-1.036-.137l-.09-.002-.054.134-4.331 10.422-.698-2.784-1.083-5.95-.007-.044-.163.095a9.533 9.533 0 0 0-1.417.996 9.675 9.675 0 0 0-3.429 7.832l.178 4.1c.451.174.913.334 1.377.483a25.544 25.544 0 0 0 2.729.72 25.829 25.829 0 0 0 2.336.384 27.25 27.25 0 0 0 7.732-.18c.469-.075.934-.164 1.395-.268.183-.04.368-.082.549-.128l-.389-1.146 1.031-7.95a5.966 5.966 0 0 0-1.354-4.6Z" fill="#2F2E41"/><path d="M172.936 39.8a2.313 2.313 0 0 0-2.82-1.516 2.321 2.321 0 0 0-1.717 2.239l.011 4.81 1.366 3.235 2.044 4.835a26.153 26.153 0 0 0 4.304-1.34c.343-.137.683-.284 1.019-.435.136-.062.273-.124.409-.19L172.936 39.8Zm-9.339-15.573h-1.098c-1.54 0-3.016.612-4.105 1.7a5.796 5.796 0 0 0-1.7 4.098v.108h7.772l.08-1.114.397 1.114h1.196l.16-2.208.788 2.208h2.315v-.108a5.799 5.799 0 0 0-1.702-4.097 5.817 5.817 0 0 0-4.103-1.7Zm-2.358 98.757a6.836 6.836 0 0 0-5.012 1.697 6.818 6.818 0 0 0-2.288 4.765l-.43 7.543c.273.142.546.278.824.407.132.061.263.123.395.182.175.08.35.16.528.234.098.044.199.088.299.129a25.794 25.794 0 0 0 3.936 1.287c.253.064.508.121.766.175l.08.015c.159.034.319.067.479.098l.546-16.524-.123-.008Z" fill="#2F2E41"/><path d="M168.221 139.905a27.267 27.267 0 0 0 1.333-.147c.289-.039.577-.08.864-.131.023-.698.015-1.199.015-1.261l1.281-13.328-2.67-1.555-.521-.304-8.073-.26-.067.057-3.877 3.356-1.25 11.481a30.757 30.757 0 0 0 1.281.514c.966.359 1.952.66 2.954.901.253.064.508.121.766.175l.08.015a22.368 22.368 0 0 0 1.456.265c.296.047.598.088.9.124.494.062.994.106 1.497.139a28.025 28.025 0 0 0 3.892-.031l.139-.01Z" fill="#2F2E41"/><path d="m173.621 126.185-4.572-2.789-.005.087-.823 16.422a27.267 27.267 0 0 0 1.333-.147c.289-.039.577-.08.863-.131a26.009 26.009 0 0 0 4.447-1.133c.046-.015.093-.03.137-.048l.324-9.209a3.37 3.37 0 0 0-1.704-3.052Z" fill="#2F2E41"/><path d="M163.585 121.142a5.669 5.669 0 0 0 5.673-5.664 5.669 5.669 0 0 0-5.673-5.664 5.669 5.669 0 0 0-5.673 5.664 5.669 5.669 0 0 0 5.673 5.664Z" fill="#9F616A"/><path d="M161.534 107.115c5.713-1.645 7.335 3.083 7.335 3.083 2.754 1.824 1.029 4.111 1.029 4.111.695.154-.694 4.214-1.157 4.112-.248-.055-.883.702-1.422 1.421a2.752 2.752 0 0 0-.551.053l1.046-3.864s-3.526-.539-4.607-2.235c-1.034-1.623-4.439-2.135-5.408-1.051a2.434 2.434 0 0 0-.345-.876 1.772 1.772 0 0 0-.508-.509c.856-3.635 4.588-4.245 4.588-4.245Z" fill="#2F2E41"/><path opacity=".2" d="M168.082 139.915c-.299.026-.6.044-.905.057l.794-4.355v.301l.111 3.997Z" fill="#000"/></g><defs><clipPath id="a"><path fill="#fff" d="M0 0h193v140H0z"/></clipPath></defs></svg>