<svg width="216" height="129" fill="none" xmlns="http://www.w3.org/2000/svg"><g clip-path="url(#a)"><path d="M12.727 98.963C6.37 96.647.851 91.108.151 84.37a31.137 31.137 0 0 0 20.86 4.783c2.814-.366 5.906-1.065 8.314.438 1.498.935 2.428 2.595 2.855 4.31.426 1.716.407 3.507.385 5.274l.198.395c-6.641 1.291-13.678 1.709-20.035-.607Z" fill="#F0F0F0"/><path d="M.289 84.336a26.645 26.645 0 0 0 13.137 9.817 11.44 11.44 0 0 0 3.53.676 6.574 6.574 0 0 0 3.34-.915c.956-.54 1.87-1.201 2.939-1.498a4.022 4.022 0 0 1 3.25.543c1.198.754 2.055 1.894 2.855 3.038.887 1.27 1.788 2.603 3.174 3.374.167.094.013.35-.155.256-2.41-1.342-3.302-4.187-5.353-5.917-.958-.807-2.164-1.33-3.429-1.07-1.106.228-2.05.91-3.011 1.464a7.015 7.015 0 0 1-3.233 1.016 10.593 10.593 0 0 1-3.544-.537 25.833 25.833 0 0 1-7.235-3.599A27.131 27.131 0 0 1 .027 84.48c-.111-.157.152-.298.262-.143Z" fill="#fff"/><path d="M11.685 93.671a4 4 0 0 1-4.761 2.034c-.183-.058-.102-.345.08-.288a3.696 3.696 0 0 0 4.426-1.9c.085-.173.34-.017.255.154Zm8.164.579a7.712 7.712 0 0 0-3.557-4.35c-.168-.093-.013-.349.154-.255a8.022 8.022 0 0 1 3.692 4.534c.059.184-.231.254-.29.072ZM4.36 88.998a2.267 2.267 0 0 0 .373-2.118c-.06-.182.23-.252.29-.071a2.542 2.542 0 0 1-.407 2.343.154.154 0 0 1-.205.05.15.15 0 0 1-.05-.204Z" fill="#fff"/><path d="M16.197 68.001a29.856 29.856 0 0 0 2.175 4.723c.06.11.122.22.186.328a31.443 31.443 0 0 0 7.58 8.746 30.506 30.506 0 0 0 3.84 2.598c1.857 1.059 3.954 2.06 5.313 3.625.144.162.277.332.4.51l-2.463 10.766-.051.066-.079.434c-.072-.034-.146-.072-.218-.107l-.125-.062-.082-.04a.422.422 0 0 1-.025-.013c-.026-.01-.049-.024-.072-.035a80.61 80.61 0 0 1-1.24-.636c-.003 0-.003 0-.005-.003a44.853 44.853 0 0 1-8.817-5.9c-.08-.07-.162-.14-.24-.215a29.14 29.14 0 0 1-3.282-3.44 25.77 25.77 0 0 1-1.528-2.11 21.438 21.438 0 0 1-2.715-6.124c-1.152-4.328-.91-8.977 1.278-12.819.056-.098.111-.194.17-.292Z" fill="#F0F0F0"/><path d="M16.328 68.057a26.703 26.703 0 0 0 4.586 15.758 11.481 11.481 0 0 0 2.413 2.668 6.576 6.576 0 0 0 3.217 1.283c1.087.146 2.215.169 3.247.576a4.03 4.03 0 0 1 2.268 2.393c.504 1.324.503 2.751.453 4.147-.055 1.549-.137 3.157.505 4.608.078.175-.199.286-.277.11-1.117-2.524-.119-5.334-.717-7.952-.278-1.221-.927-2.366-2.094-2.92-1.02-.485-2.183-.51-3.284-.647a7.016 7.016 0 0 1-3.193-1.138 10.614 10.614 0 0 1-2.506-2.565 25.893 25.893 0 0 1-3.613-7.236 27.185 27.185 0 0 1-1.3-9.13c.005-.19.3-.145.295.045Z" fill="#fff"/><path d="M19.814 82.38a3.992 3.992 0 0 1-5.024-1.245c-.112-.157.126-.338.237-.181a3.701 3.701 0 0 0 4.676 1.15c.171-.087.281.191.11.277Zm6.17 5.385a7.724 7.724 0 0 0-.225-5.617c-.077-.176.2-.287.277-.111a8.034 8.034 0 0 1 .222 5.846c-.063.182-.337.063-.274-.118Zm-9.208-13.531a2.262 2.262 0 0 0 1.57-1.466c.062-.182.335-.064.275.118a2.539 2.539 0 0 1-1.734 1.625.154.154 0 0 1-.194-.083.15.15 0 0 1 .083-.194Z" fill="#fff"/><path d="M205.156 98.741c6.025-3.08 10.822-9.258 10.689-16.03a31.142 31.142 0 0 1-20.115 7.313c-2.837-.016-5.991-.33-8.196 1.458-1.372 1.112-2.091 2.875-2.304 4.63-.213 1.755.026 3.53.264 5.281l-.148.416c6.75.463 13.785.013 19.81-3.068Z" fill="#F0F0F0"/><path d="M215.705 82.694a26.656 26.656 0 0 1-11.833 11.359c-1.075.546-2.229.92-3.421 1.105a6.573 6.573 0 0 1-3.427-.497c-1.014-.417-2.002-.961-3.099-1.124a4.026 4.026 0 0 0-3.159.939c-1.097.895-1.808 2.132-2.461 3.366-.724 1.37-1.455 2.804-2.735 3.739-.156.114.029.348.184.235 2.227-1.628 2.763-4.562 4.587-6.531.851-.92 1.983-1.587 3.271-1.484 1.126.09 2.146.65 3.168 1.082a7.015 7.015 0 0 0 3.333.61 10.596 10.596 0 0 0 3.451-.968 25.847 25.847 0 0 0 6.739-4.462 27.161 27.161 0 0 0 5.679-7.26c.091-.169-.187-.277-.277-.11Z" fill="#fff"/><path d="M205.541 93.36a3.998 3.998 0 0 0 4.974 1.433c.175-.08.059-.355-.116-.275a3.694 3.694 0 0 1-4.624-1.342c-.105-.16-.339.025-.234.185Zm-8.031 1.58a7.719 7.719 0 0 1 2.996-4.754c.155-.114-.03-.349-.185-.235a8.026 8.026 0 0 0-3.107 4.954c-.036.19.26.224.296.035Zm14.725-7.119a2.263 2.263 0 0 1-.629-2.055c.038-.189-.259-.223-.296-.035a2.537 2.537 0 0 0 .691 2.275.154.154 0 0 0 .209.025.152.152 0 0 0 .056-.1.146.146 0 0 0-.031-.11Z" fill="#fff"/><path d="M197.912 68.44a29.862 29.862 0 0 1-1.579 4.955 14.09 14.09 0 0 1-.144.348 31.465 31.465 0 0 1-6.449 9.614 30.476 30.476 0 0 1-3.493 3.05c-1.712 1.28-3.671 2.53-4.827 4.252a5.23 5.23 0 0 0-.334.555l3.765 10.382c.021.019.039.039.059.059l.132.421.203-.133.117-.077a.811.811 0 0 1 .076-.049l.023-.017c.024-.014.045-.03.067-.043.386-.258.77-.52 1.154-.784l.004-.004a44.849 44.849 0 0 0 8.025-6.94c.071-.08.144-.16.212-.244a29.115 29.115 0 0 0 2.835-3.817 25.77 25.77 0 0 0 1.258-2.283 21.462 21.462 0 0 0 1.942-6.411c.613-4.437-.199-9.021-2.841-12.564-.068-.091-.135-.18-.205-.27Z" fill="#F0F0F0"/><path d="M197.789 68.512a26.702 26.702 0 0 1-2.618 16.203 11.466 11.466 0 0 1-2.067 2.945 6.57 6.57 0 0 1-3.035 1.67c-1.06.278-2.177.439-3.151.97a4.023 4.023 0 0 0-1.957 2.654c-.338 1.377-.161 2.793.059 4.171.245 1.53.524 3.117.064 4.636-.055.184.233.259.289.076.799-2.643-.537-5.309-.265-7.98.127-1.247.63-2.463 1.72-3.157.953-.607 2.104-.774 3.18-1.046a7.016 7.016 0 0 0 3.028-1.522 10.61 10.61 0 0 0 2.173-2.855 25.882 25.882 0 0 0 2.697-7.624c.582-3.042.639-6.16.17-9.221-.029-.19-.316-.108-.287.08Z" fill="#fff"/><path d="M196.088 83.156a3.99 3.99 0 0 0 4.832-1.855c.092-.169-.166-.319-.257-.15a3.699 3.699 0 0 1-4.5 1.717c-.18-.065-.255.224-.075.288Zm-5.463 6.104a7.727 7.727 0 0 1-.467-5.603c.055-.184-.233-.26-.288-.076a8.03 8.03 0 0 0 .498 5.829c.085.173.342.021.257-.15Zm7.477-14.563a2.26 2.26 0 0 1-1.739-1.261c-.082-.174-.339-.022-.257.15a2.538 2.538 0 0 0 1.92 1.4.154.154 0 0 0 .182-.106.153.153 0 0 0-.015-.113.151.151 0 0 0-.091-.07Zm-9.951-70.263h-42.449V7.17a.599.599 0 0 0 .136.384 202.477 202.477 0 0 0-.136 7.83V88.49c0 6.852.275 12.428.611 12.428h41.227c.337 0 .611-5.576.611-12.428V15.384c0-2.965-.05-5.694-.135-7.831a.603.603 0 0 0 .135-.384V4.434Z" fill="#fff"/><path d="M187.54 101.212h-41.227c-.321 0-.533 0-.727-3.925-.115-2.356-.179-5.48-.179-8.798V15.384c0-2.866.048-5.651.136-7.843.055-1.316.118-2.37.187-3.134.135-1.494.265-1.746.583-1.746h41.227c.319 0 .448.252.584 1.746a69.4 69.4 0 0 1 .187 3.133v.001c.087 2.19.136 4.975.136 7.843v73.105c0 3.318-.064 6.443-.18 8.798-.193 3.925-.405 3.925-.727 3.925Zm-41.059-.591h40.892c.213-.808.483-5.194.483-12.132V15.384c0-2.86-.048-5.637-.135-7.819a69.674 69.674 0 0 0-.185-3.104 8.64 8.64 0 0 0-.166-1.21h-40.886c-.084.4-.14.803-.166 1.21a67.653 67.653 0 0 0-.185 3.104c-.088 2.184-.136 4.96-.136 7.819v73.105c0 6.938.27 11.324.484 12.132Z" fill="#E4E4E4"/><path d="M187.54 2.956h-41.227a.613.613 0 0 0-.611.612v3.6a.612.612 0 0 0 .611.612h41.227a.62.62 0 0 0 .476-.227.603.603 0 0 0 .135-.384V3.568a.61.61 0 0 0-.611-.612Z" fill="#CACACA"/><path d="M149.25 6.062a.868.868 0 1 0 0-1.737.868.868 0 0 0 0 1.737Zm3.294 0a.868.868 0 1 0 0-1.737.868.868 0 0 0 0 1.737Zm3.295 0a.868.868 0 1 0-.002-1.736.868.868 0 0 0 .002 1.736Zm28.475-2.03h-3.794a.282.282 0 0 0-.28.28.233.233 0 0 0 .029.122.28.28 0 0 0 .251.16h3.794a.28.28 0 0 0 .198-.48.28.28 0 0 0-.198-.082Zm0 1.055h-3.794a.28.28 0 0 0-.28.281.28.28 0 0 0 .28.281h3.794a.28.28 0 0 0 0-.562Zm0 1.056h-3.794a.28.28 0 0 0-.28.28.28.28 0 0 0 .28.282h3.794a.28.28 0 0 0 0-.562Z" fill="#fff"/><path d="M171.029 15.673h-7.806a1.479 1.479 0 0 0-1.476 1.478v6.77a1.482 1.482 0 0 0 1.476 1.478h7.806a1.482 1.482 0 0 0 1.476-1.478v-6.77a1.479 1.479 0 0 0-1.476-1.478Z" fill="#6C63FF"/><path d="M180.727 29.822h-27.205a.67.67 0 0 0 0 1.342h27.205a.67.67 0 0 0 0-1.342Zm-16.872 3.145h-10.333a.67.67 0 0 0 0 1.342h10.333a.67.67 0 0 0 0-1.342Z" fill="#E4E4E4"/><path d="M171.029 44.94h-7.806a1.479 1.479 0 0 0-1.476 1.478v6.769a1.482 1.482 0 0 0 1.476 1.478h7.806a1.481 1.481 0 0 0 1.476-1.478v-6.77a1.479 1.479 0 0 0-1.476-1.478Z" fill="#6C63FF"/><path d="M180.727 59.087h-27.205a.67.67 0 0 0 0 1.342h27.205a.67.67 0 0 0 0-1.342Zm-16.872 3.146h-10.333a.67.67 0 0 0 0 1.342h10.333a.67.67 0 0 0 0-1.342Z" fill="#E4E4E4"/><path d="M171.029 74.205h-7.806a1.479 1.479 0 0 0-1.476 1.478v6.77a1.482 1.482 0 0 0 1.476 1.478h7.806a1.481 1.481 0 0 0 1.476-1.478v-6.77a1.479 1.479 0 0 0-1.476-1.478Z" fill="#6C63FF"/><path d="M180.727 88.353h-27.205a.67.67 0 0 0 0 1.342h27.205a.67.67 0 0 0 0-1.342Zm-16.872 3.145h-10.333a.67.67 0 0 0 0 1.343h10.333a.67.67 0 0 0 0-1.343Z" fill="#E4E4E4"/><path d="M134.126.907a.61.61 0 0 0-.611-.611H24.388a.612.612 0 0 0-.611.611v3.601c0 .15.055.295.156.405a241.322 241.322 0 0 0-.156 9.197v81.267c0 7.621.274 13.817.61 13.817h109.128c.337 0 .611-6.196.611-13.817V14.11c0-3.53-.059-6.752-.156-9.197a.595.595 0 0 0 .156-.405v-3.6Z" fill="#fff"/><path d="M133.515 109.49H24.388c-.334 0-.535 0-.727-4.334-.116-2.617-.18-6.09-.18-9.78V14.11c0-3.402.056-6.672.157-9.209C23.832 0 24.053 0 24.388 0h109.127c.335 0 .556 0 .75 4.901.101 2.534.157 5.805.157 9.209v81.267c0 3.689-.064 7.162-.18 9.779-.192 4.334-.393 4.334-.727 4.334Zm-108.955-.592h108.783c.242-.927.488-6.131.488-13.521V14.11c0-3.397-.055-6.659-.156-9.185-.123-3.105-.267-4.05-.335-4.334H24.563c-.068.284-.212 1.229-.335 4.334-.1 2.529-.156 5.79-.156 9.185v81.267c0 7.39.247 12.594.488 13.521Z" fill="#E4E4E4"/><path d="M133.515.296H24.388a.612.612 0 0 0-.611.611v3.601c0 .15.055.295.156.405a.605.605 0 0 0 .455.207h109.127a.609.609 0 0 0 .455-.207.595.595 0 0 0 .156-.405v-3.6a.61.61 0 0 0-.611-.612Z" fill="#CACACA"/><path d="M27.325 3.401a.868.868 0 1 0-.001-1.737.868.868 0 0 0 .001 1.737Zm3.295 0a.868.868 0 1 0-.002-1.737.868.868 0 0 0 .001 1.737Zm3.293 0a.868.868 0 1 0 0-1.737.868.868 0 0 0 0 1.737Zm96.375-2.029h-3.793a.28.28 0 1 0 0 .562h3.793a.282.282 0 1 0 0-.562Zm0 1.055h-3.793a.28.28 0 1 0 0 .562h3.793a.281.281 0 1 0 0-.562Zm0 1.055h-3.793a.28.28 0 1 0 0 .562h3.793a.281.281 0 1 0 0-.562Z" fill="#fff"/><path d="M59.66 18.334H46.89a2.416 2.416 0 0 0-2.415 2.418V31.83a2.423 2.423 0 0 0 2.414 2.418h12.772a2.416 2.416 0 0 0 2.414-2.418V20.752a2.422 2.422 0 0 0-2.414-2.418Z" fill="#6C63FF"/><path d="M112.336 22.617H67.823a1.096 1.096 0 0 0-1.096 1.099 1.099 1.099 0 0 0 1.096 1.098h44.513a1.098 1.098 0 0 0 0-2.197ZM84.73 27.764H67.824a1.096 1.096 0 0 0-1.096 1.098 1.099 1.099 0 0 0 1.096 1.098h16.908a1.096 1.096 0 0 0 1.096-1.098 1.1 1.1 0 0 0-1.096-1.098Z" fill="#E4E4E4"/><path d="M59.66 47.895H46.89a2.416 2.416 0 0 0-2.415 2.418V61.39a2.423 2.423 0 0 0 2.414 2.418h12.772a2.416 2.416 0 0 0 2.414-2.418V50.313a2.422 2.422 0 0 0-2.414-2.418Z" fill="#6C63FF"/><path d="M112.336 52.179H67.823a1.096 1.096 0 0 0-1.096 1.098 1.099 1.099 0 0 0 1.096 1.098h44.513a1.098 1.098 0 0 0 0-2.196ZM84.73 57.325H67.824a1.096 1.096 0 0 0-1.096 1.099 1.099 1.099 0 0 0 1.096 1.098h16.908a1.096 1.096 0 0 0 1.096-1.098 1.1 1.1 0 0 0-1.096-1.099Z" fill="#E4E4E4"/><path d="M59.66 77.457H46.89a2.416 2.416 0 0 0-2.415 2.418V90.95a2.423 2.423 0 0 0 2.414 2.419h12.772a2.416 2.416 0 0 0 2.414-2.419V79.875a2.422 2.422 0 0 0-2.414-2.418Z" fill="#6C63FF"/><path d="M112.336 81.74H67.823a1.096 1.096 0 0 0-1.096 1.098 1.099 1.099 0 0 0 1.096 1.099h44.513a1.098 1.098 0 0 0 0-2.197ZM84.73 86.887H67.824a1.096 1.096 0 0 0-1.096 1.098 1.099 1.099 0 0 0 1.096 1.098h16.908a1.096 1.096 0 0 0 1.096-1.098 1.1 1.1 0 0 0-1.096-1.098Z" fill="#E4E4E4"/><path d="M153.001 128.704h-73.11c-.338 0-.612-5.187-.612-11.565v-68.03c0-6.378.274-11.566.611-11.566h73.111c.337 0 .611 5.188.611 11.565v68.031c0 6.378-.274 11.565-.611 11.565Z" fill="#fff"/><path d="M153.001 129h-73.11c-.31 0-.534 0-.728-3.671-.116-2.192-.18-5.101-.18-8.19v-68.03c0-3.09.064-5.999.18-8.19.194-3.672.418-3.672.727-3.672h73.111c.309 0 .532 0 .726 3.671.116 2.192.18 5.1.18 8.19v68.031c0 3.089-.064 5.998-.18 8.19-.194 3.671-.417 3.671-.726 3.671Zm-72.948-.591h72.784c.212-.766.48-4.847.48-11.27v-68.03c0-6.424-.268-10.505-.48-11.27H80.054c-.212.765-.48 4.846-.48 11.27v68.03c0 6.423.268 10.504.48 11.27Z" fill="#E4E4E4"/><path d="M153.001 42.367h-73.11a.612.612 0 0 1-.612-.612v-3.6a.613.613 0 0 1 .611-.612h73.111a.612.612 0 0 1 .611.612v3.6a.615.615 0 0 1-.611.612Z" fill="#CACACA"/><path d="M82.826 40.648a.868.868 0 1 0 0-1.737.868.868 0 0 0 0 1.737Zm3.294 0a.868.868 0 1 0 0-1.736.868.868 0 0 0 0 1.736Zm3.295 0a.868.868 0 1 0-.002-1.737.868.868 0 0 0 .002 1.737Zm60.358-1.467h-3.793a.281.281 0 1 1 0-.562h3.793a.28.28 0 0 1 .28.28.28.28 0 0 1-.28.282Zm0 1.055h-3.793a.281.281 0 1 1 0-.562h3.793a.281.281 0 1 1 0 .562Zm0 1.055h-3.793a.281.281 0 1 1 0-.562h3.793a.28.28 0 0 1 .28.281.28.28 0 0 1-.28.281Z" fill="#fff"/><path d="M102.356 64.715h-9.327a1.765 1.765 0 0 1-1.764-1.766v-8.09a1.769 1.769 0 0 1 1.764-1.766h9.327a1.765 1.765 0 0 1 1.764 1.767v8.089a1.766 1.766 0 0 1-1.764 1.766Z" fill="#6C63FF"/><path d="M140.825 57.827h-32.507a.798.798 0 0 1-.801-.802.8.8 0 0 1 .801-.802h32.507a.8.8 0 0 1 .566 1.369.8.8 0 0 1-.566.235Zm-20.161 3.758h-12.346a.799.799 0 0 1-.801-.802.8.8 0 0 1 .801-.802h12.346a.797.797 0 0 1 .742.495.809.809 0 0 1-.174.875.801.801 0 0 1-.568.234Z" fill="#E4E4E4"/><path d="M102.356 88.66h-9.327a1.764 1.764 0 0 1-1.764-1.767v-8.089a1.769 1.769 0 0 1 1.764-1.766h9.327a1.765 1.765 0 0 1 1.764 1.766v8.09a1.765 1.765 0 0 1-1.764 1.766Z" fill="#6C63FF"/><path d="M140.825 81.772h-32.507a.799.799 0 0 1-.801-.802.8.8 0 0 1 .801-.802h32.507a.8.8 0 0 1 .8.802.803.803 0 0 1-.8.802Zm-20.161 3.758h-12.346a.798.798 0 0 1-.801-.802.8.8 0 0 1 .801-.802h12.346a.797.797 0 0 1 .742.495.81.81 0 0 1 0 .614.801.801 0 0 1-.742.495Z" fill="#E4E4E4"/><path d="M102.356 112.604h-9.327a1.769 1.769 0 0 1-1.764-1.766v-8.089a1.769 1.769 0 0 1 1.764-1.766h9.327a1.768 1.768 0 0 1 1.764 1.766v8.089a1.764 1.764 0 0 1-1.764 1.766Z" fill="#6C63FF"/><path d="M140.825 105.716h-32.507a.798.798 0 0 1-.566-1.369.8.8 0 0 1 .566-.234h32.507a.8.8 0 1 1 0 1.603Zm-20.161 3.759h-12.346a.8.8 0 0 1-.801-.802.798.798 0 0 1 .801-.802h12.346a.804.804 0 0 1 .742.495.804.804 0 0 1-.435 1.048.804.804 0 0 1-.307.061Z" fill="#E4E4E4"/></g><defs><clipPath id="a"><path fill="#fff" d="M0 0h216v129H0z"/></clipPath></defs></svg>