<svg width="216" height="129" viewBox="0 0 216 129" fill="none" xmlns="http://www.w3.org/2000/svg">
<g clip-path="url(#clip0_138_6900)">
<path d="M12.7275 98.9634C6.36983 96.6475 0.850984 91.1076 0.150879 84.3698C6.32278 88.3792 13.7121 90.0735 21.0114 89.1527C23.8251 88.7874 26.9167 88.0877 29.3245 89.5906C30.8227 90.5257 31.7529 92.1861 32.1796 93.9014C32.6062 95.6169 32.587 97.4076 32.5652 99.1753L32.7632 99.5696C26.1219 100.861 19.0851 101.279 12.7275 98.9634Z" fill="#F0F0F0"/>
<path d="M0.288691 84.3361C3.52855 88.9095 8.12514 92.3444 13.4256 94.1529C14.5597 94.5626 15.7513 94.7906 16.9563 94.8287C18.1314 94.8278 19.2849 94.5118 20.2968 93.9136C21.2515 93.3748 22.1657 92.713 23.2346 92.416C23.7839 92.272 24.3575 92.2461 24.9176 92.3397C25.4777 92.4333 26.0118 92.6444 26.4847 92.9592C27.6834 93.7128 28.5403 94.8528 29.3395 95.9968C30.2269 97.267 31.1285 98.6004 32.5137 99.3715C32.6815 99.4649 32.527 99.7203 32.3594 99.627C29.9493 98.2853 29.057 95.4397 27.0056 93.7097C26.0483 92.9025 24.8424 92.3792 23.5774 92.64C22.4712 92.8681 21.5278 93.5498 20.5659 94.1037C19.5873 94.7018 18.4773 95.0508 17.3329 95.1203C16.1298 95.1438 14.9315 94.9621 13.7892 94.583C11.2041 93.7706 8.76259 92.5562 6.55416 90.9843C4.02376 89.2044 1.8161 87.0041 0.0266626 84.4787C-0.0840266 84.3224 0.178725 84.1808 0.288691 84.3361V84.3361Z" fill="white"/>
<path d="M11.6847 93.6712C11.2609 94.5205 10.5495 95.1913 9.67742 95.5638C8.80534 95.9363 7.82941 95.9863 6.92391 95.7049C6.74088 95.6473 6.82165 95.3598 7.00492 95.4174C7.84763 95.6811 8.75671 95.6345 9.56809 95.2859C10.3795 94.9374 11.0397 94.3098 11.4296 93.5167C11.5145 93.3444 11.7691 93.4999 11.6847 93.6712V93.6712Z" fill="white"/>
<path d="M19.8486 94.2507C19.2516 92.4043 17.9815 90.851 16.2916 89.9007C16.1241 89.8066 16.2787 89.5513 16.446 89.6452C18.2027 90.6375 19.5211 92.2565 20.1381 94.1793C20.1968 94.3626 19.9069 94.433 19.8486 94.2507Z" fill="white"/>
<path d="M4.36085 88.9975C4.59319 88.7031 4.74888 88.3555 4.81392 87.986C4.87895 87.6165 4.85131 87.2365 4.73347 86.8803C4.6725 86.6979 4.96243 86.6277 5.023 86.809C5.15137 87.2031 5.18138 87.6228 5.11042 88.0312C5.03947 88.4396 4.8697 88.8245 4.61596 89.1521C4.59463 89.1849 4.56159 89.2085 4.52356 89.2178C4.48553 89.2272 4.44537 89.2217 4.41123 89.2025C4.37756 89.1819 4.35338 89.1488 4.34394 89.1104C4.33451 89.072 4.34058 89.0314 4.36085 88.9975V88.9975Z" fill="white"/>
<path d="M16.1966 68.0015C16.2379 68.1144 16.2792 68.2272 16.3229 68.3408C16.8862 69.8551 17.5713 71.3212 18.3717 72.7244C18.4318 72.8339 18.4945 72.944 18.5576 73.0515C20.5218 76.4117 23.092 79.3775 26.1374 81.7982C27.3502 82.7603 28.6342 83.6287 29.9785 84.3957C31.8351 85.455 33.9323 86.4555 35.2911 88.021C35.4346 88.1827 35.5681 88.3532 35.6906 88.5314L33.228 99.2972C33.2102 99.3188 33.1947 99.3412 33.1768 99.363L33.0981 99.7973C33.026 99.7626 32.952 99.725 32.8799 99.6903C32.838 99.6704 32.7967 99.648 32.7548 99.628C32.727 99.614 32.6993 99.5998 32.6734 99.5887C32.6641 99.584 32.6549 99.5793 32.6481 99.5752C32.6222 99.5641 32.5994 99.551 32.576 99.5405C32.1616 99.3317 31.748 99.1197 31.3352 98.9043C31.3327 98.9038 31.3327 98.9038 31.3308 98.9008C28.1692 97.2902 25.2095 95.3097 22.5138 93.0009C22.4343 92.9309 22.3523 92.8605 22.2739 92.7856C21.0882 91.7308 19.9905 90.5807 18.9918 89.3468C18.4472 88.6694 17.9371 87.9649 17.4636 87.2358C16.2437 85.3498 15.3277 83.2833 14.7492 81.1122C13.5965 76.7839 13.839 72.1347 16.0266 68.2934C16.0826 68.1951 16.1381 68.0992 16.1966 68.0015Z" fill="#F0F0F0"/>
<path d="M16.3276 68.057C16.1646 73.6618 17.7695 79.1756 20.9142 83.8151C21.5734 84.8259 22.3877 85.7264 23.327 86.4833C24.2658 87.191 25.3767 87.6341 26.5443 87.7665C27.6305 87.9119 28.7585 87.9346 29.7905 88.3418C30.3156 88.5581 30.7892 88.8832 31.1802 89.2956C31.5711 89.708 31.8706 90.1985 32.0589 90.735C32.5629 92.0594 32.5616 93.4862 32.5119 94.8815C32.4567 96.4306 32.3749 98.0388 33.0172 99.4896C33.0951 99.6654 32.8181 99.776 32.7404 99.6005C31.6228 97.0763 32.6213 94.2663 32.0235 91.6483C31.7446 90.4266 31.0963 89.2818 29.9294 88.7274C28.9091 88.2426 27.746 88.2181 26.6449 88.0805C25.5039 87.968 24.4078 87.5776 23.4523 86.9432C22.4776 86.2366 21.63 85.369 20.946 84.3777C19.3703 82.1705 18.1511 79.729 17.3329 77.1425C16.3827 74.1958 15.943 71.1081 16.0326 68.0129C16.0383 67.8213 16.3332 67.8667 16.3276 68.057L16.3276 68.057Z" fill="white"/>
<path d="M19.8138 82.3809C18.9648 82.8036 17.9934 82.9102 17.0731 82.6819C16.1528 82.4536 15.3436 81.9052 14.7898 81.1345C14.6783 80.9782 14.9157 80.7973 15.0273 80.9539C15.5416 81.6724 16.2955 82.1833 17.153 82.3941C18.0104 82.605 18.9148 82.502 19.703 82.1037C19.8744 82.0174 19.9842 82.2951 19.8138 82.3809V82.3809Z" fill="white"/>
<path d="M25.9838 87.7654C26.6173 85.9313 26.5371 83.9254 25.7593 82.1478C25.6821 81.9718 25.959 81.861 26.0361 82.0369C26.8421 83.8882 26.9213 85.9758 26.2579 87.883C26.1945 88.0648 25.9208 87.9462 25.9838 87.7654Z" fill="white"/>
<path d="M16.7761 74.2339C17.1386 74.1389 17.4719 73.9552 17.746 73.6994C18.0202 73.4435 18.2265 73.1235 18.3466 72.7681C18.4076 72.5856 18.6813 72.7044 18.6207 72.8857C18.4862 73.2778 18.2578 73.6309 17.9556 73.9142C17.6534 74.1976 17.2864 74.4025 16.8869 74.5111C16.8501 74.5245 16.8095 74.5233 16.7735 74.5079C16.7375 74.4924 16.7088 74.4639 16.6931 74.4279C16.6786 74.3912 16.6792 74.3501 16.6947 74.3138C16.7103 74.2775 16.7395 74.2488 16.7761 74.2339H16.7761Z" fill="white"/>
<path d="M205.156 98.741C211.181 95.6602 215.978 89.483 215.845 82.7101C210.213 87.4488 203.087 90.0397 195.73 90.0243C192.893 90.0081 189.739 89.6942 187.534 91.4821C186.162 92.5945 185.443 94.3568 185.23 96.1116C185.017 97.8666 185.256 99.6414 185.494 101.393L185.346 101.809C192.096 102.272 199.131 101.822 205.156 98.741Z" fill="#F0F0F0"/>
<path d="M215.705 82.6937C213.051 87.6312 208.911 91.6058 203.872 94.053C202.797 94.5991 201.643 94.9721 200.451 95.1582C199.285 95.3019 198.102 95.1303 197.024 94.6612C196.01 94.244 195.022 93.6997 193.925 93.5365C193.362 93.4613 192.789 93.5061 192.245 93.6679C191.7 93.8298 191.196 94.105 190.766 94.4756C189.669 95.3711 188.958 96.6079 188.305 97.8416C187.581 99.2114 186.85 100.646 185.57 101.581C185.414 101.695 185.599 101.929 185.754 101.816C187.981 100.188 188.517 97.2539 190.341 95.2846C191.192 94.3657 192.324 93.6979 193.612 93.8011C194.738 93.8912 195.758 94.4516 196.78 94.883C197.825 95.356 198.969 95.5658 200.113 95.4939C201.31 95.3691 202.477 95.0413 203.564 94.5245C206.03 93.4001 208.304 91.8944 210.303 90.0626C212.595 87.9847 214.516 85.5294 215.982 82.8029C216.073 82.6341 215.795 82.526 215.705 82.6937V82.6937Z" fill="white"/>
<path d="M205.541 93.3606C206.066 94.1513 206.854 94.7294 207.765 94.9918C208.676 95.2542 209.651 95.1837 210.515 94.7929C210.69 94.7132 210.574 94.4378 210.399 94.5176C209.596 94.883 208.688 94.9486 207.84 94.7026C206.992 94.4565 206.259 93.915 205.775 93.1758C205.67 93.0153 205.436 93.201 205.541 93.3606Z" fill="white"/>
<path d="M197.51 94.9405C197.876 93.0347 198.946 91.3369 200.506 90.1857C200.661 90.0718 200.476 89.8374 200.321 89.9512C198.7 91.1521 197.59 92.9212 197.214 94.9054C197.178 95.0945 197.474 95.1286 197.51 94.9405H197.51Z" fill="white"/>
<path d="M212.235 87.821C211.969 87.5574 211.771 87.2316 211.662 86.8729C211.552 86.5141 211.532 86.1337 211.606 85.7657C211.644 85.5771 211.347 85.5432 211.31 85.7305C211.231 86.1375 211.252 86.5576 211.373 86.9542C211.493 87.3508 211.709 87.7119 212.001 88.0057C212.026 88.0357 212.062 88.055 212.101 88.0596C212.14 88.0642 212.179 88.0539 212.21 88.0306C212.241 88.006 212.261 87.9701 212.266 87.9309C212.271 87.8916 212.26 87.8521 212.235 87.821H212.235Z" fill="white"/>
<path d="M197.912 68.4409C197.885 68.558 197.858 68.6751 197.828 68.7932C197.455 70.3654 196.955 71.9046 196.333 73.3958C196.287 73.5118 196.238 73.6287 196.189 73.7432C194.652 77.3197 192.465 80.5793 189.74 83.3565C188.655 84.4606 187.487 85.4804 186.247 86.4071C184.535 87.6868 182.576 88.9379 181.42 90.6587C181.297 90.8369 181.186 91.0225 181.086 91.2145L184.851 101.596C184.872 101.615 184.89 101.635 184.91 101.655L185.042 102.076C185.109 102.033 185.178 101.986 185.245 101.943C185.284 101.918 185.323 101.891 185.362 101.866C185.387 101.848 185.413 101.831 185.438 101.817C185.446 101.811 185.455 101.805 185.461 101.8C185.485 101.786 185.506 101.77 185.528 101.757C185.914 101.499 186.298 101.237 186.682 100.973C186.684 100.972 186.684 100.972 186.686 100.969C189.626 98.9811 192.32 96.6514 194.711 94.0282C194.782 93.949 194.855 93.869 194.923 93.785C195.97 92.5923 196.919 91.3158 197.758 89.9684C198.216 89.2291 198.635 88.4671 199.016 87.6853C199.995 85.6634 200.65 83.4998 200.958 81.274C201.571 76.8367 200.759 72.2526 198.117 68.7096C198.049 68.619 197.982 68.5306 197.912 68.4409Z" fill="#F0F0F0"/>
<path d="M197.789 68.5121C198.639 74.0544 197.723 79.7239 195.171 84.7152C194.641 85.7995 193.944 86.7934 193.104 87.6602C192.26 88.4781 191.212 89.0545 190.069 89.3296C189.009 89.6076 187.892 89.769 186.918 90.3001C186.423 90.5794 185.993 90.9603 185.656 91.4177C185.319 91.8751 185.082 92.3988 184.961 92.9544C184.623 94.3308 184.8 95.7466 185.02 97.1251C185.265 98.6557 185.544 100.242 185.084 101.761C185.029 101.945 185.317 102.02 185.373 101.837C186.172 99.1939 184.836 96.5281 185.108 93.8564C185.235 92.6097 185.738 91.3937 186.828 90.6999C187.781 90.0932 188.932 89.9258 190.008 89.6536C191.126 89.4016 192.166 88.8792 193.036 88.132C193.917 87.3108 194.652 86.3455 195.209 85.2775C196.502 82.8931 197.412 80.32 197.906 77.6525C198.488 74.6112 198.545 71.4927 198.076 68.432C198.047 68.2426 197.76 68.3239 197.789 68.5121V68.5121Z" fill="white"/>
<path d="M196.088 83.1565C196.982 83.4714 197.959 83.4577 198.844 83.1179C199.73 82.778 200.466 82.1341 200.92 81.3012C201.012 81.1323 200.754 80.982 200.663 81.1511C200.24 81.9275 199.555 82.5273 198.73 82.8421C197.905 83.1568 196.995 83.166 196.163 82.8678C195.983 82.8032 195.908 83.0922 196.088 83.1565V83.1565Z" fill="white"/>
<path d="M190.625 89.2596C189.771 87.5173 189.605 85.5168 190.158 83.657C190.213 83.4727 189.925 83.397 189.87 83.581C189.297 85.5174 189.475 87.5989 190.368 89.41C190.453 89.5826 190.71 89.4312 190.625 89.2596V89.2596Z" fill="white"/>
<path d="M198.102 74.6974C197.731 74.6477 197.377 74.5065 197.074 74.2863C196.77 74.0662 196.526 73.774 196.363 73.436C196.281 73.2624 196.024 73.414 196.106 73.5864C196.288 73.959 196.557 74.2813 196.892 74.5253C197.227 74.7693 197.616 74.9275 198.026 74.9861C198.064 74.9949 198.104 74.9887 198.138 74.969C198.172 74.9492 198.197 74.9173 198.208 74.8797C198.218 74.8415 198.212 74.8008 198.193 74.7667C198.173 74.7325 198.14 74.7076 198.102 74.6974V74.6974Z" fill="white"/>
<path d="M188.151 4.43417H145.702V7.1686C145.701 7.30862 145.749 7.4445 145.838 7.55291C145.752 9.69021 145.702 12.4187 145.702 15.3837V88.4891C145.702 95.3414 145.977 100.917 146.313 100.917H187.54C187.877 100.917 188.151 95.3414 188.151 88.4891V15.3837C188.151 12.4187 188.101 9.69021 188.016 7.55291C188.104 7.44448 188.152 7.30861 188.151 7.1686L188.151 4.43417Z" fill="white"/>
<path d="M187.54 101.212H146.313C145.992 101.212 145.78 101.212 145.586 97.287C145.471 94.9315 145.407 91.8069 145.407 88.489V15.3838C145.407 12.5181 145.455 9.73289 145.543 7.54104C145.598 6.22507 145.661 5.17093 145.73 4.4075C145.865 2.91298 145.995 2.66052 146.313 2.66052H187.54C187.859 2.66052 187.988 2.91298 188.124 4.4075C188.193 5.17382 188.256 6.22795 188.311 7.54046L188.311 7.54104C188.398 9.73058 188.447 12.5158 188.447 15.3838V88.489C188.447 91.8071 188.383 94.9316 188.267 97.287C188.074 101.212 187.862 101.212 187.54 101.212ZM146.481 100.621H187.373C187.586 99.8132 187.856 95.427 187.856 88.4891V15.3838C187.856 12.5236 187.808 9.74703 187.721 7.56529H187.721C187.666 6.26216 187.604 5.2177 187.536 4.46091C187.509 4.05441 187.454 3.65033 187.37 3.25175H146.484C146.4 3.65033 146.344 4.05441 146.318 4.46091C146.25 5.21481 146.187 6.25928 146.133 7.56529C146.045 9.7489 145.997 12.5258 145.997 15.3838V88.489C145.997 95.4269 146.267 99.8132 146.481 100.621Z" fill="#E4E4E4"/>
<path d="M187.54 2.95612H146.313C146.151 2.95643 145.996 3.021 145.881 3.13568C145.767 3.25037 145.702 3.40583 145.702 3.56804V7.16861C145.701 7.30863 145.749 7.44451 145.838 7.55292C145.895 7.6238 145.968 7.681 146.05 7.72037C146.132 7.75974 146.222 7.78029 146.313 7.78054H187.54C187.631 7.78028 187.721 7.75972 187.804 7.72035C187.886 7.68098 187.958 7.62379 188.016 7.55292C188.104 7.4445 188.152 7.30862 188.151 7.16861V3.56804C188.151 3.40585 188.087 3.25039 187.972 3.1357C187.858 3.02101 187.702 2.95643 187.54 2.95612V2.95612Z" fill="#CACACA"/>
<path d="M149.25 6.06156C149.73 6.06156 150.118 5.6725 150.118 5.19257C150.118 4.71264 149.73 4.32358 149.25 4.32358C148.771 4.32358 148.383 4.71264 148.383 5.19257C148.383 5.6725 148.771 6.06156 149.25 6.06156Z" fill="white"/>
<path d="M152.544 6.06156C153.024 6.06156 153.412 5.6725 153.412 5.19257C153.412 4.71264 153.024 4.32358 152.544 4.32358C152.065 4.32358 151.677 4.71264 151.677 5.19257C151.677 5.6725 152.065 6.06156 152.544 6.06156Z" fill="white"/>
<path d="M155.839 6.06156C156.318 6.06156 156.706 5.6725 156.706 5.19257C156.706 4.71264 156.318 4.32358 155.839 4.32358C155.359 4.32358 154.971 4.71264 154.971 5.19257C154.971 5.6725 155.359 6.06156 155.839 6.06156Z" fill="white"/>
<path d="M184.314 4.03217H180.52C180.446 4.03266 180.375 4.06241 180.322 4.11497C180.27 4.16754 180.24 4.23868 180.24 4.313C180.238 4.35532 180.249 4.39717 180.269 4.4342C180.292 4.48181 180.327 4.52207 180.372 4.55032C180.416 4.57857 180.467 4.59366 180.52 4.59383H184.314C184.367 4.5941 184.419 4.57922 184.464 4.55096C184.509 4.52269 184.545 4.4822 184.568 4.4342C184.586 4.39641 184.595 4.35491 184.594 4.313C184.594 4.27611 184.587 4.23958 184.573 4.20549C184.559 4.17141 184.538 4.14044 184.512 4.11436C184.486 4.08828 184.455 4.0676 184.421 4.05349C184.387 4.03939 184.35 4.03214 184.314 4.03217V4.03217Z" fill="white"/>
<path d="M184.314 5.08749H180.52C180.446 5.08749 180.374 5.11708 180.322 5.16975C180.269 5.22241 180.24 5.29384 180.24 5.36833C180.24 5.44281 180.269 5.51424 180.322 5.56691C180.374 5.61957 180.446 5.64916 180.52 5.64916H184.314C184.388 5.64916 184.459 5.61957 184.512 5.56691C184.564 5.51424 184.594 5.44281 184.594 5.36833C184.594 5.29384 184.564 5.22241 184.512 5.16975C184.459 5.11708 184.388 5.08749 184.314 5.08749V5.08749Z" fill="white"/>
<path d="M184.314 6.14285H180.52C180.446 6.14285 180.374 6.17244 180.322 6.22511C180.269 6.27778 180.24 6.3492 180.24 6.42369C180.24 6.49817 180.269 6.5696 180.322 6.62226C180.374 6.67493 180.446 6.70452 180.52 6.70452H184.314C184.388 6.70452 184.459 6.67493 184.512 6.62226C184.564 6.5696 184.594 6.49817 184.594 6.42369C184.594 6.3492 184.564 6.27778 184.512 6.22511C184.459 6.17244 184.388 6.14285 184.314 6.14285V6.14285Z" fill="white"/>
<path d="M171.029 15.6734H163.223C162.832 15.6736 162.456 15.8294 162.18 16.1065C161.903 16.3837 161.747 16.7595 161.747 17.1515V23.9211C161.748 24.3129 161.903 24.6884 162.18 24.9655C162.457 25.2425 162.832 25.3985 163.223 25.3991H171.029C171.42 25.398 171.795 25.2419 172.071 24.965C172.348 24.688 172.504 24.3127 172.505 23.9211V17.1515C172.504 16.7597 172.348 16.3841 172.072 16.1071C171.795 15.83 171.42 15.6741 171.029 15.6734Z" fill="#6C63FF"/>
<path d="M180.727 29.8215H153.522C153.344 29.8215 153.174 29.8922 153.048 30.018C152.923 30.1439 152.852 30.3146 152.852 30.4925C152.852 30.6705 152.923 30.8412 153.048 30.967C153.174 31.0929 153.344 31.1636 153.522 31.1636H180.727C180.904 31.1636 181.075 31.0929 181.2 30.967C181.326 30.8412 181.397 30.6705 181.397 30.4925C181.397 30.3146 181.326 30.1439 181.2 30.018C181.075 29.8922 180.904 29.8215 180.727 29.8215V29.8215Z" fill="#E4E4E4"/>
<path d="M163.855 32.9669H153.522C153.344 32.9669 153.174 33.0376 153.048 33.1634C152.923 33.2893 152.852 33.4599 152.852 33.6379C152.852 33.8159 152.923 33.9866 153.048 34.1124C153.174 34.2383 153.344 34.309 153.522 34.309H163.855C164.033 34.309 164.203 34.2383 164.329 34.1124C164.454 33.9866 164.525 33.8159 164.525 33.6379C164.525 33.4599 164.454 33.2893 164.329 33.1634C164.203 33.0376 164.033 32.9669 163.855 32.9669V32.9669Z" fill="#E4E4E4"/>
<path d="M171.029 44.9392H163.223C162.832 44.9394 162.456 45.0951 162.18 45.3723C161.903 45.6495 161.747 46.0253 161.747 46.4173V53.1868C161.748 53.5787 161.903 53.9542 162.18 54.2313C162.457 54.5083 162.832 54.6643 163.223 54.6649H171.029C171.42 54.6638 171.795 54.5077 172.071 54.2307C172.348 53.9538 172.504 53.5785 172.505 53.1868V46.4173C172.504 46.0255 172.348 45.6499 172.072 45.3728C171.795 45.0958 171.42 44.9399 171.029 44.9392Z" fill="#6C63FF"/>
<path d="M180.727 59.0873H153.522C153.344 59.0873 153.174 59.158 153.048 59.2838C152.923 59.4097 152.852 59.5803 152.852 59.7583C152.852 59.9363 152.923 60.107 153.048 60.2328C153.174 60.3587 153.344 60.4294 153.522 60.4294H180.727C180.904 60.4294 181.075 60.3587 181.2 60.2328C181.326 60.107 181.397 59.9363 181.397 59.7583C181.397 59.5803 181.326 59.4097 181.2 59.2838C181.075 59.158 180.904 59.0873 180.727 59.0873V59.0873Z" fill="#E4E4E4"/>
<path d="M163.855 62.2326H153.522C153.344 62.2326 153.174 62.3033 153.048 62.4292C152.923 62.555 152.852 62.7257 152.852 62.9037C152.852 63.0817 152.923 63.2523 153.048 63.3782C153.174 63.504 153.344 63.5747 153.522 63.5747H163.855C164.033 63.5747 164.203 63.504 164.329 63.3782C164.454 63.2523 164.525 63.0817 164.525 62.9037C164.525 62.7257 164.454 62.555 164.329 62.4292C164.203 62.3033 164.033 62.2326 163.855 62.2326V62.2326Z" fill="#E4E4E4"/>
<path d="M171.029 74.205H163.223C162.832 74.2052 162.456 74.361 162.18 74.6381C161.903 74.9153 161.747 75.2911 161.747 75.6831V82.4526C161.748 82.8444 161.903 83.22 162.18 83.4971C162.457 83.7741 162.832 83.93 163.223 83.9307H171.029C171.42 83.9296 171.795 83.7735 172.071 83.4965C172.348 83.2196 172.504 82.8443 172.505 82.4526V75.6831C172.504 75.2913 172.348 74.9157 172.072 74.6386C171.795 74.3616 171.42 74.2057 171.029 74.205V74.205Z" fill="#6C63FF"/>
<path d="M180.727 88.3531H153.522C153.344 88.3531 153.174 88.4238 153.048 88.5496C152.923 88.6755 152.852 88.8462 152.852 89.0241C152.852 89.2021 152.923 89.3728 153.048 89.4986C153.174 89.6245 153.344 89.6952 153.522 89.6952H180.727C180.904 89.6952 181.075 89.6245 181.2 89.4986C181.326 89.3728 181.397 89.2021 181.397 89.0241C181.397 88.8462 181.326 88.6755 181.2 88.5496C181.075 88.4238 180.904 88.3531 180.727 88.3531V88.3531Z" fill="#E4E4E4"/>
<path d="M163.855 91.4984H153.522C153.344 91.4984 153.174 91.5691 153.048 91.695C152.923 91.8208 152.852 91.9915 152.852 92.1694C152.852 92.3474 152.923 92.5181 153.048 92.644C153.174 92.7698 153.344 92.8405 153.522 92.8405H163.855C164.033 92.8405 164.203 92.7698 164.329 92.644C164.454 92.5181 164.525 92.3474 164.525 92.1694C164.525 91.9915 164.454 91.8208 164.329 91.695C164.203 91.5691 164.033 91.4984 163.855 91.4984Z" fill="#E4E4E4"/>
<path d="M134.126 0.907486C134.126 0.745297 134.062 0.589838 133.947 0.475148C133.833 0.360458 133.677 0.295882 133.515 0.295563H24.3878C24.2258 0.295876 24.0706 0.360443 23.956 0.47513C23.8415 0.589817 23.777 0.745282 23.7766 0.907486V4.50806C23.7761 4.65797 23.832 4.80257 23.9332 4.91306C23.8357 7.35778 23.7766 10.58 23.7766 14.1096V95.3769C23.7766 102.998 24.0512 109.194 24.3878 109.194H133.515C133.852 109.194 134.126 102.998 134.126 95.3769V14.1096C134.126 10.58 134.067 7.35778 133.97 4.91306C134.071 4.80255 134.127 4.65795 134.126 4.50806V0.907486Z" fill="white"/>
<path d="M133.515 109.49H24.3879C24.0543 109.49 23.8529 109.49 23.6611 105.156C23.5452 102.539 23.4814 99.0657 23.4814 95.3768V14.1097C23.4814 10.7079 23.5371 7.4377 23.6382 4.90131C23.8323 3.94687e-06 24.0533 0 24.3879 0H133.515C133.85 0 134.071 0.000870004 134.265 4.90131C134.366 7.43539 134.422 10.7056 134.422 14.1097V95.3768C134.422 99.0658 134.358 102.539 134.242 105.156C134.05 109.49 133.849 109.49 133.515 109.49ZM24.5602 108.898H133.343C133.585 107.971 133.831 102.767 133.831 95.3768V14.1097C133.831 10.7133 133.776 7.45126 133.675 4.92498V4.92484C133.552 1.81988 133.408 0.875006 133.34 0.591228H24.5634C24.4947 0.875018 24.3512 1.81988 24.2282 4.92484C24.1274 7.45372 24.0719 10.7156 24.0719 14.1097V95.3768C24.0719 102.767 24.3186 107.971 24.5602 108.898V108.898Z" fill="#E4E4E4"/>
<path d="M133.515 0.295563H24.3878C24.2258 0.295876 24.0706 0.360443 23.956 0.47513C23.8415 0.589816 23.777 0.745282 23.7766 0.907486V4.50806C23.7761 4.65796 23.832 4.80257 23.9332 4.91306C23.9899 4.97793 24.0598 5.02995 24.1382 5.06563C24.2166 5.10132 24.3017 5.11985 24.3878 5.11998H133.515C133.601 5.11985 133.686 5.10132 133.765 5.06563C133.843 5.02995 133.913 4.97793 133.97 4.91306C134.071 4.80255 134.127 4.65795 134.126 4.50806V0.907486C134.126 0.745301 134.062 0.589846 133.947 0.475157C133.832 0.360467 133.677 0.295888 133.515 0.295563V0.295563Z" fill="#CACACA"/>
<path d="M27.3251 3.40104C27.8044 3.40104 28.1929 3.01198 28.1929 2.53205C28.1929 2.05212 27.8044 1.66306 27.3251 1.66306C26.8458 1.66306 26.4573 2.05212 26.4573 2.53205C26.4573 3.01198 26.8458 3.40104 27.3251 3.40104Z" fill="white"/>
<path d="M30.6191 3.40104C31.0983 3.40104 31.4869 3.01198 31.4869 2.53205C31.4869 2.05212 31.0983 1.66306 30.6191 1.66306C30.1398 1.66306 29.7512 2.05212 29.7512 2.53205C29.7512 3.01198 30.1398 3.40104 30.6191 3.40104Z" fill="white"/>
<path d="M33.9132 3.40104C34.3925 3.40104 34.7811 3.01198 34.7811 2.53205C34.7811 2.05212 34.3925 1.66306 33.9132 1.66306C33.434 1.66306 33.0454 2.05212 33.0454 2.53205C33.0454 3.01198 33.434 3.40104 33.9132 3.40104Z" fill="white"/>
<path d="M130.288 1.37164H126.495C126.42 1.37164 126.349 1.40123 126.297 1.4539C126.244 1.50656 126.214 1.57799 126.214 1.65248C126.214 1.72696 126.244 1.79839 126.297 1.85106C126.349 1.90372 126.42 1.93331 126.495 1.93331H130.288C130.363 1.93331 130.434 1.90372 130.487 1.85106C130.539 1.79839 130.569 1.72696 130.569 1.65248C130.569 1.57799 130.539 1.50656 130.487 1.4539C130.434 1.40123 130.363 1.37164 130.288 1.37164Z" fill="white"/>
<path d="M130.288 2.42697H126.495C126.42 2.42697 126.349 2.45656 126.297 2.50922C126.244 2.56189 126.214 2.63332 126.214 2.7078C126.214 2.78229 126.244 2.85372 126.297 2.90638C126.349 2.95905 126.42 2.98864 126.495 2.98864H130.288C130.363 2.98864 130.434 2.95905 130.487 2.90638C130.539 2.85372 130.569 2.78229 130.569 2.7078C130.569 2.63332 130.539 2.56189 130.487 2.50922C130.434 2.45656 130.363 2.42697 130.288 2.42697V2.42697Z" fill="white"/>
<path d="M130.288 3.4823H126.495C126.42 3.4823 126.349 3.51189 126.297 3.56456C126.244 3.61722 126.214 3.68865 126.214 3.76313C126.214 3.83761 126.244 3.90905 126.297 3.96171C126.349 4.01438 126.42 4.04397 126.495 4.04397H130.288C130.363 4.04397 130.434 4.01438 130.487 3.96171C130.539 3.90905 130.569 3.83761 130.569 3.76313C130.569 3.68865 130.539 3.61722 130.487 3.56456C130.434 3.51189 130.363 3.4823 130.288 3.4823V3.4823Z" fill="white"/>
<path d="M59.6606 18.334H46.8894C46.2492 18.3347 45.6354 18.5898 45.1827 19.0431C44.73 19.4964 44.4754 20.111 44.4746 20.7521V31.8287C44.4754 32.4698 44.73 33.0844 45.1827 33.5377C45.6354 33.991 46.2492 34.2461 46.8894 34.2469H59.6606C60.3009 34.2461 60.9146 33.991 61.3673 33.5377C61.82 33.0844 62.0747 32.4698 62.0754 31.8287V20.7521C62.0747 20.111 61.82 19.4964 61.3673 19.0431C60.9146 18.5898 60.3009 18.3347 59.6606 18.334V18.334Z" fill="#6C63FF"/>
<path d="M112.336 22.6174H67.8233C67.5324 22.6174 67.2535 22.7331 67.0478 22.9391C66.8421 23.145 66.7266 23.4243 66.7266 23.7156C66.7266 24.0069 66.8421 24.2862 67.0478 24.4922C67.2535 24.6981 67.5324 24.8138 67.8233 24.8138H112.336C112.627 24.8138 112.906 24.6981 113.112 24.4922C113.317 24.2862 113.433 24.0069 113.433 23.7156C113.433 23.4243 113.317 23.145 113.112 22.9391C112.906 22.7331 112.627 22.6174 112.336 22.6174V22.6174Z" fill="#E4E4E4"/>
<path d="M84.7305 27.764H67.8233C67.5324 27.764 67.2535 27.8797 67.0478 28.0857C66.8421 28.2917 66.7266 28.571 66.7266 28.8622C66.7266 29.1535 66.8421 29.4328 67.0478 29.6388C67.2535 29.8447 67.5324 29.9604 67.8233 29.9604H84.7305C85.0213 29.9604 85.3003 29.8447 85.506 29.6388C85.7116 29.4328 85.8272 29.1535 85.8272 28.8622C85.8272 28.571 85.7116 28.2917 85.506 28.0857C85.3003 27.8797 85.0213 27.764 84.7305 27.764V27.764Z" fill="#E4E4E4"/>
<path d="M59.6606 47.8954H46.8894C46.2492 47.8961 45.6354 48.1512 45.1827 48.6045C44.73 49.0578 44.4754 49.6724 44.4746 50.3135V61.3901C44.4754 62.0312 44.73 62.6458 45.1827 63.0991C45.6354 63.5524 46.2492 63.8075 46.8894 63.8083H59.6606C60.3009 63.8075 60.9146 63.5524 61.3673 63.0991C61.82 62.6458 62.0747 62.0312 62.0754 61.3901V50.3135C62.0747 49.6724 61.82 49.0578 61.3673 48.6045C60.9146 48.1512 60.3009 47.8961 59.6606 47.8954V47.8954Z" fill="#6C63FF"/>
<path d="M112.336 52.1788H67.8233C67.5324 52.1788 67.2535 52.2945 67.0478 52.5005C66.8421 52.7064 66.7266 52.9857 66.7266 53.277C66.7266 53.5683 66.8421 53.8476 67.0478 54.0536C67.2535 54.2595 67.5324 54.3752 67.8233 54.3752H112.336C112.627 54.3752 112.906 54.2595 113.112 54.0536C113.317 53.8476 113.433 53.5683 113.433 53.277C113.433 52.9857 113.317 52.7064 113.112 52.5005C112.906 52.2945 112.627 52.1788 112.336 52.1788V52.1788Z" fill="#E4E4E4"/>
<path d="M84.7305 57.3254H67.8233C67.5324 57.3254 67.2535 57.4411 67.0478 57.6471C66.8421 57.8531 66.7266 58.1324 66.7266 58.4236C66.7266 58.7149 66.8421 58.9942 67.0478 59.2002C67.2535 59.4061 67.5324 59.5219 67.8233 59.5219H84.7305C85.0213 59.5219 85.3003 59.4061 85.506 59.2002C85.7116 58.9942 85.8272 58.7149 85.8272 58.4236C85.8272 58.1324 85.7116 57.8531 85.506 57.6471C85.3003 57.4411 85.0213 57.3254 84.7305 57.3254V57.3254Z" fill="#E4E4E4"/>
<path d="M59.6606 77.4568H46.8894C46.2492 77.4575 45.6354 77.7126 45.1827 78.1659C44.73 78.6192 44.4754 79.2338 44.4746 79.8749V90.9515C44.4754 91.5926 44.73 92.2072 45.1827 92.6605C45.6354 93.1138 46.2492 93.3689 46.8894 93.3697H59.6606C60.3009 93.3689 60.9146 93.1138 61.3673 92.6605C61.82 92.2072 62.0747 91.5926 62.0754 90.9515V79.8749C62.0747 79.2338 61.82 78.6192 61.3673 78.1659C60.9146 77.7126 60.3009 77.4575 59.6606 77.4568V77.4568Z" fill="#6C63FF"/>
<path d="M112.336 81.7402H67.8233C67.5324 81.7402 67.2535 81.8559 67.0478 82.0619C66.8421 82.2678 66.7266 82.5471 66.7266 82.8384C66.7266 83.1297 66.8421 83.409 67.0478 83.615C67.2535 83.8209 67.5324 83.9366 67.8233 83.9366H112.336C112.627 83.9366 112.906 83.8209 113.112 83.615C113.317 83.409 113.433 83.1297 113.433 82.8384C113.433 82.5471 113.317 82.2678 113.112 82.0619C112.906 81.8559 112.627 81.7402 112.336 81.7402V81.7402Z" fill="#E4E4E4"/>
<path d="M84.7305 86.8868H67.8233C67.5324 86.8868 67.2535 87.0025 67.0478 87.2085C66.8421 87.4144 66.7266 87.6938 66.7266 87.985C66.7266 88.2763 66.8421 88.5556 67.0478 88.7616C67.2535 88.9675 67.5324 89.0832 67.8233 89.0832H84.7305C85.0213 89.0832 85.3003 88.9675 85.506 88.7616C85.7116 88.5556 85.8272 88.2763 85.8272 87.985C85.8272 87.6938 85.7116 87.4144 85.506 87.2085C85.3003 87.0025 85.0213 86.8868 84.7305 86.8868V86.8868Z" fill="#E4E4E4"/>
<path d="M153.001 128.704H79.8901C79.553 128.704 79.2788 123.517 79.2788 117.139V49.1082C79.2788 42.7306 79.553 37.5428 79.8901 37.5428H153.001C153.338 37.5428 153.612 42.7306 153.612 49.1082V117.139C153.612 123.517 153.338 128.704 153.001 128.704Z" fill="white"/>
<path d="M153.001 129H79.8901C79.5809 129 79.3574 129 79.1633 125.329C79.0474 123.137 78.9836 120.228 78.9836 117.139V49.1081C78.9836 46.0188 79.0474 43.1101 79.1633 40.9183C79.3574 37.2471 79.5809 37.2471 79.8901 37.2471H153.001C153.31 37.2471 153.533 37.2471 153.727 40.9183C153.843 43.1101 153.907 46.0188 153.907 49.1081V117.139C153.907 120.228 153.843 123.137 153.727 125.329C153.533 129 153.31 129 153.001 129ZM80.0535 128.409H152.837C153.049 127.643 153.317 123.562 153.317 117.139V49.1081C153.317 42.6846 153.049 38.6042 152.837 37.8383H80.0535C79.8416 38.6042 79.5741 42.6846 79.5741 49.1081V117.139C79.5741 123.562 79.8416 127.643 80.0535 128.409Z" fill="#E4E4E4"/>
<path d="M153.001 42.3673H79.8901C79.728 42.3671 79.5726 42.3026 79.458 42.1878C79.3434 42.0731 79.279 41.9175 79.2788 41.7552V38.1548C79.279 37.9926 79.3434 37.837 79.458 37.7222C79.5726 37.6075 79.728 37.5429 79.8901 37.5428H153.001C153.163 37.5429 153.318 37.6075 153.433 37.7222C153.547 37.837 153.612 37.9926 153.612 38.1548V41.7552C153.612 41.9175 153.547 42.0731 153.433 42.1878C153.318 42.3026 153.163 42.3671 153.001 42.3673V42.3673Z" fill="#CACACA"/>
<path d="M82.8263 40.6484C83.3056 40.6484 83.6942 40.2593 83.6942 39.7794C83.6942 39.2995 83.3056 38.9104 82.8263 38.9104C82.347 38.9104 81.9585 39.2995 81.9585 39.7794C81.9585 40.2593 82.347 40.6484 82.8263 40.6484Z" fill="white"/>
<path d="M86.1203 40.6484C86.5996 40.6484 86.9881 40.2593 86.9881 39.7794C86.9881 39.2995 86.5996 38.9104 86.1203 38.9104C85.641 38.9104 85.2524 39.2995 85.2524 39.7794C85.2524 40.2593 85.641 40.6484 86.1203 40.6484Z" fill="white"/>
<path d="M89.4145 40.6484C89.8937 40.6484 90.2823 40.2593 90.2823 39.7794C90.2823 39.2995 89.8937 38.9104 89.4145 38.9104C88.9352 38.9104 88.5466 39.2995 88.5466 39.7794C88.5466 40.2593 88.9352 40.6484 89.4145 40.6484Z" fill="white"/>
<path d="M149.773 39.1813H145.98C145.905 39.1813 145.834 39.1516 145.781 39.0989C145.729 39.0461 145.699 38.9746 145.699 38.8999C145.699 38.8253 145.729 38.7538 145.781 38.701C145.834 38.6482 145.905 38.6186 145.98 38.6186H149.773C149.847 38.6188 149.919 38.6486 149.971 38.7013C150.024 38.7541 150.053 38.8255 150.053 38.8999C150.053 38.9744 150.024 39.0458 149.971 39.0986C149.919 39.1513 149.847 39.1811 149.773 39.1813Z" fill="white"/>
<path d="M149.773 40.2363H145.98C145.905 40.2363 145.834 40.2067 145.781 40.1539C145.729 40.1012 145.699 40.0296 145.699 39.955C145.699 39.8804 145.729 39.8088 145.781 39.7561C145.834 39.7033 145.905 39.6736 145.98 39.6736H149.773C149.848 39.6736 149.919 39.7033 149.972 39.7561C150.024 39.8088 150.054 39.8804 150.054 39.955C150.054 40.0296 150.024 40.1012 149.972 40.1539C149.919 40.2067 149.848 40.2363 149.773 40.2363V40.2363Z" fill="white"/>
<path d="M149.773 41.2914H145.98C145.905 41.2914 145.834 41.2618 145.781 41.209C145.729 41.1563 145.699 41.0847 145.699 41.0101C145.699 40.9355 145.729 40.8639 145.781 40.8111C145.834 40.7584 145.905 40.7287 145.98 40.7287H149.773C149.847 40.729 149.919 40.7587 149.971 40.8115C150.024 40.8642 150.053 40.9356 150.053 41.0101C150.053 41.0845 150.024 41.156 149.971 41.2087C149.919 41.2614 149.847 41.2912 149.773 41.2914V41.2914Z" fill="white"/>
<path d="M102.356 64.7148H93.0292C92.5616 64.7142 92.1132 64.528 91.7826 64.1969C91.4519 63.8658 91.2659 63.4169 91.2654 62.9486V54.8597C91.2659 54.3914 91.4519 53.9425 91.7826 53.6114C92.1132 53.2803 92.5616 53.094 93.0292 53.0935H102.356C102.824 53.094 103.272 53.2803 103.603 53.6114C103.933 53.9425 104.119 54.3914 104.12 54.8597V62.9486C104.119 63.4168 103.933 63.8658 103.603 64.1969C103.272 64.528 102.824 64.7142 102.356 64.7148Z" fill="#6C63FF"/>
<path d="M140.825 57.8268H108.318C108.105 57.8268 107.902 57.7423 107.752 57.5919C107.601 57.4415 107.517 57.2376 107.517 57.0249C107.517 56.8123 107.601 56.6083 107.752 56.4579C107.902 56.3076 108.105 56.2231 108.318 56.2231H140.825C141.037 56.2231 141.241 56.3076 141.391 56.4579C141.541 56.6083 141.625 56.8123 141.625 57.0249C141.625 57.2376 141.541 57.4415 141.391 57.5919C141.241 57.7423 141.037 57.8268 140.825 57.8268V57.8268Z" fill="#E4E4E4"/>
<path d="M120.664 61.5852H108.318C108.105 61.5852 107.902 61.5007 107.752 61.3504C107.601 61.2 107.517 60.996 107.517 60.7834C107.517 60.5707 107.601 60.3668 107.752 60.2164C107.902 60.066 108.105 59.9815 108.318 59.9815H120.664C120.77 59.9813 120.874 60.0019 120.971 60.0421C121.069 60.0823 121.157 60.1414 121.232 60.2159C121.306 60.2903 121.365 60.3788 121.406 60.4762C121.446 60.5736 121.467 60.6779 121.467 60.7834C121.467 60.8888 121.446 60.9932 121.406 61.0906C121.365 61.188 121.306 61.2764 121.232 61.3509C121.157 61.4254 121.069 61.4844 120.971 61.5246C120.874 61.5648 120.77 61.5854 120.664 61.5852Z" fill="#E4E4E4"/>
<path d="M102.356 88.6595H93.0292C92.5616 88.659 92.1132 88.4727 91.7826 88.1416C91.4519 87.8105 91.2659 87.3616 91.2654 86.8934V78.8044C91.2659 78.3362 91.4519 77.8873 91.7826 77.5562C92.1132 77.2251 92.5616 77.0388 93.0292 77.0383H102.356C102.824 77.0388 103.272 77.2251 103.603 77.5562C103.933 77.8873 104.119 78.3362 104.12 78.8044V86.8934C104.119 87.3616 103.933 87.8105 103.603 88.1416C103.272 88.4728 102.824 88.659 102.356 88.6595V88.6595Z" fill="#6C63FF"/>
<path d="M140.825 81.7715H108.318C108.105 81.7715 107.902 81.687 107.752 81.5367C107.601 81.3863 107.517 81.1823 107.517 80.9697C107.517 80.757 107.601 80.553 107.752 80.4027C107.902 80.2523 108.105 80.1678 108.318 80.1678H140.825C141.037 80.1678 141.241 80.2523 141.391 80.4027C141.541 80.553 141.625 80.757 141.625 80.9697C141.625 81.1823 141.541 81.3863 141.391 81.5367C141.241 81.687 141.037 81.7715 140.825 81.7715V81.7715Z" fill="#E4E4E4"/>
<path d="M120.664 85.5299H108.318C108.105 85.5299 107.902 85.4455 107.752 85.2951C107.601 85.1447 107.517 84.9408 107.517 84.7281C107.517 84.5154 107.601 84.3115 107.752 84.1611C107.902 84.0107 108.105 83.9263 108.318 83.9263H120.664C120.77 83.9261 120.874 83.9467 120.971 83.9869C121.069 84.0271 121.157 84.0861 121.232 84.1606C121.306 84.2351 121.365 84.3235 121.406 84.4209C121.446 84.5183 121.467 84.6227 121.467 84.7281C121.467 84.8335 121.446 84.9379 121.406 85.0353C121.365 85.1327 121.306 85.2211 121.232 85.2956C121.157 85.3701 121.069 85.4291 120.971 85.4693C120.874 85.5095 120.77 85.5301 120.664 85.5299V85.5299Z" fill="#E4E4E4"/>
<path d="M102.356 112.604H93.0292C92.5616 112.604 92.1132 112.417 91.7826 112.086C91.4519 111.755 91.2659 111.306 91.2654 110.838V102.749C91.2659 102.281 91.4519 101.832 91.7826 101.501C92.1132 101.17 92.5616 100.984 93.0292 100.983H102.356C102.824 100.984 103.272 101.17 103.603 101.501C103.933 101.832 104.119 102.281 104.12 102.749V110.838C104.119 111.306 103.933 111.755 103.603 112.086C103.272 112.417 102.824 112.604 102.356 112.604Z" fill="#6C63FF"/>
<path d="M140.825 105.716H108.318C108.105 105.716 107.902 105.632 107.752 105.481C107.601 105.331 107.517 105.127 107.517 104.914C107.517 104.702 107.601 104.498 107.752 104.347C107.902 104.197 108.105 104.113 108.318 104.113H140.825C141.037 104.113 141.241 104.197 141.391 104.347C141.541 104.498 141.625 104.702 141.625 104.914C141.625 105.127 141.541 105.331 141.391 105.481C141.241 105.632 141.037 105.716 140.825 105.716Z" fill="#E4E4E4"/>
<path d="M120.664 109.475H108.318C108.105 109.475 107.902 109.39 107.752 109.24C107.601 109.089 107.517 108.885 107.517 108.673C107.517 108.46 107.601 108.256 107.752 108.106C107.902 107.955 108.105 107.871 108.318 107.871H120.664C120.77 107.871 120.874 107.891 120.971 107.932C121.069 107.972 121.157 108.031 121.232 108.105C121.306 108.18 121.365 108.268 121.406 108.366C121.446 108.463 121.467 108.567 121.467 108.673C121.467 108.778 121.446 108.883 121.406 108.98C121.365 109.077 121.306 109.166 121.232 109.24C121.157 109.315 121.069 109.374 120.971 109.414C120.874 109.454 120.77 109.475 120.664 109.475V109.475Z" fill="#E4E4E4"/>
</g>
<defs>
<clipPath id="clip0_138_6900">
<rect width="216" height="129" fill="white"/>
</clipPath>
</defs>
</svg>
