<svg width="252" height="294" viewBox="0 0 252 294" fill="none" xmlns="http://www.w3.org/2000/svg">
<g clip-path="url(#clip0_814_3881)">
<path fill-rule="evenodd" clip-rule="evenodd" d="M0.5 129.023V126.939C0.5 58.364 56.091 2.77399 124.665 2.77399H126.75C195.324 2.77399 250.915 58.364 250.915 126.939V129.023C250.915 197.598 195.325 253.189 126.75 253.189H124.665C56.091 253.189 0.5 197.598 0.5 129.023Z" fill="#E4EBF7"/>
<path fill-rule="evenodd" clip-rule="evenodd" d="M41.9171 132.92C41.8087 133.996 41.4896 135.039 40.9779 135.991C40.4662 136.944 39.772 137.786 38.9349 138.47C38.0978 139.153 37.1341 139.666 36.099 139.977C35.0639 140.289 33.9776 140.393 32.9021 140.285C31.8265 140.177 30.7829 139.858 29.8307 139.346C28.8785 138.834 28.0364 138.14 27.3525 137.303C26.6686 136.466 26.1563 135.502 25.8448 134.467C25.5333 133.432 25.4287 132.346 25.5371 131.27C25.7559 129.098 26.8286 127.102 28.5192 125.72C30.2099 124.339 32.3799 123.686 34.5521 123.905C36.7242 124.124 38.7204 125.197 40.1016 126.887C41.4828 128.578 42.1359 130.748 41.9171 132.92Z" fill="white"/>
<path d="M50.4891 148.505L37.9091 159.235M39.1521 136.36L49.5771 142.27L39.1521 136.36Z" stroke="white" stroke-width="2"/>
<path fill-rule="evenodd" clip-rule="evenodd" d="M42.036 161.28C41.9618 162.016 41.7433 162.731 41.3929 163.383C41.0425 164.035 40.5672 164.612 39.994 165.08C39.4207 165.548 38.7609 165.899 38.0521 166.112C37.3433 166.326 36.5995 166.397 35.863 166.323C35.1266 166.249 34.4119 166.03 33.7599 165.68C33.1079 165.33 32.5313 164.854 32.063 164.281C31.5948 163.708 31.244 163.048 31.0307 162.339C30.8174 161.63 30.7458 160.886 30.82 160.15C30.9699 158.663 31.7044 157.296 32.8621 156.35C34.0197 155.404 35.5057 154.957 36.993 155.107C38.4804 155.257 39.8472 155.991 40.793 157.149C41.7387 158.307 42.1859 159.793 42.036 161.28ZM59.654 145.261C59.5793 146.003 59.3592 146.723 59.0063 147.379C58.6534 148.036 58.1746 148.617 57.5973 149.088C57.0199 149.56 56.3553 149.913 55.6414 150.128C54.9275 150.343 54.1783 150.415 53.4365 150.341C52.6947 150.266 51.975 150.046 51.3182 149.693C50.6615 149.34 50.0808 148.861 49.6091 148.284C49.1374 147.706 48.7841 147.042 48.5692 146.328C48.3544 145.614 48.2823 144.865 48.357 144.123C48.5079 142.625 49.2478 141.248 50.4138 140.296C51.5798 139.343 53.0764 138.893 54.5745 139.044C56.0726 139.194 57.4494 139.934 58.402 141.1C59.3545 142.266 59.8049 143.763 59.654 145.261ZM100.86 29.516L130.52 29.503C131.73 29.5025 132.891 29.0212 133.746 28.1651C134.601 27.309 135.082 26.1482 135.081 24.938C135.08 23.7278 134.599 22.5674 133.743 21.7121C132.887 20.8567 131.726 20.3765 130.516 20.377L100.856 20.39C100.257 20.3903 99.6635 20.5087 99.11 20.7383C98.5565 20.9679 98.0537 21.3043 97.6302 21.7283C96.775 22.5845 96.2949 23.7453 96.2955 24.9555C96.2962 26.1657 96.7776 27.326 97.6338 28.1813C98.49 29.0366 99.6508 29.5167 100.861 29.516H100.86ZM112.205 47.754L141.864 47.741C143.074 47.7405 144.235 47.2592 145.09 46.4031C145.945 45.547 146.426 44.3862 146.425 43.176C146.424 41.9658 145.943 40.8054 145.087 39.9501C144.231 39.0947 143.07 38.6145 141.86 38.615L112.2 38.628C111.601 38.6283 111.007 38.7467 110.454 38.9763C109.901 39.2059 109.398 39.5423 108.974 39.9663C108.119 40.8225 107.639 41.9833 107.64 43.1935C107.64 44.4037 108.122 45.5641 108.978 46.4193C109.834 47.2746 110.995 47.7547 112.205 47.754Z" fill="white"/>
<path fill-rule="evenodd" clip-rule="evenodd" d="M114.566 29.503V29.5L130.264 29.493C129.054 29.4935 127.893 29.9748 127.038 30.8309C126.183 31.687 125.703 32.8478 125.703 34.058C125.704 35.2682 126.185 36.4286 127.041 37.284C127.897 38.1393 129.058 38.6195 130.268 38.619L114.57 38.626V38.624C115.763 38.5985 116.899 38.1065 117.733 37.2535C118.568 36.4005 119.035 35.2544 119.035 34.0611C119.034 32.8677 118.566 31.722 117.731 30.8697C116.895 30.0175 115.759 29.5265 114.566 29.502V29.503ZM185.905 137.723C185.355 143.178 180.487 147.155 175.032 146.605C169.576 146.055 165.6 141.187 166.15 135.732C166.7 130.277 171.568 126.3 177.023 126.85C182.478 127.4 186.455 132.268 185.905 137.723Z" fill="white"/>
<path d="M194.341 158.42L179.17 171.36M180.67 143.772L193.242 150.901L180.67 143.772Z" stroke="white" stroke-width="2"/>
<path fill-rule="evenodd" clip-rule="evenodd" d="M186.05 171.926C185.869 173.72 184.983 175.369 183.587 176.509C182.191 177.65 180.398 178.189 178.605 178.008C176.811 177.828 175.162 176.942 174.021 175.545C172.881 174.149 172.341 172.357 172.522 170.563C172.717 168.781 173.608 167.148 175.002 166.02C176.395 164.891 178.177 164.359 179.961 164.539C181.745 164.719 183.386 165.596 184.526 166.979C185.666 168.363 186.213 170.141 186.049 171.926H186.05ZM204.62 155.285C204.438 157.092 203.545 158.753 202.138 159.902C200.732 161.05 198.926 161.593 197.119 161.411C195.312 161.229 193.651 160.336 192.503 158.929C191.354 157.523 190.811 155.717 190.993 153.91C191.193 152.118 192.093 150.477 193.496 149.344C194.899 148.211 196.692 147.677 198.486 147.858C200.28 148.039 201.931 148.92 203.079 150.311C204.227 151.701 204.781 153.489 204.619 155.285" fill="white"/>
<path fill-rule="evenodd" clip-rule="evenodd" d="M153.488 194.074C153.488 194.66 153.255 195.222 152.841 195.637C152.426 196.051 151.864 196.284 151.278 196.284C150.692 196.284 150.13 196.051 149.715 195.637C149.301 195.222 149.068 194.66 149.068 194.074C149.068 193.488 149.301 192.926 149.715 192.511C150.13 192.097 150.692 191.864 151.278 191.864C151.864 191.864 152.426 192.097 152.841 192.511C153.255 192.926 153.488 193.488 153.488 194.074ZM226.431 118.217C226.431 118.803 226.198 119.366 225.784 119.78C225.369 120.195 224.807 120.427 224.221 120.427C223.634 120.427 223.072 120.195 222.657 119.78C222.243 119.366 222.01 118.803 222.01 118.217C222.01 117.631 222.243 117.068 222.657 116.654C223.072 116.239 223.634 116.007 224.221 116.007C224.807 116.007 225.369 116.239 225.784 116.654C226.198 117.068 226.431 117.631 226.431 118.217V118.217ZM217.59 153.051C217.59 153.637 217.357 154.2 216.943 154.614C216.528 155.029 215.966 155.262 215.38 155.262C214.793 155.262 214.231 155.029 213.816 154.614C213.402 154.2 213.169 153.637 213.169 153.051C213.169 152.465 213.402 151.903 213.816 151.488C214.231 151.074 214.793 150.841 215.379 150.841C215.965 150.841 216.527 151.074 216.942 151.488C217.356 151.903 217.589 152.465 217.589 153.051H217.59ZM178.34 109.842C178.34 110.428 178.107 110.991 177.692 111.405C177.278 111.82 176.715 112.053 176.129 112.053C175.543 112.053 174.98 111.82 174.566 111.405C174.151 110.991 173.918 110.428 173.918 109.842C173.918 109.256 174.151 108.693 174.565 108.279C174.98 107.864 175.542 107.632 176.128 107.632C176.715 107.632 177.277 107.864 177.692 108.279C178.106 108.693 178.339 109.256 178.339 109.842H178.34ZM196.614 94.454C196.614 95.0403 196.381 95.6025 195.967 96.0171C195.552 96.4316 194.99 96.6645 194.404 96.6645C193.817 96.6645 193.255 96.4316 192.84 96.0171C192.426 95.6025 192.193 95.0403 192.193 94.454C192.193 93.8677 192.426 93.3055 192.84 92.8909C193.255 92.4764 193.817 92.2435 194.404 92.2435C194.99 92.2435 195.552 92.4764 195.967 92.8909C196.381 93.3055 196.614 93.8677 196.614 94.454ZM203.344 182.523C203.344 182.813 203.287 183.101 203.176 183.369C203.065 183.637 202.902 183.88 202.697 184.086C202.491 184.291 202.248 184.454 201.98 184.565C201.712 184.676 201.424 184.733 201.134 184.733C200.844 184.733 200.556 184.676 200.288 184.565C200.02 184.454 199.777 184.291 199.571 184.086C199.366 183.88 199.203 183.637 199.092 183.369C198.981 183.101 198.924 182.813 198.924 182.523C198.924 181.937 199.157 181.375 199.571 180.96C199.986 180.546 200.548 180.313 201.134 180.313C201.72 180.313 202.282 180.546 202.697 180.96C203.111 181.375 203.344 181.937 203.344 182.523Z" stroke="white" stroke-width="2"/>
<path d="M222.01 119.404L209.24 127.263L194.012 119.403V96.668M215.625 155.262L213.723 175.337L202.853 181.295L215.625 155.262ZM175.101 176.636L168.779 186.397H157.48L152.996 192.846L175.101 176.636ZM176.374 127.28V111.56V127.28Z" stroke="white" stroke-width="2"/>
<path fill-rule="evenodd" clip-rule="evenodd" d="M181.18 29.32C181.18 13.128 194.306 0 210.5 0C226.693 0 239.82 13.127 239.82 29.32C239.82 45.514 226.693 58.642 210.5 58.642C194.307 58.642 181.18 45.514 181.18 29.321" fill="#A26EF4"/>
<path fill-rule="evenodd" clip-rule="evenodd" d="M221.95 41.706L200.387 41.581C200.158 41.5797 199.931 41.5333 199.72 41.4444C199.509 41.3556 199.318 41.226 199.157 41.0631C198.996 40.9003 198.868 40.7073 198.782 40.4952C198.695 40.2831 198.652 40.056 198.653 39.827L198.724 27.597C198.725 27.368 198.772 27.1415 198.861 26.9304C198.949 26.7193 199.079 26.5277 199.242 26.3667C199.405 26.2057 199.598 26.0784 199.81 25.9919C200.022 25.9055 200.249 25.8617 200.478 25.863L222.04 25.988C223.004 25.994 223.78 26.779 223.775 27.743L223.704 39.972C223.703 40.201 223.656 40.4276 223.567 40.6386C223.479 40.8497 223.349 41.0413 223.186 41.2023C223.023 41.3633 222.83 41.4907 222.618 41.5771C222.406 41.6635 222.179 41.7073 221.95 41.706Z" fill="white"/>
<path fill-rule="evenodd" clip-rule="evenodd" d="M215.606 29.192C215.591 31.769 213.557 33.846 211.063 33.832C208.569 33.818 206.559 31.717 206.574 29.139L206.614 22.214C206.63 19.637 208.664 17.56 211.157 17.574C213.651 17.589 215.661 19.69 215.647 22.267L215.607 29.192H215.606ZM211.076 15.118C209.252 15.1076 207.499 15.8221 206.202 17.1043C204.905 18.3864 204.171 20.1313 204.16 21.955L204.117 29.323C204.112 30.2261 204.284 31.1214 204.625 31.9578C204.966 32.7941 205.468 33.5552 206.103 34.1975C207.385 35.4947 209.13 36.2294 210.954 36.24C212.778 36.2506 214.531 35.5362 215.828 34.2541C217.126 32.9719 217.86 31.2269 217.871 29.403L217.913 22.035C217.923 20.2112 217.209 18.4579 215.927 17.1608C214.645 15.8636 212.9 15.1288 211.076 15.118ZM168.066 68.367H164.136C162.886 68.3636 161.688 67.8655 160.804 66.9816C159.92 66.0978 159.422 64.9 159.419 63.65C159.422 62.4 159.92 61.2022 160.804 60.3184C161.688 59.4345 162.886 58.9364 164.136 58.933H168.066C169.316 58.9364 170.514 59.4345 171.398 60.3184C172.281 61.2022 172.78 62.4 172.783 63.65C172.78 64.9 172.281 66.0978 171.398 66.9816C170.514 67.8655 169.316 68.3636 168.066 68.367Z" fill="white"/>
<path fill-rule="evenodd" clip-rule="evenodd" d="M168.714 248.838C166.961 248.838 165.28 248.141 164.04 246.901C162.8 245.662 162.104 243.98 162.104 242.227V176.119C162.125 174.38 162.831 172.719 164.069 171.497C165.306 170.275 166.975 169.589 168.714 169.589C170.454 169.589 172.123 170.275 173.36 171.497C174.598 172.719 175.304 174.38 175.325 176.119V242.227C175.325 243.98 174.628 245.661 173.389 246.901C172.149 248.14 170.468 248.837 168.715 248.837" fill="#5BA02E"/>
<path fill-rule="evenodd" clip-rule="evenodd" d="M176.647 248.176C174.894 248.176 173.213 247.479 171.973 246.24C170.734 245 170.037 243.319 170.037 241.566V208.512C170.026 207.637 170.189 206.769 170.517 205.957C170.844 205.146 171.329 204.407 171.944 203.785C172.559 203.162 173.291 202.668 174.099 202.331C174.906 201.993 175.772 201.82 176.648 201.82C177.523 201.82 178.389 201.993 179.196 202.331C180.004 202.668 180.736 203.162 181.351 203.785C181.966 204.407 182.451 205.146 182.778 205.957C183.106 206.769 183.269 207.637 183.258 208.512V241.565C183.258 243.318 182.562 245 181.322 246.239C180.082 247.479 178.401 248.176 176.648 248.176" fill="#92C110"/>
<path fill-rule="evenodd" clip-rule="evenodd" d="M186.494 293.89H159.118C158.277 293.89 157.471 293.556 156.876 292.962C156.282 292.367 155.948 291.561 155.948 290.72V244.833C155.948 243.992 156.282 243.186 156.876 242.591C157.471 241.997 158.277 241.663 159.118 241.663H186.494C187.335 241.663 188.141 241.997 188.736 242.591C189.33 243.186 189.664 243.992 189.664 244.833V290.719C189.664 291.56 189.33 292.366 188.736 292.961C188.141 293.555 187.335 293.889 186.494 293.889" fill="#F2D7AD"/>
<path fill-rule="evenodd" clip-rule="evenodd" d="M82.472 147.673C82.472 147.673 88.849 146.746 100.038 146.393C111.767 146.022 117.608 147.479 117.608 147.479C117.608 147.479 121.305 143.624 118.576 139.055C119.854 126.978 124.558 106.228 118.911 90.782C117.795 89.443 115.168 89.27 111.375 90.162C110.038 90.477 104.228 90.013 103.392 90.062L88.081 89.715C88.081 89.715 84.594 89.545 80.046 89.207C78.534 89.094 75.819 87.524 74.588 88.869C74.182 89.312 72.163 94.538 72.618 104.946L81.253 140.588C81.253 140.588 78.112 144.198 82.472 147.673Z" fill="white"/>
<path fill-rule="evenodd" clip-rule="evenodd" d="M76.268 73.325L75.368 66.928L87.35 60.408C87.35 60.408 94.652 60.29 95.388 61.613C96.125 62.937 89.772 62.606 89.772 62.606C89.772 62.606 87.936 63.994 87.157 65.106C85.503 67.469 86.171 71.577 78.839 71.092C77.131 71.376 76.269 73.325 76.269 73.325" fill="#FFC6A0"/>
<path fill-rule="evenodd" clip-rule="evenodd" d="M52.94 77.672C52.94 77.672 67.157 87.078 77.913 92.116C78.974 92.613 75.819 108.299 66.021 103.927C58.585 100.609 45.859 95.487 44.539 89.431C43.829 86.173 47.082 81.788 52.94 77.671V77.672ZM142.362 80.113C142.362 80.113 135.669 83.112 128.518 86.989C124.624 89.099 118.381 91.693 116.188 94.977C109.964 104.291 119.724 106.197 129.135 102.48C135.845 99.829 158.134 90.353 142.362 80.113Z" fill="#FFB594"/>
<path fill-rule="evenodd" clip-rule="evenodd" d="M76.6661 66.36L79.7261 70.241C79.7261 70.241 76.9431 72.911 73.4161 75.988C66.3131 82.183 60.6131 90.284 57.4211 92.428C53.4551 95.09 47.6671 95.742 45.2441 92.31C41.6911 87.278 45.7081 77.682 76.6661 66.36Z" fill="#FFC6A0"/>
<path fill-rule="evenodd" clip-rule="evenodd" d="M65.174 85.116C65.174 85.116 62.834 93.529 56.262 99.563C56.914 100.111 74.848 110.073 78.406 109.619C83.644 108.95 84.823 90.651 79.551 89.088C78.849 88.88 73.65 87.802 70.698 86.921C69.828 86.661 69.087 85.211 67.153 85.985L65.173 85.116H65.174ZM128.862 85.826C128.862 85.826 134.18 87.782 136.187 99.56C135.641 99.834 118.637 111.91 114.358 107.365C107.824 100.425 113.592 89.972 118.633 88.755C123.279 87.634 123.663 87.385 128.863 85.826" fill="white"/>
<path d="M78.68 94.656C78.68 94.656 79.591 102.066 73.766 107.734" stroke="#E4EBF7" stroke-width="1.051" stroke-linecap="round" stroke-linejoin="round"/>
<path d="M87.897 94.68C87.897 94.68 91.021 97.252 98.16 97.252C105.3 97.252 107.234 93.815 107.234 93.815" stroke="#E4EBF7" stroke-width="0.932" stroke-linecap="round" stroke-linejoin="round"/>
<path fill-rule="evenodd" clip-rule="evenodd" d="M117.684 68.639L110.903 62.462C110.903 62.462 105.548 58.148 101.68 61.569C97.813 64.991 106.143 63.652 107.333 65.734C108.523 67.816 108.181 66.877 105.25 66.18C99.647 64.849 103.168 67.073 108.225 71.535C110.316 73.38 115.217 72.49 115.217 72.49L117.684 68.639Z" fill="#FFC6A0"/>
<path fill-rule="evenodd" clip-rule="evenodd" d="M105.782 91.315L105.485 80.378L89.567 80.351L89.037 90.801C89.011 91.204 89.207 91.589 89.552 91.8C91.601 93.051 98.939 96.893 105.351 92.224C105.638 92.014 105.794 91.67 105.782 91.314" fill="#FFB594"/>
<path fill-rule="evenodd" clip-rule="evenodd" d="M108.073 74.24C108.89 73.093 109.055 65.122 109.088 62.312C109.091 62.0465 108.993 61.7898 108.814 61.5939C108.635 61.398 108.388 61.2775 108.123 61.257L103.503 60.892C95.7931 59.848 86.4321 61.516 85.2501 67.238C79.7681 73.051 84.8291 80.482 84.8291 80.482C84.8291 80.482 86.7921 84.048 89.1341 87.273C89.8901 88.314 89.5321 83.542 92.1741 81.344C97.6981 76.75 108.073 74.241 108.073 74.241" fill="#5C2552"/>
<path fill-rule="evenodd" clip-rule="evenodd" d="M88.9261 83.206C88.9261 83.206 91.6111 89.408 100.528 89.728C108.348 90.008 109.501 82.72 107.962 72.223L107.053 66.74C100.935 63.843 91.5751 67.28 91.5751 67.28C91.5751 67.28 90.9991 69.324 91.3851 72.784C89.1091 74.85 89.5611 78.402 89.5611 78.402C89.5611 78.402 88.6561 76.48 87.5811 76.081C86.7211 75.761 85.6841 76.17 85.2591 78.061C84.2191 82.693 88.9261 83.206 88.9261 83.206Z" fill="#FFC6A0"/>
<path d="M101.343 77.099L103.044 76.171L102.029 71.847L102.703 70.441" stroke="#DB836E" stroke-width="1.145" stroke-linecap="round" stroke-linejoin="round"/>
<path fill-rule="evenodd" clip-rule="evenodd" d="M106.046 74.092C106.024 74.805 105.594 75.371 105.086 75.355C104.576 75.339 104.182 74.748 104.204 74.035C104.225 73.322 104.656 72.757 105.164 72.772C105.674 72.788 106.068 73.379 106.046 74.092ZM98.092 74.349C98.07 75.062 97.64 75.627 97.131 75.612C96.622 75.596 96.227 75.005 96.249 74.292C96.271 73.579 96.701 73.013 97.21 73.029C97.72 73.045 98.114 73.635 98.092 74.349Z" fill="#552950"/>
<path d="M91.632 86.786C91.632 86.786 96.901 91.743 104.311 89.113" stroke="#DB836E" stroke-width="1.145" stroke-linecap="round" stroke-linejoin="round"/>
<path fill-rule="evenodd" clip-rule="evenodd" d="M100.276 81.903C100.276 81.903 96.6839 82.135 98.8359 79.113C100.426 77.617 103.733 78.653 103.733 78.653C103.733 78.653 104.889 82.559 100.276 81.903Z" fill="#DB836E"/>
<path d="M94.3831 71.975C94.3831 71.975 96.8751 70.831 99.1611 70.902M103.38 70.6C103.38 70.6 105.863 71.44 106.782 71.315L103.38 70.6Z" stroke="#5C2552" stroke-width="1.526" stroke-linecap="round" stroke-linejoin="round"/>
<path d="M99.8369 83.719C99.8369 83.719 101.748 83.87 102.346 83.465M86.8199 77.374C86.8199 77.374 87.7809 78.253 88.2779 79.48C87.9009 79.96 87.2449 80.632 88.0419 81.289L86.8199 77.374Z" stroke="#DB836E" stroke-width="1.145" stroke-linecap="round" stroke-linejoin="round"/>
<path d="M100.665 115.821L110.705 113.813M88.282 115.821L104.012 112.809L88.282 115.821Z" stroke="#E4EBF7" stroke-width="1.051" stroke-linecap="round" stroke-linejoin="round"/>
<path d="M67.008 86.763C67.008 86.763 65.41 95.593 60.311 100.841" stroke="#E4EBF7" stroke-width="1.114" stroke-linecap="round" stroke-linejoin="round"/>
<path d="M128.81 87.934C128.81 87.934 131.823 92.055 132.87 99.719" stroke="#E4EBF7" stroke-width="1.051" stroke-linecap="round" stroke-linejoin="round"/>
<path d="M64.59 84.816C64.59 84.816 58.56 94.728 50.983 94.719" stroke="#DB836E" stroke-width="0.795" stroke-linecap="round" stroke-linejoin="round"/>
<path fill-rule="evenodd" clip-rule="evenodd" d="M112.866 65.909L112.724 71.229C112.724 71.229 118.717 75.701 124.669 80.431C129.151 83.993 133.557 87.886 135.654 89.093C140.458 91.859 144.554 92.448 146.73 90.901C150.801 88.007 151.103 81.023 138.594 75.638C134.323 73.8 122.45 69.278 112.866 65.908" fill="#FFC6A0"/>
<path d="M131.032 85.488C131.032 85.488 135.62 91.245 142.651 91.702" stroke="#DB836E" stroke-width="0.75" stroke-linecap="round" stroke-linejoin="round"/>
<path d="M122.208 105.73C122.208 105.73 121.815 114.294 120.868 119.342" stroke="#E4EBF7" stroke-width="1.051" stroke-linecap="round" stroke-linejoin="round"/>
<path d="M116.284 161.512C116.284 161.512 112.714 160.024 113.606 154.372" stroke="#648BD8" stroke-width="1.051" stroke-linecap="round" stroke-linejoin="round"/>
<path fill-rule="evenodd" clip-rule="evenodd" d="M102.02 290.246C102.02 290.246 106.346 292.303 109.428 291.276C112.27 290.328 113.992 291.949 116.56 292.462C119.13 292.976 123.485 293.57 128.332 291.193C128.228 285.642 121.393 287.183 116.284 284.43C113.702 283.04 112.472 279.673 112.659 275.567H103.188C103.188 275.567 101.786 286.163 102.019 290.247" fill="#CBD1D1"/>
<path fill-rule="evenodd" clip-rule="evenodd" d="M101.996 290.073C101.996 290.073 104.443 291.354 108.805 290.731C111.886 290.291 112.545 291.216 116.284 291.77C120.023 292.324 127.086 291.7 128.194 290.87C128.609 291.978 127.847 292.947 127.847 292.947C127.847 292.947 126.324 293.555 123 293.778C120.955 293.915 117.157 294.071 115.337 293.271C113.537 291.886 110.051 291.354 109.567 293.028C105.62 293.986 102.157 292.74 102.157 292.74L101.997 290.073H101.996Z" fill="#2B0849"/>
<path fill-rule="evenodd" clip-rule="evenodd" d="M109.324 276.19H112.44C112.44 276.19 112.337 282.941 117.01 284.81C112.337 285.434 108.39 282.49 109.324 276.19Z" fill="#A4AABA"/>
<path fill-rule="evenodd" clip-rule="evenodd" d="M58.1499 272.52C58.1499 272.52 56.0279 279.99 53.6319 284.916C51.8209 288.64 49.3769 292.464 59.1369 292.464C65.8349 292.464 68.1569 291.981 66.6159 285.816C65.0749 279.652 66.8839 272.52 66.8839 272.52H58.1499Z" fill="#CBD1D1"/>
<path fill-rule="evenodd" clip-rule="evenodd" d="M52.04 290.04C52.04 290.04 54.151 291.218 58.722 291.218C64.85 291.218 67.032 289.556 67.032 289.556C67.032 289.556 67.637 290.678 66.408 291.736C65.408 292.598 62.784 293.339 58.964 293.295C54.787 293.246 53.088 292.725 52.178 292.118C51.347 291.564 51.486 290.525 52.04 290.04Z" fill="#2B0849"/>
<path fill-rule="evenodd" clip-rule="evenodd" d="M59.033 274.438C59.033 274.438 59.067 275.967 58.718 277.388C58.366 278.819 57.631 280.515 57.579 281.558C57.521 282.718 62.149 283.15 62.773 281.593C63.396 280.034 64.076 275.118 64.7 274.287C65.322 273.456 59.76 272.152 59.033 274.437" fill="#A4AABA"/>
<path fill-rule="evenodd" clip-rule="evenodd" d="M101.385 277.015L114.691 277.107C114.691 277.107 115.982 222.879 116.534 213.051C117.086 203.223 120.29 169.921 117.531 150.263L105.051 149.623L82.326 150.399C82.326 150.399 81.893 154.343 81.136 160.32C81.074 160.813 80.459 161.158 80.392 161.678C80.317 162.26 80.812 163.025 80.71 163.634C78.36 177.637 74.367 196.56 72.013 210.059C71.897 210.722 70.786 211.063 70.563 212.736C70.523 213.036 70.773 214.252 70.675 214.521C63.839 233.164 59.785 262.105 56.475 276.072L71.003 276.058C71.003 276.058 73.188 267.534 75.011 259.18C77.807 246.363 97.998 174.627 97.998 174.627L100.998 174.11L102.035 220.21C102.035 220.21 101.812 221.438 102.369 222.218C102.927 223 101.813 223.335 101.979 224.451L102.369 226.235C102.369 226.235 101.923 233.375 101.477 238.061C101.031 242.746 101.385 277.015 101.385 277.015Z" fill="#7BB2F9"/>
<path d="M108.05 223.931C108.05 223.931 110.808 222.828 114.119 220.069M77.938 220.434C79.084 220.528 81.954 218.426 84.854 215.524L77.938 220.434Z" stroke="#648BD8" stroke-width="1.051" stroke-linecap="round" stroke-linejoin="round"/>
<path d="M108.959 220.905C108.959 220.905 111.718 219.801 115.029 217.042" stroke="#648BD8" stroke-linecap="round" stroke-linejoin="round"/>
<path d="M58.08 272.94H71.318M76.599 223.557C76.599 223.557 79.207 222.97 83.069 220.211L76.599 223.557ZM87.83 150.82C87.56 153.908 88.127 159.298 83.515 159.893L87.83 150.82ZM105.329 149.075C105.329 149.075 105.439 163.011 104.043 164.058C101.836 165.713 101.068 165.992 101.068 165.992L105.329 149.075ZM101.514 149.63C101.514 149.63 101.549 162.44 100.324 173.875L101.514 149.63ZM95.43 174.965C95.43 174.965 102.604 173.31 104.81 173.31L95.43 174.965ZM76.171 204.754C75.855 206.304 75.531 207.821 75.198 209.289C75.198 209.289 73.748 211.111 74.195 213.045C74.641 214.979 73.252 215.079 69.235 228.318C67.549 233.877 64.771 246.808 62.922 255.765C62.844 256.145 58.904 273.825 58.829 274.188L76.171 204.754ZM77.543 196.743C77.2627 198.322 76.9704 199.898 76.666 201.472L77.543 196.743ZM84.408 151.414L83.218 161.827C83.218 161.827 82.127 161.975 82.722 164.057C82.833 165.397 80.062 179.749 77.569 194.324L84.408 151.414Z" stroke="#648BD8" stroke-width="1.051" stroke-linecap="round" stroke-linejoin="round"/>
<path fill-rule="evenodd" clip-rule="evenodd" d="M117.877 147.423C117.877 147.423 100.922 144.336 82.177 147.622C82.334 150.123 82.175 151.75 82.175 151.75C82.175 151.75 96.782 148.948 117.651 151.44C117.902 149.098 117.877 147.423 117.877 147.423Z" fill="#192064"/>
<path fill-rule="evenodd" clip-rule="evenodd" d="M108.011 150.353L108.015 145.468C108.016 145.259 107.936 145.058 107.791 144.907C107.647 144.756 107.45 144.667 107.241 144.658C104.813 144.566 102.201 144.55 99.4459 144.644C99.236 144.652 99.0372 144.74 98.891 144.891C98.7449 145.042 98.6628 145.244 98.6619 145.454L98.6589 150.334C98.6589 150.79 99.0299 151.154 99.4859 151.142C102.048 151.078 104.612 151.083 107.174 151.159C107.282 151.163 107.39 151.144 107.491 151.106C107.592 151.067 107.685 151.008 107.763 150.933C107.841 150.858 107.903 150.768 107.946 150.668C107.988 150.568 108.01 150.461 108.011 150.353Z" fill="white"/>
<path fill-rule="evenodd" clip-rule="evenodd" d="M106.902 149.426L106.904 146.366C106.905 146.2 106.841 146.04 106.726 145.92C106.611 145.8 106.454 145.729 106.288 145.723C104.344 145.66 102.398 145.657 100.454 145.714C100.287 145.719 100.128 145.789 100.011 145.909C99.8947 146.029 99.829 146.19 99.828 146.357L99.827 149.413C99.827 149.773 100.118 150.061 100.478 150.053C102.258 150.013 104.186 150.012 106.24 150.065C106.6 150.074 106.902 149.786 106.902 149.425" fill="#192064"/>
<path d="M102.704 174.024L103.597 218.426C103.597 218.426 104.266 219.987 103.373 221.103C102.481 222.219 105.828 221.773 104.266 223.334C102.704 224.896 105.159 224.45 104.266 226.681C103.674 228.161 103.278 247.668 103.176 261.637M101.985 273.933H114.257H101.985ZM103.152 269.075C103.158 272.443 103.192 274.834 103.262 275.545L103.152 269.075ZM103.167 263.125C103.158 264.655 103.152 266.105 103.151 267.438L103.167 263.125Z" stroke="#648BD8" stroke-width="1.051" stroke-linecap="round" stroke-linejoin="round"/>
</g>
<defs>
<clipPath id="clip0_814_3881">
<rect width="251" height="294" fill="white" transform="translate(0.5)"/>
</clipPath>
</defs>
</svg>
