<svg width="194" height="125" fill="none" xmlns="http://www.w3.org/2000/svg"><g clip-path="url(#a)"><path d="M194 .11H.083V125H194V.11Z" fill="#E6E6E6"/><path d="M188.455 15.775H5.628v101.837h182.827V15.775Z" fill="#fff"/><path d="M193.917 0H0v8.284h193.917V0Z" fill="#6C63FF"/><path d="M6.122 5.771c.843 0 1.527-.688 1.527-1.536 0-.848-.684-1.535-1.527-1.535-.843 0-1.527.687-1.527 1.535 0 .848.684 1.536 1.527 1.536Zm5.796 0c.843 0 1.527-.688 1.527-1.536 0-.848-.684-1.535-1.527-1.535-.843 0-1.527.687-1.527 1.535 0 .848.684 1.536 1.527 1.536Zm5.796 0c.843 0 1.527-.688 1.527-1.536 0-.848-.684-1.535-1.527-1.535a1.53 1.53 0 0 0-1.527 1.535c0 .848.683 1.536 1.527 1.536Z" fill="#fff"/><path d="M63.88 24.15H28.124v39.013H63.88V24.15Zm51.04 0H79.162v39.013h35.758V24.15Zm51.039 0h-35.758v39.013h35.758V24.15ZM63.88 70.224H28.124v39.012H63.88V70.224Zm51.04 0H79.162v39.012h35.758V70.224Zm51.039 0h-35.758v39.012h35.758V70.224Z" fill="#E6E6E6"/><path d="M42.012 47.74c3.339 0 6.045-2.721 6.045-6.078s-2.706-6.079-6.045-6.079c-3.338 0-6.044 2.722-6.044 6.079 0 3.357 2.706 6.078 6.044 6.078Z" fill="#FFB9B9"/><path d="M39.651 46.316s.756 3.609.756 3.988c0 .38 3.589 2.09 3.589 2.09l3.21-.57 1.134-3.419s-1.889-2.85-1.889-3.989l-6.8 1.9Z" fill="#FFB9B9"/><path d="M36.77 36.765s1.92-4.182 5.598-3.217c3.678.965 5.757 2.413 5.917 3.86.16 1.447-.08 3.618-.08 3.618s-.4-2.975-2.958-2.332c-2.56.644-6.557.161-6.557.161l-.64 5.79s-.72-1.045-1.52-.402c-.8.643-2.318-6.192.24-7.478Z" fill="#2F2E41"/><path d="m61.184 61.702-1.51-6.84c-.757-2.28-2.644-4.177-2.644-4.177l-9.316-3.294h-.002a3.949 3.949 0 0 1-.793 2.289 3.912 3.912 0 0 1-1.977 1.387c-2.835.947-4.786-2.247-4.786-2.247l-7.874 6.042s-2.455 2.092-2.265 6.08l-.261 2.22H61.91l-.726-1.46Z" fill="#6C63FF"/><path d="M92.915 50.77c4.531 0 8.204-3.922 8.204-8.759s-3.673-8.758-8.204-8.758c-4.531 0-8.204 3.921-8.204 8.758s3.673 8.758 8.204 8.758Z" fill="#2F2E41"/><path d="M100.194 55.265c2.384 0 4.317-1.944 4.317-4.34 0-2.398-1.933-4.34-4.317-4.34-2.383 0-4.316 1.942-4.316 4.34 0 2.396 1.933 4.34 4.316 4.34Z" fill="#2F2E41"/><path d="m97.189 45.112 2.312 6.045-5.858 2.48-.514-1.172-1.798-4.098 5.858-3.255Z" fill="#9F616A"/><path d="M92.564 49.064c2.852 0 5.164-2.325 5.164-5.193 0-2.867-2.312-5.192-5.164-5.192S87.4 41.004 87.4 43.87c0 2.868 2.312 5.193 5.164 5.193Z" fill="#9F616A"/><path d="M88.344 43.302c3.245-2.178 4.216-2.699 7.936-1.857l.223-5.458-9.614 2.028 1.455 5.287Z" fill="#2F2E41"/><path d="m109.211 55.65-.143.017a.086.086 0 0 0-.011-.014c-.565-.569-3.262-1.602-5.273-2.318h-.002c-1.277-.456-2.277-.783-2.277-.783l-2.43-2.514c-.613.692-1.907 1.227-3.137 1.604-.941.287-1.899.516-2.867.688h-.003l-.503 1.616s-5.704 4.342-6.165 4.805h-.002v.005a.253.253 0 0 0-.043.181v.012a21.158 21.158 0 0 0-.442 4.214h24.841v-1.466c0-2.015-1.543-6.047-1.543-6.047Z" fill="#575A89"/><path d="M154.89 63.163h-12.283l-.677-6.71-.04-.409-.083-.81-.339-3.382-.425 3.634-.898 7.677h-2.231l.083-2.39.083-2.423.036-.976.458-13.283a9.522 9.522 0 0 1 1.882-5.846 7.356 7.356 0 0 1 2.627-2.15 7.313 7.313 0 0 1 3.306-.736 7.523 7.523 0 0 1 3.366.783 7.568 7.568 0 0 1 2.668 2.208 9.645 9.645 0 0 1 1.973 5.935l.211 8.04.283 10.838Z" fill="#2F2E41"/><path d="M146.389 48.844c2.984 0 5.402-2.432 5.402-5.432 0-3-2.418-5.433-5.402-5.433s-5.403 2.432-5.403 5.433c0 3 2.419 5.432 5.403 5.432Z" fill="#FBBEBE"/><path d="M143.688 47.292s1.543 5.239 0 6.791c-1.544 1.553-1.93 2.135-1.93 2.135l4.438 6.014 7.718-9.507s-5.403-1.552-4.052-5.82l-6.174.387Zm16.666 15.871h-4.558l-.076-.785-.068-.726 2.098-.265 2.531-.318.028.814.045 1.28Z" fill="#FBBEBE"/><path d="M160.667 61.844s-.772-4.85-1.351-6.79c-.578-1.94-1.157-1.94-1.157-1.94v-.001c-.682-.685-2.32-.807-3.552-.788-.864.01-1.529.086-1.529.086l-6.882 7.3-3.465-4.634v-.002a5.01 5.01 0 0 0-.924.16c-.26.066-.515.15-.764.25a10.469 10.469 0 0 0-2.927 1.889h-.003c-.498.451-.793.783-.793.783a22.86 22.86 0 0 0-1.714 5.006h22.054l.05-.998v-.002l2.957-.319Z" fill="#6C63FF"/><path d="M141.855 42.538c3.489-1.891 4.922-1.811 9.261 0l1.158-2.836a2.023 2.023 0 0 0-.588-1.424 1.997 1.997 0 0 0-1.415-.59h-7.764a2 2 0 0 0-1.416.59c-.375.378-.586.89-.587 1.424l1.351 2.836ZM45.529 79.667a1.416 1.416 0 0 0-.826.185 2.163 2.163 0 0 0-.558.741 8.85 8.85 0 0 1-2.401 2.728c-.714.526-1.621 1.181-1.499 2.15.064.32.182.627.348.908.658 1.336 2.454 2.37 2.278 3.894.654-1.101-.221-1.646.433-2.747.311-.524.852-1.116 1.323-.786.157.11.26.308.424.404.392.231.808-.21 1.154-.523 1.194-1.078 2.892-.795 4.378-.46.702.16 1.472.367 1.887 1.041.545.887-.518 1.844-.787 2.846a.55.55 0 0 0 .326.644.54.54 0 0 0 .257.036c.446-.044.974-.08 1-.277.561.02 1.248-.044 1.489-.631.073-.233.112-.475.115-.719.088-.986.505-1.886.78-2.826.276-.939.396-2.04-.07-2.872a3.318 3.318 0 0 0-.61-.745c-2.641-2.571-6.114-2.995-9.441-2.991Z" fill="#2F2E41"/><path d="M43.445 92.199s.575 4.815-1.532 5.2c-2.106.385 1.915 6.933 1.915 6.933l9.576 1.156-2.298-7.704s-1.532-.578-.575-4.43c.958-3.852-7.086-1.155-7.086-1.155Z" fill="#9F616A"/><path d="M47.755 95.376c3.173 0 5.745-2.586 5.745-5.777 0-3.191-2.572-5.778-5.745-5.778-3.174 0-5.746 2.587-5.746 5.778 0 3.19 2.572 5.777 5.746 5.777Z" fill="#9F616A"/><path d="M37.865 109.236c1.016-4.017 2.42-9.43 2.42-9.43s.545.113 1.405.239c1.255.188 2.52.304 3.788.347 1.624.045 3.333-.062 4.656-.523a4.351 4.351 0 0 0 1.374-.738c.173-.14.328-.301.46-.48 2.299-3.082 3.255 8.666 3.255 8.666l.178 1.919H37.865Z" fill="#6C63FF"/><path d="M56.223 121.65c-.076 0-.152.002-.228.007l.11-.205c.037.064.075.131.118.198Z" fill="#FFB8B8"/><path d="M45.809 81.178a1.298 1.298 0 0 0-.672.132 1.573 1.573 0 0 0-.455.523 6.634 6.634 0 0 1-1.954 1.928c-.581.372-1.32.835-1.22 1.52.053.23.15.447.283.642a5.07 5.07 0 0 1 .61 3.145l1.597-2.334c.253-.371.694-.79 1.077-.557.128.078.212.218.345.286.319.164.657-.148.94-.37.971-.761 2.354-.561 3.563-.324.571.112 1.198.259 1.536.735.56.792-.025 1.937.303 2.851a.839.839 0 0 0 .345-.555c.457.015 1.017-.03 1.212-.446.06-.162.091-.334.094-.507.072-.698.41-1.334.635-1.998.225-.663.322-1.441-.056-2.03a2.449 2.449 0 0 0-.497-.526c-2.15-1.818-4.978-2.117-7.686-2.115Zm-.544 18.82c-1.31-1.507-2.09-3.703-2.125-3.8v-.003s-2.089-1.203-2.663-.048c-.575 1.155-5.938 4.044-6.512 4.044a.074.074 0 0 1-.014.005c-.228.076-3.082 1.119-3.815 5.003a29.247 29.247 0 0 0-.318 4.037h15.618c.161-1.702.282-3.294.33-4.669.068-1.917.002-3.407-.288-4.175a1.22 1.22 0 0 0-.213-.394Zm13.429 1.084-.024-.12a.892.892 0 0 0-.13-.293c-1.106-1.724-8.221-4.097-8.221-4.097l-.266.924s.033.912.08 2.373c.048 1.368.105 3.215.16 5.245.038 1.324.071 2.728.102 4.122h10.642a62.755 62.755 0 0 0-2.343-8.154Z" fill="#2F2E41"/><path d="m158.265 109.236.815-4.001.757-.322.005.002c.068.027.892.378.892 1.707 0 .268-.04 1.23-.107 2.614h-2.362Z" fill="#575A89"/><path d="M149.713 95.261c3.652 0 6.612-2.977 6.612-6.65 0-3.672-2.96-6.65-6.612-6.65s-6.613 2.978-6.613 6.65c0 3.673 2.961 6.65 6.613 6.65Z" fill="#FFB8B8"/><path d="m153.846 92.49-.551 11.36-8.542-4.987 1.102-6.372h7.991Z" fill="#FFB8B8"/><path d="m156.326 104.405-.56 4.831h-4.485l-4.866-9.403-1.372-2.647-.658-.433.762-.174.601.437 6.72 4.896 1.078-3.254.028-.083.271-.819 2.481 6.649Z" fill="#6C63FF"/><path d="M145.718 82.1s.826-4.156 5.51-3.325l-.551.277s4.409-.554 3.858 1.94c0 0 3.581 2.217 2.755 4.71a28.274 28.274 0 0 0-1.102 4.433l-.827-.83s-.826-5.542-5.786-4.988c-3.72.416-5.235 2.182-5.622 3.455a11.41 11.41 0 0 1-.681 1.741l-.31.068s-1.653-6.095 2.756-7.48Zm14.124 22.815-.005-.002-3.511-3.28v-2.215l-2.711-2.149-.04 1.306-.28 8.878-4.508-6.235-3.039-4.202-.546-.752.133-.704-1.683 1.917-6.092 4.595-.522.394a16.698 16.698 0 0 0-1.652 1.939c-.164.245-.909 2.203-1.88 4.831h27.122c.066-1.384.106-2.346.106-2.614 0-1.329-.823-1.68-.892-1.707ZM96.497 81.307c-4.481 0-8.114 4.054-8.114 9.055v6.353h1.943l1.125-2.354-.28 2.354h12.489l1.023-2.14-.256 2.14h1.406v-4.988c0-5.755-4.18-10.42-9.336-10.42Z" fill="#2F2E41"/><path d="M89.949 109.236h-5.277l-.05-4.328c-.003-.045-.003-.088-.003-.133l1.057-1.196.019-.022 4.033 2.569.22 3.11Z" fill="#D0CDE1"/><path d="M95.779 95.828c3.19 0 5.776-2.6 5.776-5.809 0-3.208-2.586-5.808-5.776-5.808s-5.776 2.6-5.776 5.808c0 3.208 2.586 5.809 5.776 5.809Z" fill="#FBBEBE"/><path d="M92.467 93.504s1.695 8.829.924 9.758c-.77.93 8.164-1.703 8.164-1.703s-2.927-6.041-1.386-9.449l-7.702 1.394Z" fill="#FBBEBE"/><path d="M108.138 99.475h-.003a1.329 1.329 0 0 0-.662-.65 47.48 47.48 0 0 0-2.91-1.126 6.123 6.123 0 0 0-4.753.317s-5.647 1.082-6.32.946a1.62 1.62 0 0 0-.151-.022 2.639 2.639 0 0 0-.306-.026 6.736 6.736 0 0 0-3.751.936c-1.854 1.081-4.603 2.998-4.66 4.865l-.052.06.052 4.461h24.788c.05-4.275.079-7.488.079-7.706 0-.675-1.351-2.055-1.351-2.055Z" fill="#6C63FF"/><path d="M98.803 83.802a4.237 4.237 0 0 0-3.357-1.723h-.16c-3.07 0-5.56 2.794-5.56 6.242h1.029l.166-1.272.243 1.272h6.104l.511-1.076-.127 1.076h1.2c.56 2.798-.244 5.596-2.415 8.394h2.046l1.022-2.152-.255 2.152h3.899l.767-4.95c0-3.708-2.143-6.852-5.113-7.963Z" fill="#2F2E41"/><path d="M99.924 84.323a3.047 3.047 0 0 0 3.039-3.056 3.047 3.047 0 0 0-3.039-3.056 3.047 3.047 0 0 0-3.039 3.056 3.047 3.047 0 0 0 3.04 3.056Z" fill="#2F2E41"/></g><defs><clipPath id="a"><path fill="#fff" d="M0 0h194v125H0z"/></clipPath></defs></svg>