<svg width="24" height="24" fill="none" xmlns="http://www.w3.org/2000/svg"><path d="m22.99 14.277-.505-.308.505-.31c1.344-.822 1.347-2.221 0-3.044l-.505-.309.505-.31c1.347-.824 1.343-2.778.002-3.598L13.096.313a2.1 2.1 0 0 0-2.2 0L1.01 6.398c-1.347.824-1.343 2.778-.002 3.598l.507.311-.505.309c-1.342.82-1.348 2.22-.002 3.042l.507.312-.505.308c-1.347.824-1.345 2.503-.002 3.324l9.89 6.086a2.1 2.1 0 0 0 2.2-.001l9.892-6.084c1.347-.823 1.347-2.502 0-3.325ZM1.745 7.596l9.888-6.085a.7.7 0 0 1 .73 0l9.894 6.086a.703.703 0 0 1-.002 1.2l-9.89 6.084a.7.7 0 0 1-.732.001l-9.89-6.086a.703.703 0 0 1 .002-1.2Zm-.338 4.54c0-.023.063-.154.336-.322l1.115-.681 8.04 4.947a2.102 2.102 0 0 0 2.2 0l8.043-4.947 1.116.681c.273.167.335.299.336.322 0 .024-.063.156-.338.324l-9.89 6.084a.7.7 0 0 1-.732 0l-9.89-6.085c-.273-.167-.335-.299-.336-.322Zm20.848 4.268-9.89 6.083a.7.7 0 0 1-.732.001l-9.89-6.085c-.446-.273-.447-.653 0-.926l1.115-.681 8.04 4.947a2.101 2.101 0 0 0 2.2-.001l8.043-4.947 1.116.682c.214.13.336.3.336.463 0 .163-.122.332-.338.464Z" fill="#fff"/></svg>