<svg width="184" height="115" fill="none" xmlns="http://www.w3.org/2000/svg"><path d="M92 115c50.81 0 92-8.943 92-19.976 0-11.032-41.19-19.975-92-19.975S0 83.992 0 95.024C0 106.057 41.19 115 92 115Z" fill="#F5F5F5"/><path d="m158.125 37.266-29.17-32.823c-1.4-2.237-3.444-3.59-5.597-3.59H60.642c-2.153 0-4.197 1.353-5.597 3.588l-29.17 32.828v26.365h132.25V37.266Z" stroke="#D9D9D9"/><path d="M119.637 46.315c0-4.58 2.858-8.361 6.403-8.364h32.085v51.757c0 6.058-3.795 11.024-8.481 11.024H34.356c-4.686 0-8.481-4.969-8.481-11.024V37.951H57.96c3.545 0 6.403 3.776 6.403 8.356v.063c0 4.58 2.889 8.278 6.431 8.278h42.412c3.542 0 6.431-3.733 6.431-8.313v-.02Z" fill="#FAFAFA" stroke="#D9D9D9"/></svg>