<svg width="20" height="16" viewBox="0 0 20 16" fill="none" xmlns="http://www.w3.org/2000/svg">
<path d="M19.2857 6.44512H16.875V3.84756C16.875 3.44284 16.5558 3.11585 16.1607 3.11585H9.12946L6.51116 0.550305C6.47785 0.518356 6.43403 0.500401 6.38839 0.5H0.714286C0.319196 0.5 0 0.826982 0 1.23171V14.7683C0 15.173 0.319196 15.5 0.714286 15.5H16.2946C16.5848 15.5 16.8482 15.3194 16.9576 15.0427L19.9487 7.45122C19.9821 7.36433 20 7.27058 20 7.17683C20 6.7721 19.6808 6.44512 19.2857 6.44512ZM15.2679 6.44512H3.88393C3.59375 6.44512 3.33036 6.62576 3.22098 6.90244L1.60714 11V2.14634H5.81473L8.48438 4.76219H15.2679V6.44512Z" fill="#F4D00F"/>
</svg>
