<svg width="24" height="22" fill="none" xmlns="http://www.w3.org/2000/svg"><path d="M22.54 18.857H.835a.862.862 0 0 0-.59.23.763.763 0 0 0-.245.556v1.571c0 .209.088.409.245.556a.86.86 0 0 0 .59.23H22.54a.862.862 0 0 0 .59-.23.763.763 0 0 0 .245-.556v-1.571a.763.763 0 0 0-.244-.556.862.862 0 0 0-.59-.23Zm0-6.286H.835a.862.862 0 0 0-.59.23.763.763 0 0 0-.245.556v1.572a.76.76 0 0 0 .245.555c.156.148.368.23.59.23H22.54a.862.862 0 0 0 .59-.23.763.763 0 0 0 .245-.555v-1.572a.763.763 0 0 0-.244-.555.862.862 0 0 0-.59-.23Zm0-6.285H.835a.862.862 0 0 0-.59.23A.763.763 0 0 0 0 7.07v1.572a.76.76 0 0 0 .245.555c.156.148.368.23.59.23H22.54a.862.862 0 0 0 .59-.23.763.763 0 0 0 .245-.555V7.07a.763.763 0 0 0-.244-.555.862.862 0 0 0-.59-.23Zm0-6.286H.835a.862.862 0 0 0-.59.23A.763.763 0 0 0 0 .786v1.571c0 .209.088.408.245.556a.86.86 0 0 0 .59.23H22.54a.862.862 0 0 0 .59-.23.763.763 0 0 0 .245-.556V.786a.763.763 0 0 0-.244-.556.862.862 0 0 0-.59-.23Z" fill="#311F6D"/></svg>