<svg width="237" height="178" fill="none" xmlns="http://www.w3.org/2000/svg"><g clip-path="url(#a)"><path d="M187.218 114.217c-27.914 0-49.78-5.05-49.78-11.496 0-3.865 7.747-7.313 21.257-9.46a.37.37 0 0 1 .427.307.373.373 0 0 1-.311.425c-12.725 2.023-20.631 5.367-20.631 8.728 0 5.829 22.457 10.754 49.038 10.754 26.582 0 49.038-4.925 49.038-10.754 0-3.375-7.956-6.728-20.763-8.75a.373.373 0 0 1-.308-.423.373.373 0 0 1 .424-.308c13.594 2.145 21.39 5.601 21.39 9.481 0 6.446-21.866 11.496-49.781 11.496Z" fill="#CCC"/><path d="M162.523 116.382a28.58 28.58 0 0 0 10.49 10.38 28.639 28.639 0 0 0 28.539-.072 28.562 28.562 0 0 0 10.436-10.433 450.945 450.945 0 0 1-49.465.125Zm52.202-8.053a28.492 28.492 0 0 0 .605-13.102 28.529 28.529 0 0 0-5.327-11.99 28.6 28.6 0 0 0-10.135-8.348 28.651 28.651 0 0 0-25.577.138 28.589 28.589 0 0 0-10.044 8.457 28.513 28.513 0 0 0-4.451 25.141 212.982 212.982 0 0 0 54.929-.296Z" fill="#E6E6E6"/><path d="M44.378 3.338a3.334 3.334 0 0 0-1.763-2.94 3.349 3.349 0 0 0-4.597 1.501 3.333 3.333 0 0 0 1.717 4.514v17.32h2.6V6.413a3.343 3.343 0 0 0 2.043-3.075Zm18.76 83.066h-.001a7.45 7.45 0 0 1-5.352-2.276 7.424 7.424 0 0 1-2.073-5.426c.15-3.932 3.56-7.131 7.603-7.131h20.412l16.796-7.422a1.863 1.863 0 0 1 2.45.944l4.512 10.173a1.857 1.857 0 0 1-.947 2.446l-16.543 7.31a13.171 13.171 0 0 1-5.202 1.13l-21.655.252ZM13.66 125.469a1.64 1.64 0 0 1-.288-.025l-10.985-1.871a1.677 1.677 0 0 1-1.355-1.305 1.665 1.665 0 0 1-.005-.661L9.626 77.83a7.23 7.23 0 0 1 2.955-4.683 7.254 7.254 0 0 1 10.098 1.723 7.22 7.22 0 0 1 1.228 5.397l-8.613 43.853a1.66 1.66 0 0 1-1.633 1.349Z" fill="#CCC"/><path d="M7.785 134.983c3.693 0 6.687-2.988 6.687-6.675 0-3.686-2.994-6.675-6.687-6.675s-6.687 2.989-6.687 6.675c0 3.687 2.994 6.675 6.687 6.675ZM40.226 71.08c13.747 0 24.89-11.123 24.89-24.846 0-13.721-11.143-24.845-24.89-24.845-13.746 0-24.89 11.124-24.89 24.845 0 13.722 11.144 24.846 24.89 24.846Z" fill="#E6E6E6"/><path d="M40.226 71.08c13.747 0 24.89-11.123 24.89-24.846 0-13.721-11.143-24.845-24.89-24.845-13.746 0-24.89 11.124-24.89 24.845 0 13.722 11.144 24.846 24.89 24.846Z" fill="#E6E6E6"/><path d="M40.224 65.147c10.464 0 18.946-8.467 18.946-18.913 0-10.445-8.482-18.912-18.946-18.912-10.464 0-18.947 8.467-18.947 18.912 0 10.446 8.483 18.913 18.947 18.913Z" fill="#6C63FF"/><path d="M42.44 54.174c-1.228-.034-2.756-.077-3.934-.936a3.018 3.018 0 0 1-1.189-2.252 2.026 2.026 0 0 1 .691-1.666c.615-.519 1.513-.64 2.481-.356l-1.002-7.315.736-.1 1.178 8.599-.614-.282c-.713-.326-1.691-.492-2.299.02a1.304 1.304 0 0 0-.428 1.074 2.277 2.277 0 0 0 .884 1.68c.917.668 2.135.754 3.517.792l-.02.742ZM35.845 42.28h-4.001v.741h4.001v-.742Zm12.633 0h-4.001v.741h4.001v-.742Z" fill="#2F2E41"/><path opacity=".2" d="M27.475 46.354a18.89 18.89 0 0 1 4.57-12.318 18.96 18.96 0 0 1 11.504-6.378 18.978 18.978 0 0 0-15.327 4.155 18.915 18.915 0 0 0-4.964 6.427 18.882 18.882 0 0 0 4.734 22.36 18.976 18.976 0 0 0 15.258 4.399 18.956 18.956 0 0 1-11.302-6.443 18.894 18.894 0 0 1-4.473-12.202Z" fill="#000"/><path d="M59.171 125.527H21.278a6.143 6.143 0 0 1-4.332-1.794 6.12 6.12 0 0 1-1.798-4.325V76.763a6.12 6.12 0 0 1 1.798-4.325 6.142 6.142 0 0 1 4.332-1.794h5.758v1.668a4.266 4.266 0 0 0 1.253 3.015 4.278 4.278 0 0 0 3.02 1.25H49.14a4.28 4.28 0 0 0 3.02-1.25c.8-.8 1.25-1.884 1.252-3.014v-1.67h5.758a6.142 6.142 0 0 1 4.332 1.795 6.12 6.12 0 0 1 1.798 4.325v42.645a6.12 6.12 0 0 1-1.798 4.325 6.143 6.143 0 0 1-4.332 1.794Z" fill="#E6E6E6"/><path d="M64.255 166.504H49.392v-17.128l-19.412-29.71 12.447-8.103 19.327 29.58a13.405 13.405 0 0 1 2.184 7.107l.317 18.254Z" fill="#E6E6E6"/><path d="M38.063 177.815H23.574v-43.388h14.489v43.388Z" fill="#E6E6E6"/><path d="M56.2 138.506H24.251a3.164 3.164 0 0 1-2.231-.924 3.153 3.153 0 0 1-.926-2.228v-11.866c0-.836.334-1.637.926-2.228a3.165 3.165 0 0 1 2.232-.925H56.2a3.164 3.164 0 0 1 3.158 3.153v11.866c0 .836-.334 1.637-.926 2.228a3.164 3.164 0 0 1-2.232.924Z" fill="#E6E6E6"/><path d="M66.853 173.364H49.578v-11.495h17.275c1.527 0 2.992.605 4.072 1.683a5.743 5.743 0 0 1 0 8.129 5.763 5.763 0 0 1-4.072 1.683Zm-26.004 4.451H23.574v-11.496H40.85c1.527 0 2.992.605 4.072 1.683a5.743 5.743 0 0 1 0 8.129 5.764 5.764 0 0 1-4.072 1.684Z" fill="#CCC"/><path d="M58.307 89.556H44.562a1.302 1.302 0 0 1-1.3-1.298 1.297 1.297 0 0 1 1.3-1.298h13.745a1.301 1.301 0 0 1 1.3 1.298 1.296 1.296 0 0 1-1.3 1.298Zm0 4.636H44.562a1.302 1.302 0 0 1-1.3-1.298 1.297 1.297 0 0 1 1.3-1.298h13.745a1.301 1.301 0 0 1 1.3 1.298 1.296 1.296 0 0 1-1.3 1.298Z" fill="#fff"/><path d="M81.73 178H.37a.37.37 0 1 1 0-.742h81.36a.37.37 0 1 1 0 .742Z" fill="#3F3D56"/><path d="M108.46 74.908c3.694 0 6.687-2.988 6.687-6.675 0-3.686-2.993-6.675-6.687-6.675-3.693 0-6.687 2.989-6.687 6.675 0 3.687 2.994 6.675 6.687 6.675Z" fill="#E6E6E6"/><path d="M110.506 95.119a2.233 2.233 0 0 1-2.229-2.225v-80.1a2.223 2.223 0 0 1 2.229-2.225 2.231 2.231 0 0 1 2.229 2.225v80.1a2.22 2.22 0 0 1-.653 1.572 2.235 2.235 0 0 1-1.576.653Z" fill="#3F3D56"/><path d="M178.178 11.251c-1.957-1.71-8.682-7.03-17.356-8.002-6.49-.724-14.072.986-21.566 8.47-6.01 6-11.679 8.844-16.851 8.458-5.279-.397-8.789-4.142-10.413-6.341a.906.906 0 0 0-1.029-.327.913.913 0 0 0-.643.883v27.686a.935.935 0 0 0 .532.839c2.024.956 9.317 4.134 16.658 4.134 4.305 0 8.633-1.094 11.917-4.375.034-.034.063-.064.097-.093 5.818-5.652 18.642-4.49 28-2.644a109.83 109.83 0 0 1 9.09 2.206 1.675 1.675 0 0 0 1.467-.27 1.66 1.66 0 0 0 .666-1.332V12.508a1.674 1.674 0 0 0-.569-1.257Z" fill="#6C63FF"/><path d="M193.164 90.112a3.34 3.34 0 0 0 3.343-3.337 3.34 3.34 0 0 0-3.343-3.338 3.34 3.34 0 0 0-3.344 3.338 3.34 3.34 0 0 0 3.344 3.337Zm-5.946 36.713a3.34 3.34 0 0 0 3.344-3.338 3.34 3.34 0 0 0-3.344-3.337 3.34 3.34 0 0 0-3.343 3.337 3.34 3.34 0 0 0 3.343 3.338Zm-10.771-22.992a5.567 5.567 0 0 0 5.573-5.562 5.568 5.568 0 0 0-5.573-5.563 5.567 5.567 0 0 0-5.572 5.563 5.567 5.567 0 0 0 5.572 5.562Z" fill="#fff"/></g><defs><clipPath id="a"><path fill="#fff" d="M0 0h237v178H0z"/></clipPath></defs></svg>