<svg width="209" height="166" viewBox="0 0 209 166" fill="none" xmlns="http://www.w3.org/2000/svg">
<g clip-path="url(#clip0_1506_37201)">
<path d="M183.591 161.084L179.247 161.083L177.18 144.374L183.592 144.375L183.591 161.084Z" fill="#FFB6B6"/>
<path d="M183.744 165.603L170.383 165.602V165.434C170.383 162.57 172.711 160.249 175.583 160.249H175.584L178.024 158.403L182.578 160.249L183.744 160.249L183.744 165.603Z" fill="#2F2E41"/>
<path d="M164.33 161.084L159.985 161.083L157.918 144.374L164.331 144.375L164.33 161.084Z" fill="#FFB6B6"/>
<path d="M164.482 165.603L151.121 165.602V165.434C151.121 162.57 153.45 160.249 156.322 160.249H156.322L158.762 158.403L163.316 160.249L164.482 160.249L164.482 165.603Z" fill="#2F2E41"/>
<path d="M162.256 67.8345L187.323 68.3606C187.323 68.3606 191.83 75.7269 188.389 86.1186L188.775 89.0125L187.191 93.4849L186.4 107.165L187.191 109.27L186.664 113.216C186.664 113.216 188.775 139.261 183.497 152.415L177.165 152.152L174.79 117.832L176.109 115.321L175.845 114.268L172.679 98.4835L169.513 106.639V111.17L166.61 114.531C166.61 114.531 167.666 145.575 164.763 151.889H157.673L155 109.796L157.639 85.3294L157.111 83.7509L157.903 82.9617L157.375 80.3309L162.256 67.8345L162.256 67.8345Z" fill="#2F2E41"/>
<path d="M172.942 19.8222L180.594 17.9806L182.705 22.9791C182.705 22.9791 193.627 28.7669 194.155 36.6594C194.155 36.6594 195.635 42.9734 194.315 45.8673C192.996 48.7611 187.455 57.969 187.455 57.969C187.455 57.969 192.468 74.017 191.149 74.8062C189.83 75.5955 158.43 74.017 158.43 72.4385C158.43 70.86 163.655 54.2859 163.655 54.2859L164.762 25.873L171.887 23.2422L172.942 19.8222L172.942 19.8222V19.8222Z" fill="#3F3D56"/>
<path d="M193.343 84.5836C191.741 83.7789 191.097 81.8322 191.904 80.2354C191.985 80.0746 192.081 79.9263 192.184 79.7855L187.926 50.679L193.821 50.867L196.904 79.2268C198.022 80.1719 198.393 81.7866 197.704 83.1492C196.897 84.746 194.944 85.3882 193.343 84.5836H193.343Z" fill="#FFB6B6"/>
<path d="M137.409 70.8463C136.765 69.1778 137.598 67.304 139.272 66.6611C139.44 66.5963 139.611 66.5505 139.782 66.515L156.231 42.0968L160.473 46.183L143.656 69.2616C143.848 70.7103 143.035 72.1549 141.607 72.7034C139.934 73.3463 138.054 72.5149 137.409 70.8464V70.8463Z" fill="#FFB6B6"/>
<path d="M182.603 43.3375C180.937 37.6324 183.704 31.8118 189.663 31.8399C191.386 31.8481 192.724 32.3464 193.095 33.7259C194.393 38.554 195.101 45.842 195.101 45.842L196.641 53.6015L195.708 55.2127L197.653 60.4127L196.709 62.8728L196.505 75.4359L191.756 75.1728L186.523 65.5955L184.522 64.4091C184.522 64.4091 186.128 48.9241 182.932 44.4656L182.603 43.3375H182.603V43.3375Z" fill="#3F3D56"/>
<path d="M161.327 29.2971C164.105 24.0399 171.215 22.7946 175.482 26.9427C176.715 28.1417 177.33 29.4271 176.636 30.6762C174.206 35.0481 168.572 39.7553 168.572 39.7553L161.634 50.8756L159.841 51.3884L157.616 56.4755L152.848 62.0641L146.534 65.3842L142.84 61.7011L143.624 56.9665L153.131 44.3377C153.131 44.3377 159.971 35.7573 160.778 30.3366L161.327 29.2971V29.2971V29.2971Z" fill="#3F3D56"/>
<path d="M174.397 18.2846C174.571 18.3055 174.746 18.3212 174.919 18.3291C175.458 18.3586 175.991 18.3279 176.505 18.2411C178.065 17.9918 179.482 17.2551 180.576 16.1747C181.732 15.0347 182.523 13.5131 182.737 11.7808C183.238 7.69198 180.318 3.96732 176.217 3.46771C172.175 2.97237 168.49 5.79118 167.902 9.78617C167.892 9.84802 167.883 9.90726 167.876 9.96882C167.375 14.0603 170.293 17.7826 174.397 18.2846V18.2846V18.2846Z" fill="#FFB6B6"/>
<path d="M166.216 9.51242C167.278 10.0362 169.014 8.38951 169.679 9.33694C169.787 9.13219 169.906 8.93418 170.024 8.74692C170.13 8.57937 170.283 8.22169 170.459 8.16043C170.236 8.6977 170.285 9.42535 170.517 10.0488C171.565 10.4392 172.937 9.57501 173.907 8.55287C175.43 6.95016 177.916 11.06 177.328 13.1869C178.077 12.2758 179.701 12.7897 180.251 13.8314C180.801 14.8705 179.872 15.7031 179.673 16.8622L181.173 16.6722C182.119 15.7531 182.053 14.2044 182.833 13.1392C184.135 11.3564 184.639 9.53745 183.66 7.69759C182.792 6.07078 182.711 3.96534 181.118 3.02743C181.814 2.68823 179.34 3.21815 180.001 2.1127C180.665 1.00958 177.126 0.875687 176.895 1.46668C175.884 0.260041 174.864 -0.535521 173.62 0.431343C172.398 1.38258 172.525 2.38244 171.09 2.29284C170.417 2.25125 170.491 3.50281 170.09 4.04847C169.692 4.59122 168.146 4.93964 168.07 4.88156C167.662 4.56286 166.272 7.27585 166.272 7.27585C166.272 7.27585 165.145 8.98163 166.216 9.51242H166.216Z" fill="#2F2E41"/>
<path d="M72.5862 56.8645C97.7231 56.8645 118.101 77.1815 118.101 102.244C118.101 127.306 97.7231 147.623 72.5862 147.623C47.4493 147.623 12.6608 122.775 27.0718 102.244C41.4828 81.7129 47.4493 56.8645 72.5862 56.8645Z" fill="#F2F2F2"/>
<path d="M133.502 59.0232C133.094 59.0232 132.762 59.3541 132.762 59.7611V83.3731C132.762 83.78 133.094 84.1109 133.502 84.1109C133.91 84.1109 134.242 83.78 134.242 83.3731V59.7611C134.242 59.3541 133.91 59.0232 133.502 59.0232Z" fill="#3F3D56"/>
<path d="M9.16976 41.3142C8.7616 41.3142 8.42969 41.6451 8.42969 42.0521V47.9551C8.42969 48.362 8.7616 48.693 9.16976 48.693C9.57792 48.693 9.90983 48.362 9.90983 47.9551V42.0521C9.90983 41.6451 9.57792 41.3142 9.16976 41.3142Z" fill="#3F3D56"/>
<path d="M9.16976 59.0232C8.7616 59.0232 8.42969 59.3541 8.42969 59.7611V71.1981C8.42969 71.6051 8.7616 71.936 9.16976 71.936C9.57792 71.936 9.90983 71.6051 9.90983 71.1981V59.7611C9.90983 59.3541 9.57792 59.0232 9.16976 59.0232Z" fill="#3F3D56"/>
<path d="M9.16976 75.2565C8.7616 75.2565 8.42969 75.5874 8.42969 75.9943V87.4314C8.42969 87.8383 8.7616 88.1693 9.16976 88.1693C9.57792 88.1693 9.90983 87.8383 9.90983 87.4314V75.9943C9.90983 75.5874 9.57792 75.2565 9.16976 75.2565Z" fill="#3F3D56"/>
<path d="M75.5448 18.0712C75.1366 18.0712 74.8047 18.4021 74.8047 18.809V30.2461C74.8047 30.6531 75.1366 30.984 75.5448 30.984C75.9529 30.984 76.2848 30.6531 76.2848 30.2461V18.809C76.2848 18.4021 75.9529 18.0712 75.5448 18.0712Z" fill="#3F3D56"/>
<path d="M188.922 159.605C189.687 159.653 190.109 158.706 189.531 158.154L189.473 157.926C189.481 157.908 189.489 157.89 189.496 157.871C190.269 156.033 192.889 156.046 193.656 157.887C194.336 159.52 195.203 161.157 195.416 162.884C195.511 163.647 195.468 164.424 195.299 165.172C196.893 161.7 197.732 157.909 197.732 154.096C197.732 153.138 197.679 152.18 197.572 151.225C197.483 150.443 197.361 149.666 197.204 148.897C196.35 144.736 194.503 140.773 191.838 137.463C190.557 136.765 189.489 135.674 188.843 134.366C188.611 133.894 188.43 133.386 188.344 132.869C188.49 132.888 188.893 130.674 188.784 130.539C188.987 130.231 189.35 130.078 189.572 129.778C190.676 128.287 192.196 128.547 192.99 130.574C194.686 131.428 194.702 132.843 193.662 134.203C193 135.069 192.909 136.241 192.328 137.168C192.388 137.244 192.45 137.318 192.51 137.394C193.605 138.795 194.553 140.301 195.352 141.884C195.126 140.125 195.459 138.007 196.028 136.641C196.675 135.085 197.887 133.775 198.955 132.43C200.237 130.814 202.867 131.519 203.093 133.567C203.095 133.587 203.098 133.607 203.1 133.627C202.941 133.716 202.786 133.811 202.634 133.911C201.768 134.482 202.067 135.82 203.093 135.978L203.116 135.981C203.059 136.551 202.961 137.115 202.818 137.671C204.187 142.952 201.23 144.876 197.008 144.962C196.914 145.01 196.824 145.058 196.73 145.103C197.158 146.304 197.5 147.536 197.753 148.785C197.98 149.888 198.138 151.003 198.226 152.123C198.336 153.536 198.327 154.956 198.207 156.367L198.215 156.317C198.518 154.763 199.364 153.312 200.593 152.307C202.423 150.808 205.008 150.256 206.982 149.051C207.933 148.471 209.151 149.22 208.985 150.319L208.977 150.372C208.683 150.491 208.396 150.629 208.119 150.784C207.96 150.873 207.805 150.968 207.653 151.068C206.787 151.639 207.086 152.977 208.112 153.135L208.135 153.138C208.152 153.141 208.167 153.143 208.183 153.145C207.679 154.339 206.976 155.447 206.097 156.403C205.24 161.013 201.562 161.451 197.627 160.108H197.624C197.194 161.976 196.565 163.802 195.758 165.541H189.089C189.066 165.467 189.044 165.391 189.023 165.317C189.639 165.355 190.261 165.32 190.868 165.208C190.373 164.602 189.878 163.992 189.383 163.387C189.371 163.375 189.362 163.363 189.352 163.351C189.101 163.042 188.848 162.734 188.597 162.424L188.597 162.424C188.581 161.473 188.696 160.525 188.922 159.605L188.922 159.605L188.922 159.605H188.922Z" fill="#F2F2F2"/>
<path d="M0 165.561C0 165.804 0.19613 166 0.440365 166H208.508C208.752 166 208.948 165.804 208.948 165.561C208.948 165.317 208.752 165.122 208.508 165.122H0.440365C0.19613 165.122 0 165.317 0 165.561Z" fill="#CCCCCC"/>
<path d="M52.6844 99.1849H27.0703V98.447H52.6844C54.9095 98.447 56.7198 96.642 56.7198 94.4233V77.156H57.4599V94.4233C57.4599 97.0487 55.3177 99.1849 52.6844 99.1849H52.6844Z" fill="#6C63FF"/>
<path d="M101.558 136.615H43.3008V137.353H101.558V136.615Z" fill="#6C63FF"/>
<path d="M138.522 94.2509H107.405C105.726 94.2509 104.359 92.8889 104.359 91.2146V60.5685C104.359 58.8942 105.726 57.5321 107.405 57.5321H138.522C140.201 57.5321 141.567 58.8942 141.567 60.5685V91.2146C141.567 92.8889 140.201 94.2509 138.522 94.2509Z" fill="#E6E6E6"/>
<path d="M113.199 58.4368C108.817 58.4368 105.266 61.9779 105.266 66.3462V90.5644C105.266 92.1007 106.515 93.3462 108.056 93.3462H127.083C134.581 93.3462 140.659 87.2863 140.659 79.8109V61.2186C140.659 59.6823 139.409 58.4368 137.868 58.4368H113.199V58.4368Z" fill="white"/>
<path d="M131.301 67.3427H114.567C114.248 67.3427 113.988 67.0837 113.988 66.7654C113.988 66.4471 114.248 66.1882 114.567 66.1882H131.301C131.62 66.1882 131.879 66.4471 131.879 66.7654C131.879 67.0837 131.62 67.3427 131.301 67.3427Z" fill="#E6E6E6"/>
<path d="M131.301 79.6518H114.567C114.248 79.6518 113.988 79.3928 113.988 79.0745C113.988 78.7562 114.248 78.4973 114.567 78.4973H131.301C131.62 78.4973 131.879 78.7562 131.879 79.0745C131.879 79.3928 131.62 79.6518 131.301 79.6518Z" fill="#E6E6E6"/>
<path d="M138.094 73.5013H107.77C107.451 73.5013 107.191 73.2423 107.191 72.924C107.191 72.6057 107.451 72.3468 107.77 72.3468H138.094C138.413 72.3468 138.673 72.6057 138.673 72.924C138.673 73.2423 138.413 73.5013 138.094 73.5013Z" fill="#E6E6E6"/>
<path d="M138.401 84.6566H127.446C127.127 84.6566 126.867 84.3976 126.867 84.0794C126.867 83.7611 127.127 83.5022 127.446 83.5022H138.401C138.72 83.5022 138.979 83.7611 138.979 84.0794C138.979 84.3976 138.72 84.6566 138.401 84.6566Z" fill="#E6E6E6"/>
<path d="M73.1585 155.312H48.4495C47.1161 155.312 46.0312 154.23 46.0312 152.901V128.566C46.0312 127.236 47.1161 126.155 48.4495 126.155H73.1585C74.4919 126.155 75.5767 127.236 75.5767 128.566V152.901C75.5767 154.23 74.4919 155.312 73.1585 155.312H73.1585Z" fill="#E6E6E6"/>
<path d="M53.0493 126.873C49.5703 126.873 46.75 129.685 46.75 133.154V152.384C46.75 153.604 47.7419 154.593 48.9656 154.593H64.0744C70.028 154.593 74.8544 149.781 74.8544 143.845V129.082C74.8544 127.862 73.8625 126.873 72.6388 126.873H53.0493L53.0493 126.873H53.0493Z" fill="white"/>
<path d="M67.419 133.945H54.1316C53.8781 133.945 53.6719 133.739 53.6719 133.486C53.6719 133.234 53.8781 133.028 54.1316 133.028H67.419C67.6725 133.028 67.8786 133.234 67.8786 133.486C67.8786 133.739 67.6725 133.945 67.419 133.945Z" fill="#E6E6E6"/>
<path d="M67.419 143.719H54.1316C53.8781 143.719 53.6719 143.513 53.6719 143.261C53.6719 143.008 53.8781 142.802 54.1316 142.802H67.419C67.6725 142.802 67.8786 143.008 67.8786 143.261C67.8786 143.513 67.6725 143.719 67.419 143.719Z" fill="#E6E6E6"/>
<path d="M72.8158 138.835H48.7371C48.4836 138.835 48.2773 138.63 48.2773 138.377C48.2773 138.124 48.4836 137.918 48.7371 137.918H72.8158C73.0693 137.918 73.2755 138.124 73.2755 138.377C73.2755 138.63 73.0693 138.835 72.8158 138.835Z" fill="#E6E6E6"/>
<path d="M73.0645 147.693H64.366C64.1125 147.693 63.9062 147.488 63.9062 147.235C63.9062 146.982 64.1125 146.777 64.366 146.777H73.0645C73.318 146.777 73.5242 146.982 73.5242 147.235C73.5242 147.488 73.318 147.693 73.0645 147.693Z" fill="#E6E6E6"/>
<path d="M55.8899 76.9698H37.6165C36.6304 76.9698 35.8281 76.1699 35.8281 75.1867V57.1898C35.8281 56.2066 36.6304 55.4067 37.6165 55.4067H55.8899C56.876 55.4067 57.6783 56.2066 57.6783 57.1898V75.1867C57.6783 76.1699 56.876 76.9698 55.8899 76.9698Z" fill="#E6E6E6"/>
<path d="M41.018 55.938C38.4451 55.938 36.3594 58.0175 36.3594 60.5828V74.8049C36.3594 75.7071 37.093 76.4385 37.9979 76.4385H49.1716C53.5745 76.4385 57.1438 72.8798 57.1438 68.4899V57.5717C57.1438 56.6694 56.4102 55.938 55.5053 55.938H41.018V55.938L41.018 55.938Z" fill="white"/>
<path d="M51.651 61.1679H41.8244C41.6369 61.1679 41.4844 61.0158 41.4844 60.8289C41.4844 60.642 41.6369 60.49 41.8244 60.49H51.651C51.8384 60.49 51.9909 60.642 51.9909 60.8289C51.9909 61.0158 51.8384 61.1679 51.651 61.1679Z" fill="#E6E6E6"/>
<path d="M51.651 68.3964H41.8244C41.6369 68.3964 41.4844 68.2444 41.4844 68.0574C41.4844 67.8705 41.6369 67.7185 41.8244 67.7185H51.651C51.8384 67.7185 51.9909 67.8705 51.9909 68.0574C51.9909 68.2444 51.8384 68.3964 51.651 68.3964Z" fill="#E6E6E6"/>
<path d="M55.6395 64.7845H37.8322C37.6447 64.7845 37.4922 64.6324 37.4922 64.4455C37.4922 64.2586 37.6447 64.1066 37.8322 64.1066H55.6395C55.8269 64.1066 55.9794 64.2586 55.9794 64.4455C55.9794 64.6324 55.8269 64.7845 55.6395 64.7845Z" fill="#E6E6E6"/>
<path d="M55.8198 71.3355H49.3869C49.1994 71.3355 49.0469 71.1834 49.0469 70.9965C49.0469 70.8096 49.1994 70.6576 49.3869 70.6576H55.8198C56.0073 70.6576 56.1598 70.8096 56.1598 70.9965C56.1598 71.1834 56.0073 71.3355 55.8198 71.3355Z" fill="#E6E6E6"/>
<path d="M109.22 99.6612C111.264 99.6612 112.92 98.0094 112.92 95.9718C112.92 93.9343 111.264 92.2825 109.22 92.2825C107.176 92.2825 105.52 93.9343 105.52 95.9718C105.52 98.0094 107.176 99.6612 109.22 99.6612Z" fill="#6C63FF"/>
<path d="M57.0441 80.8454C59.0878 80.8454 60.7445 79.1936 60.7445 77.1561C60.7445 75.1185 59.0878 73.4667 57.0441 73.4667C55.0005 73.4667 53.3438 75.1185 53.3438 77.1561C53.3438 79.1936 55.0005 80.8454 57.0441 80.8454Z" fill="#6C63FF"/>
<path d="M74.8058 131.39C76.8495 131.39 78.5062 129.738 78.5062 127.7C78.5062 125.663 76.8495 124.011 74.8058 124.011C72.7622 124.011 71.1055 125.663 71.1055 127.7C71.1055 129.738 72.7622 131.39 74.8058 131.39Z" fill="#6C63FF"/>
<path d="M82.7994 29.0917C85.3464 29.0917 87.4112 27.0764 87.4112 24.5904C87.4112 22.1044 85.3464 20.0891 82.7994 20.0891C80.2523 20.0891 78.1875 22.1044 78.1875 24.5904C78.1875 27.0764 80.2523 29.0917 82.7994 29.0917Z" fill="#F2F2F2"/>
<path d="M119.771 23.0505H94.9468C94.0952 23.0505 93.4023 22.3597 93.4023 21.5106C93.4023 20.6615 94.0952 19.9707 94.9468 19.9707H119.771C120.622 19.9707 121.315 20.6615 121.315 21.5106C121.315 22.3597 120.622 23.0505 119.771 23.0505Z" fill="#F2F2F2"/>
<path d="M139.143 28.2626H94.9468C94.0952 28.2626 93.4023 27.5717 93.4023 26.7227C93.4023 25.8736 94.0952 25.1827 94.9468 25.1827H139.143C139.995 25.1827 140.688 25.8736 140.688 26.7227C140.688 27.5717 139.995 28.2626 139.143 28.2626Z" fill="#F2F2F2"/>
<path d="M16.0433 48.0099C17.6917 48.0099 19.028 46.7057 19.028 45.0968C19.028 43.4879 17.6917 42.1836 16.0433 42.1836C14.3949 42.1836 13.0586 43.4879 13.0586 45.0968C13.0586 46.7057 14.3949 48.0099 16.0433 48.0099Z" fill="#F2F2F2"/>
<path d="M39.9714 44.1002H23.9058C23.3547 44.1002 22.9062 43.6531 22.9062 43.1035C22.9062 42.554 23.3547 42.1069 23.9058 42.1069H39.9714C40.5226 42.1069 40.971 42.554 40.971 43.1035C40.971 43.6531 40.5226 44.1002 39.9715 44.1002H39.9714Z" fill="#F2F2F2"/>
<path d="M52.5091 47.4733H23.9058C23.3547 47.4733 22.9062 47.0262 22.9062 46.4767C22.9062 45.9272 23.3547 45.4801 23.9058 45.4801H52.5091C53.0603 45.4801 53.5087 45.9272 53.5087 46.4767C53.5087 47.0262 53.0603 47.4733 52.5091 47.4733Z" fill="#F2F2F2"/>
<path d="M105.594 151.681C107.243 151.681 108.579 150.377 108.579 148.768C108.579 147.159 107.243 145.855 105.594 145.855C103.946 145.855 102.609 147.159 102.609 148.768C102.609 150.377 103.946 151.681 105.594 151.681Z" fill="#F2F2F2"/>
<path d="M129.522 147.772H113.457C112.905 147.772 112.457 147.325 112.457 146.775C112.457 146.226 112.905 145.778 113.457 145.778H129.522C130.073 145.778 130.522 146.226 130.522 146.775C130.522 147.325 130.073 147.772 129.522 147.772Z" fill="#F2F2F2"/>
<path d="M142.06 151.145H113.457C112.905 151.145 112.457 150.698 112.457 150.148C112.457 149.599 112.905 149.152 113.457 149.152H142.06C142.611 149.152 143.059 149.599 143.059 150.148C143.059 150.698 142.611 151.145 142.06 151.145Z" fill="#F2F2F2"/>
<path d="M69.7166 57.5433H68.9766V92.5924H69.7166V57.5433Z" fill="#E6E6E6"/>
<path d="M69.3452 94.806C70.5714 94.806 71.5654 93.815 71.5654 92.5924C71.5654 91.3699 70.5714 90.3788 69.3452 90.3788C68.119 90.3788 67.125 91.3699 67.125 92.5924C67.125 93.815 68.119 94.806 69.3452 94.806Z" fill="#E6E6E6"/>
<path d="M103.021 120.263C104.247 120.263 105.241 119.272 105.241 118.049C105.241 116.827 104.247 115.835 103.021 115.835C101.795 115.835 100.801 116.827 100.801 118.049C100.801 119.272 101.795 120.263 103.021 120.263Z" fill="#E6E6E6"/>
<path d="M43.0757 90.0098C44.3019 90.0098 45.2959 89.0187 45.2959 87.7961C45.2959 86.5736 44.3019 85.5825 43.0757 85.5825C41.8495 85.5825 40.8555 86.5736 40.8555 87.7961C40.8555 89.0187 41.8495 90.0098 43.0757 90.0098Z" fill="#E6E6E6"/>
<path d="M42.2552 87.7995L30.1133 88.166L30.1357 88.9039L42.2776 88.5374L42.2552 87.7995Z" fill="#E6E6E6"/>
<path d="M121.083 126.523H102.672V118.049H103.412V125.786H121.083V126.523Z" fill="#E6E6E6"/>
<path d="M42.1616 114.181C43.3878 114.181 44.3818 113.19 44.3818 111.967C44.3818 110.745 43.3878 109.754 42.1616 109.754C40.9354 109.754 39.9414 110.745 39.9414 111.967C39.9414 113.19 40.9354 114.181 42.1616 114.181Z" fill="#E6E6E6"/>
<path d="M60.0052 120.442H41.5938V111.967H42.3338V119.704H60.0052V120.442Z" fill="#E6E6E6"/>
<path d="M116.342 103.544H27.9102V104.282H116.342V103.544Z" fill="#E6E6E6"/>
</g>
<defs>
<clipPath id="clip0_1506_37201">
<rect width="209" height="166" fill="white"/>
</clipPath>
</defs>
</svg>
