<svg width="193" height="162" fill="none" xmlns="http://www.w3.org/2000/svg"><g clip-path="url(#a)"><path d="m41.894 101.237 3.295 1.903a2.635 2.635 0 0 0 3.182-.419 2.667 2.667 0 0 0-.545-4.187 2.635 2.635 0 0 0-1.174-.35l-3.991-.22-12.022-3.656-1.938-7.291-5.068 2.86 3.485 8.289 14.776 3.071Z" fill="#FFB8B8"/><path d="M26.184 63.397c-.763.868-.625 1.913-.07 2.76.555.848 1.48 1.554 2.288 2.302.52.48 1 .99 1.233 1.569a1.709 1.709 0 0 1-.278 1.8c-.53.63-1.516 1.055-2.478 1.42a48.66 48.66 0 0 1-8.485 2.348c2.437-2.86 3.657-6.082 3.479-9.186-.038-.65-.134-1.308.092-1.96a2.664 2.664 0 0 1 1.818-1.599c.968-.279 2.244-.003 2.392.635" fill="#2F2E41"/><path d="m5.305 155.196 3.487.152 6.882-31.939-5.973.258-4.396 31.529Zm34.871-6.854-2.88 1.523-18.019-26.858 5.739-2.538 15.16 27.873ZM20.09 73.45c3.046 0 5.516-2.48 5.516-5.54 0-3.061-2.47-5.542-5.516-5.542s-5.516 2.48-5.516 5.541c0 3.06 2.47 5.541 5.516 5.541Z" fill="#FFB8B8"/><path d="M17.283 70.814s-1.971 4.113-4.7 3.96c0 0-5.155-2.132-6.822 3.656L3.94 83l24.106 4.112s-1.365-8.377-4.548-8.53c0 0-3.639-.304-3.184-1.675.455-1.37 2.122-4.57 2.122-4.57l-5.154-1.523Z" fill="#FFB8B8"/><path d="m25.317 91.834-3.64 7.92 3 12.802 14.604 27.536s-6.726 6.062-8.403 7.034c-1.454.844-13.562-22.019-14.004-26.732-.146-1.555-2.8 29.948-2.8 29.948s-10.01-1.659-12.804-2.211c0 0 2.013-14.329 3.2-27.737.916-10.335.084-19.701 5.231-24.143l-.455-8.835 12.129-.456 3.942 4.874ZM6.48 161.07l5.567.812a1.845 1.845 0 0 0 2.313-.928 1.87 1.87 0 0 0-.308-2.082l-2.363-2.557-1.7-3.686c-1.017-1.044-1.713-.675-2.101 1.04l-2.719-.858-.713 4.814a3.19 3.19 0 0 0 .405 2.083c.368.627.94 1.108 1.62 1.362Zm31.73-5.036 5.625-.02c.45.096.92.02 1.318-.213a1.861 1.861 0 0 0 .84-2.149 1.856 1.856 0 0 0-.616-.912l-2.712-2.18-2.222-3.395c-1.158-.882-1.792-.414-1.925 1.34l-2.815-.447v4.867c0 .728.25 1.434.705 2a3.166 3.166 0 0 0 1.802 1.109ZM17.307 59.391c-.937-.411-2.052-.25-2.957.229-.904.479-1.627 1.242-2.26 2.05a17.336 17.336 0 0 0-3.637 9.733c-.05.968-.003 1.992.499 2.82.551.91 1.56 1.433 2.56 1.789 3.352 1.173 7.03.97 10.234-.566a36.36 36.36 0 0 1-4.658-4.545c-.265-.31-.542-.707-.407-1.093.085-.187.216-.35.382-.47l3.247-2.834-.081 1.146a3.3 3.3 0 0 0 1.785-.653 3.323 3.323 0 0 0 1.133-1.532c-.156.317.143.707.488.779.345.071.695-.072 1.02-.212.785-.34 1.638-.744 1.987-1.53a2.203 2.203 0 0 0-.046-1.73 4.351 4.351 0 0 0-1.057-1.416 8.801 8.801 0 0 0-8.253-2.062" fill="#2F2E41"/><path d="m16.204 100.444 2.422 2.944a2.648 2.648 0 0 0 2.01.963 2.635 2.635 0 0 0 2.03-.92 2.658 2.658 0 0 0 .577-2.323 2.658 2.658 0 0 0-1.517-1.846l-3.66-1.613-9.982-7.66.731-7.51-5.745.891.37 8.99 12.764 8.084Z" fill="#FFB8B8"/><path d="M31.231 93.814s-2.36-8.686-3.606-8.684c-1.245.002-2.913-.15-2.913-.15s-1.971-5.788-12.129-3.96c-10.157 1.827-5.76-1.676-8.641-.305C1.062 82.085 0 91.68 0 91.68s15.616-5.178 18.95-2.284a37.033 37.033 0 0 0 6.217 4.417s-1.516 3.808 6.064 0Z" fill="#2F2E41"/><path d="M85.367 155.557H24.148v.402h61.219v-.402Z" fill="#3F3D56"/><path d="M132.378 86.215c20.441 0 37.011-16.648 37.011-37.184 0-20.535-16.57-37.183-37.011-37.183-20.44 0-37.01 16.648-37.01 37.183 0 20.536 16.57 37.184 37.01 37.184Z" fill="#E6E6E6"/><path d="M125.379 28.33H64.16v.401h61.219v-.402Zm59.017 11.054H64.16v.402h120.236v-.402Z" fill="#3F3D56"/><path d="M147.383 78.98c-20.518 0-37.211-16.771-37.211-37.385 0-20.614 16.693-37.385 37.211-37.385 20.518 0 37.211 16.77 37.211 37.385 0 20.614-16.693 37.384-37.211 37.384Zm0-74.368c-20.298 0-36.811 16.59-36.811 36.983 0 20.392 16.513 36.982 36.811 36.982s36.811-16.59 36.811-36.982-16.513-36.983-36.811-36.983Z" fill="#3F3D56"/><path d="M143.952 9.817c2.698 0 4.886-2.198 4.886-4.909 0-2.71-2.188-4.908-4.886-4.908s-4.886 2.198-4.886 4.908c0 2.711 2.188 4.909 4.886 4.909Z" fill="#6C63FF"/><path d="M110.314 42.14a3.169 3.169 0 0 0 3.161-3.176 3.169 3.169 0 0 0-3.161-3.176 3.17 3.17 0 0 0-3.162 3.176 3.17 3.17 0 0 0 3.162 3.176Z" fill="#FF6584"/><path d="M185.782 46.27c3.987 0 7.22-3.248 7.22-7.254 0-4.006-3.233-7.253-7.22-7.253-3.987 0-7.22 3.247-7.22 7.253s3.233 7.254 7.22 7.254Z" fill="#6C63FF"/><path d="M84.298 67.635H62.392v.402h21.906c1.079 0 2.113.43 2.876 1.197a4.095 4.095 0 0 1 0 5.778 4.057 4.057 0 0 1-2.876 1.196H51.15a4.057 4.057 0 0 1-2.875-1.196 4.095 4.095 0 0 1 0-5.778 4.057 4.057 0 0 1 2.875-1.197h1.239v-.402H51.15c-1.184 0-2.32.473-3.158 1.315a4.498 4.498 0 0 0 0 6.346 4.456 4.456 0 0 0 3.158 1.314h33.148a4.455 4.455 0 0 0 3.159-1.314 4.498 4.498 0 0 0 0-6.346 4.457 4.457 0 0 0-3.159-1.315Zm0 13.869H62.392v.402h21.906c1.079 0 2.113.43 2.876 1.197a4.095 4.095 0 0 1 0 5.777 4.057 4.057 0 0 1-2.876 1.197H51.15a4.057 4.057 0 0 1-2.875-1.197 4.095 4.095 0 0 1 0-5.777 4.057 4.057 0 0 1 2.875-1.197h1.239v-.402H51.15c-1.184 0-2.32.473-3.158 1.314a4.498 4.498 0 0 0 0 6.346 4.456 4.456 0 0 0 3.158 1.315h33.148a4.46 4.46 0 0 0 3.159-1.314 4.498 4.498 0 0 0 0-6.347 4.456 4.456 0 0 0-3.159-1.314Zm0 13.868H62.392v.402h21.906c1.079 0 2.113.43 2.876 1.197a4.095 4.095 0 0 1 0 5.778 4.057 4.057 0 0 1-2.876 1.196H51.15a4.057 4.057 0 0 1-2.875-1.196 4.096 4.096 0 0 1 0-5.778 4.057 4.057 0 0 1 2.875-1.197h1.239v-.402H51.15c-1.184 0-2.32.473-3.158 1.315a4.499 4.499 0 0 0 0 6.346 4.458 4.458 0 0 0 3.158 1.314h33.148a4.46 4.46 0 0 0 3.159-1.314 4.499 4.499 0 0 0 0-6.346 4.456 4.456 0 0 0-3.159-1.315Z" fill="#3F3D56"/><path d="M54.861 66.573a1.19 1.19 0 0 0-.828.357 1.198 1.198 0 0 0 .828 2.034h5.219a1.19 1.19 0 0 0 .845-.338 1.198 1.198 0 0 0-.806-2.053h-5.258Z" fill="#6C63FF"/><path d="M54.861 80.643c-.312.005-.61.133-.828.357a1.198 1.198 0 0 0 .828 2.033h5.219a1.19 1.19 0 0 0 .845-.337 1.199 1.199 0 0 0 .027-1.688 1.187 1.187 0 0 0-.872-.365h-5.219Z" fill="#FF6584"/><path d="M54.862 94.31c-.313.005-.61.134-.829.357a1.198 1.198 0 0 0 .829 2.034h5.218c.316.004.62-.117.846-.337a1.198 1.198 0 0 0-.846-2.054h-5.218Z" fill="#3F3D56"/><path d="M52.791 70.928c-.312.005-.61.133-.828.357a1.198 1.198 0 0 0 .828 2.033h29.826a1.185 1.185 0 0 0 1.114-.719 1.2 1.2 0 0 0-.62-1.574 1.185 1.185 0 0 0-.494-.097H52.791Zm0 13.868c-.312.005-.61.134-.828.357a1.198 1.198 0 0 0 .828 2.033h29.826a1.185 1.185 0 0 0 1.114-.719 1.2 1.2 0 0 0-.62-1.573 1.187 1.187 0 0 0-.494-.098H52.791Zm0 13.869c-.312.005-.61.133-.828.357a1.198 1.198 0 0 0 .828 2.033h29.826a1.176 1.176 0 0 0 .849-.335 1.196 1.196 0 0 0 .28-1.3 1.197 1.197 0 0 0-.635-.658 1.185 1.185 0 0 0-.494-.097H52.791Z" fill="#E6E6E6"/><path d="M83.096 143.559a20.675 20.675 0 0 0-1.8-5.806l-.128-.267-.956 1.064.708-1.585-.046-.092a37.913 37.913 0 0 0-2.074-3.616l-.14-.216-.188.209.131-.294-.066-.099a33.255 33.255 0 0 0-1.665-2.315l-.203-.252-.131.3c-.024.056-2.405 5.566-2.72 11.012l-.005.085 1.602 1.946-1.634-1.031.003.374c.005.64.048 1.279.13 1.914.072.546.157 1.079.254 1.599a.85.85 0 0 1 .434.136 30.608 30.608 0 0 1-.292-1.792 15.506 15.506 0 0 1-.118-1.483l3.16 1.993-3.13-3.8c.285-4.604 2.054-9.243 2.55-10.467.267.347.77 1.021 1.371 1.921l-1.093 2.449 1.558-1.736a37.353 37.353 0 0 1 1.865 3.266l-1.683 3.77 2.276-2.535a20.243 20.243 0 0 1 1.635 5.41c.398 3.023.32 5.928-.22 8.178-.516 2.156-1.427 3.48-2.499 3.635a1.69 1.69 0 0 1-.66-.039.974.974 0 0 1-.592.181h-.059a2.31 2.31 0 0 0 1.085.293c.094 0 .188-.007.281-.02 1.26-.182 2.266-1.584 2.833-3.948.551-2.301.632-5.262.226-8.342Z" fill="#3F3D56"/><path d="M79.567 155.71c-1.647 0-4.023-.91-6.38-2.568a10.265 10.265 0 0 1-.992-.801l-.264-.243.998-.288-1.328-.049-.056-.059c-2.491-2.621-4.041-6.323-4.057-6.36l-.12-.292.314.014c.031.002.78.037 1.906.197l.07.01.246.038c.92.14 1.83.332 2.727.575l.096.026.3.741-.046-.664.275.079c1.302.378 2.538.954 3.666 1.708 3.584 2.521 5.567 5.673 4.519 7.176-.359.515-1.018.76-1.874.76Zm-6.83-3.426c.219.186.447.363.68.529 3.282 2.309 6.807 3.182 7.696 1.907.889-1.275-1.133-4.304-4.416-6.614a12.81 12.81 0 0 0-3.277-1.57l.177 2.596-1.166-2.885a24.124 24.124 0 0 0-2.34-.502l.129 1.884-.802-1.986a25.493 25.493 0 0 0-1.428-.156c.415.917 1.789 3.749 3.788 5.878l3.667.135-2.708.784Z" fill="#3F3D56"/></g><defs><clipPath id="a"><path fill="#fff" d="M0 0h193v162H0z"/></clipPath></defs></svg>