<svg width="238" height="144" fill="none" xmlns="http://www.w3.org/2000/svg"><g clip-path="url(#a)"><path d="M19.703 31.242c6.773 0 12.265-5.484 12.265-12.249 0-6.764-5.492-12.248-12.265-12.248-6.774 0-12.265 5.484-12.265 12.248 0 6.765 5.49 12.249 12.265 12.249Z" fill="#FF6584"/><path d="M118.386 144c65.382 0 118.385-2.146 118.385-4.793 0-2.647-53.003-4.793-118.385-4.793C53.003 134.414 0 136.56 0 139.207 0 141.854 53.003 144 118.386 144Z" fill="#E6E6E6"/><path d="M30.13 79.14c16.64 0 30.129-13.47 30.129-30.088 0-16.617-13.49-30.088-30.13-30.088S0 32.434 0 49.052C0 65.67 13.49 79.141 30.13 79.141Z" fill="#6C63FF"/><path d="M33.035 139.681h-6.172l2.814-95.16 3.358 95.16Z" fill="#3F3D56"/><path d="m30.219 62.556 6.625-9.153-6.716 11.419-.726-1.27.817-.996Zm-.723 9.244-6.625-9.153 6.716 11.419.726-1.269-.817-.997Zm191.144 67.981h-6.171l2.813-95.16 3.358 95.16Z" fill="#3F3D56"/><path d="m217.828 62.656 6.625-9.153-6.715 11.419-.726-1.27.816-.996Zm-.727 9.244-6.624-9.153 6.715 11.419.726-1.269-.817-.997Zm-94.7 67.865c30.998 0 56.127-25.095 56.127-56.051 0-30.956-25.129-56.051-56.127-56.051-30.999 0-56.128 25.095-56.128 56.05 0 30.957 25.13 56.052 56.128 56.052Z" fill="#3F3D56"/><path d="M122.399 135.125c28.432 0 51.481-23.018 51.481-51.411 0-28.394-23.049-51.411-51.481-51.411-28.432 0-51.481 23.017-51.481 51.41 0 28.394 23.049 51.412 51.481 51.412Z" fill="#fff"/><path d="M122.212 90.767c3.798 0 6.877-3.075 6.877-6.868 0-3.792-3.079-6.867-6.877-6.867-3.797 0-6.876 3.075-6.876 6.867a6.872 6.872 0 0 0 6.876 6.868Zm1.488-55.866h-2.973v5.568h2.973v-5.568Zm0 92.429h-2.973v5.568h2.973v-5.568ZM78.723 85.384v-2.97h-5.576v2.97h5.576Zm92.554 0v-2.97h-5.575v2.97h5.575Z" fill="#3F3D56"/><path d="m120.23 86.88 2.542-5.802 31.842 17.611-34.384-11.808Zm9.419-72.766h-14.497v16.704h14.497V14.114Z" fill="#3F3D56"/><path d="M122.398 18.754c9.238 0 16.727-2.077 16.727-4.64 0-2.563-7.489-4.64-16.727-4.64-9.237 0-16.726 2.078-16.726 4.64 0 2.563 7.489 4.64 16.726 4.64Z" fill="#3F3D56"/><path d="m153.714 93.643-.93 1.3s-4.274 5.01-4.46 2.598c-.186-2.413 3.159-4.083 3.159-4.083l1.859-1.114.372 1.3Zm26.457 4.384.778 1.394s2.706 6.003.443 5.138c-2.264-.865-2.344-4.599-2.344-4.599l-.212-2.154 1.335.22Z" fill="#FFB8B8"/><path d="M175.987 73.296a5.655 5.655 0 0 0 5.659-5.652 5.655 5.655 0 0 0-5.659-5.651 5.655 5.655 0 0 0-5.659 5.651 5.655 5.655 0 0 0 5.659 5.651Z" fill="#2F2E41"/><path d="m175.461 114.059.743 4.826v1.485h4.275v-1.856s.186-3.341-.558-4.269c-.743-.928-4.46-.186-4.46-.186Zm-7.621 0 .743 4.826v1.485h4.275v-1.856s.186-3.341-.558-4.269c-.743-.928-4.46-.186-4.46-.186Z" fill="#FFB8B8"/><path d="M170.718 75.297s-1.644.866-.521 2.834c1.123 1.969 7.712 22.334 7.712 22.334l3.801-1.077-3.352-12.88-1.92-8.095-5.72-3.116Z" fill="#6C63FF"/><path d="M175.368 73.506a4.272 4.272 0 0 0 4.275-4.269 4.272 4.272 0 0 0-4.275-4.269 4.272 4.272 0 0 0-4.274 4.269 4.272 4.272 0 0 0 4.274 4.269Z" fill="#FFB8B8"/><path d="m177.32 69.887-.558 8.723-3.903-2.784s1.301-5.197.93-5.568l3.531-.371Z" fill="#FFB8B8"/><path d="m177.317 77.867-4.205-3.109s-1.928-.788-2.486.14c-.558.928-3.345 14.662-1.859 17.26 0 0 7.992 1.671 9.665.743l.743-4.826s.929-2.97-.557-4.825l-1.301-5.383Z" fill="#6C63FF"/><path d="M171.743 75.084s-1.487-1.114-2.788.742c-1.301 1.856-16.912 16.518-16.912 16.518l2.602 2.97 10.222-8.538 6.504-5.197.372-6.495Z" fill="#6C63FF"/><path d="M178.526 92.808s-9.2-1.763-10.129-.464l-.186 2.042s-2.044 3.898-.929 10.208c1.115 6.31.372 10.208.372 10.208s5.018-.557 8.735 0c3.717.557 4.274 0 4.274 0l-2.137-21.994Zm2.325 26.819-5.39.186 1.858 13.92s-1.486 5.939.186 6.31a18.87 18.87 0 0 0 3.531.372s1.673 1.67 3.532 1.484a10.41 10.41 0 0 0 3.531-1.113s.372-1.114-.929-1.485c-1.301-.371-4.833-1.485-5.576-5.382l-.743-14.292Z" fill="#2F2E41"/><path d="m173.23 119.627-5.39.186 1.858 13.92s-1.486 5.939.186 6.31a18.87 18.87 0 0 0 3.531.372s1.673 1.67 3.532 1.484a10.41 10.41 0 0 0 3.531-1.113s.371-1.114-.93-1.485c-1.3-.371-4.832-1.485-5.575-5.382l-.743-14.292Zm4.737-55.592a2.34 2.34 0 1 0 0-4.677 2.34 2.34 0 0 0-2.342 2.338 2.34 2.34 0 0 0 2.342 2.339Z" fill="#2F2E41"/><path d="M181.09 60.43a2.341 2.341 0 0 0-2.098-2.326 2.344 2.344 0 0 1 2.586 2.326 2.338 2.338 0 0 1-2.586 2.325 2.342 2.342 0 0 0 2.098-2.326Zm-5.761 8.354c2.155 0 3.902-1.047 3.902-2.338 0-1.292-1.747-2.339-3.902-2.339-2.156 0-3.903 1.047-3.903 2.339 0 1.291 1.747 2.338 3.903 2.338Z" fill="#2F2E41"/><path d="M236.803 11.224a11.886 11.886 0 0 0-3.259-7.525 11.921 11.921 0 0 0-20.113 5.017 10.388 10.388 0 0 0-.434-.011c-2.573 0-5.078.833-7.138 2.373a11.897 11.897 0 0 0-4.291 6.171 8.43 8.43 0 0 0-9.99 2.481h37.159a8.066 8.066 0 0 0 5.812-2.45 8.048 8.048 0 0 0 2.254-6.056ZM205.739 36.26a3.197 3.197 0 0 0 3.199-3.195 3.197 3.197 0 0 0-3.199-3.195c-1.767 0-3.2 1.43-3.2 3.195a3.198 3.198 0 0 0 3.2 3.195Zm9.66-8.068a2.662 2.662 0 0 0 2.664-2.66c0-1.47-1.193-2.66-2.664-2.66a2.663 2.663 0 0 0-2.665 2.66 2.662 2.662 0 0 0 2.665 2.66Zm13.004 14.991a3.197 3.197 0 0 0 3.199-3.195 3.197 3.197 0 0 0-3.199-3.195c-1.767 0-3.2 1.43-3.2 3.195a3.198 3.198 0 0 0 3.2 3.195Zm-24.266 14.645c1.767 0 3.2-1.43 3.2-3.195a3.198 3.198 0 0 0-3.2-3.195 3.197 3.197 0 0 0-3.199 3.195 3.197 3.197 0 0 0 3.199 3.195Zm24.266 18.373a3.197 3.197 0 0 0 3.199-3.195 3.197 3.197 0 0 0-3.199-3.195c-1.767 0-3.2 1.43-3.2 3.195a3.198 3.198 0 0 0 3.2 3.195Zm-5.072 58.417c.002-.035.006-.069.006-.104a3.194 3.194 0 0 0-4.53-2.903 3.19 3.19 0 0 0-5.554 2.639l-.048-.002a3.2 3.2 0 0 0-3.171 2.729 3.192 3.192 0 0 0 2.247 3.527 3.195 3.195 0 0 0 2.879-.536 3.195 3.195 0 0 0 2.657 1.73 3.2 3.2 0 0 0 2.842-1.406 3.202 3.202 0 0 0 2.675.511 3.192 3.192 0 0 0-.003-6.185Zm8.002-73.062a1.332 1.332 0 1 0 .002-2.664 1.332 1.332 0 0 0-.002 2.664Zm-8.531-31.953a1.332 1.332 0 1 0 .001-2.664 1.332 1.332 0 0 0-.001 2.664Zm-4.531 33.018a1.332 1.332 0 1 0 .001-2.664 1.332 1.332 0 0 0-.001 2.664Z" fill="#E6E6E6"/><path d="M219.337 61.29a1.332 1.332 0 1 0 .001-2.665 1.332 1.332 0 0 0-.001 2.665Z" fill="#E6E6E6"/><path d="M220.134 59.958a1.332 1.332 0 1 0 .001-2.664 1.332 1.332 0 0 0-.001 2.664Zm-3.199 11.184a1.332 1.332 0 1 0 .002-2.665 1.332 1.332 0 0 0-.002 2.665Zm19.73 14.911a1.332 1.332 0 1 0 .001-2.665 1.332 1.332 0 0 0-.001 2.665Zm-28.527.799a1.332 1.332 0 1 0 .001-2.665 1.332 1.332 0 0 0-.001 2.665Zm1.598-41.006a1.332 1.332 0 1 0-1.334-1.331c0 .735.597 1.331 1.334 1.331Z" fill="#E6E6E6"/><path d="M215.868 69.81a1.332 1.332 0 1 0 0-2.662 1.332 1.332 0 1 0 0 2.662Z" fill="#E6E6E6"/><path d="M214.536 67.68a1.332 1.332 0 1 0 0-2.662 1.332 1.332 0 1 0 0 2.662Z" fill="#E6E6E6"/></g><defs><clipPath id="a"><path fill="#fff" d="M0 0h238v144H0z"/></clipPath></defs></svg>