<svg width="209" height="166" fill="none" xmlns="http://www.w3.org/2000/svg"><g clip-path="url(#a)"><path d="m183.591 161.084-4.344-.001-2.067-16.709 6.412.001-.001 16.709Z" fill="#FFB6B6"/><path d="m183.744 165.603-13.361-.001v-.168c0-2.864 2.328-5.185 5.2-5.185h.001l2.44-1.846 4.554 1.846h1.166v5.354Z" fill="#2F2E41"/><path d="m164.33 161.084-4.345-.001-2.067-16.709 6.413.001-.001 16.709Z" fill="#FFB6B6"/><path d="m164.482 165.603-13.361-.001v-.168c0-2.864 2.329-5.185 5.201-5.185l2.44-1.846 4.554 1.846h1.166v5.354Zm-2.226-97.768 25.067.526s4.507 7.366 1.066 17.758l.386 2.894-1.584 4.472-.791 13.68.791 2.105-.527 3.946s2.111 26.045-3.167 39.199l-6.332-.263-2.375-34.32 1.319-2.511-.264-1.053-3.166-15.784-3.166 8.155v4.531l-2.903 3.361s1.056 31.044-1.847 37.358h-7.09L155 109.796l2.639-24.467-.528-1.578.792-.79-.528-2.63 4.881-12.496Z" fill="#2F2E41"/><path d="m172.942 19.822 7.652-1.841 2.111 4.998s10.922 5.788 11.45 13.68c0 0 1.48 6.314.16 9.208-1.319 2.894-6.86 12.102-6.86 12.102s5.013 16.048 3.694 16.837c-1.319.79-32.719-.789-32.719-2.367 0-1.579 5.225-18.153 5.225-18.153l1.107-28.413 7.125-2.63 1.055-3.42Z" fill="#3F3D56"/><path d="M193.343 84.584a3.233 3.233 0 0 1-1.439-4.349c.081-.16.177-.309.28-.45l-4.258-29.106 5.895.188 3.083 28.36a3.229 3.229 0 0 1 .8 3.922 3.252 3.252 0 0 1-4.361 1.435Zm-55.934-13.738a3.235 3.235 0 0 1 2.373-4.331l16.449-24.418 4.242 4.086-16.817 23.079a3.234 3.234 0 0 1-2.049 3.441 3.25 3.25 0 0 1-4.198-1.857Z" fill="#FFB6B6"/><path d="M182.603 43.337c-1.666-5.705 1.101-11.525 7.06-11.497 1.723.008 3.061.506 3.432 1.886 1.298 4.828 2.006 12.116 2.006 12.116l1.54 7.76-.933 1.61 1.945 5.2-.944 2.46-.204 12.564-4.749-.263-5.233-9.578-2.001-1.186s1.606-15.485-1.59-19.943l-.329-1.129Zm-21.276-14.04c2.778-5.257 9.888-6.502 14.155-2.354 1.233 1.199 1.848 2.484 1.154 3.733-2.43 4.372-8.064 9.08-8.064 9.08l-6.938 11.12-1.793.512-2.225 5.087-4.768 5.59-6.314 3.32-3.694-3.684.784-4.734 9.507-12.63s6.84-8.58 7.647-14l.549-1.04Z" fill="#3F3D56"/><path d="M174.397 18.285c.174.02.349.036.522.044a7.179 7.179 0 0 0 1.586-.088 7.476 7.476 0 0 0 4.071-2.066 7.427 7.427 0 0 0 2.161-4.394c.501-4.089-2.419-7.814-6.52-8.313-4.042-.496-7.727 2.323-8.315 6.318-.01.062-.019.121-.026.183-.501 4.091 2.417 7.814 6.521 8.316Z" fill="#FFB6B6"/><path d="M166.216 9.512c1.062.524 2.798-1.122 3.463-.175a8.92 8.92 0 0 1 .345-.59c.106-.168.259-.525.435-.587-.223.538-.174 1.265.058 1.889 1.048.39 2.42-.474 3.39-1.496 1.523-1.603 4.009 2.507 3.421 4.634.749-.911 2.373-.397 2.923.644.55 1.04-.379 1.872-.578 3.031l1.5-.19c.946-.919.88-2.468 1.66-3.533 1.302-1.783 1.806-3.602.827-5.441-.868-1.627-.949-3.733-2.542-4.67.696-.34-1.778.19-1.117-.915.664-1.103-2.875-1.237-3.106-.646C175.884.26 174.864-.536 173.62.43c-1.222.952-1.095 1.951-2.53 1.862-.673-.042-.599 1.21-1 1.755-.398.543-1.944.892-2.02.834-.408-.32-1.798 2.394-1.798 2.394s-1.127 1.706-.056 2.236Z" fill="#2F2E41"/><path d="M72.586 56.864c25.137 0 45.515 20.318 45.515 45.38s-20.378 45.379-45.515 45.379-59.925-24.848-45.514-45.379c14.41-20.531 20.377-45.38 45.514-45.38Z" fill="#F2F2F2"/><path d="M133.502 59.023a.74.74 0 0 0-.74.738v23.612a.74.74 0 0 0 1.48 0V59.761a.74.74 0 0 0-.74-.738ZM9.17 41.314a.74.74 0 0 0-.74.738v5.903a.74.74 0 0 0 1.48 0v-5.903a.74.74 0 0 0-.74-.738Zm0 17.709a.74.74 0 0 0-.74.738v11.437a.74.74 0 0 0 1.48 0V59.761a.74.74 0 0 0-.74-.738Zm0 16.234a.74.74 0 0 0-.74.737v11.437a.74.74 0 0 0 1.48 0V75.994a.74.74 0 0 0-.74-.737Zm66.375-57.186a.74.74 0 0 0-.74.738v11.437a.74.74 0 0 0 1.48 0V18.81a.74.74 0 0 0-.74-.738Z" fill="#3F3D56"/><path d="M188.922 159.605c.765.048 1.187-.899.609-1.451l-.058-.228.023-.055c.773-1.838 3.393-1.825 4.16.016.68 1.633 1.547 3.27 1.76 4.997.095.763.052 1.54-.117 2.288a26.603 26.603 0 0 0 2.433-11.076 25.778 25.778 0 0 0-.528-5.199 26.95 26.95 0 0 0-5.366-11.434 7.192 7.192 0 0 1-2.995-3.097 5.463 5.463 0 0 1-.499-1.497c.146.019.549-2.195.44-2.33.203-.308.566-.461.788-.761 1.104-1.491 2.624-1.231 3.418.796 1.696.854 1.712 2.269.672 3.629-.662.866-.753 2.038-1.334 2.965l.182.226a27.155 27.155 0 0 1 2.842 4.49c-.226-1.759.107-3.877.676-5.243.647-1.556 1.859-2.866 2.927-4.211 1.282-1.616 3.912-.911 4.138 1.137l.007.06a7.618 7.618 0 0 0-.466.284c-.866.571-.567 1.909.459 2.067l.023.003c-.057.57-.155 1.134-.298 1.69 1.369 5.281-1.588 7.205-5.81 7.291-.094.048-.184.096-.278.141a26.86 26.86 0 0 1 1.023 3.682 26.147 26.147 0 0 1 .454 7.582l.008-.05c.303-1.554 1.149-3.005 2.378-4.01 1.83-1.499 4.415-2.051 6.389-3.256.951-.58 2.169.169 2.003 1.268l-.008.053a7.592 7.592 0 0 0-1.324.696c-.866.571-.567 1.909.459 2.067l.023.003a.928.928 0 0 0 .048.007 11.315 11.315 0 0 1-2.086 3.258c-.857 4.61-4.535 5.048-8.47 3.705h-.003a27.68 27.68 0 0 1-1.866 5.433h-6.669a9.475 9.475 0 0 1-.066-.224 7.605 7.605 0 0 0 1.845-.109c-.495-.606-.99-1.216-1.485-1.821-.012-.012-.021-.024-.031-.036-.251-.309-.504-.617-.755-.927-.016-.951.099-1.899.325-2.819Z" fill="#F2F2F2"/><path d="M0 165.561c0 .243.196.439.44.439h208.068a.439.439 0 1 0 0-.878H.44a.438.438 0 0 0-.44.439Z" fill="#CCC"/><path d="M52.684 99.185H27.07v-.738h25.614a4.034 4.034 0 0 0 4.036-4.024V77.156h.74v17.267c0 2.626-2.142 4.762-4.776 4.762Zm48.874 37.43H43.301v.738h58.257v-.738Z" fill="#6C63FF"/><path d="M138.522 94.25h-31.117a3.045 3.045 0 0 1-3.046-3.035V60.568a3.045 3.045 0 0 1 3.046-3.036h31.117a3.044 3.044 0 0 1 3.045 3.037v30.646a3.044 3.044 0 0 1-3.045 3.036Z" fill="#E6E6E6"/><path d="M113.199 58.437c-4.382 0-7.933 3.54-7.933 7.91v24.217a2.786 2.786 0 0 0 2.79 2.782h19.027c7.498 0 13.576-6.06 13.576-13.535V61.219a2.787 2.787 0 0 0-2.791-2.782h-24.669Z" fill="#fff"/><path d="M131.301 67.343h-16.734a.579.579 0 0 1-.579-.578c0-.318.26-.577.579-.577h16.734a.578.578 0 0 1 0 1.155Zm0 12.309h-16.734a.579.579 0 0 1-.579-.578c0-.318.26-.577.579-.577h16.734a.578.578 0 0 1 0 1.155Zm6.793-6.151H107.77a.579.579 0 0 1-.579-.577c0-.318.26-.577.579-.577h30.324c.319 0 .579.259.579.577 0 .318-.26.577-.579.577Zm.307 11.156h-10.955a.579.579 0 0 1-.579-.578c0-.318.26-.577.579-.577h10.955a.578.578 0 0 1 0 1.155Zm-65.242 70.655h-24.71a2.418 2.418 0 0 1-2.418-2.411v-24.335a2.417 2.417 0 0 1 2.419-2.411h24.709a2.417 2.417 0 0 1 2.418 2.411v24.335a2.418 2.418 0 0 1-2.418 2.411Z" fill="#E6E6E6"/><path d="M53.05 126.873c-3.48 0-6.3 2.812-6.3 6.281v19.23c0 1.22.992 2.209 2.216 2.209h15.108c5.954 0 10.78-4.812 10.78-10.748v-14.763c0-1.22-.992-2.209-2.215-2.209h-19.59Z" fill="#fff"/><path d="M67.419 133.945H54.132a.46.46 0 0 1-.46-.459.46.46 0 0 1 .46-.458h13.287a.46.46 0 0 1 0 .917Zm0 9.774H54.132a.46.46 0 0 1-.46-.458.46.46 0 0 1 .46-.459h13.287a.46.46 0 0 1 0 .917Zm5.397-4.884H48.737a.46.46 0 1 1 0-.917h24.079a.46.46 0 1 1 0 .917Zm.248 8.858h-8.698a.46.46 0 0 1-.46-.458.46.46 0 0 1 .46-.458h8.698a.46.46 0 1 1 0 .916ZM55.89 76.97H37.617c-.987 0-1.789-.8-1.789-1.783V57.19c0-.983.802-1.783 1.788-1.783H55.89c.986 0 1.788.8 1.788 1.783v17.997c0 .983-.802 1.783-1.788 1.783Z" fill="#E6E6E6"/><path d="M41.018 55.938a4.652 4.652 0 0 0-4.659 4.645v14.222c0 .902.734 1.633 1.639 1.633h11.174c4.403 0 7.972-3.558 7.972-7.948V57.572c0-.903-.734-1.634-1.639-1.634H41.018Z" fill="#fff"/><path d="M51.651 61.168h-9.827a.34.34 0 0 1-.34-.34.34.34 0 0 1 .34-.338h9.827a.34.34 0 1 1 0 .678Zm0 7.228h-9.827a.34.34 0 0 1-.34-.339.34.34 0 0 1 .34-.338h9.827a.34.34 0 1 1 0 .677Zm3.989-3.612H37.831a.34.34 0 0 1-.34-.339.34.34 0 0 1 .34-.338H55.64a.34.34 0 1 1 0 .677Zm.18 6.551h-6.433a.34.34 0 0 1-.34-.338.34.34 0 0 1 .34-.34h6.433a.34.34 0 0 1 .34.34.34.34 0 0 1-.34.338Z" fill="#E6E6E6"/><path d="M109.22 99.661c2.044 0 3.7-1.652 3.7-3.69a3.694 3.694 0 0 0-3.7-3.689 3.694 3.694 0 0 0-3.7 3.69 3.694 3.694 0 0 0 3.7 3.69ZM57.044 80.845c2.044 0 3.7-1.651 3.7-3.689a3.695 3.695 0 0 0-3.7-3.69 3.695 3.695 0 0 0-3.7 3.69 3.695 3.695 0 0 0 3.7 3.69Zm17.762 50.545c2.044 0 3.7-1.652 3.7-3.69a3.695 3.695 0 0 0-3.7-3.689 3.695 3.695 0 0 0-3.7 3.689 3.695 3.695 0 0 0 3.7 3.69Z" fill="#6C63FF"/><path d="M82.8 29.092c2.546 0 4.611-2.016 4.611-4.502 0-2.486-2.065-4.5-4.612-4.5s-4.612 2.014-4.612 4.5 2.065 4.502 4.612 4.502Zm36.971-6.042H94.947c-.852 0-1.545-.69-1.545-1.54 0-.849.693-1.54 1.545-1.54h24.824c.851 0 1.544.692 1.544 1.54 0 .85-.693 1.54-1.544 1.54Zm19.372 5.213H94.947a1.544 1.544 0 0 1-1.545-1.54c0-.85.693-1.54 1.545-1.54h44.196c.852 0 1.545.69 1.545 1.54 0 .849-.693 1.54-1.545 1.54ZM16.043 48.01c1.649 0 2.985-1.304 2.985-2.913 0-1.61-1.336-2.913-2.985-2.913-1.648 0-2.984 1.304-2.984 2.913 0 1.609 1.336 2.913 2.984 2.913Zm23.928-3.91H23.906a1 1 0 0 1-1-.997 1 1 0 0 1 1-.996H39.97a1 1 0 0 1 1 .996 1 1 0 0 1-1 .997Zm12.539 3.373H23.905a1 1 0 0 1-1-.996 1 1 0 0 1 1-.997h28.603a1 1 0 0 1 1 .997 1 1 0 0 1-1 .996Zm53.084 104.208c1.649 0 2.985-1.304 2.985-2.913 0-1.609-1.336-2.913-2.985-2.913-1.648 0-2.985 1.304-2.985 2.913 0 1.609 1.337 2.913 2.985 2.913Zm23.928-3.909h-16.065a1 1 0 0 1-1-.997 1 1 0 0 1 1-.997h16.065a1 1 0 0 1 1 .997 1 1 0 0 1-1 .997Zm12.538 3.373h-28.603a1 1 0 0 1-1-.997.999.999 0 0 1 1-.996h28.603c.551 0 .999.447.999.996 0 .55-.448.997-.999.997Z" fill="#F2F2F2"/><path d="M69.717 57.543h-.74v35.05h.74v-35.05Z" fill="#E6E6E6"/><path d="M69.345 94.806c1.226 0 2.22-.991 2.22-2.214a2.217 2.217 0 0 0-2.22-2.213c-1.226 0-2.22.99-2.22 2.213s.994 2.214 2.22 2.214Zm33.676 25.457c1.226 0 2.22-.991 2.22-2.214a2.218 2.218 0 0 0-2.22-2.214c-1.226 0-2.22.992-2.22 2.214 0 1.223.994 2.214 2.22 2.214ZM43.076 90.01c1.226 0 2.22-.991 2.22-2.214a2.217 2.217 0 0 0-2.22-2.214c-1.227 0-2.22.992-2.22 2.214 0 1.223.993 2.214 2.22 2.214Z" fill="#E6E6E6"/><path d="m42.255 87.8-12.142.366.023.738 12.142-.367-.023-.738Zm78.828 38.723h-18.411v-8.474h.74v7.737h17.671v.737Zm-78.921-12.342c1.226 0 2.22-.991 2.22-2.214a2.217 2.217 0 0 0-2.22-2.213c-1.227 0-2.22.991-2.22 2.213 0 1.223.993 2.214 2.22 2.214Z" fill="#E6E6E6"/><path d="M60.005 120.442H41.594v-8.475h.74v7.737h17.671v.738Zm56.337-16.898H27.91v.738h88.432v-.738Z" fill="#E6E6E6"/></g><defs><clipPath id="a"><path fill="#fff" d="M0 0h209v166H0z"/></clipPath></defs></svg>