<?xml version="1.0" encoding="utf-8"?>
<!-- Generator: Adobe Illustrator 24.1.0, SVG Export Plug-In . SVG Version: 6.00 Build 0)  -->
<svg version="1.1" id="Layer_1" xmlns="http://www.w3.org/2000/svg" xmlns:xlink="http://www.w3.org/1999/xlink" x="0px" y="0px"
	 viewBox="0 0 274.8 63" style="enable-background:new 0 0 274.8 63;" xml:space="preserve">
<style type="text/css">
	.st0{fill:url(#SVGID_1_);}
	.st1{fill:#EC411B;}
	.st2{fill:#005A93;}
	.st3{fill:#00598E;}
</style>
<g transform="translate(-143.77 -39)">
	<g transform="translate(134.333 22.441)">
		<g transform="translate(9.437 16.559)">
			
				<radialGradient id="SVGID_1_" cx="-290.1288" cy="-657.9496" r="1.403" gradientTransform="matrix(38.52 0 0 38.52 11218.4795 25394.7168)" gradientUnits="userSpaceOnUse">
				<stop  offset="0.46" style="stop-color:#00487D"/>
				<stop  offset="0.552" style="stop-color:#004B81"/>
				<stop  offset="0.658" style="stop-color:#00568F"/>
				<stop  offset="0.771" style="stop-color:#0069A6"/>
				<stop  offset="0.887" style="stop-color:#0082C6"/>
				<stop  offset="1" style="stop-color:#00A1ED"/>
			</radialGradient>
			<path class="st0" d="M0,38.5h38.5V0C17.2,0,0,17.2,0,38.5z M34.4,34.1h-8.9v-8.9h8.9V34.1z"/>
			<rect x="25.5" y="25.1" class="st1" width="8.9" height="8.9"/>
			<g transform="translate(48.958 9.274)">
				<path class="st2" d="M38.9,2.6c1.8,1.8,2.7,4.4,2.7,7.9v18.7h-4.1V10.5c0-4.5-2.6-6.8-7.7-6.8c-2.5,0-4.9,0.7-7,2
					c0.5,1.6,0.8,3.2,0.7,4.8v18.7h-4.1V10.5c0-4.5-2.6-6.8-7.7-6.8c-2.6,0-5.1,0.4-7.5,1.2v24.4H0.1V2.9C3.9,1,8,0,12.2,0.1
					c3.7,0,6.5,0.8,8.4,2.4c3-1.6,6.3-2.4,9.7-2.4C34.3,0,37.2,0.9,38.9,2.6z"/>
				<path class="st2" d="M70.7,2.4c1.9,1.7,3,4.3,2.8,6.9v13.9c0,2.8-1.1,4.6-3.4,5.6c-3,1.1-6.2,1.5-9.4,1.4
					c-2.7,0.1-5.4-0.6-7.8-2c-2.2-1.3-3.3-3.6-3.3-6.7c0-3.4,0.9-5.9,2.8-7.5s4.5-2.3,7.8-2.3c3.1-0.1,6.3,0.6,9,2v-3.4
					c0-4.3-2.5-6.4-7.5-6.4c-1.7,0-3.4,0.2-5,0.7c-1.5,0.4-3,1.1-4.3,2.1V2.6c1.5-0.8,3-1.4,4.7-1.7C59,0.5,61,0.3,63,0.3
					C65.8-0.2,68.5,0.7,70.7,2.4z M67.5,25.8c1.1-0.3,1.9-1.3,1.8-2.4V17c-1.2-0.5-2.4-0.9-3.6-1.2c-1.4-0.3-2.9-0.4-4.3-0.4
					c-2-0.1-3.9,0.4-5.6,1.4c-1.3,0.9-2,2.4-2,4c-0.1,1.8,0.8,3.5,2.3,4.3c1.7,0.9,3.6,1.4,5.6,1.4C63.7,26.5,65.6,26.3,67.5,25.8
					L67.5,25.8z"/>
				<path class="st2" d="M82.7,2.8c1.9-0.8,3.8-1.4,5.8-1.9c2.4-0.6,4.9-1,7.5-1c0.6,0,1.2,0.2,1.8,0.3v3.7C96.9,3.8,96,3.7,95,3.7
					c-1.2,0-2.3,0.1-3.5,0.2c-1.1,0.2-2.6,0.4-4.7,0.7V29h-4.1C82.7,29,82.7,2.8,82.7,2.8z"/>
				<path class="st2" d="M123.2,4.3c2,2.8,3,6.6,2.9,11.3h-21c0,3.5,0.8,6.1,2.4,7.9c1.8,1.9,4.3,2.9,6.9,2.8
					c3.4,0.1,6.9-0.8,9.8-2.5v4.3c-3.2,1.4-6.6,2.1-10.1,2c-4.2,0-7.4-1.3-9.8-3.9c-2.3-2.6-3.5-6.4-3.5-11.4
					c0-4.9,1.1-8.6,3.3-11.1c2.2-2.5,5.3-3.8,9.3-3.8C118,0,121.2,1.4,123.2,4.3z M107.8,5.6c-1.3,1.2-2.1,3.3-2.5,6.2h16.4
					c0-2.2-0.8-4.4-2.3-6c-1.3-1.3-3.3-2-5.9-2C111.5,3.7,109.5,4.3,107.8,5.6L107.8,5.6z"/>
				<path class="st2" d="M153.8,2.4c1.9,1.7,3,4.3,2.8,6.9v13.9c0,2.8-1.1,4.6-3.4,5.6c-3,1.1-6.2,1.5-9.4,1.4
					c-2.7,0.1-5.4-0.6-7.8-2c-2.2-1.3-3.3-3.6-3.3-6.7c0-3.4,0.9-5.9,2.8-7.5s4.5-2.3,7.8-2.3c3.1-0.1,6.3,0.6,9,2v-3.4
					c0-4.3-2.5-6.4-7.5-6.4c-1.7,0-3.4,0.2-5,0.7c-1.5,0.4-3,1.1-4.3,2.1V2.6c1.5-0.8,3-1.4,4.7-1.7c1.9-0.4,3.9-0.6,5.9-0.6
					C148.9-0.2,151.6,0.7,153.8,2.4z M150.6,25.8c1.1-0.3,1.9-1.3,1.8-2.4V17c-1.2-0.5-2.4-0.9-3.6-1.2c-1.4-0.3-2.9-0.4-4.3-0.4
					c-2-0.1-3.9,0.4-5.6,1.4c-1.3,0.9-2,2.4-2,4c-0.1,1.8,0.8,3.5,2.3,4.3c1.7,0.9,3.6,1.4,5.6,1.4
					C146.7,26.5,148.7,26.3,150.6,25.8L150.6,25.8z"/>
				<path class="st2" d="M178,0c4,0,6.9,0.9,8.7,2.6c1.8,1.8,2.7,4.4,2.7,7.9v18.7h-4.1V10.5c0-4.5-2.6-6.8-7.7-6.8
					c-2.6,0-5.1,0.4-7.5,1.2v24.4H166V2.9C169.6,0.9,173.7,0,178,0z"/>
				<path class="st2" d="M218.5,2.4c1.9,1.7,3,4.3,2.8,6.9v13.9c0,2.8-1.1,4.6-3.4,5.6c-3,1.1-6.2,1.5-9.4,1.4
					c-2.7,0.1-5.4-0.6-7.8-2c-2.2-1.3-3.3-3.6-3.3-6.7c0-3.4,0.9-5.9,2.8-7.5c1.9-1.6,4.5-2.3,7.8-2.3c3.1-0.1,6.3,0.6,9,2v-3.4
					c0-4.3-2.5-6.4-7.5-6.4c-1.7,0-3.4,0.2-5,0.7c-1.5,0.4-3,1.1-4.3,2.1V2.6c1.5-0.8,3-1.4,4.7-1.7c1.9-0.4,3.9-0.6,5.9-0.6
					C213.6-0.2,216.3,0.7,218.5,2.4z M215.3,25.8c1.1-0.3,1.9-1.3,1.8-2.4V17c-1.2-0.5-2.4-0.9-3.6-1.2c-1.4-0.3-2.9-0.4-4.3-0.4
					c-2-0.1-3.9,0.4-5.6,1.4c-1.3,0.9-2,2.4-2,4c-0.1,1.8,0.8,3.5,2.3,4.3c1.7,0.9,3.6,1.4,5.6,1.4
					C211.4,26.5,213.4,26.3,215.3,25.8L215.3,25.8z"/>
			</g>
			<g>
				<path class="st3" d="M128.3,59.3h-4.9v-8.8h1v8h3.9V59.3z"/>
				<path class="st3" d="M129.4,51.4v-1.1h1v1.1H129.4z M129.4,59.3v-6.4h1v6.4H129.4z"/>
				<path class="st3" d="M134.3,59.4c-0.9,0-1.5-0.3-1.8-0.8c-0.4-0.5-0.6-1.4-0.6-2.6c0-1.2,0.2-2.1,0.7-2.6
					c0.4-0.5,1.2-0.8,2.3-0.8l2.1,0.1v9.2h-0.9V59C135.5,59.2,134.9,59.4,134.3,59.4z M134.9,53.6c-0.8,0-1.3,0.2-1.6,0.6
					c-0.3,0.4-0.4,1-0.4,1.9c0,0.9,0.1,1.5,0.4,1.9c0.2,0.4,0.6,0.6,1.2,0.6c0.5,0,1-0.1,1.5-0.3l0.2-0.1v-4.5
					C135.6,53.6,135.2,53.6,134.9,53.6z"/>
				<path class="st3" d="M142.9,52.9h1v6.4h-1v-0.4c-0.6,0.4-1.3,0.6-1.9,0.6c-0.9,0-1.4-0.2-1.7-0.7c-0.3-0.5-0.4-1.3-0.4-2.5v-3.3
					h1v3.3c0,0.9,0.1,1.6,0.2,1.9c0.2,0.3,0.5,0.5,1.1,0.5c0.3,0,0.6,0,0.9-0.1c0.3-0.1,0.5-0.2,0.7-0.2l0.2-0.1V52.9z"/>
				<path class="st3" d="M145.7,51.4v-1.1h1v1.1H145.7z M145.7,59.3v-6.4h1v6.4H145.7z"/>
				<path class="st3" d="M153.4,50.1v9.2h-0.9v-0.4c-0.7,0.4-1.3,0.6-1.9,0.6c-0.3,0-0.6,0-0.9-0.1c-0.3-0.1-0.5-0.2-0.7-0.5
					c-0.5-0.5-0.7-1.3-0.7-2.5s0.2-2.1,0.6-2.7c0.4-0.5,1.1-0.8,2-0.8c0.5,0,1,0.1,1.6,0.2v-2.8H153.4z M150.1,58.4
					c0.2,0.1,0.4,0.1,0.6,0.1c0.2,0,0.5,0,0.8-0.1c0.3-0.1,0.5-0.2,0.7-0.2l0.3-0.1v-4.3c-0.5-0.1-1.1-0.2-1.5-0.2
					c-0.6,0-1.1,0.2-1.4,0.6c-0.3,0.4-0.4,1.1-0.4,1.9c0,1,0.1,1.7,0.4,2C149.8,58.3,149.9,58.4,150.1,58.4z"/>
				<path class="st3" d="M161.4,59.3h-3.2v-8.8h3.2c1.4,0,2.4,0.6,2.9,1.7c0.3,0.7,0.4,1.5,0.4,2.6c0,2.2-0.6,3.6-1.7,4.2
					C162.5,59.1,162,59.3,161.4,59.3z M163.6,54.7c0-1.7-0.4-2.8-1.1-3.2c-0.3-0.2-0.7-0.3-1.1-0.3h-2.2v7.1h2.2
					C162.9,58.4,163.6,57.2,163.6,54.7z"/>
				<path class="st3" d="M170.8,54.8v3.3c0,0.3,0.3,0.5,0.7,0.6l0,0.8c-0.7,0-1.2-0.2-1.5-0.5c-0.8,0.3-1.5,0.5-2.3,0.5
					c-0.6,0-1-0.2-1.3-0.5c-0.3-0.3-0.5-0.8-0.5-1.4s0.2-1.1,0.5-1.4s0.8-0.5,1.5-0.5l2-0.2v-0.5c0-0.4-0.1-0.7-0.3-0.9
					c-0.2-0.2-0.4-0.3-0.8-0.3c-0.7,0-1.4,0-2.1,0.1l-0.4,0l0-0.7c0.9-0.2,1.8-0.3,2.5-0.3c0.7,0,1.2,0.2,1.6,0.5
					C170.6,53.6,170.8,54.1,170.8,54.8z M166.8,57.4c0,0.8,0.3,1.2,1,1.2c0.6,0,1.1-0.1,1.7-0.3l0.3-0.1v-2.1l-1.9,0.2
					c-0.4,0-0.7,0.1-0.8,0.3C166.9,56.8,166.8,57,166.8,57.4z"/>
				<path class="st3" d="M176,53.7h-2v3.1c0,0.7,0.1,1.2,0.2,1.4s0.4,0.3,0.8,0.3l1.1-0.1l0.1,0.8c-0.6,0.1-1,0.1-1.3,0.1
					c-0.7,0-1.1-0.2-1.4-0.5S173,58,173,57.1v-3.4h-0.9v-0.8h0.9v-2h0.9v2h2V53.7z"/>
				<path class="st3" d="M181.7,54.8v3.3c0,0.3,0.3,0.5,0.7,0.6l0,0.8c-0.7,0-1.2-0.2-1.5-0.5c-0.8,0.3-1.5,0.5-2.3,0.5
					c-0.6,0-1-0.2-1.3-0.5c-0.3-0.3-0.5-0.8-0.5-1.4s0.2-1.1,0.5-1.4s0.8-0.5,1.5-0.5l2-0.2v-0.5c0-0.4-0.1-0.7-0.3-0.9
					c-0.2-0.2-0.4-0.3-0.8-0.3c-0.7,0-1.4,0-2.1,0.1l-0.4,0l0-0.7c0.9-0.2,1.8-0.3,2.5-0.3c0.7,0,1.2,0.2,1.6,0.5
					C181.5,53.6,181.7,54.1,181.7,54.8z M177.7,57.4c0,0.8,0.3,1.2,1,1.2c0.6,0,1.1-0.1,1.7-0.3l0.3-0.1v-2.1l-1.9,0.2
					c-0.4,0-0.7,0.1-0.8,0.3C177.8,56.8,177.7,57,177.7,57.4z"/>
				<path class="st3" d="M183.5,59.3v-1.5h1v1.5H183.5z"/>
				<path class="st3" d="M192.4,59.3h-3.2v-8.8h3.2c1.4,0,2.4,0.6,2.9,1.7c0.3,0.7,0.4,1.5,0.4,2.6c0,2.2-0.6,3.6-1.7,4.2
					C193.6,59.1,193.1,59.3,192.4,59.3z M194.7,54.7c0-1.7-0.4-2.8-1.1-3.2c-0.3-0.2-0.7-0.3-1.1-0.3h-2.2v7.1h2.2
					C194,58.4,194.7,57.2,194.7,54.7z"/>
				<path class="st3" d="M201.7,58.5l0.4,0l0,0.8c-1,0.1-1.8,0.2-2.5,0.2c-0.9,0-1.6-0.3-2-0.8c-0.4-0.5-0.6-1.4-0.6-2.5
					c0-2.2,0.9-3.4,2.7-3.4c0.9,0,1.5,0.2,1.9,0.7c0.4,0.5,0.6,1.2,0.6,2.3l-0.1,0.7h-4.2c0,0.7,0.1,1.2,0.4,1.6
					c0.3,0.3,0.7,0.5,1.3,0.5C200.4,58.5,201.1,58.5,201.7,58.5z M201.4,55.7c0-0.8-0.1-1.3-0.4-1.7s-0.7-0.5-1.2-0.5
					c-0.6,0-1,0.2-1.3,0.5c-0.3,0.3-0.4,0.9-0.4,1.6H201.4z"/>
				<path class="st3" d="M208.2,58.5l0.4,0l0,0.8c-1,0.1-1.8,0.2-2.5,0.2c-0.9,0-1.6-0.3-2-0.8c-0.4-0.5-0.6-1.4-0.6-2.5
					c0-2.2,0.9-3.4,2.7-3.4c0.9,0,1.5,0.2,1.9,0.7c0.4,0.5,0.6,1.2,0.6,2.3l-0.1,0.7h-4.2c0,0.7,0.1,1.2,0.4,1.6
					c0.3,0.3,0.7,0.5,1.3,0.5C206.9,58.5,207.5,58.5,208.2,58.5z M207.8,55.7c0-0.8-0.1-1.3-0.4-1.7s-0.7-0.5-1.2-0.5
					s-1,0.2-1.3,0.5c-0.3,0.3-0.4,0.9-0.4,1.6H207.8z"/>
				<path class="st3" d="M210.3,62.1v-9.2h0.9v0.5c0.6-0.4,1.3-0.6,1.9-0.6c0.8,0,1.4,0.3,1.8,0.8s0.5,1.4,0.5,2.5
					c0,1.2-0.2,2-0.6,2.5c-0.4,0.5-1.1,0.8-2.1,0.8c-0.5,0-1,0-1.4-0.1v2.8H210.3z M213,53.6c-0.3,0-0.5,0-0.8,0.1
					c-0.3,0.1-0.5,0.2-0.7,0.3l-0.2,0.1v4.3c0.6,0.1,1.1,0.1,1.4,0.1c0.7,0,1.2-0.2,1.5-0.6c0.3-0.4,0.4-1,0.4-1.9
					c0-0.9-0.1-1.5-0.4-1.9C213.8,53.8,213.5,53.6,213,53.6z"/>
				<path class="st3" d="M220,59.3v-8.8h1v8.8H220z"/>
				<path class="st3" d="M223.9,59.3h-1v-6.4h0.9v0.4c0.7-0.4,1.3-0.6,2-0.6c0.9,0,1.4,0.2,1.7,0.7c0.3,0.5,0.4,1.3,0.4,2.5v3.4
					h-0.9v-3.3c0-0.9-0.1-1.5-0.3-1.8c-0.2-0.3-0.5-0.5-1.1-0.5c-0.3,0-0.6,0-0.9,0.1c-0.3,0.1-0.5,0.2-0.7,0.2l-0.2,0.1V59.3z"/>
				<path class="st3" d="M231.8,53.6c-0.9,0-1.4,0.3-1.4,1c0,0.3,0.1,0.5,0.3,0.6c0.2,0.1,0.7,0.3,1.5,0.4c0.8,0.1,1.3,0.3,1.6,0.6
					s0.5,0.7,0.5,1.3c0,0.7-0.2,1.1-0.6,1.4c-0.4,0.3-1,0.5-1.8,0.5c-0.5,0-1.1-0.1-1.9-0.2l-0.4-0.1l0.1-0.8c1,0.1,1.7,0.2,2.2,0.2
					c0.5,0,0.9-0.1,1.1-0.2c0.3-0.2,0.4-0.4,0.4-0.8s-0.1-0.6-0.3-0.8c-0.2-0.1-0.7-0.3-1.5-0.4c-0.7-0.1-1.3-0.3-1.6-0.5
					s-0.5-0.7-0.5-1.3c0-0.6,0.2-1.1,0.7-1.4c0.4-0.3,1-0.4,1.6-0.4c0.5,0,1.2,0.1,2,0.2l0.4,0.1l0,0.8
					C233.1,53.7,232.4,53.6,231.8,53.6z"/>
				<path class="st3" d="M235.7,51.4v-1.1h1v1.1H235.7z M235.7,59.3v-6.4h1v6.4H235.7z"/>
				<path class="st3" d="M241,62.3c-1,0-1.7-0.1-2.1-0.4c-0.4-0.3-0.6-0.8-0.6-1.5c0-0.3,0.1-0.6,0.2-0.8c0.2-0.2,0.4-0.5,0.8-0.7
					c-0.2-0.2-0.4-0.5-0.4-0.9c0-0.1,0.1-0.4,0.3-0.8l0.1-0.2c-0.7-0.3-1-0.9-1-1.9c0-1.5,0.8-2.2,2.4-2.2c0.4,0,0.8,0,1.1,0.1
					l0.2,0l1.9-0.1v0.8l-1.2,0c0.3,0.3,0.4,0.7,0.4,1.3c0,0.8-0.2,1.4-0.6,1.7c-0.4,0.3-1,0.5-1.9,0.5c-0.2,0-0.4,0-0.6-0.1
					c-0.2,0.4-0.2,0.6-0.2,0.7c0,0.3,0.1,0.4,0.2,0.5c0.2,0.1,0.7,0.1,1.5,0.1c0.8,0,1.4,0.1,1.8,0.4c0.4,0.3,0.5,0.8,0.5,1.5
					C243.8,61.6,242.9,62.3,241,62.3z M239.2,60.3c0,0.5,0.1,0.8,0.4,0.9c0.3,0.2,0.7,0.3,1.4,0.3c0.7,0,1.2-0.1,1.5-0.3
					c0.3-0.2,0.4-0.5,0.4-0.9c0-0.4-0.1-0.7-0.3-0.8c-0.2-0.1-0.6-0.2-1.3-0.2l-1.4-0.1c-0.3,0.2-0.5,0.4-0.6,0.5
					C239.3,59.8,239.2,60,239.2,60.3z M239.3,54.9c0,0.5,0.1,0.9,0.3,1.1c0.2,0.2,0.6,0.3,1.1,0.3c0.5,0,0.9-0.1,1.1-0.3
					c0.2-0.2,0.3-0.6,0.3-1.1c0-0.5-0.1-0.9-0.3-1.1c-0.2-0.2-0.6-0.3-1.1-0.3c-0.5,0-0.9,0.1-1.1,0.3
					C239.4,54.1,239.3,54.4,239.3,54.9z"/>
				<path class="st3" d="M246.1,59.3h-1v-9.2h1v3.1c0.7-0.3,1.3-0.5,2-0.5c0.9,0,1.4,0.2,1.7,0.7c0.3,0.5,0.4,1.3,0.4,2.5v3.4h-1
					v-3.3c0-0.9-0.1-1.5-0.3-1.8c-0.2-0.3-0.5-0.5-1.1-0.5c-0.5,0-1.1,0.1-1.6,0.3l-0.2,0.1V59.3z"/>
				<path class="st3" d="M255.2,53.7h-2v3.1c0,0.7,0.1,1.2,0.2,1.4s0.4,0.3,0.8,0.3l1.1-0.1l0.1,0.8c-0.6,0.1-1,0.1-1.3,0.1
					c-0.7,0-1.1-0.2-1.4-0.5s-0.4-0.9-0.4-1.9v-3.4h-0.9v-0.8h0.9v-2h0.9v2h2V53.7z"/>
				<path class="st3" d="M258.4,53.6c-0.9,0-1.4,0.3-1.4,1c0,0.3,0.1,0.5,0.3,0.6c0.2,0.1,0.7,0.3,1.5,0.4c0.8,0.1,1.3,0.3,1.6,0.6
					s0.5,0.7,0.5,1.3c0,0.7-0.2,1.1-0.6,1.4c-0.4,0.3-1,0.5-1.8,0.5c-0.5,0-1.1-0.1-1.9-0.2l-0.4-0.1l0.1-0.8c1,0.1,1.7,0.2,2.2,0.2
					c0.5,0,0.9-0.1,1.1-0.2s0.4-0.4,0.4-0.8s-0.1-0.6-0.3-0.8c-0.2-0.1-0.7-0.3-1.5-0.4c-0.7-0.1-1.3-0.3-1.6-0.5s-0.5-0.7-0.5-1.3
					c0-0.6,0.2-1.1,0.7-1.4c0.4-0.3,1-0.4,1.6-0.4c0.5,0,1.2,0.1,2,0.2l0.4,0.1l0,0.8C259.7,53.7,259,53.6,258.4,53.6z"/>
				<path class="st3" d="M262.3,59.3v-1.5h1v1.5H262.3z"/>
			</g>
		</g>
		<g transform="translate(279.186 26.097)">
			<path class="st2" d="M2,0v0.4H1.2v2H0.7v-2h-0.8V0H2z M4.6,2.4L4.5,1c0-0.2,0-0.4,0-0.7l0,0C4.4,0.5,4.4,0.8,4.3,1L3.9,2.3H3.4
				L3,0.9c0-0.2-0.1-0.5-0.2-0.7l0,0c0,0.2,0,0.4,0,0.7L2.7,2.3H2.2l0.2-2.4h0.7l0.4,1.2c0.1,0.2,0.1,0.4,0.2,0.6l0,0
				c0.1-0.2,0.1-0.4,0.2-0.6l0.4-1.2H5l0.2,2.4L4.6,2.4z"/>
		</g>
	</g>
</g>
</svg>
