<svg width="22" height="22" fill="none" xmlns="http://www.w3.org/2000/svg"><path d="M15.382 7.273h-1.1a.746.746 0 0 0-.606.312l-3.685 5.11-1.668-2.316a.75.75 0 0 0-.608-.312H6.616a.188.188 0 0 0-.152.298l2.92 4.05a.745.745 0 0 0 1.212 0l4.936-6.844a.187.187 0 0 0-.15-.298Z" fill="#00A811"/><path d="M11 .5C5.202.5.5 5.202.5 11S5.202 21.5 11 21.5 21.5 16.798 21.5 11 16.798.5 11 .5Zm0 19.219A8.72 8.72 0 0 1 2.281 11 8.72 8.72 0 0 1 11 2.281 8.72 8.72 0 0 1 19.719 11 8.72 8.72 0 0 1 11 19.719Z" fill="#00A811"/></svg>